<svg width="132" height="129" viewBox="0 0 132 129" fill="none" xmlns="http://www.w3.org/2000/svg">
<path d="M101.89 95.42C83.3198 116.4 67.5598 117.7 55.4598 101.99C38.7798 80.31 8.14976 91.02 5.97976 63.82C3.79976 36.62 54.7898 -5.45 88.5998 0.579998C122.41 6.61 136.26 56.59 101.89 95.42Z" fill="#E1F3FF"/>
<path d="M24.73 89.41C16.2 83.77 6.54003 91.04 6.07003 97.05C5.60003 103.06 24.75 104.73 27.73 102.35C30.7 99.98 27.08 90.97 24.73 89.41Z" fill="#E1F3FF"/>
<path d="M84.5 15.66L95.47 22.09L93.12 25.9L82.79 19L84.5 15.66Z" fill="#FF1D9C"/>
<path d="M0 52.47L10.84 44.02L13.48 47.67L3.54 55.53L0 52.47Z" fill="#A74AFF"/>
<path d="M42.4298 23.45L41.7398 31.59L39.0898 31.27L39.6598 23.76L42.4298 23.45Z" fill="#4F31E0"/>
<path d="M123.77 54.31L129.45 60.55L131.68 57.97L126.31 52.07L123.77 54.31Z" fill="#6877FF"/>
<path d="M76.1901 97.87C76.1901 98.64 75.5601 99.27 74.7901 99.27C74.0201 99.27 73.3901 98.64 73.3901 97.87C73.3901 97.1 74.0201 96.47 74.7901 96.47C75.5601 96.46 76.1901 97.09 76.1901 97.87Z" fill="url(#paint0_linear_1339_4021)"/>
<path d="M53.8601 108.71C53.8601 108.71 44.0401 95.96 47.1601 79.79C47.1601 79.79 71.3601 92.32 72.3701 107.56L89.1301 107.97C89.1301 107.97 108.27 91.01 127.72 90.07C127.72 90.07 124.73 108.7 107.3 110.97L53.8601 108.71Z" fill="url(#paint1_linear_1339_4021)"/>
<path d="M94.1401 105.05C94.1401 105.05 95.2401 74.58 127.73 68.64C127.73 68.64 131.1 97.81 98.0901 105.24L94.1401 105.05Z" fill="url(#paint2_radial_1339_4021)"/>
<path d="M39.4601 108.67C39.4601 108.67 19.6201 99.23 18.5801 64.97C18.5801 64.97 45.3101 68.17 53.8601 108.72L39.4601 108.67Z" fill="url(#paint3_linear_1339_4021)"/>
<path d="M127.72 68.63L94.1299 105.04L99.0699 104C99.0699 104 127.07 97.87 127.72 68.63Z" fill="#BDE0FF"/>
<path d="M20.2003 67.03L47.1603 108.68L40.3503 107.93C40.3503 107.93 19.3103 94.35 20.2003 67.03Z" fill="#BDE0FF"/>
<path d="M49.5599 106.54C49.5599 106.54 35.7499 89.76 19.6499 98.99C19.6599 98.99 30.0399 117.67 49.5599 106.54Z" fill="url(#paint4_radial_1339_4021)"/>
<path d="M19.6602 98.99L48.2602 105.6C48.2602 105.6 34.1602 117.2 19.6602 98.99Z" fill="#BDE0FF"/>
<path d="M74.7899 111.11C94.7605 111.11 110.95 94.9206 110.95 74.95C110.95 54.9794 94.7605 38.79 74.7899 38.79C54.8193 38.79 38.6299 54.9794 38.6299 74.95C38.6299 94.9206 54.8193 111.11 74.7899 111.11Z" fill="url(#paint5_linear_1339_4021)"/>
<path d="M73.9097 41.65V38.79C73.9097 38.79 89.8297 37.32 101.69 50.8L99.3797 52.49C99.3897 52.48 89.9397 41.22 73.9097 41.65Z" fill="white"/>
<path d="M101.7 55.31L104.13 53.81C104.13 53.81 106.91 57.61 108.1 60.85L105.27 61.49C105.27 61.5 103.97 58.45 101.7 55.31Z" fill="white"/>
<path d="M74.7897 107.98C93.7772 107.98 109.17 92.5875 109.17 73.6C109.17 54.6124 93.7772 39.22 74.7897 39.22C55.8021 39.22 40.4097 54.6124 40.4097 73.6C40.4097 92.5875 55.8021 107.98 74.7897 107.98Z" fill="url(#paint6_radial_1339_4021)"/>
<path d="M74.7901 100.06C89.4035 100.06 101.25 88.2134 101.25 73.6C101.25 58.9865 89.4035 47.14 74.7901 47.14C60.1766 47.14 48.3301 58.9865 48.3301 73.6C48.3301 88.2134 60.1766 100.06 74.7901 100.06Z" fill="url(#paint7_linear_1339_4021)"/>
<path d="M74.7897 99.02C87.9451 99.02 98.6097 88.3554 98.6097 75.2C98.6097 62.0445 87.9451 51.38 74.7897 51.38C61.6343 51.38 50.9697 62.0445 50.9697 75.2C50.9697 88.3554 61.6343 99.02 74.7897 99.02Z" fill="url(#paint8_linear_1339_4021)"/>
<path d="M73.0801 73.6L74.4801 51.64H75.7901L77.0401 73.6H73.0801Z" fill="url(#paint9_linear_1339_4021)"/>
<path d="M75.0601 74.92L74.8301 71.62L89.1301 72.34V73.6L75.0601 74.92Z" fill="url(#paint10_linear_1339_4021)"/>
<path d="M77.7297 72.96C77.7297 74.29 76.6497 75.37 75.3197 75.37C73.9897 75.37 72.9097 74.29 72.9097 72.96C72.9097 71.63 73.9897 70.55 75.3197 70.55C76.6497 70.55 77.7297 71.63 77.7297 72.96Z" fill="url(#paint11_linear_1339_4021)"/>
<path d="M53.7301 74.36C54.5033 74.36 55.1301 73.7332 55.1301 72.96C55.1301 72.1868 54.5033 71.56 53.7301 71.56C52.9569 71.56 52.3301 72.1868 52.3301 72.96C52.3301 73.7332 52.9569 74.36 53.7301 74.36Z" fill="url(#paint12_linear_1339_4021)"/>
<path d="M95.7701 74.36C96.5433 74.36 97.1701 73.7332 97.1701 72.96C97.1701 72.1868 96.5433 71.56 95.7701 71.56C94.9969 71.56 94.3701 72.1868 94.3701 72.96C94.3701 73.7332 94.9969 74.36 95.7701 74.36Z" fill="url(#paint13_linear_1339_4021)"/>
<path d="M75.3199 53.04C76.0931 53.04 76.7199 52.4132 76.7199 51.64C76.7199 50.8668 76.0931 50.24 75.3199 50.24C74.5467 50.24 73.9199 50.8668 73.9199 51.64C73.9199 52.4132 74.5467 53.04 75.3199 53.04Z" fill="url(#paint14_linear_1339_4021)"/>
<path opacity="0.73" d="M68.79 48.84L71.78 57.25C71.78 57.25 84.5 57.44 90.84 65.2L97.18 62.08C95.77 56.66 84.49 45.08 68.79 48.84Z" fill="white"/>
<path d="M59.54 93.63L62.61 89.32C62.61 89.32 69.56 94.23 80.42 93.5L81.98 98.15C81.98 98.16 70.09 101.95 59.54 93.63Z" fill="white"/>
<path d="M81.98 39.97C81.98 39.97 86.23 51.16 95.47 46.13C95.47 46.13 90.05 41.36 81.98 39.97Z" fill="white"/>
<path d="M36.2202 124.86L34.9902 105.78C34.9902 105.78 73.6902 103.92 113.28 105.6L111.06 125.76L36.2202 124.86Z" fill="url(#paint15_linear_1339_4021)"/>
<path d="M38.7601 123.25L38.1001 107.57C38.1001 107.57 73.4901 106.81 110.42 108.18L109.16 124L38.7601 123.25Z" fill="url(#paint16_linear_1339_4021)"/>
<path opacity="0.4" d="M110.42 108.18C110.42 108.18 107.81 110.88 107.11 115.04L41.1001 114.16L38.1001 107.57C38.1001 107.57 94.1001 106.96 110.42 108.18Z" fill="url(#paint17_linear_1339_4021)"/>
<path d="M38.1001 107.57L38.6701 122.81L73.4401 123.62L72.3701 107.57C72.3701 107.57 60.4501 106.91 38.1001 107.57Z" fill="url(#paint18_linear_1339_4021)"/>
<path d="M38.5 121.23L48.67 107.28H51.96L41.1 122.81H38.67L38.5 121.23Z" fill="url(#paint19_linear_1339_4021)"/>
<path d="M48.77 123L59.99 107.29L63.07 107.32L52.71 123.13L48.77 123Z" fill="url(#paint20_linear_1339_4021)"/>
<path d="M62.2202 123.34L72.3702 107.57L72.6202 111.22L65.0802 123.34H62.2202Z" fill="url(#paint21_linear_1339_4021)"/>
<path d="M36.2202 124.86L38.5002 127.41L108.64 128.1L111.05 125.77L36.2202 124.86Z" fill="#A181C9"/>
<path d="M38.1001 107.57L38.3101 113.28H72.7501L72.3701 107.57C72.3701 107.57 60.6301 107.29 38.1001 107.57Z" fill="white"/>
<path d="M63.0703 107.32C63.0703 107.32 67.1903 111.51 72.7503 107.39L63.0703 107.32Z" fill="white"/>
<path d="M68.79 104.95C68.79 104.95 71.01 107.34 76.2 107.28C81.38 107.22 83.13 104.95 83.13 104.95C83.13 104.95 70.93 104.93 68.79 104.95Z" fill="white"/>
<path d="M41.1001 122.81C41.1001 122.81 61.6701 119.63 70.7601 123.55L41.1001 122.81Z" fill="white"/>
<path d="M109.16 124C109.16 124 107.6 123.4 106.82 119.21H73.1504L73.4404 123.62L109.16 124Z" fill="url(#paint22_linear_1339_4021)"/>
<path d="M93.2202 123.74C93.2202 123.74 98.5502 120.73 102.38 123.92L93.2202 123.74Z" fill="white"/>
<path d="M122.9 7.71C122.23 0.640001 114.09 -1.43 110.64 0.940001C107.18 3.31 114.63 14.39 117.21 14.97C119.78 15.54 123.08 9.66 122.9 7.71Z" fill="#E1F3FF"/>
<defs>
<linearGradient id="paint0_linear_1339_4021" x1="74.7888" y1="99.2676" x2="74.7888" y2="96.4629" gradientUnits="userSpaceOnUse">
<stop stop-color="#1C257B"/>
<stop offset="1" stop-color="#482C83"/>
</linearGradient>
<linearGradient id="paint1_linear_1339_4021" x1="87.1352" y1="110.984" x2="87.1352" y2="79.7963" gradientUnits="userSpaceOnUse">
<stop stop-color="#1C257B"/>
<stop offset="1" stop-color="#6A2C9A"/>
</linearGradient>
<radialGradient id="paint2_radial_1339_4021" cx="0" cy="0" r="1" gradientUnits="userSpaceOnUse" gradientTransform="translate(112.214 71.8555) scale(25.698 25.698)">
<stop stop-color="#3996F7"/>
<stop offset="1" stop-color="#6840D5"/>
</radialGradient>
<linearGradient id="paint3_linear_1339_4021" x1="36.2175" y1="108.713" x2="36.2175" y2="64.9672" gradientUnits="userSpaceOnUse">
<stop stop-color="#1C257B"/>
<stop offset="1" stop-color="#6A2C9A"/>
</linearGradient>
<radialGradient id="paint4_radial_1339_4021" cx="0" cy="0" r="1" gradientUnits="userSpaceOnUse" gradientTransform="translate(30.4953 97.9122) scale(11.6537)">
<stop stop-color="#3996F7"/>
<stop offset="1" stop-color="#6840D5"/>
</radialGradient>
<linearGradient id="paint5_linear_1339_4021" x1="74.7886" y1="111.104" x2="74.7886" y2="38.789" gradientUnits="userSpaceOnUse">
<stop stop-color="#4C25A6"/>
<stop offset="0.6015" stop-color="#457AE2"/>
<stop offset="1" stop-color="#6DD9F7"/>
</linearGradient>
<radialGradient id="paint6_radial_1339_4021" cx="0" cy="0" r="1" gradientUnits="userSpaceOnUse" gradientTransform="translate(77.3126 45.268) scale(49.0639 49.0639)">
<stop stop-color="#3996F7"/>
<stop offset="1" stop-color="#6840D5"/>
</radialGradient>
<linearGradient id="paint7_linear_1339_4021" x1="74.7887" y1="100.058" x2="74.7887" y2="47.1353" gradientUnits="userSpaceOnUse">
<stop stop-color="#DDCDFF"/>
<stop offset="1" stop-color="#9F9CFF"/>
</linearGradient>
<linearGradient id="paint8_linear_1339_4021" x1="74.7883" y1="99.0153" x2="74.7883" y2="51.3788" gradientUnits="userSpaceOnUse">
<stop stop-color="#EEF0FF"/>
<stop offset="1" stop-color="#DDCDFF"/>
</linearGradient>
<linearGradient id="paint9_linear_1339_4021" x1="75.0565" y1="73.5965" x2="75.0565" y2="51.6375" gradientUnits="userSpaceOnUse">
<stop stop-color="#1C257B"/>
<stop offset="1" stop-color="#482C83"/>
</linearGradient>
<linearGradient id="paint10_linear_1339_4021" x1="81.9802" y1="74.923" x2="81.9802" y2="71.6175" gradientUnits="userSpaceOnUse">
<stop stop-color="#1C257B"/>
<stop offset="1" stop-color="#482C83"/>
</linearGradient>
<linearGradient id="paint11_linear_1339_4021" x1="75.3169" y1="75.3701" x2="75.3169" y2="70.551" gradientUnits="userSpaceOnUse">
<stop stop-color="#1C257B"/>
<stop offset="1" stop-color="#482C83"/>
</linearGradient>
<linearGradient id="paint12_linear_1339_4021" x1="53.7327" y1="74.3629" x2="53.7327" y2="71.5581" gradientUnits="userSpaceOnUse">
<stop stop-color="#1C257B"/>
<stop offset="1" stop-color="#482C83"/>
</linearGradient>
<linearGradient id="paint13_linear_1339_4021" x1="95.7701" y1="74.3629" x2="95.7701" y2="71.5581" gradientUnits="userSpaceOnUse">
<stop stop-color="#1C257B"/>
<stop offset="1" stop-color="#482C83"/>
</linearGradient>
<linearGradient id="paint14_linear_1339_4021" x1="75.3171" y1="53.0399" x2="75.3171" y2="50.2351" gradientUnits="userSpaceOnUse">
<stop stop-color="#1C257B"/>
<stop offset="1" stop-color="#482C83"/>
</linearGradient>
<linearGradient id="paint15_linear_1339_4021" x1="74.1316" y1="125.768" x2="74.1316" y2="104.907" gradientUnits="userSpaceOnUse">
<stop stop-color="#D1BBFF"/>
<stop offset="1" stop-color="#EFEAFF"/>
</linearGradient>
<linearGradient id="paint16_linear_1339_4021" x1="74.2602" y1="123.995" x2="74.2602" y2="107.355" gradientUnits="userSpaceOnUse">
<stop stop-color="#DDCDFF"/>
<stop offset="1" stop-color="#9F9CFF"/>
</linearGradient>
<linearGradient id="paint17_linear_1339_4021" x1="74.2602" y1="115.042" x2="74.2602" y2="107.418" gradientUnits="userSpaceOnUse">
<stop stop-color="white"/>
<stop offset="1" stop-color="#7460E0"/>
</linearGradient>
<linearGradient id="paint18_linear_1339_4021" x1="55.7712" y1="123.615" x2="55.7712" y2="107.275" gradientUnits="userSpaceOnUse">
<stop stop-color="#B31A8F"/>
<stop offset="0.00896716" stop-color="#B51A8F"/>
<stop offset="0.1486" stop-color="#D01789"/>
<stop offset="0.3008" stop-color="#E41484"/>
<stop offset="0.4721" stop-color="#F31281"/>
<stop offset="0.6764" stop-color="#FB117F"/>
<stop offset="1" stop-color="#FE117E"/>
</linearGradient>
<linearGradient id="paint19_linear_1339_4021" x1="45.2295" y1="122.809" x2="45.2295" y2="107.275" gradientUnits="userSpaceOnUse">
<stop stop-color="#B9ACF4"/>
<stop offset="1" stop-color="#E1D1F5"/>
</linearGradient>
<linearGradient id="paint20_linear_1339_4021" x1="55.9206" y1="123.134" x2="55.9206" y2="107.289" gradientUnits="userSpaceOnUse">
<stop stop-color="#B9ACF4"/>
<stop offset="1" stop-color="#E1D1F5"/>
</linearGradient>
<linearGradient id="paint21_linear_1339_4021" x1="67.4163" y1="123.338" x2="67.4163" y2="107.567" gradientUnits="userSpaceOnUse">
<stop stop-color="#B9ACF4"/>
<stop offset="1" stop-color="#E1D1F5"/>
</linearGradient>
<linearGradient id="paint22_linear_1339_4021" x1="91.1548" y1="123.995" x2="91.1548" y2="119.209" gradientUnits="userSpaceOnUse">
<stop stop-color="white"/>
<stop offset="1"/>
</linearGradient>
</defs>
</svg>
