<svg width="109" height="126" viewBox="0 0 109 126" fill="none" xmlns="http://www.w3.org/2000/svg">
<path d="M1.74018 61.4C0.700176 38.8 32.5102 10.44 59.8802 15.14C88.8102 20.11 114.17 82.92 86.7602 104.07C59.3502 125.23 2.80018 84.32 1.74018 61.4Z" fill="#E1F3FF"/>
<path d="M63.25 67.42C63.25 67.42 64.03 42.12 91.7 27.55C91.7 27.55 99.78 50.74 69.97 73.98L63.25 67.42Z" fill="url(#paint0_linear_1339_3740)"/>
<path d="M90.6602 29.7L67.3102 68.48L65.2002 62.6C65.2002 62.59 67.9102 39.91 90.6602 29.7Z" fill="#BDE0FF"/>
<path d="M42.3601 70.91C42.3601 70.91 48.9201 48.43 26.6801 36.25C26.6801 36.25 17.1801 56.7 39.4501 70.09L42.3601 70.91Z" fill="url(#paint1_radial_1339_3740)"/>
<path d="M26.6702 36.24L42.3502 70.9L39.0002 68.95C39.0102 68.95 20.0902 57.71 26.6702 36.24Z" fill="#BDE0FF"/>
<path d="M71.3101 63.95C71.3101 63.95 75.7001 49.21 92.3201 50.41C92.3201 50.41 90.2701 65.08 73.2101 64.53L71.3101 63.95Z" fill="url(#paint2_radial_1339_3740)"/>
<path d="M92.3201 50.41L71.3101 63.95L73.8501 64.06C73.8501 64.06 88.3001 64.61 92.3201 50.41Z" fill="#BDE0FF"/>
<path d="M0 39.99L6.64 29.8L10.18 32.22L3.12 41.78L0 39.99Z" fill="#FF1D9C"/>
<path d="M81.3199 25L76.6199 31.25L74.6299 29.64L78.9199 23.84L81.3199 25Z" fill="#4F31E0"/>
<path d="M41.4801 33.56L33.9001 35.45L33.3701 32.95L40.3501 31.16L41.4801 33.56Z" fill="#4F31E0"/>
<path d="M56.3298 21.5L55.5298 11.96L58.8198 10.04L61.3398 21.61L56.3298 21.5Z" fill="#6877FF"/>
<path d="M33.1201 87.41L32.7401 87.99L34.6101 95.27C34.6301 95.38 34.6501 95.48 34.6701 95.6C34.9501 97.19 34.9201 99.31 34.7301 100.18L33.92 99.95L28.4801 98.47L22.8201 96.92L11.8501 102.59C11.4801 101.86 11.0201 99.48 10.9301 97.56L10.9401 97.44C10.9401 97.43 10.9401 97.43 10.9401 97.42L11.2601 90.25L10.8001 89.79L2.48005 81.56C2.05005 80.24 1.79005 79.46 2.12005 78.26L14.1201 77L19.0001 76.49L27.1701 75.63L39.1601 74.36C39.5901 75.34 39.8101 76.09 39.5201 77.66L33.1201 87.41Z" fill="url(#paint3_radial_1339_3740)"/>
<path d="M33.15 87.53C33.01 87.67 32.88 87.83 32.74 87.99L34.21 96.94L34.73 100.18C34.47 100.19 34.21 100.18 33.96 100.17C33.96 100.17 33.91 100.18 33.79 100.17C33.25 100.14 32.72 100.09 32.21 100.02C31.9 99.99 31.56 99.93 31.18 99.84C30.95 99.79 30.7 99.74 30.44 99.68C30.17 99.61 29.9 99.54 29.62 99.47C29.35 99.4 29.08 99.32 28.8 99.24C28.77 99.23 28.73 99.23 28.71 99.22C28.63 99.19 28.54 99.16 28.46 99.14C26.42 98.49 24.55 97.63 22.82 96.94C19.41 99.46 16.45 100.84 11.85 102.61L11.69 99.33L11.26 90.27C11.11 90.16 10.95 90.04 10.8 89.93C7.20998 87.24 4.39998 84.93 2.47998 81.58L3.94998 81L14.02 77.19L14.12 77L16.7 71.85L19.56 66.16L27.16 75.62L27.3 75.79L37.73 77.38L39.51 77.65C37.85 81.82 36.09 84.24 33.15 87.53Z" fill="url(#paint4_radial_1339_3740)"/>
<path d="M37.73 77.39C35.75 80.5 32.38 84.68 32.38 84.68C32.38 84.68 32.71 85.82 33.12 87.41C33.14 87.45 33.14 87.49 33.16 87.54C33.81 90.08 34.65 93.69 34.67 95.6C34.68 96.27 34.6 96.72 34.38 96.87C34.34 96.9 34.28 96.92 34.22 96.94C33.98 97.02 33.63 97.04 33.18 96.98C33.16 96.98 33.14 96.98 33.11 96.98C32.91 96.96 32.72 96.93 32.51 96.89C32.2 96.84 31.89 96.77 31.57 96.7C30.67 96.48 29.65 96.19 28.62 95.85V95.84C26.13 95.04 23.6 94.06 22.77 93.74C22.58 93.66 22.48 93.62 22.48 93.62C22.48 93.62 13.79 99.44 11.71 99.31C11.63 99.31 11.57 99.3 11.51 99.28C11.24 99.19 11.07 98.48 10.95 97.44C10.95 97.43 10.95 97.43 10.95 97.42C10.73 95.42 10.76 92.25 10.82 89.91C10.82 89.88 10.82 89.83 10.82 89.79C10.87 88.14 10.92 86.94 10.92 86.94C10.92 86.94 6.53 83.63 3.95 81C2.81 79.84 2.02 78.8 2.11 78.26C2.37 76.73 13.66 73.88 13.66 73.88C13.66 73.88 14.44 71.73 15.46 69.33V69.31C16.72 66.32 18.33 62.94 19.21 62.85C20.91 62.67 26.95 72.48 26.95 72.48C26.95 72.48 39.03 73.18 39.16 74.35C39.21 74.87 38.6 76.03 37.73 77.39Z" fill="url(#paint5_radial_1339_3740)"/>
<path opacity="0.62" d="M33.96 100.16C33.96 100.16 33.91 100.17 33.79 100.16C33.53 100.17 33.01 100.14 32.21 100.01C31.9 99.98 31.56 99.92 31.18 99.83C30.95 99.78 30.7 99.73 30.44 99.67C30.17 99.6 29.9 99.53 29.62 99.46C29.35 99.39 29.08 99.31 28.8 99.23C28.77 99.22 28.73 99.22 28.71 99.21C28.63 99.19 28.54 99.16 28.46 99.14V99.13C26.91 98.65 25.03 97.95 22.82 96.93L22.46 93.63C22.46 93.63 22.56 93.67 22.75 93.75C23.57 94.1 25.98 95.11 28.6 95.91C29.58 96.22 30.6 96.5 31.56 96.7C31.88 96.77 32.19 96.84 32.5 96.89C32.71 96.92 32.91 96.95 33.1 96.98C33.12 96.99 33.14 96.99 33.17 96.98C33.23 97 33.28 97 33.33 97.01L33.92 99.96L33.96 100.16Z" fill="url(#paint6_linear_1339_3740)"/>
<path opacity="0.5" d="M39.5102 77.66C37.8602 81.82 36.0902 84.24 33.1502 87.54C33.8002 90.08 34.6402 93.69 34.6602 95.6C34.9402 97.19 34.9102 99.31 34.7202 100.18C34.4602 100.19 34.2002 100.18 33.9502 100.17C33.9502 100.17 33.9002 100.18 33.7802 100.17C33.5202 100.18 33.0002 100.15 32.2002 100.02C31.8902 99.99 31.5502 99.93 31.1702 99.84C30.9402 99.79 30.6902 99.74 30.4302 99.68C30.1602 99.61 29.8902 99.54 29.6102 99.47C29.3402 99.4 29.0702 99.32 28.7902 99.24C28.7602 99.23 28.7202 99.23 28.7002 99.22C28.6202 99.2 28.5302 99.17 28.4502 99.15V99.14L28.4802 98.49L28.6002 95.93V95.88V95.87L19.0002 76.49L16.7102 71.85L15.4702 69.34V69.32C16.7302 66.33 18.3402 62.95 19.2202 62.86C20.9202 62.68 26.9602 72.49 26.9602 72.49C26.9602 72.49 39.0402 73.19 39.1702 74.36C39.5802 75.34 39.8002 76.09 39.5102 77.66Z" fill="#361488"/>
<path d="M77.7601 87.41L78.1401 87.99L76.2701 95.27C76.2501 95.38 76.2301 95.48 76.2101 95.6C75.9301 97.19 75.9601 99.31 76.1501 100.18L76.9601 99.95L82.4001 98.47L88.0601 96.92L99.0301 102.59C99.4001 101.86 99.8601 99.48 99.9501 97.56L99.9401 97.44C99.9401 97.43 99.9401 97.43 99.9401 97.42L99.6201 90.25L100.08 89.79L108.4 81.56C108.83 80.24 109.09 79.46 108.76 78.26L96.7601 77L91.8801 76.49L83.7101 75.63L71.7201 74.36C71.2901 75.34 71.0701 76.09 71.3601 77.66L77.7601 87.41Z" fill="url(#paint7_radial_1339_3740)"/>
<path d="M77.7301 87.53C77.8701 87.67 78.0001 87.83 78.1401 87.99L76.6701 96.94L76.1501 100.18C76.4101 100.19 76.6701 100.18 76.9201 100.17C76.9201 100.17 76.9701 100.18 77.0901 100.17C77.6301 100.14 78.1601 100.09 78.6701 100.02C78.9801 99.99 79.3201 99.93 79.7001 99.84C79.9301 99.79 80.1801 99.74 80.4401 99.68C80.7101 99.61 80.9801 99.54 81.2601 99.47C81.5301 99.4 81.8001 99.32 82.0801 99.24C82.1101 99.23 82.1501 99.23 82.1701 99.22C82.2501 99.19 82.3401 99.16 82.4201 99.14C84.4601 98.49 86.3301 97.63 88.0601 96.94C91.4701 99.46 94.4301 100.84 99.0301 102.61L99.1901 99.33L99.6201 90.27C99.7701 90.16 99.9301 90.04 100.08 89.93C103.67 87.24 106.48 84.93 108.4 81.58L106.92 81L96.8501 77.19L96.7601 77L94.1801 71.85L91.3201 66.16L83.7201 75.62L83.5801 75.79L73.1501 77.38L71.3701 77.65C73.0201 81.82 74.7901 84.24 77.7301 87.53Z" fill="url(#paint8_radial_1339_3740)"/>
<path d="M73.1499 77.39C75.1299 80.5 78.4999 84.68 78.4999 84.68C78.4999 84.68 78.1699 85.82 77.7599 87.41C77.7399 87.45 77.7399 87.49 77.7199 87.54C77.0699 90.08 76.2299 93.69 76.2099 95.6C76.1999 96.27 76.2799 96.72 76.4999 96.87C76.5399 96.9 76.5999 96.92 76.6599 96.94C76.8999 97.02 77.2499 97.04 77.6999 96.98C77.7199 96.98 77.7399 96.98 77.7699 96.98C77.9699 96.96 78.1599 96.93 78.3699 96.89C78.6799 96.84 78.9899 96.77 79.3099 96.7C80.2099 96.48 81.2299 96.19 82.2599 95.85V95.84C84.7499 95.04 87.2799 94.06 88.1099 93.74C88.2999 93.66 88.3999 93.62 88.3999 93.62C88.3999 93.62 97.0899 99.44 99.1699 99.31C99.2499 99.31 99.3099 99.3 99.3699 99.28C99.6399 99.19 99.8099 98.48 99.9299 97.44C99.9299 97.43 99.9299 97.43 99.9299 97.42C100.15 95.42 100.12 92.25 100.06 89.91C100.06 89.88 100.06 89.83 100.06 89.79C100.01 88.14 99.9599 86.94 99.9599 86.94C99.9599 86.94 104.32 83.62 106.9 81C108.04 79.84 108.83 78.8 108.74 78.26C108.48 76.73 97.1899 73.88 97.1899 73.88C97.1899 73.88 96.4099 71.73 95.3899 69.33V69.31C94.1299 66.32 92.5199 62.94 91.6399 62.85C89.9399 62.67 83.8999 72.48 83.8999 72.48C83.8999 72.48 71.8199 73.18 71.6899 74.35C71.6699 74.87 72.2799 76.03 73.1499 77.39Z" fill="url(#paint9_radial_1339_3740)"/>
<path opacity="0.62" d="M76.9199 100.16C76.9199 100.16 76.9699 100.17 77.0899 100.16C77.3499 100.17 77.8699 100.14 78.6699 100.01C78.9799 99.98 79.3199 99.92 79.6999 99.83C79.9299 99.78 80.1799 99.73 80.4399 99.67C80.7099 99.6 80.9799 99.53 81.2599 99.46C81.5299 99.39 81.7999 99.31 82.0799 99.23C82.1099 99.22 82.1499 99.22 82.1699 99.21C82.2499 99.19 82.3399 99.16 82.4199 99.14V99.13C83.9699 98.65 85.8499 97.95 88.0599 96.93L88.4199 93.63C88.4199 93.63 88.3199 93.67 88.1299 93.75C87.3099 94.1 84.8999 95.11 82.2799 95.91C81.2999 96.22 80.2799 96.5 79.3199 96.7C78.9999 96.77 78.6899 96.84 78.3799 96.89C78.1699 96.92 77.9699 96.95 77.7799 96.98C77.7599 96.99 77.7399 96.99 77.7099 96.98C77.6599 96.99 77.6099 97 77.5499 97L76.9599 99.95L76.9199 100.16Z" fill="url(#paint10_linear_1339_3740)"/>
<path d="M85.15 62.41C85.66 64.02 85.87 65.22 85.15 67.61L72.87 82.54L74.56 94.19C74.81 96.78 74.39 100.43 73.92 101.84L55.93 94.77L37.9 101.74C37.45 100.55 37.14 96.77 37.31 93.76L39.06 82.44L26.86 67.44C26.41 65.3 26.14 64.06 26.86 62.24L85.15 62.41Z" fill="#981382"/>
<path d="M66.4699 62.65L85.1499 67.61C81.7199 74.09 78.4299 77.58 72.8699 82.54L73.9199 101.84C66.7199 101.15 60.9599 97.42 55.9299 94.77C50.2099 98.11 45.3599 99.76 37.8999 101.74L39.0599 82.45C33.5999 77.4 29.3799 73.24 26.8599 67.45L45.5699 62.59L56.0599 46.36L66.4699 62.65Z" fill="#981382"/>
<path d="M66.4698 57.45C66.4698 57.45 85.1498 60.58 85.1498 62.41C85.1498 65.07 72.8698 77.34 72.8698 77.34C72.8698 77.34 76.0398 95.5 73.9198 96.64C71.5398 97.92 55.9298 89.57 55.9298 89.57C55.9298 89.57 40.3998 97.72 37.8998 96.53C36.1498 95.7 39.0598 77.24 39.0598 77.24C39.0598 77.24 26.0998 64.96 26.8598 62.24C27.5098 59.92 45.5698 57.38 45.5698 57.38C45.5698 57.38 53.5798 41.15 56.0598 41.15C58.7298 41.16 66.4698 57.45 66.4698 57.45Z" fill="url(#paint11_linear_1339_3740)"/>
<path d="M72.6399 94.79C69.8199 94.79 59.9799 89.86 56.4199 87.95L55.9299 87.69L55.4399 87.95C51.8799 89.82 41.9999 94.67 39.1599 94.67C39.1499 94.67 39.1399 94.67 39.1299 94.67C38.6399 92.87 39.5099 84.37 40.6499 77.11L40.7299 76.57L40.3299 76.2C34.8399 70.98 28.9999 64.45 28.8599 62.81C30.0599 61.66 38.6299 59.86 46.0699 58.81L46.6099 58.73L46.8499 58.24C50.1799 51.49 54.5899 43.93 56.0699 43.16C57.5899 43.87 61.9299 51.47 65.1699 58.28L65.3999 58.77L65.9299 58.86C73.1199 60.06 81.3899 61.9 83.0499 62.9C82.3699 64.78 76.7399 71.14 71.5499 76.32L71.1699 76.7L71.2599 77.23C72.5399 84.58 73.4499 93.22 72.7299 94.79C72.7199 94.79 72.6799 94.79 72.6399 94.79Z" fill="url(#paint12_radial_1339_3740)"/>
<path opacity="0.62" d="M55.9302 94.77V89.57C55.9302 89.57 65.6702 95.2 72.2702 96.67L72.7302 101.7C72.7302 101.69 66.8902 101.36 55.9302 94.77Z" fill="url(#paint13_linear_1339_3740)"/>
<path d="M32.52 61.45C32.52 61.45 50.27 74.25 72.73 74.09C72.73 74.09 82.93 66.49 84.35 62.65C84.35 62.65 80.52 60.35 66.06 58.38C66.06 58.38 61.62 47.21 56.01 41.96C56.01 41.96 50.63 47.98 47.3 58.13C47.31 58.14 38.61 58.72 32.52 61.45Z" fill="white"/>
<path d="M17.21 17.5C18.8 20.63 45.15 13.36 47.83 8.19999C50.5 3.03999 37.2 -1.17001 29.89 0.299989C22.59 1.75999 15.16 13.46 17.21 17.5Z" fill="#E1F3FF"/>
<path d="M27.9102 98.98C27.9102 98.98 30.8302 95.83 35.5602 94.12C35.5602 94.12 54.8202 90.38 78.5602 94.12C78.5602 94.12 82.7602 96.44 84.1502 98.98H27.9102Z" fill="url(#paint14_radial_1339_3740)"/>
<path d="M64.1899 92.8L65.7099 96.86C65.7099 96.86 72.5699 97.13 76.7699 97.78L74.3599 93.54C74.3599 93.54 67.7099 92.76 64.1899 92.8Z" fill="white"/>
<path d="M32.0002 122.13C32.0002 122.13 27.9102 114.65 27.9102 98.98C27.9102 98.98 52.8402 93.16 84.1402 98.98C84.1402 98.98 84.1402 114.6 78.4402 125.92L74.5502 122.11L32.0002 122.13Z" fill="url(#paint15_linear_1339_3740)"/>
<path d="M39.21 103.8L39.65 106.61H70.59L71.08 103.56L39.21 103.8Z" fill="white"/>
<path d="M39.8999 108.1L40.3699 110.53H54.7099V108.1H39.8999Z" fill="white"/>
<path d="M40.3999 112.02L40.8699 114.45H61.1799V112.02H40.3999Z" fill="white"/>
<path opacity="0.81" d="M74.55 122.12L77.97 118.6C77.97 118.6 55.37 123.31 31.02 119.83L32 122.13L74.55 122.12Z" fill="url(#paint16_linear_1339_3740)"/>
<defs>
<linearGradient id="paint0_linear_1339_3740" x1="60.0703" y1="60.9046" x2="98.7622" y2="42.0043" gradientUnits="userSpaceOnUse">
<stop stop-color="#1C257B"/>
<stop offset="1" stop-color="#6A2C9A"/>
</linearGradient>
<radialGradient id="paint1_radial_1339_3740" cx="0" cy="0" r="1" gradientUnits="userSpaceOnUse" gradientTransform="translate(37.2005 42.3393) rotate(-161.657) scale(19.7372 19.7372)">
<stop stop-color="#3996F7"/>
<stop offset="1" stop-color="#6840D5"/>
</radialGradient>
<radialGradient id="paint2_radial_1339_3740" cx="0" cy="0" r="1" gradientUnits="userSpaceOnUse" gradientTransform="translate(84.3334 50.0269) rotate(14.5184) scale(12.9647 12.9647)">
<stop stop-color="#3996F7"/>
<stop offset="1" stop-color="#6840D5"/>
</radialGradient>
<radialGradient id="paint3_radial_1339_3740" cx="0" cy="0" r="1" gradientUnits="userSpaceOnUse" gradientTransform="translate(21.9949 88.8345) rotate(-6.18264) scale(16.0876 16.0876)">
<stop stop-color="#A157FF"/>
<stop offset="1" stop-color="#63399A"/>
</radialGradient>
<radialGradient id="paint4_radial_1339_3740" cx="0" cy="0" r="1" gradientUnits="userSpaceOnUse" gradientTransform="translate(21.4427 83.7878) rotate(-6.18265) scale(18.1784 18.1784)">
<stop stop-color="#A157FF"/>
<stop offset="1" stop-color="#63399A"/>
</radialGradient>
<radialGradient id="paint5_radial_1339_3740" cx="0" cy="0" r="1" gradientUnits="userSpaceOnUse" gradientTransform="translate(18.3591 69.575) rotate(-6.18265) scale(20.9424)">
<stop stop-color="#FF81FF"/>
<stop offset="1" stop-color="#9552FF"/>
</radialGradient>
<linearGradient id="paint6_linear_1339_3740" x1="22.8717" y1="97.4727" x2="33.5423" y2="96.3168" gradientUnits="userSpaceOnUse">
<stop stop-color="#8B8BE0"/>
<stop offset="1" stop-color="#A177B7"/>
</linearGradient>
<radialGradient id="paint7_radial_1339_3740" cx="0" cy="0" r="1" gradientUnits="userSpaceOnUse" gradientTransform="translate(88.8838 88.8346) rotate(-173.817) scale(16.0876 16.0876)">
<stop stop-color="#A157FF"/>
<stop offset="1" stop-color="#63399A"/>
</radialGradient>
<radialGradient id="paint8_radial_1339_3740" cx="0" cy="0" r="1" gradientUnits="userSpaceOnUse" gradientTransform="translate(89.4359 83.7878) rotate(-173.817) scale(18.1784 18.1784)">
<stop stop-color="#A157FF"/>
<stop offset="1" stop-color="#63399A"/>
</radialGradient>
<radialGradient id="paint9_radial_1339_3740" cx="0" cy="0" r="1" gradientUnits="userSpaceOnUse" gradientTransform="translate(100.748 73.1521) rotate(-173.817) scale(20.9425 20.9425)">
<stop stop-color="#FF81FF"/>
<stop offset="1" stop-color="#9552FF"/>
</radialGradient>
<linearGradient id="paint10_linear_1339_3740" x1="88.0066" y1="97.4726" x2="77.3362" y2="96.3167" gradientUnits="userSpaceOnUse">
<stop stop-color="#8B8BE0"/>
<stop offset="1" stop-color="#A177B7"/>
</linearGradient>
<linearGradient id="paint11_linear_1339_3740" x1="30.7525" y1="56.8637" x2="77.885" y2="91.3154" gradientUnits="userSpaceOnUse">
<stop stop-color="#971A8F"/>
<stop offset="0.4678" stop-color="#EF22AC"/>
<stop offset="1" stop-color="#FE4CCE"/>
</linearGradient>
<radialGradient id="paint12_radial_1339_3740" cx="0" cy="0" r="1" gradientUnits="userSpaceOnUse" gradientTransform="translate(60.5905 57.8166) rotate(36.1651) scale(30.0586)">
<stop stop-color="#FE117E"/>
<stop offset="1" stop-color="#B31A8F"/>
</radialGradient>
<linearGradient id="paint13_linear_1339_3740" x1="55.932" y1="95.6317" x2="72.7317" y2="95.6317" gradientUnits="userSpaceOnUse">
<stop stop-color="#8B8BE0"/>
<stop offset="1" stop-color="#A177B7"/>
</linearGradient>
<radialGradient id="paint14_radial_1339_3740" cx="0" cy="0" r="1" gradientUnits="userSpaceOnUse" gradientTransform="translate(64.9827 94.6442) scale(25.8499 25.8499)">
<stop stop-color="#3996F7"/>
<stop offset="1" stop-color="#744FD8"/>
</radialGradient>
<linearGradient id="paint15_linear_1339_3740" x1="56.0206" y1="125.926" x2="56.0206" y2="96.3926" gradientUnits="userSpaceOnUse">
<stop stop-color="#1C257B"/>
<stop offset="1" stop-color="#4F3BBA"/>
</linearGradient>
<linearGradient id="paint16_linear_1339_3740" x1="54.497" y1="122.127" x2="54.497" y2="118.599" gradientUnits="userSpaceOnUse">
<stop stop-color="#7460E0"/>
<stop offset="1" stop-color="white"/>
</linearGradient>
</defs>
</svg>
