<svg width="227" height="171" viewBox="0 0 227 171" fill="none" xmlns="http://www.w3.org/2000/svg">
<path fill-rule="evenodd" clip-rule="evenodd" d="M145.79 49.064C145.792 49.1365 145.734 49.1969 145.662 49.1983L67.5861 50.9836C62.9178 51.0904 58.195 51.2099 53.7753 52.6402C49.3572 54.0702 45.2186 57.0188 43.4615 61.2992C41.3023 66.5587 43.1956 72.8345 46.8732 77.2078C50.5511 81.5816 55.7287 84.3897 60.9126 86.8479C84.4737 98.0214 110.518 103.889 136.58 103.894C142.748 103.896 148.925 103.574 155.103 103.253C155.45 103.235 155.797 103.217 156.144 103.199C156.216 103.195 156.278 103.251 156.282 103.324C156.285 103.396 156.23 103.458 156.157 103.462C155.81 103.48 155.462 103.498 155.115 103.516C148.938 103.837 142.755 104.159 136.58 104.158C110.479 104.152 84.3966 98.2759 60.8005 87.0859C55.6143 84.6266 50.3903 81.7986 46.6726 77.3775C42.9547 72.9561 41.0108 66.5777 43.2188 61.1989C45.0149 56.8239 49.2312 53.8345 53.6947 52.3897C58.1568 50.9459 62.9184 50.8272 67.5802 50.7203L145.656 48.9353C145.728 48.9336 145.788 48.9912 145.79 49.064Z" fill="#A6DEFA"/>
<path fill-rule="evenodd" clip-rule="evenodd" d="M124.963 163.643V20.3157H125.488V163.643H124.963Z" fill="#C5D8FF"/>
<path opacity="0.15" d="M124.963 163.643C85.5642 163.643 53.51 131.494 53.51 91.9797C53.51 52.4649 85.5642 20.3162 124.963 20.3162" fill="#C5D8FF"/>
<path opacity="0.15" d="M124.964 148.107C94.1062 148.107 69.0013 122.928 69.0013 91.9793C69.0013 61.0305 94.1062 35.8516 124.964 35.8516" fill="#C5D8FF"/>
<path opacity="0.25" d="M124.963 132.571C102.646 132.571 84.4905 114.362 84.4905 91.9787C84.4905 69.596 102.646 51.387 124.963 51.387" fill="#C5D8FF"/>
<path opacity="0.5" d="M124.965 117.036C111.168 117.036 99.9827 105.818 99.9827 91.9796C99.9827 78.1416 111.168 66.9236 124.965 66.9236" fill="#C5D8FF"/>
<path d="M124.964 104.85C117.877 104.85 112.132 99.0878 112.132 91.9798C112.132 84.8715 117.877 79.1094 124.964 79.1094" fill="#C5D8FF"/>
<path d="M160.091 88.5409L148.012 114.873L146.049 119.155H116.525L114.562 114.873L102.483 88.5409L106.445 67.8459L123.006 61.8083H139.568L156.129 67.8459L160.091 88.5409Z" fill="#A6DEFA"/>
<path d="M139.459 49.5125V65.1091C139.459 65.8565 139.094 66.5513 138.501 67.004C134.94 69.7045 127.209 69.5518 124.21 66.9882C123.601 66.4697 123.123 65.8092 123.123 65.0065V49.5125H139.459Z" fill="#4382FF"/>
<path d="M135.818 62.857C132.409 65.5181 129.403 65.426 126.76 62.857V52.0991H135.818V62.857Z" fill="#C5D8FF"/>
<path opacity="0.42" d="M139.459 49.5125V56.1555C133.86 59.9397 128.437 60.8846 123.123 56.2079V49.5125H139.459Z" fill="black"/>
<path fill-rule="evenodd" clip-rule="evenodd" d="M127.425 53.1177H135.154V62.1087L135.071 62.1733C133.674 63.2638 132.336 63.8093 131.056 63.7993C129.773 63.7897 128.584 63.2216 127.49 62.158L127.425 62.0945V53.1177ZM127.854 53.5489V61.9112C128.871 62.8762 129.937 63.3596 131.06 63.3681C132.187 63.3769 133.406 62.9071 134.724 61.897V53.5489H127.854Z" fill="#A6DEFA"/>
<path d="M131.296 56.1359H129.133C122.841 56.1359 117.741 51.0207 117.741 44.7103V31.2097C117.741 24.8993 122.841 24.3013 129.133 24.3013H131.296C137.588 24.3013 142.689 24.8993 142.689 31.2097V44.7103C142.689 51.0207 137.588 56.1359 131.296 56.1359Z" fill="#4382FF"/>
<path fill-rule="evenodd" clip-rule="evenodd" d="M33.7078 116.831C26.8361 115.086 19.0069 115.595 13.4828 119.999C10.7255 122.197 8.83206 125.532 8.18982 129C7.5477 132.467 8.15827 136.056 10.39 138.771C10.4361 138.827 10.4281 138.91 10.3722 138.957C10.3163 139.003 10.2336 138.995 10.1875 138.939C7.89591 136.15 7.27885 132.478 7.93185 128.952C8.58473 125.426 10.5091 122.034 13.3195 119.793C18.9306 115.32 26.8546 114.819 33.7723 116.576C39.8418 118.117 45.3776 121.177 50.8593 124.207C51.6226 124.629 52.3848 125.05 53.1475 125.467C78.6457 139.397 97.1299 148.761 125.784 153.312C125.856 153.323 125.905 153.39 125.893 153.462C125.882 153.534 125.815 153.583 125.743 153.572C97.0424 149.014 78.5251 139.63 53.0218 125.698C52.2576 125.281 51.4946 124.859 50.731 124.437C45.2463 121.406 39.742 118.364 33.7078 116.831Z" fill="#A6DEFA"/>
<path opacity="0.15" d="M222.415 118.524H146.432V122.708H222.415V118.524Z" fill="#C5D8FF"/>
<path opacity="0.15" d="M222.415 126.972H146.432V131.156H222.415V126.972Z" fill="#C5D8FF"/>
<path opacity="0.15" d="M222.415 135.421H146.432V139.605H222.415V135.421Z" fill="#C5D8FF"/>
<path d="M36.139 149.716C48.4919 149.716 58.5062 139.672 58.5062 127.283C58.5062 114.893 48.4919 104.849 36.139 104.849C23.7858 104.849 13.7717 114.893 13.7717 127.283C13.7717 139.672 23.7858 149.716 36.139 149.716Z" fill="#A6DEFA"/>
<path d="M91.2776 9.3562H6.50208V17.116H91.2776V9.3562Z" fill="#A6DEFA"/>
<path opacity="0.15" d="M91.2776 20.3276H6.50208V75.2093H91.2776V20.3276Z" fill="#C5D8FF"/>
<path opacity="0.15" d="M31.4028 24.2078H10.8538V70.6049H31.4028V24.2078Z" fill="#C5D8FF"/>
<path opacity="0.15" d="M56.3481 24.2078H35.7991V26.8396H56.3481V24.2078Z" fill="#C5D8FF"/>
<path opacity="0.15" d="M80.8862 24.2075H60.3372V26.8394H80.8862V24.2075Z" fill="#C5D8FF"/>
<path opacity="0.15" d="M56.3481 33.3015H35.7991V45.992H56.3481V33.3015Z" fill="#C5D8FF"/>
<path opacity="0.15" d="M56.3481 49.3337H35.7991V62.0242H56.3481V49.3337Z" fill="#C5D8FF"/>
<path opacity="0.15" d="M31.4028 73.0813H10.8538V91.5138H31.4028V73.0813Z" fill="#C5D8FF"/>
<path opacity="0.15" d="M80.8862 33.3018H60.3372V45.9923H80.8862V33.3018Z" fill="#C5D8FF"/>
<path opacity="0.15" d="M80.8862 49.3337H60.3372V62.0242H80.8862V49.3337Z" fill="#C5D8FF"/>
<path fill-rule="evenodd" clip-rule="evenodd" d="M144.62 51.8043C144.62 51.7318 144.678 51.6729 144.751 51.6729H173.45C173.523 51.6729 173.582 51.7318 173.582 51.8043C173.582 51.8771 173.523 51.9361 173.45 51.9361H144.751C144.678 51.9361 144.62 51.8771 144.62 51.8043Z" fill="#A6DEFA"/>
<path fill-rule="evenodd" clip-rule="evenodd" d="M152.702 49.7399C152.702 49.6673 152.761 49.6084 152.833 49.6084H173.45C173.523 49.6084 173.581 49.6673 173.581 49.7399C173.581 49.8127 173.523 49.8716 173.45 49.8716H152.833C152.761 49.8716 152.702 49.8127 152.702 49.7399Z" fill="#A6DEFA"/>
<path fill-rule="evenodd" clip-rule="evenodd" d="M152.702 47.6757C152.702 47.6028 152.761 47.5442 152.833 47.5442H178.856C178.929 47.5442 178.988 47.6028 178.988 47.6757C178.988 47.7485 178.929 47.8071 178.856 47.8071H152.833C152.761 47.8071 152.702 47.7485 152.702 47.6757Z" fill="#A6DEFA"/>
<path fill-rule="evenodd" clip-rule="evenodd" d="M152.702 45.6112C152.702 45.5384 152.761 45.4795 152.833 45.4795H173.45C173.523 45.4795 173.581 45.5384 173.581 45.6112C173.581 45.6838 173.523 45.7427 173.45 45.7427H152.833C152.761 45.7427 152.702 45.6838 152.702 45.6112Z" fill="#A6DEFA"/>
<path d="M36.139 127.283H58.5062C58.5062 139.589 48.4091 149.716 36.139 149.716C23.8686 149.716 13.7717 139.589 13.7717 127.283C13.7717 114.976 23.8686 104.849 36.139 104.849C40.7898 104.849 45.3268 106.304 49.1148 109.01L36.139 127.283Z" fill="#C5D8FF"/>
<path d="M33.9822 122.701H56.3494C56.3494 135.007 46.2525 145.134 33.9822 145.134C21.712 145.134 11.6151 135.007 11.6151 122.701C11.6151 112.464 18.6005 103.464 28.4947 100.953L33.9822 122.701Z" fill="#4382FF"/>
<path fill-rule="evenodd" clip-rule="evenodd" d="M40.4822 155.432H11.6151V154.115H40.4822V155.432Z" fill="#C5D8FF"/>
<path fill-rule="evenodd" clip-rule="evenodd" d="M40.4822 160.489H11.6151V159.173H40.4822V160.489Z" fill="#C5D8FF"/>
<path fill-rule="evenodd" clip-rule="evenodd" d="M146.498 151.13C146.498 145.169 141.68 140.337 135.737 140.337V139.811C141.97 139.811 147.023 144.878 147.023 151.13C147.023 157.381 141.97 162.449 135.737 162.449C129.504 162.449 124.452 157.381 124.452 151.13H124.977C124.977 157.09 129.794 161.922 135.737 161.922C141.68 161.922 146.498 157.09 146.498 151.13Z" fill="#A6DEFA"/>
<path fill-rule="evenodd" clip-rule="evenodd" d="M144.068 148.61C142.938 145.883 140.726 143.721 137.97 142.663L138.158 142.171C141.049 143.281 143.368 145.548 144.552 148.408L144.068 148.61Z" fill="#A6DEFA"/>
<path fill-rule="evenodd" clip-rule="evenodd" d="M212.745 79.6888C206.802 79.6888 201.984 84.5208 201.984 90.4815C201.984 96.442 206.802 101.274 212.745 101.274C218.688 101.274 223.506 96.442 223.506 90.4815C223.506 84.5208 218.688 79.6888 212.745 79.6888ZM201.459 90.4815C201.459 84.2301 206.512 79.1624 212.745 79.1624C218.978 79.1624 224.031 84.2301 224.031 90.4815C224.031 96.7327 218.978 101.8 212.745 101.8C206.512 101.8 201.459 96.7327 201.459 90.4815Z" fill="#C5D8FF"/>
<path fill-rule="evenodd" clip-rule="evenodd" d="M213.01 90.4819V150.077C213.01 150.804 212.422 151.393 211.697 151.393H135.737V150.867H211.697C212.132 150.867 212.485 150.513 212.485 150.077V90.4819H213.01Z" fill="#C5D8FF"/>
<path d="M159.987 90.2579C159.987 90.2579 165.897 120.798 174.495 122.954C183.093 125.11 169.874 87.6708 169.874 87.6708L167.295 77.7542H159.987V90.2579Z" fill="#4382FF"/>
<path d="M157.839 69.1304C157.839 69.1304 172.025 71.7175 173.315 82.0654C174.604 92.4133 181.174 123.023 181.174 123.023L174.496 122.954L169.515 87.8066C169.73 84.3833 167.722 81.2106 164.542 79.948L159.988 78.1398L157.839 69.1304Z" fill="#A6DEFA"/>
<path d="M160.315 95.5943C161.562 95.4572 162.392 93.6906 162.169 91.6486L159.787 69.8722C159.6 68.1566 158.716 66.7456 157.653 66.4648L156.48 66.1548C154.924 65.7437 153.739 67.875 154.139 70.364L157.694 92.4504C158.001 94.3564 159.14 95.7235 160.315 95.5943Z" fill="#A6DEFA"/>
<path d="M179.983 125.815C184.892 125.815 188.871 121.824 188.871 116.901C188.871 111.977 184.892 107.986 179.983 107.986C175.074 107.986 171.095 111.977 171.095 116.901C171.095 121.824 175.074 125.815 179.983 125.815Z" fill="#4382FF"/>
<path d="M187.589 79.2087L195.244 80.7705C195.244 80.7705 187.52 120.613 184.821 122.123C181.517 123.97 176.61 124.119 174.329 117.943C172.403 112.728 186.247 87.8039 187.589 79.2087Z" fill="#A6DEFA"/>
<path d="M142.629 25.3219V31.2752L117.799 29.6723V25.3219C117.799 24.9324 117.847 24.5534 117.933 24.1902C118.474 21.9399 120.592 20.2607 123.124 20.2607H137.305C139.646 20.2607 141.635 21.6978 142.346 23.6927C142.53 24.2034 142.629 24.7508 142.629 25.3219Z" fill="#4382FF"/>
<path d="M104.576 90.1549C104.576 90.1549 108.75 132.066 100.152 134.222C91.5546 136.378 92.2792 87.6701 92.2792 87.6701L94.8584 77.7534L103.811 77.2644L104.576 90.1549Z" fill="#4382FF"/>
<path d="M104.318 69.1301C104.318 69.1301 90.1317 71.7172 88.8421 82.0651C87.5525 92.413 93.4765 134.291 93.4765 134.291L100.155 134.222L92.6423 87.8063C92.4271 84.3831 94.4345 81.2103 97.6143 79.9478L102.169 78.1396L104.318 69.1301Z" fill="#A6DEFA"/>
<path d="M104.106 95.7566C102.853 95.8118 101.764 94.1929 101.674 92.1407L100.714 70.2549C100.639 68.5305 101.297 67.0008 102.305 66.5608C102.305 66.5608 102.685 66.2466 104.576 66.484C106.467 66.7214 106.931 67.4743 106.914 69.9953L106.218 92.2483C106.205 94.179 105.287 95.7044 104.106 95.7566Z" fill="#4382FF"/>
<path d="M99.9488 138.103C104.858 138.103 108.837 134.112 108.837 129.189C108.837 124.266 104.858 120.275 99.9488 120.275C95.0401 120.275 91.0608 124.266 91.0608 129.189C91.0608 134.112 95.0401 138.103 99.9488 138.103Z" fill="#4382FF"/>
<path d="M148.484 77.7538L145.652 100.174C136.345 100.956 126.77 101.073 116.924 100.174L114.092 77.7538C119.853 72.666 144.162 72.6864 148.484 77.7538Z" fill="white"/>
<path d="M145.652 79.338L143.286 98.0658C135.512 98.7183 127.514 98.816 119.29 98.0658L116.924 79.338C121.736 75.088 142.041 75.1053 145.652 79.338Z" fill="#A6DEFA"/>
<path d="M141.807 81.4899L140.074 95.2032C134.382 95.6812 128.525 95.7529 122.503 95.2032L120.771 81.4899C124.295 78.378 139.163 78.3905 141.807 81.4899Z" fill="#4382FF"/>
<path d="M135.552 47.8911C135.982 49.0219 134.486 52.7695 130.354 52.5621C127.716 52.4298 125.487 49.397 125.924 47.8911C129.23 48.6368 132.448 48.7034 135.552 47.8911Z" fill="#A6DEFA"/>
<path fill-rule="evenodd" clip-rule="evenodd" d="M141.233 20.1529C141.468 19.2065 142.425 18.6312 143.369 18.8679L143.316 19.0771L143.369 18.8679L145.283 19.3483C146.227 19.5851 146.801 20.5442 146.564 21.4906L144.626 29.2649C144.39 30.2112 143.433 30.7866 142.49 30.5498L140.575 30.0695C139.631 29.8327 139.058 28.8736 139.293 27.9272L141.233 20.1529ZM143.264 19.2862C142.551 19.1073 141.828 19.5421 141.65 20.2576L139.71 28.0318C139.532 28.7472 139.966 29.4723 140.679 29.6513L142.594 30.1316C143.307 30.3106 144.03 29.8757 144.209 29.1603L146.148 21.386C146.326 20.6706 145.892 19.9455 145.179 19.7666L143.264 19.2862L143.316 19.0778L143.264 19.2862Z" fill="#A6DEFA"/>
<path fill-rule="evenodd" clip-rule="evenodd" d="M146.622 11.7407L142.817 26.8731L142.4 26.7677L146.205 11.6353L146.622 11.7407Z" fill="#A6DEFA"/>
<path opacity="0.3" d="M146.414 15.7643C144.173 15.7643 142.35 13.9358 142.35 11.6882C142.35 9.44077 144.173 7.6123 146.414 7.6123C148.655 7.6123 150.478 9.44077 150.478 11.6882C150.478 13.9358 148.655 15.7643 146.414 15.7643Z" fill="#A6DEFA"/>
<path opacity="0.3" d="M146.414 14.4483C144.896 14.4483 143.662 13.2102 143.662 11.6881C143.662 10.1663 144.896 8.92822 146.414 8.92822C147.931 8.92822 149.166 10.1663 149.166 11.6881C149.166 13.2102 147.931 14.4483 146.414 14.4483Z" fill="#A6DEFA"/>
<path d="M146.415 13.1322C147.21 13.1322 147.855 12.4856 147.855 11.688C147.855 10.8905 147.21 10.2439 146.415 10.2439C145.62 10.2439 144.975 10.8905 144.975 11.688C144.975 12.4856 145.62 13.1322 146.415 13.1322Z" fill="#A6DEFA"/>
<path d="M117.691 103.877C118.17 103.877 118.559 103.487 118.559 103.006C118.559 102.525 118.17 102.135 117.691 102.135C117.211 102.135 116.823 102.525 116.823 103.006C116.823 103.487 117.211 103.877 117.691 103.877Z" fill="#A6DEFA"/>
<path d="M120.043 103.877C120.523 103.877 120.912 103.487 120.912 103.006C120.912 102.525 120.523 102.135 120.043 102.135C119.564 102.135 119.175 102.525 119.175 103.006C119.175 103.487 119.564 103.877 120.043 103.877Z" fill="#C5D8FF"/>
<path d="M122.394 103.877C122.873 103.877 123.262 103.487 123.262 103.006C123.262 102.525 122.873 102.135 122.394 102.135C121.914 102.135 121.526 102.525 121.526 103.006C121.526 103.487 121.914 103.877 122.394 103.877Z" fill="#4382FF"/>
<path d="M135.588 47.8547C135.654 47.9066 135.672 48.0313 135.658 48.1976C135.565 49.3417 134.512 49.9095 133.384 50.1058C131.516 50.4311 128.63 50.1639 127.012 49.4865C126.408 49.2334 125.867 48.8062 125.882 48.15C125.885 48.0284 125.908 47.9239 125.961 47.8547C129.268 48.6435 132.484 48.6951 135.588 47.8547Z" fill="white"/>
<path d="M111.101 150.964L117.693 146.47C117.693 146.47 107.559 127.033 103.991 125.695C99.6238 124.057 95.9728 125.88 95.1496 130.203C94.3267 134.526 103.988 145.566 111.101 150.964Z" fill="#A6DEFA"/>
<path d="M115.638 143.973C118.035 142.239 120.258 140.77 123.326 141.035C125.022 141.529 127.047 142.441 128.246 143.664C129.446 144.888 130.073 146.492 130.505 147.856C130.709 148.5 130.439 148.577 130.063 148.725C129.56 148.922 128.91 148.803 128.545 148.269C127.91 147.337 127.43 146.272 126.329 145.729C125.228 145.187 123.625 144.951 122.575 145.333C121.524 145.716 121.434 146.256 121.623 147.141C119.754 144.352 118.902 145.13 115.638 143.973Z" fill="#A6DEFA"/>
<path d="M120.876 155.822C120.876 155.822 116.028 155.183 112.935 153.301C109.044 150.933 111.409 147.136 111.409 147.136L120.876 155.822Z" fill="#A6DEFA"/>
<path fill-rule="evenodd" clip-rule="evenodd" d="M128.153 143.767C126.373 145.634 125.369 148.23 125.369 151.13H124.057C124.057 147.924 125.17 144.992 127.205 142.857C129.244 140.718 132.175 139.416 135.736 139.416V140.732C132.509 140.732 129.929 141.904 128.153 143.767Z" fill="#4382FF"/>
<path d="M195.694 82.2929C194.598 83.6942 189.799 84.2382 186.562 80.7711C183.324 77.3042 179.22 69.7086 182.563 67.3278C183.948 66.3415 185.008 73.1517 185.762 71.1094C187.319 66.8897 186.707 56.0259 190.312 56.0259C191.545 56.0259 189.847 59.6095 190.904 61.025C192.108 62.6372 191.918 64.0558 192.732 66.3871C194.061 70.1962 198.868 72.3467 198.546 73.8915C197.853 77.211 195.694 82.2929 195.694 82.2929Z" fill="#A6DEFA"/>
<path d="M146.928 117.241L146.051 119.155H116.527L115.681 117.312L146.928 117.241Z" fill="black" fill-opacity="0.5"/>
<g opacity="0.25">
<path opacity="0.25" d="M142.629 32.8119L117.799 31.2091V26.8585C117.799 26.469 117.799 25.6802 117.799 25.6802C126.257 21.9165 135.435 22.2146 142.541 25.2202C142.752 26.1102 142.641 26.4441 142.629 26.8585V32.8119Z" fill="#A6DEFA"/>
</g>
<path d="M146.994 122.122H115.581C114.567 122.122 113.744 121.298 113.744 120.28C113.744 119.263 114.567 118.438 115.581 118.438H146.994C148.009 118.438 148.831 119.263 148.831 120.28C148.831 121.298 148.009 122.122 146.994 122.122Z" fill="#4382FF"/>
<path opacity="0.25" d="M119.817 46.5273C119.817 46.5273 140.878 48.4364 142.336 47.5468C142.336 47.5468 142.518 46.6463 142.565 46.1786L118.44 45.5496L119.817 46.5273Z" fill="#A6DEFA"/>
<path d="M141.285 46.5271H119.048C119.048 46.5271 114.89 46.3367 114.122 44.378C112.832 41.0857 111.542 37.7937 110.252 34.5016C109.625 32.9019 110.132 31.0628 111.519 30.0521C124.568 20.5374 140.031 22.2697 149.082 29.9326C150.332 30.9905 150.778 32.7251 150.18 34.2511C148.857 37.6268 147.534 41.0024 146.211 44.378C145.443 46.3367 141.285 46.5271 141.285 46.5271Z" fill="#A6DEFA"/>
<path d="M139.92 41.155C133.652 39.3371 126.774 39.3371 120.506 41.155C119.426 41.4664 118.189 41.127 117.713 40.3186C117.252 39.5052 116.79 38.6917 116.329 37.8783C115.853 37.0725 116.569 36.0105 117.964 35.6068C125.873 33.3132 134.552 33.3129 142.461 35.6068C143.856 36.0105 144.572 37.0727 144.097 37.8783C143.636 38.6917 143.174 39.5052 142.712 40.3186C142.237 41.127 140.999 41.4664 139.92 41.155Z" fill="white"/>
<path d="M126.132 37.869C123.996 37.7047 121.786 38.1654 119.892 39.1695C119.566 39.3418 119.146 39.3157 118.939 39.0876C118.736 38.8573 118.534 38.6266 118.331 38.3963C118.125 38.169 118.284 37.7797 118.706 37.5565C121.095 36.2894 123.885 35.708 126.579 35.9154C127.055 35.9517 127.355 36.2452 127.257 36.5359C127.162 36.8283 127.068 37.1207 126.974 37.4131C126.875 37.7047 126.5 37.8968 126.132 37.869Z" fill="#4382FF"/>
<path d="M134.215 37.869C136.351 37.7047 138.562 38.1654 140.455 39.1695C140.782 39.3418 141.202 39.3157 141.408 39.0876C141.611 38.8573 141.814 38.6266 142.016 38.3963C142.223 38.169 142.063 37.7797 141.642 37.5565C139.252 36.2894 136.463 35.708 133.768 35.9154C133.293 35.9517 132.992 36.2452 133.091 36.5359C133.185 36.8283 133.28 37.1207 133.374 37.4131C133.473 37.7047 133.848 37.8968 134.215 37.869Z" fill="#4382FF"/>
<path fill-rule="evenodd" clip-rule="evenodd" d="M122.076 92.8712C122.076 92.7984 122.135 92.7395 122.208 92.7395H140.368C140.44 92.7395 140.499 92.7984 140.499 92.8712C140.499 92.9438 140.44 93.0027 140.368 93.0027H122.208C122.135 93.0027 122.076 92.9438 122.076 92.8712Z" fill="#A6DEFA"/>
<path fill-rule="evenodd" clip-rule="evenodd" d="M122.076 91.5138C122.076 91.441 122.135 91.3821 122.208 91.3821H140.368C140.44 91.3821 140.499 91.441 140.499 91.5138C140.499 91.5864 140.44 91.6453 140.368 91.6453H122.208C122.135 91.6453 122.076 91.5864 122.076 91.5138Z" fill="#A6DEFA"/>
<path fill-rule="evenodd" clip-rule="evenodd" d="M122.076 90.1549C122.076 90.0821 122.135 90.0232 122.208 90.0232H140.368C140.44 90.0232 140.499 90.0821 140.499 90.1549C140.499 90.2275 140.44 90.2864 140.368 90.2864H122.208C122.135 90.2864 122.076 90.2275 122.076 90.1549Z" fill="#A6DEFA"/>
<path opacity="0.15" d="M189.94 64.19C198.268 64.19 205.019 57.4192 205.019 49.0668C205.019 40.7144 198.268 33.9436 189.94 33.9436C181.613 33.9436 174.862 40.7144 174.862 49.0668C174.862 57.4192 181.613 64.19 189.94 64.19Z" fill="#A6DEFA"/>
<path opacity="0.15" d="M189.941 60.9117C196.463 60.9117 201.751 55.6085 201.751 49.0669C201.751 42.5253 196.463 37.2222 189.941 37.2222C183.418 37.2222 178.131 42.5253 178.131 49.0669C178.131 55.6085 183.418 60.9117 189.941 60.9117Z" fill="#A6DEFA"/>
<path opacity="0.25" d="M189.941 57.6331C194.658 57.6331 198.482 53.7979 198.482 49.067C198.482 44.3359 194.658 40.5007 189.941 40.5007C185.224 40.5007 181.4 44.3359 181.4 49.067C181.4 53.7979 185.224 57.6331 189.941 57.6331Z" fill="#A6DEFA"/>
<path opacity="0.5" d="M189.942 54.355C192.854 54.355 195.214 51.9874 195.214 49.0674C195.214 46.1471 192.854 43.7795 189.942 43.7795C187.03 43.7795 184.67 46.1471 184.67 49.0674C184.67 51.9874 187.03 54.355 189.942 54.355Z" fill="#A6DEFA"/>
<path d="M189.941 51.7829C191.436 51.7829 192.649 50.5668 192.649 49.0669C192.649 47.5666 191.436 46.3508 189.941 46.3508C188.445 46.3508 187.233 47.5666 187.233 49.0669C187.233 50.5668 188.445 51.7829 189.941 51.7829Z" fill="#A6DEFA"/>
<path fill-rule="evenodd" clip-rule="evenodd" d="M3.68268 9.35595C3.68268 9.28327 3.74141 9.22437 3.8139 9.22437H29.3159C29.3882 9.22437 29.447 9.28327 29.447 9.35595C29.447 9.42862 29.3882 9.48755 29.3159 9.48755H3.8139C3.74141 9.48755 3.68268 9.42862 3.68268 9.35595Z" fill="#A6DEFA"/>
<path fill-rule="evenodd" clip-rule="evenodd" d="M66.6311 17.1162C66.6311 17.0436 66.6899 16.9846 66.7622 16.9846H92.2643C92.3366 16.9846 92.3954 17.0436 92.3954 17.1162C92.3954 17.1889 92.3366 17.2478 92.2643 17.2478H66.7622C66.6899 17.2478 66.6311 17.1889 66.6311 17.1162Z" fill="#A6DEFA"/>
<path fill-rule="evenodd" clip-rule="evenodd" d="M8.34906 73.0812C8.34906 73.0086 8.40779 72.9497 8.48025 72.9497H33.9821C34.0547 72.9497 34.1135 73.0086 34.1135 73.0812C34.1135 73.154 34.0547 73.2126 33.9821 73.2126H8.48025C8.40779 73.2126 8.34906 73.154 8.34906 73.0812Z" fill="#A6DEFA"/>
<path d="M11.0764 14.336C11.7927 14.336 12.3733 13.7537 12.3733 13.0353C12.3733 12.317 11.7927 11.7346 11.0764 11.7346C10.3602 11.7346 9.77954 12.317 9.77954 13.0353C9.77954 13.7537 10.3602 14.336 11.0764 14.336Z" fill="#C5D8FF"/>
<path d="M15.8079 14.3363C16.5241 14.3363 17.1048 13.754 17.1048 13.0356C17.1048 12.3172 16.5241 11.7349 15.8079 11.7349C15.0916 11.7349 14.511 12.3172 14.511 13.0356C14.511 13.754 15.0916 14.3363 15.8079 14.3363Z" fill="#4382FF"/>
<path opacity="0.15" d="M222.415 126.972H146.432V131.156H222.415V126.972Z" fill="#C5D8FF"/>
<path opacity="0.15" d="M222.415 135.421H146.432V139.605H222.415V135.421Z" fill="#C5D8FF"/>
<path fill-rule="evenodd" clip-rule="evenodd" d="M144.62 51.8043C144.62 51.7318 144.678 51.6729 144.751 51.6729H173.45C173.523 51.6729 173.582 51.7318 173.582 51.8043C173.582 51.8771 173.523 51.9361 173.45 51.9361H144.751C144.678 51.9361 144.62 51.8771 144.62 51.8043Z" fill="#A6DEFA"/>
<path fill-rule="evenodd" clip-rule="evenodd" d="M152.702 49.7399C152.702 49.6673 152.761 49.6084 152.833 49.6084H173.45C173.523 49.6084 173.581 49.6673 173.581 49.7399C173.581 49.8127 173.523 49.8716 173.45 49.8716H152.833C152.761 49.8716 152.702 49.8127 152.702 49.7399Z" fill="#A6DEFA"/>
<path fill-rule="evenodd" clip-rule="evenodd" d="M152.702 47.6757C152.702 47.6028 152.761 47.5442 152.833 47.5442H178.856C178.929 47.5442 178.988 47.6028 178.988 47.6757C178.988 47.7485 178.929 47.8071 178.856 47.8071H152.833C152.761 47.8071 152.702 47.7485 152.702 47.6757Z" fill="#A6DEFA"/>
<path fill-rule="evenodd" clip-rule="evenodd" d="M152.702 45.6112C152.702 45.5384 152.761 45.4795 152.833 45.4795H173.45C173.523 45.4795 173.581 45.5384 173.581 45.6112C173.581 45.6838 173.523 45.7427 173.45 45.7427H152.833C152.761 45.7427 152.702 45.6838 152.702 45.6112Z" fill="#A6DEFA"/>
<path d="M160.315 95.5943C161.562 95.4572 162.392 93.6906 162.169 91.6486L159.787 69.8722C159.6 68.1566 158.716 66.7456 157.653 66.4648L156.48 66.1548C154.924 65.7437 153.739 67.875 154.139 70.364L157.694 92.4504C158.001 94.3564 159.14 95.7235 160.315 95.5943Z" fill="#4382FF"/>
<path d="M145.652 79.338L143.286 98.0658C135.512 98.7183 127.514 98.816 119.29 98.0658L116.924 79.338C121.736 75.088 142.041 75.1053 145.652 79.338Z" fill="#A6DEFA"/>
<path d="M141.807 81.4899L140.074 95.2032C134.382 95.6812 128.525 95.7529 122.503 95.2032L120.771 81.4899C124.295 78.378 139.163 78.3905 141.807 81.4899Z" fill="#4382FF"/>
<path d="M135.552 47.8911C135.982 49.0219 134.486 52.7695 130.354 52.5621C127.716 52.4298 125.487 49.397 125.924 47.8911C129.23 48.6368 132.448 48.7034 135.552 47.8911Z" fill="#464646"/>
<path d="M117.691 103.877C118.17 103.877 118.559 103.487 118.559 103.006C118.559 102.525 118.17 102.135 117.691 102.135C117.211 102.135 116.823 102.525 116.823 103.006C116.823 103.487 117.211 103.877 117.691 103.877Z" fill="#4382FF"/>
<path d="M120.043 103.877C120.523 103.877 120.912 103.487 120.912 103.006C120.912 102.525 120.523 102.135 120.043 102.135C119.564 102.135 119.175 102.525 119.175 103.006C119.175 103.487 119.564 103.877 120.043 103.877Z" fill="white"/>
<path d="M122.394 103.877C122.873 103.877 123.262 103.487 123.262 103.006C123.262 102.525 122.873 102.135 122.394 102.135C121.914 102.135 121.526 102.525 121.526 103.006C121.526 103.487 121.914 103.877 122.394 103.877Z" fill="#4382FF"/>
<path d="M135.588 47.8547C135.654 47.9066 135.672 48.0313 135.658 48.1976C135.565 49.3417 134.512 49.9095 133.384 50.1058C131.516 50.4311 128.63 50.1639 127.012 49.4865C126.408 49.2334 125.867 48.8062 125.882 48.15C125.885 48.0284 125.908 47.9239 125.961 47.8547C129.268 48.6435 132.484 48.6951 135.588 47.8547Z" fill="white"/>
<path d="M120.876 155.822C120.876 155.822 116.028 155.183 112.935 153.301C109.044 150.933 111.409 147.136 111.409 147.136L120.876 155.822Z" fill="#A6DEFA"/>
<path opacity="0.25" d="M119.817 46.5273C119.817 46.5273 140.878 48.4364 142.336 47.5468C142.336 47.5468 142.518 46.6463 142.565 46.1786L118.44 45.5496L119.817 46.5273Z" fill="#A6DEFA"/>
<path fill-rule="evenodd" clip-rule="evenodd" d="M122.076 92.8712C122.076 92.7984 122.135 92.7395 122.208 92.7395H140.368C140.44 92.7395 140.499 92.7984 140.499 92.8712C140.499 92.9438 140.44 93.0027 140.368 93.0027H122.208C122.135 93.0027 122.076 92.9438 122.076 92.8712Z" fill="#A6DEFA"/>
<path fill-rule="evenodd" clip-rule="evenodd" d="M122.076 91.5138C122.076 91.441 122.135 91.3821 122.208 91.3821H140.368C140.44 91.3821 140.499 91.441 140.499 91.5138C140.499 91.5864 140.44 91.6453 140.368 91.6453H122.208C122.135 91.6453 122.076 91.5864 122.076 91.5138Z" fill="#A6DEFA"/>
<path fill-rule="evenodd" clip-rule="evenodd" d="M122.076 90.1549C122.076 90.0821 122.135 90.0232 122.208 90.0232H140.368C140.44 90.0232 140.499 90.0821 140.499 90.1549C140.499 90.2275 140.44 90.2864 140.368 90.2864H122.208C122.135 90.2864 122.076 90.2275 122.076 90.1549Z" fill="#A6DEFA"/>
<path fill-rule="evenodd" clip-rule="evenodd" d="M3.68268 9.35595C3.68268 9.28327 3.74141 9.22437 3.8139 9.22437H29.3159C29.3882 9.22437 29.447 9.28327 29.447 9.35595C29.447 9.42862 29.3882 9.48755 29.3159 9.48755H3.8139C3.74141 9.48755 3.68268 9.42862 3.68268 9.35595Z" fill="#A6DEFA"/>
<path d="M11.0764 14.336C11.7927 14.336 12.3733 13.7537 12.3733 13.0353C12.3733 12.317 11.7927 11.7346 11.0764 11.7346C10.3602 11.7346 9.77954 12.317 9.77954 13.0353C9.77954 13.7537 10.3602 14.336 11.0764 14.336Z" fill="#C5D8FF"/>
<path d="M15.8079 14.3363C16.5241 14.3363 17.1048 13.754 17.1048 13.0356C17.1048 12.3172 16.5241 11.7349 15.8079 11.7349C15.0916 11.7349 14.511 12.3172 14.511 13.0356C14.511 13.754 15.0916 14.3363 15.8079 14.3363Z" fill="#4382FF"/>
<path d="M112.646 153.889C109.506 150.979 114.977 140.839 120.71 143.586C123.4 144.875 131.839 148.117 131.289 149.369C130.74 150.622 126.102 156.371 122.165 157.222C117.007 158.336 112.646 153.889 112.646 153.889Z" fill="#A6DEFA"/>
</svg>
