<svg width="326" height="288" viewBox="0 0 326 288" fill="none" xmlns="http://www.w3.org/2000/svg">
<path d="M211.272 113.455C249.979 114.095 263.923 153.747 266.851 123.666C269.682 94.5913 233.86 27.8308 204.596 24.4565C178.739 21.4751 185.94 43.504 156.658 53.9028C127.376 64.3017 107.447 31.1312 87.9125 49.4713C72.2351 64.1903 91.4956 75.5421 71.6863 118.557C62.2463 139.055 102.038 163.806 133.271 158.111C177.995 149.956 172.565 112.815 211.272 113.455Z" fill="#FDD17B"/>
<path fill-rule="evenodd" clip-rule="evenodd" d="M148.991 153.335C160.738 148.032 167.702 140.18 174.211 132.841C183.407 122.473 191.693 113.131 211.272 113.455C229.817 113.762 242.678 123.024 251.366 129.281C260.812 136.083 265.326 139.334 266.851 123.665C269.681 94.5911 233.859 27.8305 204.596 24.4563C190.741 22.8588 186.377 28.4418 180.807 35.5688C178.394 38.6556 175.755 42.0323 172.02 45.2406C199.285 47.7433 226.5 57.7683 220.559 80.2604C215.407 99.7687 201.288 105.187 188.452 110.114C186.854 110.727 185.276 111.333 183.738 111.957C170.427 117.358 157.488 122.609 152.756 141.745C151.691 146.052 150.418 149.9 148.991 153.335Z" fill="black" fill-opacity="0.14"/>
<path fill-rule="evenodd" clip-rule="evenodd" d="M139.427 18.2034L138.407 19.1466L140.019 19.4181L152.476 44.9581L132.551 62.6188L133.407 64.0911L172.57 70.8406L191.43 50.6766L178.603 24.6818L139.467 18.211L139.427 18.2034Z" fill="#204EA9"/>
<path fill-rule="evenodd" clip-rule="evenodd" d="M139.427 18.2034L138.407 19.1466L140.019 19.4181L152.476 44.9581L132.551 62.6188L133.407 64.0911L172.57 70.8406L191.43 50.6766L178.603 24.6818L139.467 18.211L139.427 18.2034Z" fill="black" fill-opacity="0.31"/>
<path d="M132.645 62.6715L150.651 43.6257L189.827 50.1032L171.821 69.1486L132.645 62.6715Z" fill="#204EA9"/>
<path d="M138.402 19.1379L150.65 43.6261L189.826 50.1032L177.578 25.6153L138.402 19.1379Z" fill="#A8BBDE"/>
<path d="M140.902 20.6428L151.96 42.751L187.328 48.5985L176.271 26.4906L140.902 20.6428Z" fill="white" fill-opacity="0.58"/>
<path fill-rule="evenodd" clip-rule="evenodd" d="M150.334 49.2155L149.25 49.0345L150.288 48.0938L151.372 48.2747L150.334 49.2155ZM154.329 49.9529L152.161 49.591L153.54 48.6366L155.708 48.9985L154.329 49.9529ZM158.538 50.682L156.371 50.3201L157.875 49.3605L160.043 49.7221L158.538 50.682ZM162.874 51.4055L160.706 51.0436L162.211 50.084L164.379 50.4459L162.874 51.4055ZM167.421 52.121L165.253 51.7591L166.547 50.8079L168.715 51.1698L167.421 52.121ZM171.841 52.8413L169.673 52.4794L170.883 51.5317L173.05 51.8933L171.841 52.8413ZM176.05 53.5701L173.882 53.2082L175.218 52.2552L177.386 52.6172L176.05 53.5701ZM179.606 54.233L178.522 54.0521L179.554 52.9791L180.638 53.16C182.282 53.4344 180.834 54.4381 179.606 54.233Z" fill="#373248"/>
<path fill-rule="evenodd" clip-rule="evenodd" d="M147.611 51.8239L146.527 51.6429L147.565 50.7021L148.649 50.8831L147.611 51.8239ZM151.607 52.5613L149.439 52.1994L150.817 51.245L152.985 51.607L151.607 52.5613ZM155.816 53.2904L153.648 52.9285L155.153 51.9689L157.321 52.3305L155.816 53.2904ZM160.151 54.0139L157.983 53.652L159.488 52.6924L161.656 53.0543L160.151 54.0139ZM164.698 54.7294L162.53 54.3675L163.824 53.4163L165.992 53.7782L164.698 54.7294ZM169.118 55.4495L166.95 55.0878L168.16 54.1401L170.328 54.5017L169.118 55.4495ZM173.327 56.1785L171.159 55.8166L172.495 54.8637L174.663 55.2256L173.327 56.1785ZM176.883 56.8414L175.799 56.6605L176.831 55.5875L177.915 55.7684C179.56 56.0428 178.111 57.0465 176.883 56.8414Z" fill="#373248"/>
<path fill-rule="evenodd" clip-rule="evenodd" d="M144.885 54.4318L143.801 54.2508L144.839 53.3101L145.923 53.491L144.885 54.4318ZM148.88 55.1692L146.712 54.8073L148.09 53.8526L150.258 54.2146L148.88 55.1692ZM153.089 55.898L150.921 55.5361L152.426 54.5765L154.594 54.9384L153.089 55.898ZM157.425 56.6219L155.257 56.2599L156.762 55.3003L158.93 55.6622L157.425 56.6219ZM161.971 57.337L159.803 56.9751L161.097 56.0242L163.265 56.3858L161.971 57.337ZM166.391 58.0574L164.223 57.6954L165.433 56.7477L167.601 57.1096L166.391 58.0574ZM170.601 58.7861L168.432 58.4245L169.769 57.4716L171.937 57.8335L170.601 58.7861ZM174.156 59.4494L173.072 59.2684L174.105 58.1954L175.188 58.3761C176.833 58.6507 175.384 59.6544 174.156 59.4494Z" fill="#373248"/>
<path fill-rule="evenodd" clip-rule="evenodd" d="M142.162 57.0397L141.078 56.859L142.116 55.918L143.2 56.0989L142.162 57.0397ZM146.157 57.7774L143.989 57.4155L145.368 56.4609L147.535 56.8228L146.157 57.7774ZM150.366 58.5062L148.198 58.1443L149.703 57.1847L151.871 57.5466L150.366 58.5062ZM154.702 59.2298L152.534 58.8681L154.039 57.9082L156.207 58.2702L154.702 59.2298ZM159.249 59.9452L157.081 59.5833L158.375 58.6321L160.543 58.994L159.249 59.9452ZM163.668 60.6656L161.5 60.3036L162.71 59.3559L164.878 59.7178L163.668 60.6656ZM167.878 61.3943L165.71 61.0324L167.046 60.0798L169.214 60.4414L167.878 61.3943ZM171.433 62.0576L170.349 61.8766L171.382 60.8033L172.466 60.9843C174.11 61.2589 172.661 62.2623 171.433 62.0576Z" fill="#373248"/>
<path fill-rule="evenodd" clip-rule="evenodd" d="M150.334 49.5763L149.25 49.3954L150.288 48.4546L151.372 48.6355L150.334 49.5763ZM154.329 50.3138L152.161 49.9522L153.54 48.9975L155.708 49.3594L154.329 50.3138ZM158.538 51.0428L156.371 50.6809L157.875 49.7213L160.043 50.0832L158.538 51.0428ZM162.874 51.7664L160.706 51.4048L162.211 50.4449L164.379 50.8068L162.874 51.7664ZM167.421 52.4818L165.253 52.1199L166.547 51.1687L168.715 51.5306L167.421 52.4818ZM171.841 53.2022L169.673 52.8403L170.883 51.8925L173.05 52.2545L171.841 53.2022ZM176.05 53.931L173.882 53.569L175.218 52.6161L177.386 52.978L176.05 53.931ZM179.606 54.5939L178.522 54.4132L179.554 53.3399L180.638 53.5209C182.282 53.7955 180.834 54.7989 179.606 54.5939Z" fill="#A8BBDE"/>
<path fill-rule="evenodd" clip-rule="evenodd" d="M147.611 52.1852L146.527 52.0042L147.565 51.0635L148.649 51.2444L147.611 52.1852ZM151.607 52.9227L149.439 52.561L150.817 51.6064L152.985 51.9683L151.607 52.9227ZM155.816 53.6517L153.648 53.2898L155.153 52.3302L157.321 52.6918L155.816 53.6517ZM160.151 54.3753L157.983 54.0134L159.488 53.0537L161.656 53.4157L160.151 54.3753ZM164.698 55.0907L162.53 54.7288L163.824 53.7776L165.992 54.1395L164.698 55.0907ZM169.118 55.8111L166.95 55.4491L168.16 54.5014L170.328 54.8631L169.118 55.8111ZM173.327 56.5398L171.159 56.1779L172.495 55.225L174.663 55.5869L173.327 56.5398ZM176.883 57.2028L175.799 57.0218L176.831 55.9488L177.915 56.1298C179.56 56.4041 178.111 57.4078 176.883 57.2028Z" fill="#A8BBDE"/>
<path fill-rule="evenodd" clip-rule="evenodd" d="M144.885 54.7931L143.801 54.6121L144.839 53.6714L145.923 53.8523L144.885 54.7931ZM148.88 55.5306L146.712 55.1687L148.09 54.2143L150.258 54.5759L148.88 55.5306ZM153.089 56.2593L150.921 55.8974L152.426 54.9378L154.594 55.2997L153.089 56.2593ZM157.425 56.9832L155.257 56.6213L156.762 55.6617L158.93 56.0236L157.425 56.9832ZM161.971 57.6983L159.803 57.3364L161.097 56.3855L163.265 56.7471L161.971 57.6983ZM166.391 58.4187L164.223 58.0568L165.433 57.109L167.601 57.471L166.391 58.4187ZM170.601 59.1475L168.432 58.7858L169.769 57.8329L171.937 58.1948L170.601 59.1475ZM174.156 59.8107L173.072 59.6297L174.105 58.5567L175.188 58.7377C176.833 59.012 175.384 60.0157 174.156 59.8107Z" fill="#A8BBDE"/>
<path fill-rule="evenodd" clip-rule="evenodd" d="M142.162 57.401L141.078 57.2201L142.116 56.2793L143.2 56.46L142.162 57.401ZM146.157 58.1385L143.989 57.7766L145.368 56.8219L147.535 57.1838L146.157 58.1385ZM150.366 58.8673L148.198 58.5053L149.703 57.5457L151.871 57.9076L150.366 58.8673ZM154.702 59.5911L152.534 59.2292L154.039 58.2696L156.207 58.6312L154.702 59.5911ZM159.249 60.3062L157.081 59.9443L158.375 58.9931L160.543 59.355L159.249 60.3062ZM163.668 61.0266L161.5 60.6647L162.71 59.717L164.878 60.0789L163.668 61.0266ZM167.878 61.7554L165.71 61.3935L167.046 60.4408L169.214 60.8024L167.878 61.7554ZM171.433 62.4186L170.349 62.2376L171.382 61.1644L172.466 61.3453C174.11 61.6199 172.661 62.6236 171.433 62.4186Z" fill="#A8BBDE"/>
<path fill-rule="evenodd" clip-rule="evenodd" d="M179.007 28.4699L176.737 28.1146C174.634 27.7854 175.441 31.5998 179.255 32.0516C179.698 32.1041 180.263 32.1844 180.916 32.2856L179.007 28.4699ZM182.288 35.0296L179.982 34.6689C177.879 34.3397 178.686 38.1541 182.5 38.6059C182.951 38.6593 183.528 38.7416 184.196 38.8454L182.288 35.0296ZM185.569 41.5891L183.227 41.2226C181.124 40.8934 181.931 44.7081 185.745 45.1596C186.204 45.2141 186.794 45.2985 187.477 45.4049L185.569 41.5891Z" fill="#040404" fill-opacity="0.33"/>
<path fill-rule="evenodd" clip-rule="evenodd" d="M148.049 38.4293L161.981 40.9149L161.089 38.7373L147.036 36.4039L148.049 38.4293ZM145.736 33.8047L160.104 36.368L159.212 34.1907L144.726 31.7854L145.736 33.8047ZM143.619 29.573C148.048 30.3821 152.467 31.2489 152.467 31.2489C156.453 31.873 154.597 27.6735 151.931 27.2562L141.656 25.6482L143.619 29.573Z" fill="black" fill-opacity="0.14"/>
<path d="M131.226 25.5208L149.903 28.444C152.569 28.8613 154.425 33.0605 150.439 32.4367C150.439 32.4367 137.557 29.9096 133.743 29.4579C129.929 29.0062 129.122 25.1917 131.226 25.5208Z" fill="#FDD17B"/>
<path d="M173.629 29.0853L192.306 32.0084C194.972 32.4257 196.828 36.6249 192.842 36.0012C192.842 36.0012 179.96 33.4741 176.146 33.0223C172.332 32.5707 171.525 28.7561 173.629 29.0853Z" fill="#A8BBDE"/>
<path d="M176.873 35.6392L195.551 38.5624C198.217 38.9798 200.073 43.1793 196.087 42.5552C196.087 42.5552 183.205 40.0281 179.391 39.5763C175.577 39.1248 174.77 35.3101 176.873 35.6392Z" fill="#A8BBDE"/>
<path d="M180.12 42.1932L198.798 45.1164C201.464 45.5337 203.32 49.7329 199.333 49.1091C199.333 49.1091 186.451 46.5821 182.638 46.1302C178.824 45.6784 178.017 41.8641 180.12 42.1932Z" fill="#A8BBDE"/>
<path d="M140.293 32.5735L157.188 35.3784L158.079 37.556L141.383 34.5771L140.293 32.5735Z" fill="#FDD17B"/>
<path d="M142.168 37.1201L159.063 39.9253L159.954 42.1026L143.258 39.1237L142.168 37.1201Z" fill="#FDD17B"/>
<path opacity="0.9" d="M164 14.8852L146.613 11.9954L153.799 27.7217L170.914 30.7122L164 14.8852Z" fill="white" fill-opacity="0.54"/>
<path d="M151.157 15.5178L162.038 17.3319L162.641 18.7335L151.777 16.8249L151.157 15.5178Z" fill="black" fill-opacity="0.1"/>
<path d="M152.496 18.4646L163.316 20.2574L163.889 21.6519L153.116 19.7313L152.496 18.4646Z" fill="black" fill-opacity="0.1"/>
<path d="M153.719 21.094L164.432 22.8786L165.041 24.2914L154.307 22.3652L153.719 21.094Z" fill="black" fill-opacity="0.1"/>
<path d="M155.055 24.0227L165.734 25.8255L166.367 27.1901L155.667 25.3474L155.055 24.0227Z" fill="black" fill-opacity="0.1"/>
<path d="M150.539 16.4221L161.419 18.2362L162.023 19.6378L151.159 17.7292L150.539 16.4221Z" fill="#204EA9"/>
<path d="M151.875 19.3689L162.695 21.1618L163.268 22.5562L152.496 20.6357L151.875 19.3689Z" fill="#204EA9"/>
<path d="M153.101 21.9985L163.815 23.7831L164.423 25.1959L153.69 23.2697L153.101 21.9985Z" fill="#204EA9"/>
<path d="M154.437 24.927L165.116 26.7298L165.749 28.0944L155.05 26.2517L154.437 24.927Z" fill="#204EA9"/>
<path d="M187.306 38.4312C187.25 38.3735 187.158 38.3717 187.1 38.4271C187.041 38.4828 187.04 38.5744 187.095 38.6322L187.306 38.4312ZM188.141 39.5013L188.22 39.6228L188.369 39.5274L188.246 39.4007L188.141 39.5013ZM187.228 39.9151C187.16 39.9589 187.141 40.0485 187.185 40.1158C187.229 40.1831 187.319 40.2022 187.387 40.1584L187.228 39.9151ZM187.095 38.6322L188.035 39.6016L188.246 39.4007L187.306 38.4312L187.095 38.6322ZM188.061 39.3795L187.228 39.9151L187.387 40.1584L188.22 39.6228L188.061 39.3795Z" fill="#E8ECFA"/>
<path d="M184.616 38.1994C184.666 38.1373 184.759 38.1277 184.821 38.1779C184.884 38.2284 184.894 38.3197 184.843 38.3821L184.616 38.1994ZM184.124 39.032L184.037 39.1488L183.914 39.0586L184.01 38.9406L184.124 39.032ZM184.993 39.4861C185.058 39.5334 185.072 39.6241 185.024 39.6888C184.976 39.7532 184.885 39.7671 184.819 39.7195L184.993 39.4861ZM184.843 38.3821L184.238 39.1233L184.01 38.9406L184.616 38.1994L184.843 38.3821ZM184.211 38.9151L184.993 39.4861L184.819 39.7195L184.037 39.1488L184.211 38.9151Z" fill="#E8ECFA"/>
<path d="M226.293 15.5059L215.288 18.1016L215.749 20.0217L226.754 17.4259L226.293 15.5059Z" fill="#204EA9"/>
<path d="M255.711 12.1708L216.105 21.5129L216.566 23.433L256.172 14.0909L255.711 12.1708Z" fill="#204EA9"/>
<path d="M256.531 15.582L216.926 24.9241L217.387 26.8442L256.992 17.5021L256.531 15.582Z" fill="#204EA9"/>
<path d="M229.567 29.1511L218.563 31.7468L219.023 33.6669L230.028 31.0712L229.567 29.1511Z" fill="#204EA9"/>
<path d="M240.949 30.0705L219.383 35.1575L219.844 37.0776L241.41 31.9906L240.949 30.0705Z" fill="#204EA9"/>
<path d="M232.023 39.3845L221.019 41.9802L221.48 43.9003L232.484 41.3046L232.023 39.3845Z" fill="#204EA9"/>
<path d="M243.406 40.3045L221.84 45.3914L222.301 47.3115L243.866 42.2246L243.406 40.3045Z" fill="#204EA9"/>
<path d="M234.481 49.6182L223.477 52.2139L223.937 54.134L234.942 51.5382L234.481 49.6182Z" fill="#204EA9"/>
<path d="M263.897 46.2833L224.293 55.625L224.754 57.5451L264.357 48.2034L263.897 46.2833Z" fill="#204EA9"/>
<path d="M264.717 49.6945L225.113 59.0361L225.574 60.9562L265.177 51.6146L264.717 49.6945Z" fill="#204EA9"/>
<path d="M80.6509 14.2602L69.3977 13.1218L69.1956 15.0853L80.4488 16.2236L80.6509 14.2602Z" fill="#204EA9"/>
<path d="M107.107 20.461L69.0386 16.6101L68.8365 18.5736L106.905 22.4245L107.107 20.461Z" fill="#204EA9"/>
<path d="M106.748 23.9493L68.6797 20.0984L68.4776 22.0619L106.546 25.9128L106.748 23.9493Z" fill="#204EA9"/>
<path d="M79.2141 28.2138L67.9609 27.0754L67.7589 29.0389L79.012 30.1773L79.2141 28.2138Z" fill="#204EA9"/>
<path d="M93.9914 33.2332L67.6016 30.5637L67.3995 32.5272L93.7894 35.1967L93.9914 33.2332Z" fill="#204EA9"/>
<path d="M78.1399 38.6786L66.8867 37.5403L66.6847 39.5038L77.9378 40.6421L78.1399 38.6786Z" fill="#204EA9"/>
<path d="M92.9162 43.6983L66.5269 41.0288L66.3248 42.9923L92.7141 45.6618L92.9162 43.6983Z" fill="#204EA9"/>
<path d="M77.0622 49.1437L65.8091 48.0054L65.607 49.9689L76.8602 51.1072L77.0622 49.1437Z" fill="#204EA9"/>
<path fill-rule="evenodd" clip-rule="evenodd" d="M200.155 103.367C194.867 104.069 189.944 105.009 187.068 105.651L185.492 99.6307C188.597 98.9376 193.768 97.9519 199.321 97.215C204.819 96.4857 217.641 95.014 222.562 95.3512L221.686 101.558C217.634 101.281 205.497 102.658 200.155 103.367Z" fill="#9D7F7F"/>
<path fill-rule="evenodd" clip-rule="evenodd" d="M194.887 126.881C190.895 125.771 187.078 124.978 184.816 124.593L185.779 119.039C188.221 119.455 192.228 120.289 196.422 121.454C200.574 122.608 210.176 125.492 213.55 127.355L210.784 132.278C208.006 130.744 198.922 128.002 194.887 126.881Z" fill="#6A5050"/>
<path fill-rule="evenodd" clip-rule="evenodd" d="M122.305 80.8342C125.963 77.601 129.459 73.5731 130.26 69.3618C131.057 65.1669 131.717 60.4547 133.545 56.5174C134.135 55.2454 134.554 54.5593 135.615 53.5759C136.798 52.478 138.656 52.5394 139.764 53.7131C141.774 55.844 139.766 55.2237 138.873 57.1481C137.778 57.68 137.021 59.6923 136.61 61.0321C135.79 63.7079 135.477 70.2648 135.151 71.9845C134.016 77.9545 130.373 81.5012 126.211 85.1792C122.054 88.8532 117.257 91.5059 113.764 92.4464C112.2 92.8677 110.587 91.9519 110.162 90.401C109.737 88.8498 110.661 87.2507 112.225 86.8293C114.628 86.1821 118.642 84.0717 122.305 80.8342Z" fill="#6A5050"/>
<path fill-rule="evenodd" clip-rule="evenodd" d="M119.809 92.2877C116.071 95.2353 110.41 88.9457 110.41 88.9457C110.41 88.9457 113.627 85.5513 119.17 82.1084C119.17 82.1084 121.885 85.7659 123.094 88.1775C123.581 89.1464 120.829 91.4835 119.809 92.2877Z" fill="#A8BBDE"/>
<path fill-rule="evenodd" clip-rule="evenodd" d="M111.619 106.283C115.145 117.881 117.361 125.691 127.827 136.23C128.134 136.54 128.715 137.063 129.075 137.231C133.515 141.271 138.92 144.047 144.503 143.682C152.207 143.178 158.663 137.856 164.224 133.272C167.771 130.349 170.953 127.725 173.863 126.843C179.84 125.031 193.345 130.425 199.35 133.348C206.18 128.284 206.789 116.282 201.813 110.115C198.807 106.389 200.672 102.609 202.3 99.3076C203.368 97.1448 204.333 95.1879 203.76 93.5874C191.341 93.6549 174.654 94.7047 163.889 101.557C163.89 101.555 163.891 101.555 163.891 101.555C163.891 101.555 163.887 101.557 163.88 101.563C162.803 102.249 161.785 102.994 160.836 103.801C155.066 107.894 142.67 115.925 137.414 113.466C136.909 113.23 136.297 112.839 135.621 112.407C133.577 111.101 129.283 110.513 127.284 111.628C129.913 109.754 129.014 108.08 128.109 106.844C127.511 106.028 128.07 102.835 128.25 101.506C129.845 89.7025 114.28 84.417 114.28 84.417C114.28 84.417 114.037 86.3342 109.603 86.5578C108.954 86.5905 108.31 86.2338 107.569 85.8241C106.625 85.3009 105.523 84.691 104.055 84.6936C107.693 93.3696 109.798 100.293 111.619 106.283Z" fill="#204EA9"/>
<path fill-rule="evenodd" clip-rule="evenodd" d="M128.072 136.518C117.615 125.989 115.148 117.897 111.627 106.317C111.624 106.305 111.621 106.294 111.617 106.283C109.858 100.496 107.834 93.8388 104.419 85.5717C105.247 85.4381 105.921 85.3148 106.361 85.2061C106.797 85.3969 107.195 85.617 107.568 85.8238L128.072 136.518ZM107.57 85.8249C108.464 86.7051 109.012 87.7273 109.633 88.8847C110.177 89.8997 110.777 91.0182 111.715 92.2362C114.786 96.2258 115.805 96.8774 116.712 97.4586C117.468 97.942 118.147 98.3764 119.867 100.641C118.617 102.253 120.298 105.563 121.497 107.924C121.965 108.844 122.359 109.621 122.479 110.096C127.099 128.531 139.671 134.244 150.798 125.895C164.782 115.403 187.85 106.989 200.459 107.582C200.468 107.611 200.476 107.639 200.484 107.667C200.729 108.482 201.154 109.3 201.812 110.115C201.831 110.139 201.85 110.163 201.869 110.187C202.467 110.939 202.982 111.777 203.414 112.676C203.799 113.475 204.118 114.324 204.37 115.206C206.119 121.322 204.672 129.035 199.763 133.026C198.316 132.43 196.752 131.823 195.137 131.248C194.981 131.193 194.825 131.137 194.668 131.082C193.84 130.793 193.001 130.512 192.159 130.247C192.099 130.224 192.04 130.201 191.98 130.179C185.638 127.757 177.971 125.597 173.861 126.843C170.952 127.725 167.769 130.348 164.223 133.272C164.197 133.293 164.172 133.314 164.146 133.334C162.492 134.698 160.59 136.247 158.534 137.763C154.355 140.794 149.714 143.341 144.501 143.682C138.919 144.047 133.514 141.271 129.074 137.231C128.713 137.063 128.379 136.827 128.072 136.518" fill="black" fill-opacity="0.21"/>
<path d="M170.841 52.7066C169.519 49.8953 167.764 50.221 167.764 50.221L163.433 51.0289C163.433 51.0289 160.656 53.6453 156.019 58.2694C156.494 59.0016 156.886 60.4052 158.874 61.752C159.372 62.0895 162.175 63.9238 167.144 58.9288C172.812 58.3807 172.749 56.7651 170.841 52.7066Z" fill="#9D7F7F"/>
<path d="M147.209 49.0579C146.201 46.9153 144.864 47.1636 144.864 47.1636L141.563 47.7792C141.563 47.7792 138.151 49.4554 134.883 54.2738C135.244 54.8317 136.575 54.9243 138.09 55.9506C138.469 56.2078 139.811 56.1019 143.598 52.2957C147.917 51.8778 148.663 52.1504 147.209 49.0579Z" fill="#6A5050"/>
<path d="M143.028 56.9555C141.864 57.7344 139.267 57.416 138.113 57.1593L138.216 54.306L141.778 52.2227C141.863 52.8441 142.184 54.1219 142.792 54.2614C143.552 54.4354 144.567 53.9586 145.33 54.3919C146.093 54.8254 144.483 55.9819 143.028 56.9555Z" fill="#6A5050"/>
<path d="M213.216 127.342L209.283 131.27C208.164 132.147 208.203 130.893 207.389 131.337C206.574 131.782 209.168 135.608 210.385 136.973C211.601 138.337 214.375 135.136 216.769 132.681C219.164 130.227 224.64 128.341 225.75 127.536C226.862 126.73 229.069 124.08 229.203 122.945C229.338 121.81 227.275 120.851 225.499 122.37C224.078 123.586 217.177 125.55 213.216 127.342Z" fill="#FDD17B"/>
<path d="M211.395 126.349C212.037 126.667 212.223 128.165 212.235 128.875L213.044 129.524L218.863 128.729C219.149 127.697 219.415 125.745 218.185 126.192C216.955 126.639 213.217 125.451 211.502 124.801C211.199 125.185 210.753 126.031 211.395 126.349Z" fill="#FDD17B"/>
<path d="M212.34 136.736C211.652 137.126 210.159 136.406 209.499 135.997C209.445 136.779 209.68 136.863 211.254 138.506C212.828 140.149 216.854 136.188 217.441 135.17C218.028 134.151 221.635 130.777 223.348 130.893C225.062 131.01 229.799 125.732 230.009 124.176C230.178 122.931 229.083 122.049 228.524 121.829C230.311 125.876 220.336 130.143 218.893 130.591C217.45 131.04 213.2 136.248 212.34 136.736Z" fill="#204EA9"/>
<path d="M216.291 123.691L216.291 123.691C216.022 123.704 215.846 123.927 215.897 124.188L216.496 127.245C216.548 127.507 216.807 127.708 217.075 127.695C217.343 127.682 217.519 127.46 217.468 127.198L216.869 124.141C216.818 123.88 216.559 123.678 216.291 123.691Z" fill="#204EA9"/>
<path d="M219.19 122.739L219.19 122.739C218.922 122.752 218.746 122.974 218.797 123.236L219.396 126.293C219.447 126.554 219.706 126.756 219.974 126.743C220.243 126.73 220.419 126.507 220.368 126.245L219.769 123.188C219.718 122.927 219.458 122.726 219.19 122.739Z" fill="#204EA9"/>
<path d="M222.163 95.7383L219.411 100.957C218.551 102.197 218.194 100.91 217.507 101.616C216.821 102.322 220.671 105.402 222.34 106.409C224.009 107.416 225.812 103.298 227.467 100.057C229.122 96.8156 234.446 92.6936 235.319 91.5284C236.193 90.3632 237.239 87.4797 237.015 86.284C236.792 85.0883 234.391 84.7566 233.068 86.8544C232.01 88.533 225.619 92.6814 222.163 95.7383Z" fill="#FDD17B"/>
<path d="M219.996 95.2961C220.749 95.4187 221.413 96.8838 221.651 97.601L222.679 98.0087L228.341 95.3868C228.304 94.2486 227.955 92.1812 226.847 93.019C225.739 93.8568 221.563 93.8156 219.613 93.69C219.427 94.1743 219.243 95.1731 219.996 95.2961Z" fill="#FDD17B"/>
<path d="M224.255 105.557C223.68 106.169 221.934 105.902 221.133 105.693C221.326 106.504 221.592 106.516 223.713 107.695C225.834 108.874 228.669 103.593 228.942 102.375C229.215 101.157 231.811 96.6031 233.59 96.1866C235.368 95.7705 238.508 88.9294 238.228 87.2825C238.005 85.9647 236.612 85.4097 235.974 85.3604C239.074 88.9163 230.29 96.3635 228.965 97.2692C227.642 98.1749 224.974 104.793 224.255 105.557Z" fill="#204EA9"/>
<path d="M224.858 91.3453C224.723 91.0955 224.396 90.9716 224.127 91.0686C223.858 91.1655 223.75 91.4467 223.885 91.6965L225.464 94.6166C225.599 94.8664 225.926 94.9903 226.194 94.8934C226.463 94.7964 226.571 94.5153 226.436 94.2655L224.858 91.3453Z" fill="#204EA9"/>
<path d="M227.502 89.4723C227.367 89.2225 227.04 89.0986 226.772 89.1955C226.503 89.2925 226.395 89.5736 226.53 89.8234L228.108 92.7436C228.243 92.9934 228.57 93.1173 228.839 93.0204C229.108 92.9234 229.216 92.6423 229.081 92.3925L227.502 89.4723Z" fill="#204EA9"/>
<path d="M131.758 109.366C132.986 107.055 137.835 102.117 139.962 104.885C142.089 107.652 135.11 107.829 131.758 109.366Z" stroke="#78D2EE"/>
<path d="M114.079 60.9624L112.448 65.9495C112.448 65.9495 110.835 66.0954 110.111 65.4872C109.63 65.0833 109.151 64.2008 109.151 64.2008C109.077 65.2248 110.136 67.1225 111.533 68.9165C113.28 71.1588 113.505 79.4037 111.082 81.7275C108.659 84.0516 105.698 95.0968 112.46 103.645C119.222 112.192 117.781 125.589 114.364 131.884C111.627 136.926 103.577 125.16 94.958 126.291C90.763 126.841 77.754 139.008 74.0471 134.585C70.2768 130.086 80.4869 110.174 76.1883 107.294C55.0266 93.1184 92.6809 80.8526 94.1928 73.9564C96.5375 63.2644 97.7926 60.9757 103.486 58.81C108.449 56.9226 111.642 59.3888 114.079 60.9624Z" fill="#204EA9"/>
<path d="M113.373 63.1172L112.447 65.9496C112.447 65.9496 110.834 66.0955 110.109 65.4874C109.629 65.0834 109.149 64.2009 109.149 64.2009C109.075 65.2249 110.134 67.1227 111.532 68.9166C113.278 71.1589 113.503 79.4039 111.081 81.7276C110.215 82.5579 109.281 84.5003 108.746 87.0445C111.694 86.6916 114.313 87.126 114.313 87.126C114.313 87.126 114.556 79.729 113.337 75.8691C115.246 75.3421 117.44 74.4408 118.008 73.0059C118.448 71.8975 117.837 69.766 116.535 67.4553C116.811 67.0568 116.957 66.6352 116.73 66.3136C116.533 66.032 115.909 65.6698 115.16 65.3119C114.62 64.5631 114.02 63.8225 113.373 63.1172Z" fill="#9D7F7F"/>
<path fill-rule="evenodd" clip-rule="evenodd" d="M131.14 109.708C130.922 109.698 130.714 109.689 130.732 109.309C130.737 109.192 130.758 109.076 130.778 108.967C130.828 108.691 130.869 108.468 130.613 108.422C130.347 108.375 126.287 111.112 123.66 112.881C122.771 113.48 122.046 113.969 121.689 114.201C121.074 114.6 117.156 116.323 117.156 116.323L117.215 119.513H117.272C119.207 118.722 121.409 117.821 123.13 116.819C125.494 115.443 131.721 110.56 131.594 109.992C131.534 109.725 131.333 109.716 131.14 109.708Z" fill="#A8BBDE"/>
<path fill-rule="evenodd" clip-rule="evenodd" d="M131.915 85.4117C139.59 81.129 146.98 71.7391 151.402 64.1213C153.436 60.6164 156.713 56.3328 161.786 55.5698L162.786 62.1096C161.009 62.3767 158.147 62.7145 156.219 66.0356C149.879 76.9596 144.765 87.9083 133.116 94.4086C126.103 98.3219 120.694 99.8421 115.873 99.9363C114.032 99.9723 112.509 98.5208 112.473 96.6947C112.437 94.8686 113.498 92.3169 115.34 92.2809C118.57 92.218 125.318 89.0932 131.915 85.4117Z" fill="#9D7F7F"/>
<path d="M130.487 109.531C130.133 107.41 130.835 101.783 133.618 102.549C136.4 103.314 131.914 106.871 130.487 109.531Z" stroke="#78D2EE"/>
<path d="M134.709 112.106C133.273 110.005 130.539 109.968 129.805 110.247L129.904 110.86C131.062 111.232 133.25 111.224 133.925 112.509C134.874 114.313 137.005 117.65 137.869 117.696C138.515 117.731 138.923 117.127 139.176 116.687C138.712 116.873 136.504 114.732 134.709 112.106Z" fill="#A8BBDE"/>
<path d="M135.708 109.962C132.898 108.213 130.98 109.443 130.51 110.19L130.43 110.654C132.865 109.044 134.044 109.726 135.128 110.788C136.01 111.653 140.401 111.621 141.659 110.94C142.112 110.695 142.08 110.239 142.052 109.673C141.76 110.154 137.669 111.182 135.708 109.962Z" fill="#A8BBDE"/>
<path fill-rule="evenodd" clip-rule="evenodd" d="M114.389 99.1344C116.274 100.005 118.556 99.6294 122.058 99.1701C120.854 102.014 116.9 103.003 114.082 102.202C111.983 101.605 110.232 98.6942 110.064 96.7616C109.901 94.8917 109.719 93.2857 111.515 91.8113C114.075 89.7088 117.406 90.6041 118.107 91.6576C115.294 92.2811 112.334 92.8759 112.643 96.4232C112.708 97.1688 113.098 98.5382 114.389 99.1344Z" fill="#204EA9"/>
<path d="M98.0515 134.173C95.3921 131.187 90.7223 123.884 93.3197 118.557C96.5668 111.898 101.698 106.961 98.7974 102.585" stroke="#78D2EE" stroke-width="0.25" stroke-linecap="round"/>
<path d="M80.4336 82.262C83.9451 82.1295 91.5474 81.0005 93.8655 77.5472C96.7633 73.2308 92.2015 61.3643 103.941 58.8398" stroke="#78D2EE" stroke-width="0.25" stroke-linecap="round"/>
<path d="M72.6811 216.769C73.7051 217.073 74.4891 217.569 75.0331 218.257C75.5771 218.945 75.8491 219.793 75.8491 220.801C75.8491 222.289 75.2811 223.449 74.1451 224.281C73.0251 225.113 71.4171 225.529 69.3211 225.529H61.0411V208.729H68.8651C70.8171 208.729 72.3371 209.105 73.4251 209.857C74.5131 210.609 75.0571 211.681 75.0571 213.073C75.0571 213.905 74.8491 214.641 74.4331 215.281C74.0171 215.905 73.4331 216.401 72.6811 216.769ZM64.9051 215.689H68.5291C69.3771 215.689 70.0171 215.521 70.4491 215.185C70.8811 214.833 71.0971 214.321 71.0971 213.649C71.0971 212.993 70.8731 212.489 70.4251 212.137C69.9931 211.785 69.3611 211.609 68.5291 211.609H64.9051V215.689ZM69.1771 222.649C71.0011 222.649 71.9131 221.929 71.9131 220.489C71.9131 219.097 71.0011 218.401 69.1771 218.401H64.9051V222.649H69.1771ZM91.1879 219.121C91.1879 219.169 91.1639 219.505 91.1159 220.129H81.3479C81.5239 220.929 81.9399 221.561 82.5959 222.025C83.2519 222.489 84.0679 222.721 85.0439 222.721C85.7159 222.721 86.3079 222.625 86.8199 222.433C87.3479 222.225 87.8359 221.905 88.2839 221.473L90.2759 223.633C89.0599 225.025 87.2839 225.721 84.9479 225.721C83.4919 225.721 82.2039 225.441 81.0839 224.881C79.9639 224.305 79.0999 223.513 78.4919 222.505C77.8839 221.497 77.5799 220.353 77.5799 219.073C77.5799 217.809 77.8759 216.673 78.4679 215.665C79.0759 214.641 79.8999 213.849 80.9399 213.289C81.9959 212.713 83.1719 212.425 84.4679 212.425C85.7319 212.425 86.8759 212.697 87.8999 213.241C88.9239 213.785 89.7239 214.569 90.2999 215.593C90.8919 216.601 91.1879 217.777 91.1879 219.121ZM84.4919 215.257C83.6439 215.257 82.9319 215.497 82.3559 215.977C81.7799 216.457 81.4279 217.113 81.2999 217.945H87.6599C87.5319 217.129 87.1799 216.481 86.6039 216.001C86.0279 215.505 85.3239 215.257 84.4919 215.257ZM101.522 213.505C102.754 213.505 103.834 213.761 104.762 214.273C105.69 214.769 106.402 215.473 106.898 216.385C107.41 217.297 107.666 218.353 107.666 219.553C107.666 220.785 107.362 221.881 106.754 222.841C106.162 223.785 105.33 224.521 104.258 225.049C103.186 225.561 101.97 225.817 100.61 225.817C98.3538 225.817 96.5778 225.097 95.2818 223.657C94.0018 222.201 93.3618 220.073 93.3618 217.273C93.3618 214.681 93.9218 212.617 95.0418 211.081C96.1778 209.529 97.9138 208.513 100.25 208.033L106.394 206.809L106.898 210.025L101.474 211.105C100.002 211.393 98.9058 211.873 98.1858 212.545C97.4818 213.217 97.0658 214.169 96.9378 215.401C97.4978 214.793 98.1698 214.329 98.9538 214.009C99.7378 213.673 100.594 213.505 101.522 213.505ZM100.634 222.913C101.594 222.913 102.362 222.601 102.938 221.977C103.53 221.353 103.826 220.561 103.826 219.601C103.826 218.625 103.53 217.849 102.938 217.273C102.362 216.697 101.594 216.409 100.634 216.409C99.6578 216.409 98.8738 216.697 98.2818 217.273C97.6898 217.849 97.3938 218.625 97.3938 219.601C97.3938 220.577 97.6978 221.377 98.3058 222.001C98.9138 222.609 99.6898 222.913 100.634 222.913ZM109.889 217.273H116.681V220.273H109.889V217.273ZM127.306 212.425C128.506 212.425 129.594 212.705 130.57 213.265C131.562 213.809 132.338 214.585 132.898 215.593C133.458 216.585 133.738 217.745 133.738 219.073C133.738 220.401 133.458 221.569 132.898 222.577C132.338 223.569 131.562 224.345 130.57 224.905C129.594 225.449 128.506 225.721 127.306 225.721C125.658 225.721 124.362 225.201 123.418 224.161V230.185H119.674V212.617H123.25V214.105C124.178 212.985 125.53 212.425 127.306 212.425ZM126.658 222.649C127.618 222.649 128.402 222.329 129.01 221.689C129.634 221.033 129.946 220.161 129.946 219.073C129.946 217.985 129.634 217.121 129.01 216.481C128.402 215.825 127.618 215.497 126.658 215.497C125.698 215.497 124.906 215.825 124.282 216.481C123.674 217.121 123.37 217.985 123.37 219.073C123.37 220.161 123.674 221.033 124.282 221.689C124.906 222.329 125.698 222.649 126.658 222.649ZM141.168 212.425C143.168 212.425 144.704 212.905 145.776 213.865C146.848 214.809 147.384 216.241 147.384 218.161V225.529H143.88V223.921C143.176 225.121 141.864 225.721 139.944 225.721C138.952 225.721 138.088 225.553 137.352 225.217C136.632 224.881 136.08 224.417 135.696 223.825C135.312 223.233 135.12 222.561 135.12 221.809C135.12 220.609 135.568 219.665 136.464 218.977C137.376 218.289 138.776 217.945 140.664 217.945H143.64C143.64 217.129 143.392 216.505 142.896 216.073C142.4 215.625 141.656 215.401 140.664 215.401C139.976 215.401 139.296 215.513 138.624 215.737C137.968 215.945 137.408 216.233 136.944 216.601L135.6 213.985C136.304 213.489 137.144 213.105 138.12 212.833C139.112 212.561 140.128 212.425 141.168 212.425ZM140.88 223.201C141.52 223.201 142.088 223.057 142.584 222.769C143.08 222.465 143.432 222.025 143.64 221.449V220.129H141.072C139.536 220.129 138.768 220.633 138.768 221.641C138.768 222.121 138.952 222.505 139.32 222.793C139.704 223.065 140.224 223.201 140.88 223.201ZM158.895 218.809C159.663 219.049 160.255 219.417 160.671 219.913C161.103 220.409 161.319 221.001 161.319 221.689C161.319 222.505 161.039 223.225 160.479 223.849C159.919 224.457 159.151 224.929 158.175 225.265C157.199 225.601 156.095 225.769 154.863 225.769C153.855 225.769 152.863 225.665 151.887 225.457C150.911 225.249 150.007 224.937 149.175 224.521L150.183 221.905C151.543 222.561 153.047 222.889 154.695 222.889C155.575 222.889 156.263 222.761 156.759 222.505C157.271 222.233 157.527 221.857 157.527 221.377C157.527 220.961 157.351 220.649 156.999 220.441C156.647 220.217 156.135 220.105 155.463 220.105H152.823V217.777H155.127C155.783 217.777 156.287 217.673 156.639 217.465C156.991 217.257 157.167 216.953 157.167 216.553C157.167 216.137 156.943 215.817 156.495 215.593C156.063 215.369 155.439 215.257 154.623 215.257C153.375 215.257 152.015 215.553 150.543 216.145L149.631 213.553C151.423 212.769 153.167 212.377 154.863 212.377C156.031 212.377 157.071 212.521 157.983 212.809C158.911 213.097 159.639 213.521 160.167 214.081C160.695 214.625 160.959 215.265 160.959 216.001C160.959 216.609 160.775 217.161 160.407 217.657C160.039 218.137 159.535 218.521 158.895 218.809ZM171.65 212.425C172.85 212.425 173.938 212.705 174.914 213.265C175.906 213.809 176.682 214.585 177.242 215.593C177.802 216.585 178.082 217.745 178.082 219.073C178.082 220.401 177.802 221.569 177.242 222.577C176.682 223.569 175.906 224.345 174.914 224.905C173.938 225.449 172.85 225.721 171.65 225.721C170.002 225.721 168.706 225.201 167.762 224.161V230.185H164.018V212.617H167.594V214.105C168.522 212.985 169.874 212.425 171.65 212.425ZM171.002 222.649C171.962 222.649 172.746 222.329 173.354 221.689C173.978 221.033 174.29 220.161 174.29 219.073C174.29 217.985 173.978 217.121 173.354 216.481C172.746 215.825 171.962 215.497 171.002 215.497C170.042 215.497 169.25 215.825 168.626 216.481C168.018 217.121 167.714 217.985 167.714 219.073C167.714 220.161 168.018 221.033 168.626 221.689C169.25 222.329 170.042 222.649 171.002 222.649ZM185.511 212.425C187.511 212.425 189.047 212.905 190.119 213.865C191.191 214.809 191.727 216.241 191.727 218.161V225.529H188.223V223.921C187.519 225.121 186.207 225.721 184.287 225.721C183.295 225.721 182.431 225.553 181.695 225.217C180.975 224.881 180.423 224.417 180.039 223.825C179.655 223.233 179.463 222.561 179.463 221.809C179.463 220.609 179.911 219.665 180.807 218.977C181.719 218.289 183.119 217.945 185.007 217.945H187.983C187.983 217.129 187.735 216.505 187.239 216.073C186.743 215.625 185.999 215.401 185.007 215.401C184.319 215.401 183.639 215.513 182.967 215.737C182.311 215.945 181.751 216.233 181.287 216.601L179.943 213.985C180.647 213.489 181.487 213.105 182.463 212.833C183.455 212.561 184.471 212.425 185.511 212.425ZM185.223 223.201C185.863 223.201 186.431 223.057 186.927 222.769C187.423 222.465 187.775 222.025 187.983 221.449V220.129H185.415C183.879 220.129 183.111 220.633 183.111 221.641C183.111 222.121 183.295 222.505 183.663 222.793C184.047 223.065 184.567 223.201 185.223 223.201ZM202.444 213.505C203.676 213.505 204.756 213.761 205.684 214.273C206.612 214.769 207.324 215.473 207.82 216.385C208.332 217.297 208.588 218.353 208.588 219.553C208.588 220.785 208.284 221.881 207.676 222.841C207.084 223.785 206.252 224.521 205.18 225.049C204.108 225.561 202.892 225.817 201.532 225.817C199.276 225.817 197.5 225.097 196.204 223.657C194.924 222.201 194.284 220.073 194.284 217.273C194.284 214.681 194.844 212.617 195.964 211.081C197.1 209.529 198.836 208.513 201.172 208.033L207.316 206.809L207.82 210.025L202.396 211.105C200.924 211.393 199.828 211.873 199.108 212.545C198.404 213.217 197.988 214.169 197.86 215.401C198.42 214.793 199.092 214.329 199.876 214.009C200.66 213.673 201.516 213.505 202.444 213.505ZM201.556 222.913C202.516 222.913 203.284 222.601 203.86 221.977C204.452 221.353 204.748 220.561 204.748 219.601C204.748 218.625 204.452 217.849 203.86 217.273C203.284 216.697 202.516 216.409 201.556 216.409C200.58 216.409 199.796 216.697 199.204 217.273C198.612 217.849 198.316 218.625 198.316 219.601C198.316 220.577 198.62 221.377 199.228 222.001C199.836 222.609 200.612 222.913 201.556 222.913ZM217.176 225.721C215.816 225.721 214.592 225.441 213.504 224.881C212.432 224.305 211.592 223.513 210.984 222.505C210.376 221.497 210.072 220.353 210.072 219.073C210.072 217.793 210.376 216.649 210.984 215.641C211.592 214.633 212.432 213.849 213.504 213.289C214.592 212.713 215.816 212.425 217.176 212.425C218.536 212.425 219.752 212.713 220.824 213.289C221.896 213.849 222.736 214.633 223.344 215.641C223.952 216.649 224.256 217.793 224.256 219.073C224.256 220.353 223.952 221.497 223.344 222.505C222.736 223.513 221.896 224.305 220.824 224.881C219.752 225.441 218.536 225.721 217.176 225.721ZM217.176 222.649C218.136 222.649 218.92 222.329 219.528 221.689C220.152 221.033 220.464 220.161 220.464 219.073C220.464 217.985 220.152 217.121 219.528 216.481C218.92 215.825 218.136 215.497 217.176 215.497C216.216 215.497 215.424 215.825 214.8 216.481C214.176 217.121 213.864 217.985 213.864 219.073C213.864 220.161 214.176 221.033 214.8 221.689C215.424 222.329 216.216 222.649 217.176 222.649ZM237.211 215.689H232.843V225.529H229.123V215.689H224.755V212.617H237.211V215.689ZM244.894 220.633H242.95V225.529H239.206V212.617H242.95V217.633H244.966L248.47 212.617H252.454L247.942 218.809L252.766 225.529H248.35L244.894 220.633ZM259.386 212.425C261.386 212.425 262.922 212.905 263.994 213.865C265.066 214.809 265.602 216.241 265.602 218.161V225.529H262.098V223.921C261.394 225.121 260.082 225.721 258.162 225.721C257.17 225.721 256.306 225.553 255.57 225.217C254.85 224.881 254.298 224.417 253.914 223.825C253.53 223.233 253.338 222.561 253.338 221.809C253.338 220.609 253.786 219.665 254.682 218.977C255.594 218.289 256.994 217.945 258.882 217.945H261.858C261.858 217.129 261.61 216.505 261.114 216.073C260.618 215.625 259.874 215.401 258.882 215.401C258.194 215.401 257.514 215.513 256.842 215.737C256.186 215.945 255.626 216.233 255.162 216.601L253.818 213.985C254.522 213.489 255.362 213.105 256.338 212.833C257.33 212.561 258.346 212.425 259.386 212.425ZM259.098 223.201C259.738 223.201 260.306 223.057 260.802 222.769C261.298 222.465 261.65 222.025 261.858 221.449V220.129H259.29C257.754 220.129 256.986 220.633 256.986 221.641C256.986 222.121 257.17 222.505 257.538 222.793C257.922 223.065 258.442 223.201 259.098 223.201Z" fill="white"/>
<path opacity="0.7" d="M50.9412 246.629L45.6542 256.438C45.2348 257.22 44.7418 257.804 44.1752 258.189C43.6085 258.575 42.9908 258.767 42.3222 258.767C41.8008 258.767 41.2682 258.648 40.7242 258.41L41.1662 257.05C41.5855 257.198 41.9595 257.271 42.2882 257.271C43.0362 257.271 43.6538 256.875 44.1412 256.081L44.4132 255.656L39.6192 246.629H41.4382L45.2972 254.177L49.2582 246.629H50.9412ZM62.4714 249.519V258.529H60.9924V251.95L57.6264 257.509H56.9124L53.5804 251.933V258.529H52.0844V249.519H53.7674L57.3034 255.605L60.9414 249.519H62.4714ZM65.6479 249.519H67.2799V253.344H72.4139V249.519H74.0459V258.529H72.4139V254.755H67.2799V258.529H65.6479V249.519ZM81.2822 252.579C82.4155 252.591 83.2825 252.851 83.8832 253.361C84.4839 253.871 84.7842 254.591 84.7842 255.52C84.7842 256.495 84.4555 257.249 83.7982 257.781C83.1522 258.303 82.2229 258.558 81.0102 258.546L77.2192 258.529V249.519H78.8512V252.562L81.2822 252.579ZM86.1272 249.519H87.7592V258.529H86.1272V249.519ZM80.8912 257.305C81.6279 257.317 82.1832 257.169 82.5572 256.863C82.9425 256.557 83.1352 256.104 83.1352 255.503C83.1352 254.914 82.9482 254.483 82.5742 254.211C82.2002 253.939 81.6392 253.798 80.8912 253.786L78.8512 253.752V257.288L80.8912 257.305ZM90.9321 249.519H92.5641V256.081L98.0891 249.519H99.5681V258.529H97.9361V251.967L92.4281 258.529H90.9321V249.519ZM95.1481 248.346C94.3094 248.346 93.6577 248.148 93.1931 247.751C92.7284 247.343 92.4904 246.76 92.4791 246H93.5841C93.5954 246.42 93.7371 246.76 94.0091 247.02C94.2924 247.27 94.6664 247.394 95.1311 247.394C95.5957 247.394 95.9697 247.27 96.2531 247.02C96.5364 246.76 96.6837 246.42 96.6951 246H97.8341C97.8227 246.76 97.5791 247.343 97.1031 247.751C96.6271 248.148 95.9754 248.346 95.1481 248.346ZM112.078 249.434C112.951 249.434 113.733 249.627 114.424 250.012C115.116 250.398 115.654 250.936 116.039 251.627C116.436 252.319 116.634 253.118 116.634 254.024C116.634 254.931 116.436 255.736 116.039 256.438C115.654 257.13 115.116 257.668 114.424 258.053C113.733 258.439 112.951 258.631 112.078 258.631C111.432 258.631 110.837 258.507 110.293 258.257C109.761 258.008 109.307 257.645 108.933 257.169V261.827H107.301V249.519H108.865V250.947C109.228 250.449 109.687 250.075 110.242 249.825C110.798 249.565 111.41 249.434 112.078 249.434ZM111.942 257.203C112.52 257.203 113.036 257.073 113.489 256.812C113.954 256.54 114.317 256.166 114.577 255.69C114.849 255.203 114.985 254.648 114.985 254.024C114.985 253.401 114.849 252.851 114.577 252.375C114.317 251.888 113.954 251.514 113.489 251.253C113.036 250.993 112.52 250.862 111.942 250.862C111.376 250.862 110.86 250.998 110.395 251.27C109.942 251.531 109.579 251.899 109.307 252.375C109.047 252.851 108.916 253.401 108.916 254.024C108.916 254.648 109.047 255.203 109.307 255.69C109.568 256.166 109.931 256.54 110.395 256.812C110.86 257.073 111.376 257.203 111.942 257.203ZM122.864 258.631C121.969 258.631 121.164 258.433 120.45 258.036C119.736 257.64 119.175 257.096 118.767 256.404C118.371 255.702 118.172 254.908 118.172 254.024C118.172 253.14 118.371 252.353 118.767 251.661C119.175 250.959 119.736 250.415 120.45 250.029C121.164 249.633 121.969 249.434 122.864 249.434C123.76 249.434 124.559 249.633 125.261 250.029C125.975 250.415 126.531 250.959 126.927 251.661C127.335 252.353 127.539 253.14 127.539 254.024C127.539 254.908 127.335 255.702 126.927 256.404C126.531 257.096 125.975 257.64 125.261 258.036C124.559 258.433 123.76 258.631 122.864 258.631ZM122.864 257.203C123.442 257.203 123.958 257.073 124.411 256.812C124.876 256.54 125.239 256.166 125.499 255.69C125.76 255.203 125.89 254.648 125.89 254.024C125.89 253.401 125.76 252.851 125.499 252.375C125.239 251.888 124.876 251.514 124.411 251.253C123.958 250.993 123.442 250.862 122.864 250.862C122.286 250.862 121.765 250.993 121.3 251.253C120.847 251.514 120.484 251.888 120.212 252.375C119.952 252.851 119.821 253.401 119.821 254.024C119.821 254.648 119.952 255.203 120.212 255.69C120.484 256.166 120.847 256.54 121.3 256.812C121.765 257.073 122.286 257.203 122.864 257.203ZM134.486 249.825C135.325 249.825 136.073 250.012 136.73 250.386C137.387 250.76 137.897 251.282 138.26 251.95C138.634 252.608 138.821 253.361 138.821 254.211C138.821 255.084 138.623 255.86 138.226 256.54C137.841 257.209 137.291 257.73 136.577 258.104C135.874 258.478 135.07 258.665 134.163 258.665C132.633 258.665 131.449 258.144 130.61 257.101C129.783 256.047 129.369 254.568 129.369 252.664C129.369 250.817 129.749 249.372 130.508 248.329C131.267 247.275 132.429 246.578 133.993 246.238L138.107 245.32L138.345 246.816L134.554 247.632C133.375 247.893 132.497 248.335 131.919 248.958C131.341 249.582 131.012 250.477 130.933 251.644C131.318 251.066 131.817 250.619 132.429 250.301C133.041 249.984 133.727 249.825 134.486 249.825ZM134.197 257.305C134.775 257.305 135.285 257.175 135.727 256.914C136.18 256.654 136.532 256.297 136.781 255.843C137.03 255.379 137.155 254.852 137.155 254.262C137.155 253.367 136.883 252.647 136.339 252.103C135.795 251.559 135.081 251.287 134.197 251.287C133.313 251.287 132.593 251.559 132.038 252.103C131.494 252.647 131.222 253.367 131.222 254.262C131.222 254.852 131.347 255.379 131.596 255.843C131.857 256.297 132.214 256.654 132.667 256.914C133.12 257.175 133.63 257.305 134.197 257.305ZM145.011 258.631C144.115 258.631 143.311 258.433 142.597 258.036C141.883 257.64 141.322 257.096 140.914 256.404C140.517 255.702 140.319 254.908 140.319 254.024C140.319 253.14 140.517 252.353 140.914 251.661C141.322 250.959 141.883 250.415 142.597 250.029C143.311 249.633 144.115 249.434 145.011 249.434C145.906 249.434 146.705 249.633 147.408 250.029C148.122 250.415 148.677 250.959 149.074 251.661C149.482 252.353 149.686 253.14 149.686 254.024C149.686 254.908 149.482 255.702 149.074 256.404C148.677 257.096 148.122 257.64 147.408 258.036C146.705 258.433 145.906 258.631 145.011 258.631ZM145.011 257.203C145.589 257.203 146.104 257.073 146.558 256.812C147.022 256.54 147.385 256.166 147.646 255.69C147.906 255.203 148.037 254.648 148.037 254.024C148.037 253.401 147.906 252.851 147.646 252.375C147.385 251.888 147.022 251.514 146.558 251.253C146.104 250.993 145.589 250.862 145.011 250.862C144.433 250.862 143.911 250.993 143.447 251.253C142.993 251.514 142.631 251.888 142.359 252.375C142.098 252.851 141.968 253.401 141.968 254.024C141.968 254.648 142.098 255.203 142.359 255.69C142.631 256.166 142.993 256.54 143.447 256.812C143.911 257.073 144.433 257.203 145.011 257.203ZM158.425 250.947H155.127V258.529H153.495V250.947H150.197V249.519H158.425V250.947ZM173.823 257.101V260.62H172.293V258.529H164.762V260.62H163.215V257.101H163.691C164.269 257.067 164.665 256.659 164.881 255.877C165.096 255.095 165.243 253.99 165.323 252.562L165.459 249.519H172.446V257.101H173.823ZM166.819 252.681C166.773 253.815 166.677 254.755 166.53 255.503C166.394 256.24 166.139 256.773 165.765 257.101H170.814V250.947H166.904L166.819 252.681ZM183.684 249.519V258.529H182.052V250.947H178.176L178.074 252.953C178.017 254.166 177.909 255.18 177.751 255.996C177.592 256.801 177.331 257.447 176.969 257.934C176.606 258.422 176.102 258.665 175.456 258.665C175.161 258.665 174.827 258.614 174.453 258.512L174.555 257.135C174.702 257.169 174.838 257.186 174.963 257.186C175.416 257.186 175.756 256.988 175.983 256.591C176.209 256.195 176.357 255.724 176.425 255.18C176.493 254.636 176.555 253.86 176.612 252.851L176.765 249.519H183.684ZM194.064 249.519V258.529H192.602V255.673H189.984H189.797L187.825 258.529H186.074L188.267 255.452C187.587 255.248 187.066 254.914 186.703 254.449C186.341 253.973 186.159 253.384 186.159 252.681C186.159 251.65 186.511 250.868 187.213 250.335C187.916 249.791 188.885 249.519 190.12 249.519H194.064ZM187.825 252.732C187.825 253.333 188.012 253.781 188.386 254.075C188.772 254.359 189.344 254.5 190.103 254.5H192.602V250.947H190.171C188.607 250.947 187.825 251.542 187.825 252.732ZM205.673 258.631C204.778 258.631 203.973 258.433 203.259 258.036C202.545 257.64 201.984 257.096 201.576 256.404C201.179 255.702 200.981 254.908 200.981 254.024C200.981 253.14 201.179 252.353 201.576 251.661C201.984 250.959 202.545 250.415 203.259 250.029C203.973 249.633 204.778 249.434 205.673 249.434C206.568 249.434 207.367 249.633 208.07 250.029C208.784 250.415 209.339 250.959 209.736 251.661C210.144 252.353 210.348 253.14 210.348 254.024C210.348 254.908 210.144 255.702 209.736 256.404C209.339 257.096 208.784 257.64 208.07 258.036C207.367 258.433 206.568 258.631 205.673 258.631ZM205.673 257.203C206.251 257.203 206.767 257.073 207.22 256.812C207.685 256.54 208.047 256.166 208.308 255.69C208.569 255.203 208.699 254.648 208.699 254.024C208.699 253.401 208.569 252.851 208.308 252.375C208.047 251.888 207.685 251.514 207.22 251.253C206.767 250.993 206.251 250.862 205.673 250.862C205.095 250.862 204.574 250.993 204.109 251.253C203.656 251.514 203.293 251.888 203.021 252.375C202.76 252.851 202.63 253.401 202.63 254.024C202.63 254.648 202.76 255.203 203.021 255.69C203.293 256.166 203.656 256.54 204.109 256.812C204.574 257.073 205.095 257.203 205.673 257.203ZM217.295 249.825C218.133 249.825 218.881 250.012 219.539 250.386C220.196 250.76 220.706 251.282 221.069 251.95C221.443 252.608 221.63 253.361 221.63 254.211C221.63 255.084 221.431 255.86 221.035 256.54C220.649 257.209 220.1 257.73 219.386 258.104C218.683 258.478 217.878 258.665 216.972 258.665C215.442 258.665 214.257 258.144 213.419 257.101C212.591 256.047 212.178 254.568 212.178 252.664C212.178 250.817 212.557 249.372 213.317 248.329C214.076 247.275 215.238 246.578 216.802 246.238L220.916 245.32L221.154 246.816L217.363 247.632C216.184 247.893 215.306 248.335 214.728 248.958C214.15 249.582 213.821 250.477 213.742 251.644C214.127 251.066 214.626 250.619 215.238 250.301C215.85 249.984 216.535 249.825 217.295 249.825ZM217.006 257.305C217.584 257.305 218.094 257.175 218.536 256.914C218.989 256.654 219.34 256.297 219.59 255.843C219.839 255.379 219.964 254.852 219.964 254.262C219.964 253.367 219.692 252.647 219.148 252.103C218.604 251.559 217.89 251.287 217.006 251.287C216.122 251.287 215.402 251.559 214.847 252.103C214.303 252.647 214.031 253.367 214.031 254.262C214.031 254.852 214.155 255.379 214.405 255.843C214.665 256.297 215.022 256.654 215.476 256.914C215.929 257.175 216.439 257.305 217.006 257.305ZM231.752 249.519L227.383 259.43C226.998 260.348 226.545 260.994 226.023 261.368C225.513 261.742 224.896 261.929 224.17 261.929C223.728 261.929 223.298 261.856 222.878 261.708C222.47 261.572 222.13 261.368 221.858 261.096L222.555 259.872C223.02 260.314 223.558 260.535 224.17 260.535C224.567 260.535 224.896 260.428 225.156 260.212C225.428 260.008 225.672 259.651 225.887 259.141L226.176 258.512L222.198 249.519H223.898L227.043 256.727L230.154 249.519H231.752ZM240.614 249.519V258.529H238.982V254.891C238.008 255.345 237.039 255.571 236.075 255.571C234.953 255.571 234.086 255.311 233.474 254.789C232.862 254.268 232.556 253.486 232.556 252.443V249.519H234.188V252.341C234.188 252.965 234.381 253.435 234.766 253.752C235.163 254.07 235.713 254.228 236.415 254.228C237.209 254.228 238.064 254.03 238.982 253.633V249.519H240.614ZM251.926 254.075C251.926 254.2 251.914 254.364 251.892 254.568H244.582C244.684 255.362 245.029 256.002 245.619 256.489C246.219 256.965 246.962 257.203 247.846 257.203C248.922 257.203 249.789 256.841 250.447 256.115L251.348 257.169C250.94 257.645 250.43 258.008 249.818 258.257C249.217 258.507 248.543 258.631 247.795 258.631C246.843 258.631 245.998 258.439 245.262 258.053C244.525 257.657 243.953 257.107 243.545 256.404C243.148 255.702 242.95 254.908 242.95 254.024C242.95 253.152 243.142 252.364 243.528 251.661C243.924 250.959 244.463 250.415 245.143 250.029C245.834 249.633 246.61 249.434 247.472 249.434C248.333 249.434 249.098 249.633 249.767 250.029C250.447 250.415 250.974 250.959 251.348 251.661C251.733 252.364 251.926 253.169 251.926 254.075ZM247.472 250.811C246.69 250.811 246.032 251.049 245.5 251.525C244.978 252.001 244.672 252.625 244.582 253.395H250.362C250.271 252.636 249.959 252.018 249.427 251.542C248.905 251.055 248.254 250.811 247.472 250.811ZM254.457 249.519H256.089V253.344H261.223V249.519H262.855V258.529H261.223V254.755H256.089V258.529H254.457V249.519ZM266.029 249.519H267.661V256.081L273.186 249.519H274.665V258.529H273.033V251.967L267.525 258.529H266.029V249.519ZM285.057 249.519V258.529H283.595V255.673H280.977H280.79L278.818 258.529H277.067L279.26 255.452C278.58 255.248 278.059 254.914 277.696 254.449C277.334 253.973 277.152 253.384 277.152 252.681C277.152 251.65 277.504 250.868 278.206 250.335C278.909 249.791 279.878 249.519 281.113 249.519H285.057ZM278.818 252.732C278.818 253.333 279.005 253.781 279.379 254.075C279.765 254.359 280.337 254.5 281.096 254.5H283.595V250.947H281.164C279.6 250.947 278.818 251.542 278.818 252.732ZM80.7932 272.519V281.529H79.1612V273.947H74.0782V281.529H72.4462V272.519H80.7932ZM88.7281 272.434C89.6008 272.434 90.3828 272.627 91.0741 273.012C91.7655 273.398 92.3038 273.936 92.6891 274.627C93.0858 275.319 93.2841 276.118 93.2841 277.024C93.2841 277.931 93.0858 278.736 92.6891 279.438C92.3038 280.13 91.7655 280.668 91.0741 281.053C90.3828 281.439 89.6008 281.631 88.7281 281.631C88.0821 281.631 87.4871 281.507 86.9431 281.257C86.4105 281.008 85.9571 280.645 85.5831 280.169V284.827H83.9511V272.519H85.5151V273.947C85.8778 273.449 86.3368 273.075 86.8921 272.825C87.4475 272.565 88.0595 272.434 88.7281 272.434ZM88.5921 280.203C89.1701 280.203 89.6858 280.073 90.1391 279.812C90.6038 279.54 90.9665 279.166 91.2271 278.69C91.4991 278.203 91.6351 277.648 91.6351 277.024C91.6351 276.401 91.4991 275.851 91.2271 275.375C90.9665 274.888 90.6038 274.514 90.1391 274.253C89.6858 273.993 89.1701 273.862 88.5921 273.862C88.0255 273.862 87.5098 273.998 87.0451 274.27C86.5918 274.531 86.2291 274.899 85.9571 275.375C85.6965 275.851 85.5661 276.401 85.5661 277.024C85.5661 277.648 85.6965 278.203 85.9571 278.69C86.2178 279.166 86.5805 279.54 87.0451 279.812C87.5098 280.073 88.0255 280.203 88.5921 280.203ZM99.5142 281.631C98.6189 281.631 97.8142 281.433 97.1002 281.036C96.3862 280.64 95.8252 280.096 95.4172 279.404C95.0206 278.702 94.8222 277.908 94.8222 277.024C94.8222 276.14 95.0206 275.353 95.4172 274.661C95.8252 273.959 96.3862 273.415 97.1002 273.029C97.8142 272.633 98.6189 272.434 99.5142 272.434C100.41 272.434 101.209 272.633 101.911 273.029C102.625 273.415 103.181 273.959 103.577 274.661C103.985 275.353 104.189 276.14 104.189 277.024C104.189 277.908 103.985 278.702 103.577 279.404C103.181 280.096 102.625 280.64 101.911 281.036C101.209 281.433 100.41 281.631 99.5142 281.631ZM99.5142 280.203C100.092 280.203 100.608 280.073 101.061 279.812C101.526 279.54 101.889 279.166 102.149 278.69C102.41 278.203 102.54 277.648 102.54 277.024C102.54 276.401 102.41 275.851 102.149 275.375C101.889 274.888 101.526 274.514 101.061 274.253C100.608 273.993 100.092 273.862 99.5142 273.862C98.9362 273.862 98.4149 273.993 97.9502 274.253C97.4969 274.514 97.1342 274.888 96.8622 275.375C96.6016 275.851 96.4712 276.401 96.4712 277.024C96.4712 277.648 96.6016 278.203 96.8622 278.69C97.1342 279.166 97.4969 279.54 97.9502 279.812C98.4149 280.073 98.9362 280.203 99.5142 280.203ZM113.176 273.947H108.178V281.529H106.546V272.519H113.176V273.947ZM119.624 272.434C120.496 272.434 121.278 272.627 121.97 273.012C122.661 273.398 123.199 273.936 123.585 274.627C123.981 275.319 124.18 276.118 124.18 277.024C124.18 277.931 123.981 278.736 123.585 279.438C123.199 280.13 122.661 280.668 121.97 281.053C121.278 281.439 120.496 281.631 119.624 281.631C118.978 281.631 118.383 281.507 117.839 281.257C117.306 281.008 116.853 280.645 116.479 280.169V284.827H114.847V272.519H116.411V273.947C116.773 273.449 117.232 273.075 117.788 272.825C118.343 272.565 118.955 272.434 119.624 272.434ZM119.488 280.203C120.066 280.203 120.581 280.073 121.035 279.812C121.499 279.54 121.862 279.166 122.123 278.69C122.395 278.203 122.531 277.648 122.531 277.024C122.531 276.401 122.395 275.851 122.123 275.375C121.862 274.888 121.499 274.514 121.035 274.253C120.581 273.993 120.066 273.862 119.488 273.862C118.921 273.862 118.405 273.998 117.941 274.27C117.487 274.531 117.125 274.899 116.853 275.375C116.592 275.851 116.462 276.401 116.462 277.024C116.462 277.648 116.592 278.203 116.853 278.69C117.113 279.166 117.476 279.54 117.941 279.812C118.405 280.073 118.921 280.203 119.488 280.203ZM129.681 272.434C130.927 272.434 131.879 272.74 132.537 273.352C133.205 273.964 133.54 274.877 133.54 276.089V281.529H131.993V280.339C131.721 280.759 131.33 281.082 130.82 281.308C130.321 281.524 129.726 281.631 129.035 281.631C128.026 281.631 127.216 281.388 126.604 280.9C126.003 280.413 125.703 279.773 125.703 278.979C125.703 278.186 125.992 277.551 126.57 277.075C127.148 276.588 128.066 276.344 129.324 276.344H131.908V276.021C131.908 275.319 131.704 274.78 131.296 274.406C130.888 274.032 130.287 273.845 129.494 273.845C128.961 273.845 128.44 273.936 127.93 274.117C127.42 274.287 126.989 274.52 126.638 274.814L125.958 273.59C126.422 273.216 126.978 272.933 127.624 272.74C128.27 272.536 128.955 272.434 129.681 272.434ZM129.307 280.373C129.93 280.373 130.468 280.237 130.922 279.965C131.375 279.682 131.704 279.285 131.908 278.775V277.517H129.392C128.009 277.517 127.318 277.982 127.318 278.911C127.318 279.365 127.493 279.722 127.845 279.982C128.196 280.243 128.683 280.373 129.307 280.373ZM146.865 272.519V281.529H145.386V274.95L142.02 280.509H141.306L137.974 274.933V281.529H136.478V272.519H138.161L141.697 278.605L145.335 272.519H146.865ZM160.429 272.519V281.529H158.95V274.95L155.584 280.509H154.87L151.538 274.933V281.529H150.042V272.519H151.725L155.261 278.605L158.899 272.519H160.429ZM163.605 272.519H165.237V279.081L170.762 272.519H172.241V281.529H170.609V274.967L165.101 281.529H163.605V272.519ZM180.186 272.434C181.059 272.434 181.841 272.627 182.532 273.012C183.223 273.398 183.762 273.936 184.147 274.627C184.544 275.319 184.742 276.118 184.742 277.024C184.742 277.931 184.544 278.736 184.147 279.438C183.762 280.13 183.223 280.668 182.532 281.053C181.841 281.439 181.059 281.631 180.186 281.631C179.54 281.631 178.945 281.507 178.401 281.257C177.868 281.008 177.415 280.645 177.041 280.169V284.827H175.409V272.519H176.973V273.947C177.336 273.449 177.795 273.075 178.35 272.825C178.905 272.565 179.517 272.434 180.186 272.434ZM180.05 280.203C180.628 280.203 181.144 280.073 181.597 279.812C182.062 279.54 182.424 279.166 182.685 278.69C182.957 278.203 183.093 277.648 183.093 277.024C183.093 276.401 182.957 275.851 182.685 275.375C182.424 274.888 182.062 274.514 181.597 274.253C181.144 273.993 180.628 273.862 180.05 273.862C179.483 273.862 178.968 273.998 178.503 274.27C178.05 274.531 177.687 274.899 177.415 275.375C177.154 275.851 177.024 276.401 177.024 277.024C177.024 277.648 177.154 278.203 177.415 278.69C177.676 279.166 178.038 279.54 178.503 279.812C178.968 280.073 179.483 280.203 180.05 280.203ZM190.972 281.631C190.077 281.631 189.272 281.433 188.558 281.036C187.844 280.64 187.283 280.096 186.875 279.404C186.479 278.702 186.28 277.908 186.28 277.024C186.28 276.14 186.479 275.353 186.875 274.661C187.283 273.959 187.844 273.415 188.558 273.029C189.272 272.633 190.077 272.434 190.972 272.434C191.868 272.434 192.667 272.633 193.369 273.029C194.083 273.415 194.639 273.959 195.035 274.661C195.443 275.353 195.647 276.14 195.647 277.024C195.647 277.908 195.443 278.702 195.035 279.404C194.639 280.096 194.083 280.64 193.369 281.036C192.667 281.433 191.868 281.631 190.972 281.631ZM190.972 280.203C191.55 280.203 192.066 280.073 192.519 279.812C192.984 279.54 193.347 279.166 193.607 278.69C193.868 278.203 193.998 277.648 193.998 277.024C193.998 276.401 193.868 275.851 193.607 275.375C193.347 274.888 192.984 274.514 192.519 274.253C192.066 273.993 191.55 273.862 190.972 273.862C190.394 273.862 189.873 273.993 189.408 274.253C188.955 274.514 188.592 274.888 188.32 275.375C188.06 275.851 187.929 276.401 187.929 277.024C187.929 277.648 188.06 278.203 188.32 278.69C188.592 279.166 188.955 279.54 189.408 279.812C189.873 280.073 190.394 280.203 190.972 280.203ZM204.141 276.854C205.308 277.149 205.892 277.88 205.892 279.047C205.892 279.841 205.592 280.453 204.991 280.883C204.402 281.314 203.518 281.529 202.339 281.529H198.004V272.519H202.186C203.251 272.519 204.084 272.723 204.685 273.131C205.286 273.528 205.586 274.095 205.586 274.831C205.586 275.307 205.456 275.721 205.195 276.072C204.946 276.412 204.594 276.673 204.141 276.854ZM199.602 276.395H202.05C202.673 276.395 203.144 276.282 203.461 276.055C203.79 275.829 203.954 275.5 203.954 275.069C203.954 274.208 203.319 273.777 202.05 273.777H199.602V276.395ZM202.22 280.271C202.9 280.271 203.41 280.164 203.75 279.948C204.09 279.733 204.26 279.399 204.26 278.945C204.26 278.481 204.101 278.135 203.784 277.908C203.478 277.682 202.991 277.568 202.322 277.568H199.602V280.271H202.22ZM211.659 272.434C212.906 272.434 213.858 272.74 214.515 273.352C215.184 273.964 215.518 274.877 215.518 276.089V281.529H213.971V280.339C213.699 280.759 213.308 281.082 212.798 281.308C212.3 281.524 211.705 281.631 211.013 281.631C210.005 281.631 209.194 281.388 208.582 280.9C207.982 280.413 207.681 279.773 207.681 278.979C207.681 278.186 207.97 277.551 208.548 277.075C209.126 276.588 210.044 276.344 211.302 276.344H213.886V276.021C213.886 275.319 213.682 274.78 213.274 274.406C212.866 274.032 212.266 273.845 211.472 273.845C210.94 273.845 210.418 273.936 209.908 274.117C209.398 274.287 208.968 274.52 208.616 274.814L207.936 273.59C208.401 273.216 208.956 272.933 209.602 272.74C210.248 272.536 210.934 272.434 211.659 272.434ZM211.285 280.373C211.909 280.373 212.447 280.237 212.9 279.965C213.354 279.682 213.682 279.285 213.886 278.775V277.517H211.37C209.988 277.517 209.296 277.982 209.296 278.911C209.296 279.365 209.472 279.722 209.823 279.982C210.175 280.243 210.662 280.373 211.285 280.373ZM218.457 272.519H220.089V276.344H225.223V272.519H226.855V281.529H225.223V277.755H220.089V281.529H218.457V272.519ZM230.028 272.519H231.66V279.081L237.185 272.519H238.664V281.529H237.032V274.967L231.524 281.529H230.028V272.519ZM249.805 272.434C250.678 272.434 251.46 272.633 252.151 273.029C252.842 273.415 253.386 273.959 253.783 274.661C254.18 275.353 254.378 276.14 254.378 277.024C254.378 277.908 254.18 278.702 253.783 279.404C253.386 280.096 252.842 280.64 252.151 281.036C251.46 281.433 250.678 281.631 249.805 281.631C249.012 281.631 248.292 281.467 247.646 281.138C247 280.81 246.467 280.351 246.048 279.761C245.64 279.161 245.385 278.481 245.283 277.721H243.464V281.529H241.832V272.519H243.464V276.208H245.3C245.413 275.46 245.674 274.803 246.082 274.236C246.501 273.658 247.028 273.216 247.663 272.91C248.309 272.593 249.023 272.434 249.805 272.434ZM249.805 280.203C250.36 280.203 250.859 280.073 251.301 279.812C251.754 279.552 252.111 279.183 252.372 278.707C252.633 278.22 252.763 277.659 252.763 277.024C252.763 276.401 252.633 275.851 252.372 275.375C252.111 274.888 251.754 274.514 251.301 274.253C250.859 273.993 250.36 273.862 249.805 273.862C249.25 273.862 248.745 273.993 248.292 274.253C247.839 274.514 247.482 274.888 247.221 275.375C246.972 275.851 246.847 276.401 246.847 277.024C246.847 277.659 246.972 278.22 247.221 278.707C247.482 279.183 247.839 279.552 248.292 279.812C248.745 280.073 249.25 280.203 249.805 280.203Z" fill="white"/>
</svg>
