<svg width="326" height="288" viewBox="0 0 326 288" fill="none" xmlns="http://www.w3.org/2000/svg">
<path d="M224.619 94.2174C219.748 128.457 183.17 153.601 148.93 148.73C114.69 143.859 99.1039 111.295 103.975 77.0548C108.846 42.8147 146.672 18.2748 180.912 23.1458C215.152 28.0168 229.49 59.9773 224.619 94.2174Z" fill="#B5CDFB"/>
<path d="M243.137 81.4847C241.425 80.3196 234.816 94.7194 232.725 99.9173C233.72 103.472 238.771 110.085 240.367 110.634C242.36 111.32 259.576 99.6678 261.267 97.6427C262.959 95.6179 260.49 84.5199 257.667 82.5541C255.409 80.9817 248.72 86.6121 244.609 91.3152C244.123 86.3418 244.849 82.6502 243.137 81.4847Z" fill="#DAC3A1"/>
<path fill-rule="evenodd" clip-rule="evenodd" d="M202.691 136.627C191.794 146.001 177.673 151.794 158.591 150.481C149.077 149.826 143.092 147.941 139.822 145.071C138.178 143.629 137.223 141.94 136.855 140.048C136.487 138.163 136.707 136.096 137.379 133.895C138.721 129.502 141.887 124.51 145.944 119.238C150.005 113.961 154.983 108.374 159.972 102.79L160.348 102.37C165.216 96.923 170.075 91.4865 174.104 86.3352C178.239 81.047 181.478 76.0852 182.959 71.7441C184.436 67.4131 184.146 63.7636 181.324 60.9952C178.468 58.1934 172.962 56.2285 163.819 55.4724C134.603 53.0562 110.731 62.8881 93.6113 76.4245C76.4809 89.9692 66.1363 107.202 63.9492 119.55C63.9204 119.712 63.7656 119.82 63.6033 119.792C63.441 119.763 63.3328 119.608 63.3616 119.446C65.5806 106.917 76.0292 89.5655 93.241 75.9563C110.464 62.3385 134.482 52.4475 163.868 54.8778C173.038 55.6363 178.728 57.613 181.742 60.5694C184.789 63.5595 185.042 67.485 183.524 71.9365C182.009 76.3776 178.717 81.4048 174.573 86.7028C170.533 91.8699 165.662 97.3192 160.799 102.76L160.417 103.188C155.425 108.775 150.462 114.345 146.417 119.602C142.367 124.864 139.259 129.785 137.95 134.07C137.297 136.209 137.097 138.173 137.44 139.934C137.782 141.69 138.666 143.263 140.215 144.623C143.33 147.356 149.144 149.232 158.632 149.885C177.553 151.188 191.521 145.449 202.302 136.175C213.094 126.891 220.705 114.053 226.879 101.139C229.676 95.2884 232.174 89.4288 234.54 83.8804C234.785 83.3066 235.028 82.7358 235.27 82.1689C237.851 76.1255 240.292 70.4977 242.809 65.7368C245.325 60.9791 247.93 57.0613 250.848 54.4529C253.775 51.8361 257.031 50.5283 260.818 51.0239C266.832 51.8107 270.994 55.4895 273.757 60.8887C276.514 66.2768 277.889 73.3965 278.351 81.1332C279.273 96.6103 276.541 114.665 273.738 126.568C273.7 126.729 273.539 126.828 273.379 126.79C273.218 126.752 273.119 126.592 273.157 126.431C275.953 114.56 278.673 96.5667 277.755 81.1687C277.296 73.4675 275.928 66.4427 273.225 61.1605C270.528 55.889 266.513 52.3708 260.741 51.6156C257.162 51.1474 254.074 52.3696 251.246 54.8978C248.408 57.4346 245.842 61.2772 243.337 66.0158C240.833 70.7514 238.401 76.3565 235.819 82.4032C235.577 82.9704 235.333 83.5415 235.088 84.1159C232.723 89.6625 230.22 95.5337 227.417 101.396C221.233 114.334 213.578 127.262 202.691 136.627Z" fill="#204EA9"/>
<path fill-rule="evenodd" clip-rule="evenodd" d="M244.369 85.9836L237.493 89.4449C237.153 90.1204 236.814 90.8091 236.482 91.4983L250.547 105.4C253.326 103.615 256.126 101.69 258.186 100.169L247.699 88.0866C246.59 89.148 245.533 90.2553 244.606 91.3154C244.449 89.7113 244.418 88.2406 244.391 86.945C244.384 86.6129 244.378 86.2922 244.369 85.9836Z" fill="#030C23" fill-opacity="0.2"/>
<path fill-rule="evenodd" clip-rule="evenodd" d="M170.033 97.2402C160.829 96.5769 151.165 97.1644 144.223 98.6121C143.011 98.8651 142.004 99.3357 139.269 103.412C138.864 104.016 138.425 104.698 137.944 105.443C135.421 109.355 131.774 115.01 126.177 120.172C122.218 123.823 117.638 126.615 112.484 127.766C107.18 128.95 101.908 128.244 97.1035 125.891C88.0052 121.435 81.5274 111.639 76.9985 99.9853L95.3544 92.8519C99.2763 102.943 103.363 107.028 105.765 108.205C106.711 108.668 107.424 108.717 108.192 108.546C109.109 108.341 110.687 107.667 112.826 105.695C116.431 102.371 118.564 99.0949 121.052 95.272C121.645 94.362 122.258 93.4209 122.915 92.4407C126.129 87.6502 130.915 81.2711 140.202 79.334C149.22 77.4527 160.746 76.8267 171.448 77.598C181.717 78.338 193.24 80.4905 200.905 85.6331C210.232 91.8914 215.562 99.2796 218.563 105.342C222.234 103.444 227.019 100.456 232.5 95.8127L245.23 110.838C236.011 118.648 227.98 122.954 222.356 125.287C217.511 127.296 212.676 126.432 209.062 124.348C205.604 122.353 203.069 119.198 201.674 115.763C200.255 112.272 197.076 106.779 189.933 101.987C186.771 99.8653 179.67 97.9348 170.033 97.2402Z" fill="#204EA9"/>
<path d="M190.349 50.3841C188.822 49.6512 187.678 51.0456 187.296 51.8342L186.456 56.3371C186.584 57.3292 186.137 58.5875 187.296 59.4781C189.466 61.1458 191.112 54.7345 191.57 53.9712C192.028 53.2079 192.257 51.2998 190.349 50.3841Z" fill="#204EA9"/>
<path fill-rule="evenodd" clip-rule="evenodd" d="M78.2502 103.04C77.8173 102.038 77.4005 101.019 76.9985 99.9852L95.3544 92.8518C96.5467 95.9198 97.7542 98.4327 98.9251 100.477C98.8141 100.884 98.6694 101.257 98.488 101.592C95.821 106.514 86.0696 106.021 78.2502 103.04Z" fill="#030C23" fill-opacity="0.2"/>
<path d="M80.0621 102.918C73.967 100.863 67.6608 97.3468 65.9934 93.2145L85.9978 92.6419C89.2165 92.5828 95.7426 92.8012 96.0971 94.1478C96.5399 95.831 87.681 105.488 80.0621 102.918Z" fill="#625F5E"/>
<path d="M159.219 50.3841C160.745 49.6512 161.89 51.0456 162.272 51.8342L163.111 56.3371C162.984 57.3292 164.27 58.4231 163.111 59.3137C160.942 60.9811 158.456 54.7345 157.998 53.9712C157.54 53.2079 157.311 51.2998 159.219 50.3841Z" fill="#204EA9"/>
<path d="M50.3577 31.0845L103.616 41.0722L115.013 98.6887L61.7541 88.7007L50.3577 31.0845Z" fill="#6DECF3"/>
<path d="M106.663 37.5378L103.613 41.0725L115.01 98.689L118.06 95.1541L106.663 37.5378Z" fill="#204EA9"/>
<path d="M106.663 37.5603L103.659 41.0845L50.3577 31.0896L53.4833 27.947L106.663 37.5603Z" fill="#204EA9"/>
<path d="M167.922 77.8087C170.29 75.276 168.053 68.2345 166.638 65.0302C170.458 64.9878 178.432 65.3611 179.763 67.1941C181.428 69.4853 180.622 81.8595 177.54 83.8082C176.161 84.6801 172.68 84.4307 169.129 83.8303C166.795 83.4356 166.306 79.5378 167.922 77.8087Z" fill="#DAC3A1"/>
<path d="M201.867 94.2127C189.977 94.0161 144.309 84.9393 140.295 89.7406C135.277 95.7419 131.979 125.058 141.707 130.262C146.058 132.59 180.416 132.306 191.423 130.803C210.71 128.169 197.456 103.097 201.867 94.2127Z" fill="#204EA9"/>
<path fill-rule="evenodd" clip-rule="evenodd" d="M141.389 88.6348C140.801 88.8425 140.314 89.1182 140 89.4942C138.683 91.0687 137.52 94.1036 136.656 97.7844C135.787 101.485 135.205 105.901 135.086 110.29C134.968 114.678 135.311 119.058 136.305 122.681C137.296 126.291 138.953 129.226 141.525 130.602C142.134 130.928 143.207 131.185 144.582 131.396C145.974 131.611 147.728 131.786 149.736 131.925C153.753 132.203 158.809 132.339 164.068 132.355C174.58 132.387 185.944 131.94 191.475 131.185C196.397 130.513 199.304 128.393 200.91 125.407C202.5 122.452 202.784 118.705 202.608 114.835C202.499 112.44 202.209 109.948 201.929 107.542C201.757 106.074 201.59 104.637 201.47 103.274C201.148 99.6242 201.163 96.496 202.212 94.3843L202.483 93.8386L201.873 93.8285C198.928 93.7798 193.868 93.1792 187.846 92.3747C185.643 92.0805 183.312 91.7592 180.913 91.4283C176.769 90.8569 172.421 90.2574 168.176 89.7209C161.472 88.8741 155.001 88.1816 149.951 88.002C147.427 87.9122 145.243 87.95 143.557 88.1649C142.714 88.2723 141.982 88.4254 141.389 88.6348ZM201.282 94.5825C200.37 96.874 200.407 99.982 200.704 103.342C200.828 104.752 200.997 106.208 201.17 107.683C201.447 110.062 201.731 112.493 201.839 114.87C202.014 118.707 201.72 122.278 200.232 125.042C198.762 127.775 196.093 129.777 191.371 130.422C185.896 131.17 174.577 131.617 164.07 131.585C158.82 131.569 153.783 131.433 149.789 131.157C147.792 131.019 146.062 130.845 144.699 130.636C143.319 130.423 142.367 130.18 141.888 129.923C139.596 128.697 138.018 126.016 137.047 122.478C136.081 118.953 135.738 114.654 135.856 110.311C135.973 105.971 136.549 101.607 137.405 97.9604C138.266 94.2939 139.398 91.414 140.59 89.9877C140.778 89.7633 141.117 89.5473 141.646 89.3605C142.168 89.1758 142.841 89.032 143.654 88.9284C145.28 88.7214 147.415 88.682 149.923 88.7712C154.937 88.9493 161.378 89.638 168.079 90.4845C172.322 91.0207 176.66 91.6186 180.8 92.1898C183.2 92.5207 185.534 92.8423 187.744 93.1377C193.383 93.8908 198.228 94.4727 201.282 94.5825Z" fill="#204EA9"/>
<path d="M153.433 103.863L154.889 104.257L153.349 108.942L151.988 108.298L153.433 103.863Z" fill="#6DECF3"/>
<path d="M154.893 104.262L155.003 101.562L153.43 103.873L154.893 104.262Z" fill="#F4F2E3"/>
<path fill-rule="evenodd" clip-rule="evenodd" d="M154.411 105.719L153.008 105.152L153.104 104.867L154.509 105.442L154.411 105.719Z" fill="#F4F2E3"/>
<path fill-rule="evenodd" clip-rule="evenodd" d="M98.2997 95.5543L69.6676 90.1846C66.7661 84.5739 70.0692 74.6998 71.926 69.5504C73.3887 70.8591 75.2238 69.8756 76.9443 68.9536C77.584 68.6108 78.2079 68.2766 78.7906 68.0716C79.9164 67.6762 80.1336 67.9033 80.5054 68.2915C80.9172 68.7218 81.5187 69.3501 83.7545 69.5504C84.8913 69.9905 85.4795 71.1986 86.0285 72.3259C86.7491 73.8065 87.4022 75.148 89.1409 74.4286C91.3925 77.046 92.3476 80.1029 93.4793 83.7247C94.5392 87.117 95.7542 91.0049 98.334 95.4916C98.3227 95.5125 98.3113 95.5334 98.2997 95.5543Z" fill="black" fill-opacity="0.42"/>
<path d="M87.5448 100.251C92.466 100.025 91.06 92.3089 91.06 92.3089C91.06 92.3089 92.298 80.1006 90.1502 75.493C89.6546 74.4296 88.2275 74.0945 87.5448 75.3644C86.8624 76.6343 85.3508 86.1363 84.64 87.6869C85.0064 85.3261 88.385 69.6167 84.3527 69.2488C81.9785 69.0321 79.9468 83.0793 79.3068 86.0193C79.1629 83.4413 82.5794 68.2543 79.1868 67.8553C75.9625 67.4764 73.9651 81.7139 73.6071 84.6936C73.2749 82.7827 74.809 70.3265 72.5127 69.8757C69.39 69.2628 65.0839 88.1581 65.3072 90.3175C66.367 100.571 81.436 100.532 87.5448 100.251Z" fill="#DAC3A1"/>
<path fill-rule="evenodd" clip-rule="evenodd" d="M180.5 69.8924C180.693 71.7093 180.639 74.0999 180.344 76.3992C179.284 76.7328 178.031 76.8402 176.56 76.6069C172.729 75.9994 170.256 74.1202 168.803 72.3117C168.668 71.3688 168.453 70.4 168.199 69.4648L180.5 69.8924Z" fill="#1D1D1D"/>
<path d="M188.196 49.1459C188.506 59.0101 185.223 74.0345 175.359 74.3445C165.494 74.6545 161.608 59.8554 161.298 49.9912C160.988 40.127 163.009 35.2001 172.873 34.8901C182.738 34.5801 187.886 39.2817 188.196 49.1459Z" fill="#DAC3A1"/>
<path d="M169.382 37.4437C168.169 36.9991 167.915 35.4708 167.915 35.4708C168.101 35.1339 169.123 35.4708 169.123 35.4708L177.107 35.8243L184.99 38.0479L187.264 42.4947L188.275 46.9417C188.393 49.1987 188.558 53.3593 188.275 51.9444C187.921 50.1759 186.331 43.6091 184.158 41.1836C181.985 38.758 174.341 39.262 169.382 37.4437Z" fill="#030C23" fill-opacity="0.2"/>
<path d="M187.338 25.5846C193.389 28.9301 186.65 42.1979 186.65 42.1979C186.65 42.1979 183.551 37.7216 176.062 37.7216C172.15 37.7216 167.296 36.5695 167.296 36.5695C165.402 29.0807 182.971 23.1698 187.338 25.5846Z" fill="#204EA9"/>
<path d="M163.864 35.7471C166.143 34.3937 168.821 35.1157 169.549 36.2943C166.149 36.7043 163.93 44.8221 164.196 47.1805L161.364 51.6998C161.364 51.6998 157.893 39.2931 163.864 35.7471Z" fill="#204EA9"/>
<path d="M188.245 51.2737C187.883 48.2824 186.497 43.5725 185.53 40.7188C186.641 41.0658 187.873 40.8945 188.357 42.7093C189.107 45.5149 188.974 50.6047 188.245 51.2737Z" fill="#204EA9"/>
<path fill-rule="evenodd" clip-rule="evenodd" d="M202.265 117.098C201.347 115.503 200.353 113.866 199.499 112.459C198.793 111.296 198.181 110.289 197.788 109.593C197.788 121.455 194.771 127.457 192.917 130.541C200.359 128.922 202.201 123.461 202.265 117.098Z" fill="black" fill-opacity="0.24"/>
<path d="M146.051 103.504L147.544 103.295L147.904 107.388L146.35 107.243L146.051 103.504Z" fill="#6DECF3"/>
<path d="M147.551 103.302L146.591 100.772L146.051 103.515L147.551 103.302Z" fill="#B5CDFB"/>
<path d="M149.613 104.664L151.501 104.972L151.031 108.45L149.202 107.691L149.613 104.664Z" fill="#B5CDFB"/>
<path d="M151.499 104.974L150.797 103.306L149.602 104.668L151.499 104.974Z" fill="#6DECF3"/>
<path d="M155.536 119.885C158.578 119.57 157.965 111.792 157.742 108.156C152.624 108.778 147.487 107.303 143.621 104.996C142.475 106.091 141.156 112.948 142.128 116.356C143.342 120.616 151.733 120.279 155.536 119.885Z" fill="#081D52" fill-opacity="0.08"/>
<path fill-rule="evenodd" clip-rule="evenodd" d="M157.799 107.682C157.695 107.283 157.288 107.044 156.889 107.147C154.606 107.74 148.92 108.093 144.578 104.838C144.248 104.591 143.78 104.658 143.533 104.987C143.286 105.317 143.353 105.785 143.683 106.032C148.527 109.664 154.744 109.245 157.264 108.591C157.663 108.488 157.902 108.081 157.799 107.682Z" fill="#0E3A47"/>
<path fill-rule="evenodd" clip-rule="evenodd" d="M173.783 52.2553C173.622 52.2207 173.463 52.323 173.429 52.4841C173.179 53.6412 172.855 55.4226 172.696 57.007C172.616 57.7983 172.576 58.5508 172.61 59.1565C172.627 59.4588 172.663 59.7351 172.726 59.9654C172.786 60.1886 172.883 60.4088 173.051 60.5547C173.945 61.329 175.097 61.4209 175.579 61.3702C175.743 61.3529 175.861 61.2061 175.844 61.0423C175.827 60.8785 175.68 60.7594 175.516 60.7767C175.141 60.8164 174.172 60.7371 173.442 60.1036C173.407 60.0735 173.351 59.9905 173.301 59.8088C173.254 59.6342 173.222 59.4039 173.206 59.1234C173.175 58.563 173.211 57.8457 173.29 57.067C173.446 55.5115 173.765 53.7534 174.012 52.61C174.047 52.4489 173.944 52.2902 173.783 52.2553Z" fill="#204EA9"/>
<path fill-rule="evenodd" clip-rule="evenodd" d="M165.382 50.8519C165.01 51.1446 164.772 51.4083 164.67 51.5936C164.551 51.8103 164.278 51.889 164.062 51.77C163.845 51.6506 163.766 51.3785 163.885 51.1619C164.073 50.822 164.42 50.4696 164.829 50.1483C165.246 49.8201 165.76 49.4972 166.319 49.2254C167.419 48.6904 168.779 48.3105 169.942 48.5734C170.183 48.6277 170.334 48.8673 170.28 49.1084C170.225 49.3495 169.986 49.5011 169.744 49.4465C168.875 49.2502 167.741 49.5291 166.711 50.0304C166.205 50.2763 165.746 50.5657 165.382 50.8519Z" fill="#204EA9"/>
<path fill-rule="evenodd" clip-rule="evenodd" d="M185.147 51.9011C185.486 52.2317 185.695 52.5194 185.777 52.7142C185.873 52.9422 186.135 53.0493 186.363 52.9538C186.591 52.858 186.699 52.5957 186.603 52.3678C186.453 52.01 186.144 51.623 185.772 51.2602C185.392 50.8896 184.915 50.5142 184.388 50.1845C183.351 49.5361 182.039 49.0146 180.855 49.1527C180.609 49.1814 180.433 49.4037 180.462 49.6492C180.491 49.8948 180.713 50.0705 180.958 50.0419C181.844 49.9387 182.941 50.3361 183.913 50.9436C184.39 51.2417 184.816 51.5783 185.147 51.9011Z" fill="#204EA9"/>
<path fill-rule="evenodd" clip-rule="evenodd" d="M175.018 66.5504C174.113 66.5161 173.316 66.1771 172.874 65.8856C172.667 65.7495 172.39 65.8065 172.254 66.0127C172.118 66.2192 172.175 66.4967 172.381 66.6328C172.94 67.0016 173.893 67.4035 174.983 67.445C176.09 67.4873 177.336 67.1567 178.426 66.0575C178.6 65.882 178.599 65.5986 178.424 65.4246C178.248 65.2507 177.965 65.2518 177.791 65.4273C176.899 66.3263 175.906 66.5844 175.018 66.5504Z" fill="#204EA9"/>
<path d="M168.661 53.3009C168.661 53.7171 168.324 54.0549 167.907 54.0549C167.491 54.0549 167.153 53.7171 167.153 53.3009C167.153 52.8843 167.491 52.5469 167.907 52.5469C168.324 52.5469 168.661 52.8843 168.661 53.3009Z" fill="#204EA9"/>
<path d="M181.754 53.2953C181.754 53.7115 181.417 54.0493 181 54.0493C180.584 54.0493 180.246 53.7115 180.246 53.2953C180.246 52.8787 180.584 52.5413 181 52.5413C181.417 52.5413 181.754 52.8787 181.754 53.2953Z" fill="#204EA9"/>
<path d="M247.159 61.2651L275.427 80.6298L258.173 105.815L229.906 86.4506L247.159 61.2651Z" fill="#6DECF3"/>
<path d="M275.428 80.6296L257.555 106.72L258.46 107.34L274.777 83.5198L275.428 80.6296Z" fill="#204EA9"/>
<path d="M229.906 86.4504L258.81 106.252L258.19 107.156L231.56 88.913L229.906 86.4504Z" fill="#204EA9"/>
<path d="M236.076 82.418L246.154 89.3225L245.601 90.1302L235.522 83.2257L236.076 82.418Z" fill="#204EA9"/>
<path d="M238.283 79.1863L248.362 86.0908L247.808 86.8988L237.729 79.9943L238.283 79.1863Z" fill="#204EA9"/>
<path d="M240.501 75.9551L250.58 82.8596L250.026 83.6676L239.947 76.7631L240.501 75.9551Z" fill="#204EA9"/>
<path d="M242.715 72.7234L252.794 79.6279L252.241 80.436L242.162 73.5314L242.715 72.7234Z" fill="#204EA9"/>
<path d="M244.93 69.4915L255.009 76.396L254.455 77.204L244.376 70.2995L244.93 69.4915Z" fill="#204EA9"/>
<path d="M247.144 66.2603L257.223 73.1648L256.67 73.9728L246.591 67.0683L247.144 66.2603Z" fill="#204EA9"/>
<path d="M248.343 90.8235L258.422 97.728L257.869 98.5361L247.79 91.6315L248.343 90.8235Z" fill="#204EA9"/>
<path d="M250.557 87.5923L260.636 94.4968L260.083 95.3045L250.004 88.4L250.557 87.5923Z" fill="#204EA9"/>
<path d="M252.768 84.3599L262.847 91.2644L262.293 92.0724L252.215 85.1679L252.768 84.3599Z" fill="#204EA9"/>
<path d="M259.41 74.6658L269.489 81.5703L264.508 88.8413L254.429 81.9367L259.41 74.6658Z" fill="#204EA9"/>
<path d="M245.145 93.3223L241.77 94.579L245.018 96.8044L245.145 93.3223Z" fill="#204EA9"/>
<path fill-rule="evenodd" clip-rule="evenodd" d="M210.879 94.1704C214.372 97.9951 216.82 101.842 218.525 105.27C217.222 106.847 215.68 108.22 215.836 106.075C216.007 103.747 213.05 97.9539 210.879 94.1704Z" fill="black" fill-opacity="0.24"/>
<path d="M80.0634 102.919C73.9684 100.864 65.3026 97.6135 65.3026 90.1378C65.3026 90.1378 65.7406 92.9802 68.2515 93.5886C69.6065 93.9168 72.6377 90.1572 72.6377 90.1572C72.6377 90.1572 72.9192 93.5713 74.5177 93.5886C75.3191 93.5973 78.1182 90.9554 78.1182 90.9554C78.1182 90.9554 78.6741 93.8264 80.0634 93.9506C81.8465 94.1099 84.1724 91.6244 84.1724 91.6244C84.1724 91.6244 86.1426 92.8498 87.1675 92.6442C89.54 92.1683 89.813 91.576 90.4793 90.5565C91.1456 89.5369 91.2882 87.083 91.2882 87.083C91.2882 87.083 94.9046 88.6056 95.7308 95.0191C96.352 96.0547 87.6823 105.488 80.0634 102.919Z" fill="#DAC3A1"/>
<path d="M80.0634 102.918C73.9684 100.863 65.3026 97.6125 65.3026 90.1372C65.3026 90.1372 65.7406 92.9795 68.2515 93.5879C69.6065 93.9162 72.6377 90.1565 72.6377 90.1565C72.6377 90.1565 72.9192 93.5706 74.5177 93.5879C75.3191 93.5966 78.1182 90.9547 78.1182 90.9547C78.1182 90.9547 78.6741 93.8257 80.0634 93.9499C81.8465 94.1092 84.1724 91.6237 84.1724 91.6237C84.1724 91.6237 86.1426 92.8489 87.1675 92.6436C89.54 92.1676 89.813 91.5754 90.4793 90.5558C91.1456 89.5362 91.2882 87.082 91.2882 87.082C91.2882 87.082 94.9046 88.605 95.7308 95.0184C96.352 96.0541 87.6823 105.487 80.0634 102.918Z" fill="black" fill-opacity="0.17"/>
<path d="M29.1371 208.729H33.0011V219.673L41.0171 208.729H44.6651V225.529H40.8251V214.609L32.8091 225.529H29.1371V208.729ZM48.56 212.617H52.28V217.657H57.896V212.617H61.64V225.529H57.896V220.705H52.28V225.529H48.56V212.617ZM76.0721 215.689H71.7041V225.529H67.9841V215.689H63.6161V212.617H76.0721V215.689ZM90.0808 219.121C90.0808 219.169 90.0568 219.505 90.0088 220.129H80.2408C80.4168 220.929 80.8328 221.561 81.4888 222.025C82.1448 222.489 82.9608 222.721 83.9368 222.721C84.6088 222.721 85.2008 222.625 85.7128 222.433C86.2408 222.225 86.7288 221.905 87.1768 221.473L89.1688 223.633C87.9528 225.025 86.1768 225.721 83.8408 225.721C82.3848 225.721 81.0968 225.441 79.9768 224.881C78.8568 224.305 77.9928 223.513 77.3848 222.505C76.7768 221.497 76.4728 220.353 76.4728 219.073C76.4728 217.809 76.7688 216.673 77.3608 215.665C77.9688 214.641 78.7928 213.849 79.8328 213.289C80.8888 212.713 82.0648 212.425 83.3608 212.425C84.6248 212.425 85.7688 212.697 86.7928 213.241C87.8168 213.785 88.6168 214.569 89.1928 215.593C89.7848 216.601 90.0808 217.777 90.0808 219.121ZM83.3848 215.257C82.5368 215.257 81.8248 215.497 81.2488 215.977C80.6728 216.457 80.3208 217.113 80.1928 217.945H86.5528C86.4248 217.129 86.0728 216.481 85.4968 216.001C84.9208 215.505 84.2168 215.257 83.3848 215.257ZM100.559 212.425C101.759 212.425 102.847 212.705 103.823 213.265C104.815 213.809 105.591 214.585 106.151 215.593C106.711 216.585 106.991 217.745 106.991 219.073C106.991 220.401 106.711 221.569 106.151 222.577C105.591 223.569 104.815 224.345 103.823 224.905C102.847 225.449 101.759 225.721 100.559 225.721C98.9106 225.721 97.6146 225.201 96.6706 224.161V230.185H92.9266V212.617H96.5026V214.105C97.4306 212.985 98.7826 212.425 100.559 212.425ZM99.9106 222.649C100.871 222.649 101.655 222.329 102.263 221.689C102.887 221.033 103.199 220.161 103.199 219.073C103.199 217.985 102.887 217.121 102.263 216.481C101.655 215.825 100.871 215.497 99.9106 215.497C98.9506 215.497 98.1586 215.825 97.5346 216.481C96.9266 217.121 96.6226 217.985 96.6226 219.073C96.6226 220.161 96.9266 221.033 97.5346 221.689C98.1586 222.329 98.9506 222.649 99.9106 222.649ZM109.615 212.617H113.335V217.657H118.951V212.617H122.695V225.529H118.951V220.705H113.335V225.529H109.615V212.617ZM138.831 219.121C138.831 219.169 138.807 219.505 138.759 220.129H128.991C129.167 220.929 129.583 221.561 130.239 222.025C130.895 222.489 131.711 222.721 132.687 222.721C133.359 222.721 133.951 222.625 134.463 222.433C134.991 222.225 135.479 221.905 135.927 221.473L137.919 223.633C136.703 225.025 134.927 225.721 132.591 225.721C131.135 225.721 129.847 225.441 128.727 224.881C127.607 224.305 126.743 223.513 126.135 222.505C125.527 221.497 125.223 220.353 125.223 219.073C125.223 217.809 125.519 216.673 126.111 215.665C126.719 214.641 127.543 213.849 128.583 213.289C129.639 212.713 130.815 212.425 132.111 212.425C133.375 212.425 134.519 212.697 135.543 213.241C136.567 213.785 137.367 214.569 137.943 215.593C138.535 216.601 138.831 217.777 138.831 219.121ZM132.135 215.257C131.287 215.257 130.575 215.497 129.999 215.977C129.423 216.457 129.071 217.113 128.943 217.945H135.303C135.175 217.129 134.823 216.481 134.247 216.001C133.671 215.505 132.967 215.257 132.135 215.257ZM152.103 215.689H147.735V225.529H144.015V215.689H139.647V212.617H152.103V215.689ZM173.496 225.529V217.801L169.632 224.281H168.048L164.28 217.777V225.529H160.896V212.617H164.808L168.936 220.081L173.328 212.617H176.832L176.88 225.529H173.496ZM185.482 212.425C187.482 212.425 189.018 212.905 190.09 213.865C191.162 214.809 191.698 216.241 191.698 218.161V225.529H188.194V223.921C187.49 225.121 186.178 225.721 184.258 225.721C183.266 225.721 182.402 225.553 181.666 225.217C180.946 224.881 180.394 224.417 180.01 223.825C179.626 223.233 179.434 222.561 179.434 221.809C179.434 220.609 179.882 219.665 180.778 218.977C181.69 218.289 183.09 217.945 184.978 217.945H187.954C187.954 217.129 187.706 216.505 187.21 216.073C186.714 215.625 185.97 215.401 184.978 215.401C184.29 215.401 183.61 215.513 182.938 215.737C182.282 215.945 181.722 216.233 181.258 216.601L179.914 213.985C180.618 213.489 181.458 213.105 182.434 212.833C183.426 212.561 184.442 212.425 185.482 212.425ZM185.194 223.201C185.834 223.201 186.402 223.057 186.898 222.769C187.394 222.465 187.746 222.025 187.954 221.449V220.129H185.386C183.85 220.129 183.082 220.633 183.082 221.641C183.082 222.121 183.266 222.505 183.634 222.793C184.018 223.065 184.538 223.201 185.194 223.201ZM202.559 212.425C203.759 212.425 204.847 212.705 205.823 213.265C206.815 213.809 207.591 214.585 208.151 215.593C208.711 216.585 208.991 217.745 208.991 219.073C208.991 220.401 208.711 221.569 208.151 222.577C207.591 223.569 206.815 224.345 205.823 224.905C204.847 225.449 203.759 225.721 202.559 225.721C200.911 225.721 199.615 225.201 198.671 224.161V230.185H194.927V212.617H198.503V214.105C199.431 212.985 200.783 212.425 202.559 212.425ZM201.911 222.649C202.871 222.649 203.655 222.329 204.263 221.689C204.887 221.033 205.199 220.161 205.199 219.073C205.199 217.985 204.887 217.121 204.263 216.481C203.655 215.825 202.871 215.497 201.911 215.497C200.951 215.497 200.159 215.825 199.535 216.481C198.927 217.121 198.623 217.985 198.623 219.073C198.623 220.161 198.927 221.033 199.535 221.689C200.159 222.329 200.951 222.649 201.911 222.649ZM217.303 220.633H215.359V225.529H211.615V212.617H215.359V217.633H217.375L220.879 212.617H224.863L220.351 218.809L225.175 225.529H220.759L217.303 220.633ZM239.167 219.121C239.167 219.169 239.143 219.505 239.095 220.129H229.327C229.503 220.929 229.919 221.561 230.575 222.025C231.231 222.489 232.047 222.721 233.023 222.721C233.695 222.721 234.287 222.625 234.799 222.433C235.327 222.225 235.815 221.905 236.263 221.473L238.255 223.633C237.039 225.025 235.263 225.721 232.927 225.721C231.471 225.721 230.183 225.441 229.063 224.881C227.943 224.305 227.079 223.513 226.471 222.505C225.863 221.497 225.559 220.353 225.559 219.073C225.559 217.809 225.855 216.673 226.447 215.665C227.055 214.641 227.879 213.849 228.919 213.289C229.975 212.713 231.151 212.425 232.447 212.425C233.711 212.425 234.855 212.697 235.879 213.241C236.903 213.785 237.703 214.569 238.279 215.593C238.871 216.601 239.167 217.777 239.167 219.121ZM232.471 215.257C231.623 215.257 230.911 215.497 230.335 215.977C229.759 216.457 229.407 217.113 229.279 217.945H235.639C235.511 217.129 235.159 216.481 234.583 216.001C234.007 215.505 233.303 215.257 232.471 215.257ZM252.439 215.689H248.071V225.529H244.351V215.689H239.983V212.617H252.439V215.689ZM254.435 212.617H258.155V220.297L264.443 212.617H267.875V225.529H264.155V217.849L257.891 225.529H254.435V212.617ZM271.474 212.617H275.194V217.657H280.81V212.617H284.554V225.529H280.81V220.705H275.194V225.529H271.474V212.617ZM298.482 215.689H291.858V225.529H288.138V212.617H298.482V215.689Z" fill="white"/>
<path opacity="0.7" d="M50.7949 246.629L45.5079 256.438C45.0886 257.22 44.5956 257.804 44.0289 258.189C43.4623 258.574 42.8446 258.767 42.1759 258.767C41.6546 258.767 41.1219 258.648 40.5779 258.41L41.0199 257.05C41.4393 257.197 41.8133 257.271 42.1419 257.271C42.8899 257.271 43.5076 256.874 43.9949 256.081L44.2669 255.656L39.4729 246.629H41.2919L45.1509 254.177L49.1119 246.629H50.7949ZM62.3252 249.519V258.529H60.8462V251.95L57.4802 257.509H56.7662L53.4342 251.933V258.529H51.9382V249.519H53.6212L57.1572 255.605L60.7952 249.519H62.3252ZM65.5017 249.519H67.1337V253.344H72.2677V249.519H73.8997V258.529H72.2677V254.755H67.1337V258.529H65.5017V249.519ZM81.1359 252.579C82.2693 252.59 83.1363 252.851 83.7369 253.361C84.3376 253.871 84.6379 254.591 84.6379 255.52C84.6379 256.495 84.3093 257.248 83.6519 257.781C83.0059 258.302 82.0766 258.557 80.8639 258.546L77.0729 258.529V249.519H78.7049V252.562L81.1359 252.579ZM85.9809 249.519H87.6129V258.529H85.9809V249.519ZM80.7449 257.305C81.4816 257.316 82.0369 257.169 82.4109 256.863C82.7963 256.557 82.9889 256.104 82.9889 255.503C82.9889 254.914 82.8019 254.483 82.4279 254.211C82.0539 253.939 81.4929 253.797 80.7449 253.786L78.7049 253.752V257.288L80.7449 257.305ZM90.7858 249.519H92.4178V256.081L97.9428 249.519H99.4218V258.529H97.7898V251.967L92.2818 258.529H90.7858V249.519ZM95.0018 248.346C94.1632 248.346 93.5115 248.148 93.0468 247.751C92.5822 247.343 92.3442 246.759 92.3328 246H93.4378C93.4492 246.419 93.5908 246.759 93.8628 247.02C94.1462 247.269 94.5202 247.394 94.9848 247.394C95.4495 247.394 95.8235 247.269 96.1068 247.02C96.3902 246.759 96.5375 246.419 96.5488 246H97.6878C97.6765 246.759 97.4328 247.343 96.9568 247.751C96.4808 248.148 95.8292 248.346 95.0018 248.346ZM111.932 249.434C112.805 249.434 113.587 249.627 114.278 250.012C114.969 250.397 115.508 250.936 115.893 251.627C116.29 252.318 116.488 253.117 116.488 254.024C116.488 254.931 116.29 255.735 115.893 256.438C115.508 257.129 114.969 257.668 114.278 258.053C113.587 258.438 112.805 258.631 111.932 258.631C111.286 258.631 110.691 258.506 110.147 258.257C109.614 258.008 109.161 257.645 108.787 257.169V261.827H107.155V249.519H108.719V250.947C109.082 250.448 109.541 250.074 110.096 249.825C110.651 249.564 111.263 249.434 111.932 249.434ZM111.796 257.203C112.374 257.203 112.89 257.073 113.343 256.812C113.808 256.54 114.17 256.166 114.431 255.69C114.703 255.203 114.839 254.647 114.839 254.024C114.839 253.401 114.703 252.851 114.431 252.375C114.17 251.888 113.808 251.514 113.343 251.253C112.89 250.992 112.374 250.862 111.796 250.862C111.229 250.862 110.714 250.998 110.249 251.27C109.796 251.531 109.433 251.899 109.161 252.375C108.9 252.851 108.77 253.401 108.77 254.024C108.77 254.647 108.9 255.203 109.161 255.69C109.422 256.166 109.784 256.54 110.249 256.812C110.714 257.073 111.229 257.203 111.796 257.203ZM122.718 258.631C121.823 258.631 121.018 258.433 120.304 258.036C119.59 257.639 119.029 257.095 118.621 256.404C118.224 255.701 118.026 254.908 118.026 254.024C118.026 253.14 118.224 252.352 118.621 251.661C119.029 250.958 119.59 250.414 120.304 250.029C121.018 249.632 121.823 249.434 122.718 249.434C123.613 249.434 124.412 249.632 125.115 250.029C125.829 250.414 126.384 250.958 126.781 251.661C127.189 252.352 127.393 253.14 127.393 254.024C127.393 254.908 127.189 255.701 126.781 256.404C126.384 257.095 125.829 257.639 125.115 258.036C124.412 258.433 123.613 258.631 122.718 258.631ZM122.718 257.203C123.296 257.203 123.812 257.073 124.265 256.812C124.73 256.54 125.092 256.166 125.353 255.69C125.614 255.203 125.744 254.647 125.744 254.024C125.744 253.401 125.614 252.851 125.353 252.375C125.092 251.888 124.73 251.514 124.265 251.253C123.812 250.992 123.296 250.862 122.718 250.862C122.14 250.862 121.619 250.992 121.154 251.253C120.701 251.514 120.338 251.888 120.066 252.375C119.805 252.851 119.675 253.401 119.675 254.024C119.675 254.647 119.805 255.203 120.066 255.69C120.338 256.166 120.701 256.54 121.154 256.812C121.619 257.073 122.14 257.203 122.718 257.203ZM134.34 249.825C135.178 249.825 135.926 250.012 136.584 250.386C137.241 250.76 137.751 251.281 138.114 251.95C138.488 252.607 138.675 253.361 138.675 254.211C138.675 255.084 138.476 255.86 138.08 256.54C137.694 257.209 137.145 257.73 136.431 258.104C135.728 258.478 134.923 258.665 134.017 258.665C132.487 258.665 131.302 258.144 130.464 257.101C129.636 256.047 129.223 254.568 129.223 252.664C129.223 250.817 129.602 249.372 130.362 248.329C131.121 247.275 132.283 246.578 133.847 246.238L137.961 245.32L138.199 246.816L134.408 247.632C133.229 247.893 132.351 248.335 131.773 248.958C131.195 249.581 130.866 250.477 130.787 251.644C131.172 251.066 131.671 250.618 132.283 250.301C132.895 249.984 133.58 249.825 134.34 249.825ZM134.051 257.305C134.629 257.305 135.139 257.175 135.581 256.914C136.034 256.653 136.385 256.296 136.635 255.843C136.884 255.378 137.009 254.851 137.009 254.262C137.009 253.367 136.737 252.647 136.193 252.103C135.649 251.559 134.935 251.287 134.051 251.287C133.167 251.287 132.447 251.559 131.892 252.103C131.348 252.647 131.076 253.367 131.076 254.262C131.076 254.851 131.2 255.378 131.45 255.843C131.71 256.296 132.067 256.653 132.521 256.914C132.974 257.175 133.484 257.305 134.051 257.305ZM144.865 258.631C143.969 258.631 143.165 258.433 142.451 258.036C141.737 257.639 141.176 257.095 140.768 256.404C140.371 255.701 140.173 254.908 140.173 254.024C140.173 253.14 140.371 252.352 140.768 251.661C141.176 250.958 141.737 250.414 142.451 250.029C143.165 249.632 143.969 249.434 144.865 249.434C145.76 249.434 146.559 249.632 147.262 250.029C147.976 250.414 148.531 250.958 148.928 251.661C149.336 252.352 149.54 253.14 149.54 254.024C149.54 254.908 149.336 255.701 148.928 256.404C148.531 257.095 147.976 257.639 147.262 258.036C146.559 258.433 145.76 258.631 144.865 258.631ZM144.865 257.203C145.443 257.203 145.958 257.073 146.412 256.812C146.876 256.54 147.239 256.166 147.5 255.69C147.76 255.203 147.891 254.647 147.891 254.024C147.891 253.401 147.76 252.851 147.5 252.375C147.239 251.888 146.876 251.514 146.412 251.253C145.958 250.992 145.443 250.862 144.865 250.862C144.287 250.862 143.765 250.992 143.301 251.253C142.847 251.514 142.485 251.888 142.213 252.375C141.952 252.851 141.822 253.401 141.822 254.024C141.822 254.647 141.952 255.203 142.213 255.69C142.485 256.166 142.847 256.54 143.301 256.812C143.765 257.073 144.287 257.203 144.865 257.203ZM158.279 250.947H154.981V258.529H153.349V250.947H150.051V249.519H158.279V250.947ZM173.676 257.101V260.62H172.146V258.529H164.615V260.62H163.068V257.101H163.544C164.122 257.067 164.519 256.659 164.734 255.877C164.95 255.095 165.097 253.99 165.176 252.562L165.312 249.519H172.299V257.101H173.676ZM166.672 252.681C166.627 253.814 166.531 254.755 166.383 255.503C166.247 256.24 165.992 256.772 165.618 257.101H170.667V250.947H166.757L166.672 252.681ZM183.537 249.519V258.529H181.905V250.947H178.029L177.927 252.953C177.871 254.166 177.763 255.18 177.604 255.996C177.446 256.801 177.185 257.447 176.822 257.934C176.46 258.421 175.955 258.665 175.309 258.665C175.015 258.665 174.68 258.614 174.306 258.512L174.408 257.135C174.556 257.169 174.692 257.186 174.816 257.186C175.27 257.186 175.61 256.988 175.836 256.591C176.063 256.194 176.21 255.724 176.278 255.18C176.346 254.636 176.409 253.86 176.465 252.851L176.618 249.519H183.537ZM193.918 249.519V258.529H192.456V255.673H189.838H189.651L187.679 258.529H185.928L188.121 255.452C187.441 255.248 186.92 254.914 186.557 254.449C186.194 253.973 186.013 253.384 186.013 252.681C186.013 251.65 186.364 250.868 187.067 250.335C187.77 249.791 188.739 249.519 189.974 249.519H193.918ZM187.679 252.732C187.679 253.333 187.866 253.78 188.24 254.075C188.625 254.358 189.198 254.5 189.957 254.5H192.456V250.947H190.025C188.461 250.947 187.679 251.542 187.679 252.732ZM205.527 258.631C204.631 258.631 203.827 258.433 203.113 258.036C202.399 257.639 201.838 257.095 201.43 256.404C201.033 255.701 200.835 254.908 200.835 254.024C200.835 253.14 201.033 252.352 201.43 251.661C201.838 250.958 202.399 250.414 203.113 250.029C203.827 249.632 204.631 249.434 205.527 249.434C206.422 249.434 207.221 249.632 207.924 250.029C208.638 250.414 209.193 250.958 209.59 251.661C209.998 252.352 210.202 253.14 210.202 254.024C210.202 254.908 209.998 255.701 209.59 256.404C209.193 257.095 208.638 257.639 207.924 258.036C207.221 258.433 206.422 258.631 205.527 258.631ZM205.527 257.203C206.105 257.203 206.62 257.073 207.074 256.812C207.538 256.54 207.901 256.166 208.162 255.69C208.422 255.203 208.553 254.647 208.553 254.024C208.553 253.401 208.422 252.851 208.162 252.375C207.901 251.888 207.538 251.514 207.074 251.253C206.62 250.992 206.105 250.862 205.527 250.862C204.949 250.862 204.427 250.992 203.963 251.253C203.509 251.514 203.147 251.888 202.875 252.375C202.614 252.851 202.484 253.401 202.484 254.024C202.484 254.647 202.614 255.203 202.875 255.69C203.147 256.166 203.509 256.54 203.963 256.812C204.427 257.073 204.949 257.203 205.527 257.203ZM217.148 249.825C217.987 249.825 218.735 250.012 219.392 250.386C220.05 250.76 220.56 251.281 220.922 251.95C221.296 252.607 221.483 253.361 221.483 254.211C221.483 255.084 221.285 255.86 220.888 256.54C220.503 257.209 219.953 257.73 219.239 258.104C218.537 258.478 217.732 258.665 216.825 258.665C215.295 258.665 214.111 258.144 213.272 257.101C212.445 256.047 212.031 254.568 212.031 252.664C212.031 250.817 212.411 249.372 213.17 248.329C213.93 247.275 215.091 246.578 216.655 246.238L220.769 245.32L221.007 246.816L217.216 247.632C216.038 247.893 215.159 248.335 214.581 248.958C214.003 249.581 213.675 250.477 213.595 251.644C213.981 251.066 214.479 250.618 215.091 250.301C215.703 249.984 216.389 249.825 217.148 249.825ZM216.859 257.305C217.437 257.305 217.947 257.175 218.389 256.914C218.843 256.653 219.194 256.296 219.443 255.843C219.693 255.378 219.817 254.851 219.817 254.262C219.817 253.367 219.545 252.647 219.001 252.103C218.457 251.559 217.743 251.287 216.859 251.287C215.975 251.287 215.256 251.559 214.7 252.103C214.156 252.647 213.884 253.367 213.884 254.262C213.884 254.851 214.009 255.378 214.258 255.843C214.519 256.296 214.876 256.653 215.329 256.914C215.783 257.175 216.293 257.305 216.859 257.305ZM231.606 249.519L227.237 259.43C226.852 260.348 226.398 260.994 225.877 261.368C225.367 261.742 224.749 261.929 224.024 261.929C223.582 261.929 223.151 261.855 222.732 261.708C222.324 261.572 221.984 261.368 221.712 261.096L222.409 259.872C222.874 260.314 223.412 260.535 224.024 260.535C224.421 260.535 224.749 260.427 225.01 260.212C225.282 260.008 225.526 259.651 225.741 259.141L226.03 258.512L222.052 249.519H223.752L226.897 256.727L230.008 249.519H231.606ZM240.468 249.519V258.529H238.836V254.891C237.861 255.344 236.892 255.571 235.929 255.571C234.807 255.571 233.94 255.31 233.328 254.789C232.716 254.268 232.41 253.486 232.41 252.443V249.519H234.042V252.341C234.042 252.964 234.235 253.435 234.62 253.752C235.017 254.069 235.566 254.228 236.269 254.228C237.062 254.228 237.918 254.03 238.836 253.633V249.519H240.468ZM251.779 254.075C251.779 254.2 251.768 254.364 251.745 254.568H244.435C244.537 255.361 244.883 256.002 245.472 256.489C246.073 256.965 246.815 257.203 247.699 257.203C248.776 257.203 249.643 256.84 250.3 256.115L251.201 257.169C250.793 257.645 250.283 258.008 249.671 258.257C249.071 258.506 248.396 258.631 247.648 258.631C246.696 258.631 245.852 258.438 245.115 258.053C244.379 257.656 243.806 257.107 243.398 256.404C243.002 255.701 242.803 254.908 242.803 254.024C242.803 253.151 242.996 252.364 243.381 251.661C243.778 250.958 244.316 250.414 244.996 250.029C245.688 249.632 246.464 249.434 247.325 249.434C248.187 249.434 248.952 249.632 249.62 250.029C250.3 250.414 250.827 250.958 251.201 251.661C251.587 252.364 251.779 253.168 251.779 254.075ZM247.325 250.811C246.543 250.811 245.886 251.049 245.353 251.525C244.832 252.001 244.526 252.624 244.435 253.395H250.215C250.125 252.636 249.813 252.018 249.28 251.542C248.759 251.055 248.107 250.811 247.325 250.811ZM254.311 249.519H255.943V253.344H261.077V249.519H262.709V258.529H261.077V254.755H255.943V258.529H254.311V249.519ZM265.883 249.519H267.515V256.081L273.04 249.519H274.519V258.529H272.887V251.967L267.379 258.529H265.883V249.519ZM284.911 249.519V258.529H283.449V255.673H280.831H280.644L278.672 258.529H276.921L279.114 255.452C278.434 255.248 277.913 254.914 277.55 254.449C277.188 253.973 277.006 253.384 277.006 252.681C277.006 251.65 277.358 250.868 278.06 250.335C278.763 249.791 279.732 249.519 280.967 249.519H284.911ZM278.672 252.732C278.672 253.333 278.859 253.78 279.233 254.075C279.619 254.358 280.191 254.5 280.95 254.5H283.449V250.947H281.018C279.454 250.947 278.672 251.542 278.672 252.732ZM80.647 272.519V281.529H79.015V273.947H73.932V281.529H72.3V272.519H80.647ZM88.5819 272.434C89.4545 272.434 90.2365 272.627 90.9279 273.012C91.6192 273.397 92.1575 273.936 92.5429 274.627C92.9395 275.318 93.1379 276.117 93.1379 277.024C93.1379 277.931 92.9395 278.735 92.5429 279.438C92.1575 280.129 91.6192 280.668 90.9279 281.053C90.2365 281.438 89.4545 281.631 88.5819 281.631C87.9359 281.631 87.3409 281.506 86.7969 281.257C86.2642 281.008 85.8109 280.645 85.4369 280.169V284.827H83.8049V272.519H85.3689V273.947C85.7315 273.448 86.1905 273.074 86.7459 272.825C87.3012 272.564 87.9132 272.434 88.5819 272.434ZM88.4459 280.203C89.0239 280.203 89.5395 280.073 89.9929 279.812C90.4575 279.54 90.8202 279.166 91.0809 278.69C91.3529 278.203 91.4889 277.647 91.4889 277.024C91.4889 276.401 91.3529 275.851 91.0809 275.375C90.8202 274.888 90.4575 274.514 89.9929 274.253C89.5395 273.992 89.0239 273.862 88.4459 273.862C87.8792 273.862 87.3635 273.998 86.8989 274.27C86.4455 274.531 86.0829 274.899 85.8109 275.375C85.5502 275.851 85.4199 276.401 85.4199 277.024C85.4199 277.647 85.5502 278.203 85.8109 278.69C86.0715 279.166 86.4342 279.54 86.8989 279.812C87.3635 280.073 87.8792 280.203 88.4459 280.203ZM99.368 281.631C98.4726 281.631 97.668 281.433 96.954 281.036C96.24 280.639 95.679 280.095 95.271 279.404C94.8743 278.701 94.676 277.908 94.676 277.024C94.676 276.14 94.8743 275.352 95.271 274.661C95.679 273.958 96.24 273.414 96.954 273.029C97.668 272.632 98.4726 272.434 99.368 272.434C100.263 272.434 101.062 272.632 101.765 273.029C102.479 273.414 103.034 273.958 103.431 274.661C103.839 275.352 104.043 276.14 104.043 277.024C104.043 277.908 103.839 278.701 103.431 279.404C103.034 280.095 102.479 280.639 101.765 281.036C101.062 281.433 100.263 281.631 99.368 281.631ZM99.368 280.203C99.946 280.203 100.462 280.073 100.915 279.812C101.38 279.54 101.742 279.166 102.003 278.69C102.264 278.203 102.394 277.647 102.394 277.024C102.394 276.401 102.264 275.851 102.003 275.375C101.742 274.888 101.38 274.514 100.915 274.253C100.462 273.992 99.946 273.862 99.368 273.862C98.79 273.862 98.2686 273.992 97.804 274.253C97.3506 274.514 96.988 274.888 96.716 275.375C96.4553 275.851 96.325 276.401 96.325 277.024C96.325 277.647 96.4553 278.203 96.716 278.69C96.988 279.166 97.3506 279.54 97.804 279.812C98.2686 280.073 98.79 280.203 99.368 280.203ZM113.03 273.947H108.032V281.529H106.4V272.519H113.03V273.947ZM119.477 272.434C120.35 272.434 121.132 272.627 121.823 273.012C122.515 273.397 123.053 273.936 123.438 274.627C123.835 275.318 124.033 276.117 124.033 277.024C124.033 277.931 123.835 278.735 123.438 279.438C123.053 280.129 122.515 280.668 121.823 281.053C121.132 281.438 120.35 281.631 119.477 281.631C118.831 281.631 118.236 281.506 117.692 281.257C117.16 281.008 116.706 280.645 116.332 280.169V284.827H114.7V272.519H116.264V273.947C116.627 273.448 117.086 273.074 117.641 272.825C118.197 272.564 118.809 272.434 119.477 272.434ZM119.341 280.203C119.919 280.203 120.435 280.073 120.888 279.812C121.353 279.54 121.716 279.166 121.976 278.69C122.248 278.203 122.384 277.647 122.384 277.024C122.384 276.401 122.248 275.851 121.976 275.375C121.716 274.888 121.353 274.514 120.888 274.253C120.435 273.992 119.919 273.862 119.341 273.862C118.775 273.862 118.259 273.998 117.794 274.27C117.341 274.531 116.978 274.899 116.706 275.375C116.446 275.851 116.315 276.401 116.315 277.024C116.315 277.647 116.446 278.203 116.706 278.69C116.967 279.166 117.33 279.54 117.794 279.812C118.259 280.073 118.775 280.203 119.341 280.203ZM129.534 272.434C130.781 272.434 131.733 272.74 132.39 273.352C133.059 273.964 133.393 274.876 133.393 276.089V281.529H131.846V280.339C131.574 280.758 131.183 281.081 130.673 281.308C130.175 281.523 129.58 281.631 128.888 281.631C127.88 281.631 127.069 281.387 126.457 280.9C125.857 280.413 125.556 279.772 125.556 278.979C125.556 278.186 125.845 277.551 126.423 277.075C127.001 276.588 127.919 276.344 129.177 276.344H131.761V276.021C131.761 275.318 131.557 274.78 131.149 274.406C130.741 274.032 130.141 273.845 129.347 273.845C128.815 273.845 128.293 273.936 127.783 274.117C127.273 274.287 126.843 274.519 126.491 274.814L125.811 273.59C126.276 273.216 126.831 272.933 127.477 272.74C128.123 272.536 128.809 272.434 129.534 272.434ZM129.16 280.373C129.784 280.373 130.322 280.237 130.775 279.965C131.229 279.682 131.557 279.285 131.761 278.775V277.517H129.245C127.863 277.517 127.171 277.982 127.171 278.911C127.171 279.364 127.347 279.721 127.698 279.982C128.05 280.243 128.537 280.373 129.16 280.373ZM146.719 272.519V281.529H145.24V274.95L141.874 280.509H141.16L137.828 274.933V281.529H136.332V272.519H138.015L141.551 278.605L145.189 272.519H146.719ZM160.283 272.519V281.529H158.804V274.95L155.438 280.509H154.724L151.392 274.933V281.529H149.896V272.519H151.579L155.115 278.605L158.753 272.519H160.283ZM163.459 272.519H165.091V279.081L170.616 272.519H172.095V281.529H170.463V274.967L164.955 281.529H163.459V272.519ZM180.04 272.434C180.913 272.434 181.695 272.627 182.386 273.012C183.077 273.397 183.616 273.936 184.001 274.627C184.398 275.318 184.596 276.117 184.596 277.024C184.596 277.931 184.398 278.735 184.001 279.438C183.616 280.129 183.077 280.668 182.386 281.053C181.695 281.438 180.913 281.631 180.04 281.631C179.394 281.631 178.799 281.506 178.255 281.257C177.722 281.008 177.269 280.645 176.895 280.169V284.827H175.263V272.519H176.827V273.947C177.19 273.448 177.649 273.074 178.204 272.825C178.759 272.564 179.371 272.434 180.04 272.434ZM179.904 280.203C180.482 280.203 180.998 280.073 181.451 279.812C181.916 279.54 182.278 279.166 182.539 278.69C182.811 278.203 182.947 277.647 182.947 277.024C182.947 276.401 182.811 275.851 182.539 275.375C182.278 274.888 181.916 274.514 181.451 274.253C180.998 273.992 180.482 273.862 179.904 273.862C179.337 273.862 178.822 273.998 178.357 274.27C177.904 274.531 177.541 274.899 177.269 275.375C177.008 275.851 176.878 276.401 176.878 277.024C176.878 277.647 177.008 278.203 177.269 278.69C177.53 279.166 177.892 279.54 178.357 279.812C178.822 280.073 179.337 280.203 179.904 280.203ZM190.826 281.631C189.931 281.631 189.126 281.433 188.412 281.036C187.698 280.639 187.137 280.095 186.729 279.404C186.332 278.701 186.134 277.908 186.134 277.024C186.134 276.14 186.332 275.352 186.729 274.661C187.137 273.958 187.698 273.414 188.412 273.029C189.126 272.632 189.931 272.434 190.826 272.434C191.721 272.434 192.52 272.632 193.223 273.029C193.937 273.414 194.492 273.958 194.889 274.661C195.297 275.352 195.501 276.14 195.501 277.024C195.501 277.908 195.297 278.701 194.889 279.404C194.492 280.095 193.937 280.639 193.223 281.036C192.52 281.433 191.721 281.631 190.826 281.631ZM190.826 280.203C191.404 280.203 191.92 280.073 192.373 279.812C192.838 279.54 193.2 279.166 193.461 278.69C193.722 278.203 193.852 277.647 193.852 277.024C193.852 276.401 193.722 275.851 193.461 275.375C193.2 274.888 192.838 274.514 192.373 274.253C191.92 273.992 191.404 273.862 190.826 273.862C190.248 273.862 189.727 273.992 189.262 274.253C188.809 274.514 188.446 274.888 188.174 275.375C187.913 275.851 187.783 276.401 187.783 277.024C187.783 277.647 187.913 278.203 188.174 278.69C188.446 279.166 188.809 279.54 189.262 279.812C189.727 280.073 190.248 280.203 190.826 280.203ZM203.995 276.854C205.162 277.149 205.746 277.88 205.746 279.047C205.746 279.84 205.445 280.452 204.845 280.883C204.255 281.314 203.371 281.529 202.193 281.529H197.858V272.519H202.04C203.105 272.519 203.938 272.723 204.539 273.131C205.139 273.528 205.44 274.094 205.44 274.831C205.44 275.307 205.309 275.721 205.049 276.072C204.799 276.412 204.448 276.673 203.995 276.854ZM199.456 276.395H201.904C202.527 276.395 202.997 276.282 203.315 276.055C203.643 275.828 203.808 275.5 203.808 275.069C203.808 274.208 203.173 273.777 201.904 273.777H199.456V276.395ZM202.074 280.271C202.754 280.271 203.264 280.163 203.604 279.948C203.944 279.733 204.114 279.398 204.114 278.945C204.114 278.48 203.955 278.135 203.638 277.908C203.332 277.681 202.844 277.568 202.176 277.568H199.456V280.271H202.074ZM211.513 272.434C212.76 272.434 213.712 272.74 214.369 273.352C215.038 273.964 215.372 274.876 215.372 276.089V281.529H213.825V280.339C213.553 280.758 213.162 281.081 212.652 281.308C212.153 281.523 211.558 281.631 210.867 281.631C209.858 281.631 209.048 281.387 208.436 280.9C207.835 280.413 207.535 279.772 207.535 278.979C207.535 278.186 207.824 277.551 208.402 277.075C208.98 276.588 209.898 276.344 211.156 276.344H213.74V276.021C213.74 275.318 213.536 274.78 213.128 274.406C212.72 274.032 212.119 273.845 211.326 273.845C210.793 273.845 210.272 273.936 209.762 274.117C209.252 274.287 208.821 274.519 208.47 274.814L207.79 273.59C208.255 273.216 208.81 272.933 209.456 272.74C210.102 272.536 210.788 272.434 211.513 272.434ZM211.139 280.373C211.762 280.373 212.301 280.237 212.754 279.965C213.207 279.682 213.536 279.285 213.74 278.775V277.517H211.224C209.841 277.517 209.15 277.982 209.15 278.911C209.15 279.364 209.326 279.721 209.677 279.982C210.028 280.243 210.516 280.373 211.139 280.373ZM218.311 272.519H219.943V276.344H225.077V272.519H226.709V281.529H225.077V277.755H219.943V281.529H218.311V272.519ZM229.882 272.519H231.514V279.081L237.039 272.519H238.518V281.529H236.886V274.967L231.378 281.529H229.882V272.519ZM249.659 272.434C250.531 272.434 251.313 272.632 252.005 273.029C252.696 273.414 253.24 273.958 253.637 274.661C254.033 275.352 254.232 276.14 254.232 277.024C254.232 277.908 254.033 278.701 253.637 279.404C253.24 280.095 252.696 280.639 252.005 281.036C251.313 281.433 250.531 281.631 249.659 281.631C248.865 281.631 248.146 281.467 247.5 281.138C246.854 280.809 246.321 280.35 245.902 279.761C245.494 279.16 245.239 278.48 245.137 277.721H243.318V281.529H241.686V272.519H243.318V276.208H245.154C245.267 275.46 245.528 274.803 245.936 274.236C246.355 273.658 246.882 273.216 247.517 272.91C248.163 272.593 248.877 272.434 249.659 272.434ZM249.659 280.203C250.214 280.203 250.713 280.073 251.155 279.812C251.608 279.551 251.965 279.183 252.226 278.707C252.486 278.22 252.617 277.659 252.617 277.024C252.617 276.401 252.486 275.851 252.226 275.375C251.965 274.888 251.608 274.514 251.155 274.253C250.713 273.992 250.214 273.862 249.659 273.862C249.103 273.862 248.599 273.992 248.146 274.253C247.692 274.514 247.335 274.888 247.075 275.375C246.825 275.851 246.701 276.401 246.701 277.024C246.701 277.659 246.825 278.22 247.075 278.707C247.335 279.183 247.692 279.551 248.146 279.812C248.599 280.073 249.103 280.203 249.659 280.203Z" fill="white"/>
</svg>
