<svg width="32" height="32" viewBox="0 0 32 32" fill="none" xmlns="http://www.w3.org/2000/svg">
<path d="M16 32C24.8366 32 32 24.8366 32 16C32 7.16344 24.8366 0 16 0C7.16344 0 0 7.16344 0 16C0 24.8366 7.16344 32 16 32Z" fill="#FE0000"/>
<g clip-path="url(#clip0_3346_31)">
<path d="M23.57 15.3048L13.1265 10.0825C13.0078 10.0234 12.8759 9.99568 12.7435 10.0018C12.611 10.0079 12.4823 10.0477 12.3696 10.1175C12.2568 10.1872 12.1637 10.2846 12.099 10.4003C12.0343 10.5161 12.0003 10.6464 12 10.779V21.2231C12.0002 21.3557 12.0343 21.4861 12.0989 21.6019C12.1636 21.7176 12.2567 21.815 12.3695 21.8847C12.4824 21.9544 12.6111 21.9941 12.7435 22.0002C12.876 22.0062 13.0078 21.9783 13.1265 21.9192L23.57 16.6974C23.6993 16.6327 23.808 16.5333 23.884 16.4103C23.96 16.2873 24.0002 16.1456 24.0002 16.0011C24.0002 15.8565 23.96 15.7148 23.884 15.5918C23.808 15.4688 23.6993 15.3695 23.57 15.3048Z" fill="white"/>
</g>
<defs>
<clipPath id="clip0_3346_31">
<rect width="13" height="13" fill="white" transform="translate(11 10)"/>
</clipPath>
</defs>
</svg>
