<svg width="32" height="32" viewBox="0 0 32 32" fill="none" xmlns="http://www.w3.org/2000/svg">
<rect width="32" height="32" rx="16" fill="url(#paint0_linear_3349_21)"/>
<path d="M24.0957 11.908C24.2185 11.493 24.0957 11.1875 23.5047 11.1875H21.549C21.051 11.1875 20.8219 11.4498 20.699 11.742C20.699 11.742 19.7029 14.1691 18.2951 15.743C17.8402 16.1979 17.631 16.3439 17.382 16.3439C17.2592 16.3439 17.0699 16.1979 17.0699 15.7828V11.908C17.0699 11.41 16.9304 11.1875 16.5187 11.1875H13.4441C13.132 11.1875 12.9461 11.4199 12.9461 11.6357C12.9461 12.1072 13.65 12.2168 13.723 13.5449V16.427C13.723 17.0578 13.6101 17.174 13.3611 17.174C12.697 17.174 11.0834 14.7369 10.1271 11.9479C9.93455 11.4066 9.74529 11.1875 9.24392 11.1875H7.28826C6.73044 11.1875 6.61755 11.4498 6.61755 11.742C6.61755 12.26 7.28162 14.8332 9.70876 18.2332C11.3258 20.5541 13.6035 21.8125 15.6754 21.8125C16.9205 21.8125 17.0732 21.5336 17.0732 21.0521C17.0732 18.8342 16.9603 18.625 17.5845 18.625C17.8734 18.625 18.3715 18.7711 19.5336 19.89C20.8617 21.2182 21.0808 21.8125 21.8246 21.8125H23.7803C24.3381 21.8125 24.6203 21.5336 24.4576 20.9824C24.0857 19.8236 21.5722 17.4396 21.4594 17.2803C21.1705 16.9084 21.2535 16.7424 21.4594 16.4104C21.4627 16.407 23.85 13.0469 24.0957 11.908Z" fill="white"/>
<defs>
<linearGradient id="paint0_linear_3349_21" x1="16" y1="0" x2="16" y2="32" gradientUnits="userSpaceOnUse">
<stop stop-color="#5181B8"/>
<stop offset="1" stop-color="#4378B6"/>
</linearGradient>
</defs>
</svg>
