<svg width="140" height="150" viewBox="0 0 140 150" fill="none" xmlns="http://www.w3.org/2000/svg">
<path d="M125.5 106.19C118.01 123.73 52.9001 81.05 50.2701 58.55C47.6301 36.04 95.5801 -1.82001 125.65 10.7C142.61 17.76 143.21 41.82 131.52 61.41C121.64 77.96 129.52 96.78 125.5 106.19Z" fill="#E1F3FF"/>
<path d="M53.3901 0.169994C43.0201 1.87999 43.6301 24.92 49.5101 33.15C55.3901 41.38 71.1601 24.57 71.7601 15.83C72.3501 7.07999 62.2301 -1.29001 53.3901 0.169994Z" fill="#E1F3FF"/>
<path d="M33.4 90.57C33.4 90.57 10.2 80.44 6.95996 49.34C6.95996 49.34 31.49 50.46 41.99 86.78L33.4 90.57Z" fill="url(#paint0_linear_1339_4526)"/>
<path d="M8.58008 51.11L35.8901 87.2L29.6401 86.98C29.6501 86.97 9.60008 76.03 8.58008 51.11Z" fill="#BDE0FF"/>
<path d="M33.6402 93.12C33.6402 93.12 28.6002 70.25 3.24023 70.24C3.24023 70.24 4.72024 92.74 30.6902 93.8L33.6402 93.12Z" fill="url(#paint1_radial_1339_4526)"/>
<path d="M3.24023 70.25L33.6402 93.13L29.7702 93.02C29.7602 93.01 7.76023 92.24 3.24023 70.25Z" fill="#BDE0FF"/>
<path d="M120.86 110.83C120.86 110.83 120.86 118.5 113.58 118.5H26.4598C23.5798 118.21 21.5698 114.67 21.5698 112.27C21.5698 111.34 22.0598 100.83 22.6698 88.3C23.6298 68.49 24.8598 43.61 24.8598 43.61C24.8598 43.61 25.3098 40.19 30.7698 39.81L73.1298 40.25L113.58 40.67C113.58 40.67 117.51 40.86 119.05 44.89L120.86 110.83Z" fill="url(#paint2_linear_1339_4526)"/>
<path d="M25.3698 109.67C25.3698 109.67 86.8398 113.12 116.07 110.06C116.07 110.06 118.79 76.7 115.08 45.64C115.08 45.64 69.1998 42.45 29.1998 44.62C29.1998 44.63 25.2398 73.38 25.3698 109.67Z" fill="url(#paint3_linear_1339_4526)"/>
<path d="M22.1998 98.05H15.7798V104.69H21.8898L22.1998 98.05Z" fill="url(#paint4_linear_1339_4526)"/>
<path d="M105.16 111.36L108.36 118.5H113.58C113.58 118.5 119.95 118.86 120.86 110.83V97.52L116.72 98.05L116.06 110.07L105.16 111.36Z" fill="#361488"/>
<path d="M54.05 130.7C39.1 130.7 27.69 128.59 22.11 127.3C14.7 125.59 10.71 124.1 9.36 122.49C5.63 121.89 2.8 120.93 1.29 119.47C0.43 118.64 0 117.67 0 116.57C0 107.88 15.76 101.28 16.44 101.01L16.73 101.72C16.57 101.79 0.76 108.4 0.77 116.57C0.77 117.46 1.12 118.23 1.83 118.91C3.17 120.2 5.64 121.07 8.91 121.65C8.89 121.59 8.88 121.53 8.87 121.47C8.68 120.4 9.46 119.35 11.3 118.16C13.65 116.65 16.71 116.34 19.7 117.29C22.46 118.17 24.83 120.06 26.44 122.62C32.15 122.58 38.32 122.36 44.43 122.13C57.22 121.66 69.3 121.22 76.37 122.51C79.01 122.99 80.14 123.52 80.15 124.29C80.16 124.92 79.53 125.7 74.81 126.64C62.46 129.1 29.17 130.83 26.87 125.14C26.62 124.53 26.33 123.94 26.01 123.38C20.27 123.4 15 123.23 10.73 122.67C12.48 123.88 16.31 125.15 22.29 126.54C31.22 128.61 55.18 132.78 84.66 126.92C99.92 123.89 101.69 121.49 101.75 120.6C101.8 119.73 100.27 119.02 99.73 118.84L99.97 118.11C100.08 118.15 102.62 119.01 102.51 120.65C102.36 123.04 96.57 125.33 84.81 127.67C73.58 129.91 63.16 130.7 54.05 130.7ZM26.88 123.39C27.14 123.86 27.37 124.35 27.58 124.86C28.92 128.16 44.95 128.77 60.1 127.66C72.92 126.72 79.19 125.1 79.38 124.3C79.37 124.29 79.19 123.81 76.23 123.27C69.25 122 57.21 122.44 44.46 122.9C38.5 123.13 32.48 123.35 26.88 123.39ZM9.8 121.8C14.05 122.45 19.51 122.65 25.52 122.63C24.02 120.43 21.9 118.8 19.46 118.02C16.73 117.15 13.83 117.45 11.71 118.81C10.2 119.78 9.49 120.63 9.62 121.34C9.64 121.5 9.7 121.65 9.8 121.8Z" fill="url(#paint5_linear_1339_4526)"/>
<path d="M76.2702 40.88L73.7802 43.12C73.7802 43.12 37.3002 42.83 28.5402 43.87C28.5402 43.87 24.7402 70.43 24.7402 87.02L22.6602 88.37V88.29C23.6202 68.48 24.8502 43.6 24.8502 43.6C24.8502 43.6 25.3002 40.18 30.7602 39.8L73.1202 40.24L76.2702 40.88Z" fill="url(#paint6_linear_1339_4526)"/>
<path d="M25.37 109.67L24.52 110.53C24.52 110.53 83.18 113.78 117.03 110.5L116.07 110.06C116.07 110.06 74.01 112.46 25.37 109.67Z" fill="url(#paint7_linear_1339_4526)"/>
<path d="M46.5 111.33L54.42 117.23H90.28L84.83 112.09C84.84 112.08 52.78 111.77 46.5 111.33Z" fill="url(#paint8_linear_1339_4526)"/>
<path d="M15.7798 98.05L20.5298 96.99H22.1998V98.05H15.7798Z" fill="url(#paint9_linear_1339_4526)"/>
<path d="M31.3399 51.68C31.3399 51.68 29.6299 61.78 29.6299 69.72H56.7199C56.7199 69.72 56.5899 56.41 56.7199 51.68H31.3399Z" fill="#9275C2"/>
<path d="M39.89 60.99H35.46L35.7 56.46H40.07L39.89 60.99Z" fill="#6EFFE8"/>
<path d="M45.5599 60.99H41.1299L41.2799 56.46H45.6499L45.5599 60.99Z" fill="#839FFF"/>
<path d="M51.2298 60.99H46.7998L46.8598 56.46H51.2298V60.99Z" fill="#6877FF"/>
<path d="M39.6499 67.21H35.1299L35.3699 62.68H39.8299L39.6499 67.21Z" fill="#FF1D9C"/>
<path d="M45.4397 67.21H40.9097L41.0697 62.68H45.5297L45.4397 67.21Z" fill="#981382"/>
<path d="M51.2297 67.21H46.6997L46.7697 62.68H51.2297V67.21Z" fill="#140047"/>
<path d="M30.8599 54.8H56.6799L56.7199 51.68H31.3399L30.8599 54.8Z" fill="url(#paint10_linear_1339_4526)"/>
<path d="M31.48 54.33L31.77 52.19H33.88L33.66 54.33H31.48Z" fill="white"/>
<path d="M26.5601 79.15L70.2801 43.94C70.2801 43.94 49.3501 43.58 29.2001 44.63C29.2001 44.63 27.4401 68.17 26.5601 79.15Z" fill="url(#paint11_linear_1339_4526)"/>
<path d="M69.2598 89L69.9798 82.73H77.1498L77.6198 88.74L75.2598 90.37H71.6898L69.2598 89Z" fill="url(#paint12_linear_1339_4526)"/>
<path d="M73.4398 60.63C62.5198 60.63 62.9698 72.41 66.8298 76.81C69.5698 79.93 68.4498 81.13 68.7198 81.73C68.9898 82.34 69.9798 82.73 69.9798 82.73H73.4398H76.8998C76.8998 82.73 77.8898 82.34 78.1598 81.73C78.4298 81.12 77.2698 79.89 80.0498 76.81C84.0998 72.32 84.5698 60.63 73.4398 60.63Z" fill="url(#paint13_linear_1339_4526)"/>
<path d="M71.6899 90.37L72.6299 91.03H74.3199L75.2599 90.37H71.6899Z" fill="url(#paint14_linear_1339_4526)"/>
<path d="M66.0897 67.35H68.2497C68.2497 67.35 68.6497 64.54 69.9097 63.1L67.9997 62.61C67.9997 62.61 65.8697 64.31 66.0897 67.35Z" fill="white"/>
<path d="M78.52 74.97L79.73 75.62C79.73 75.62 82.09 73.06 82.02 69.42H80.3C80.31 69.42 80.54 72.56 78.52 74.97Z" fill="white"/>
<path d="M68.7197 81.74C68.7197 81.74 75.3997 82.64 78.1597 81.74C78.1597 81.74 77.8597 82.5 77.1497 82.74L77.3997 85.9C77.3997 85.9 74.2597 83.99 69.8597 83.82L69.9797 82.74C69.9797 82.73 68.9797 82.22 68.7197 81.74Z" fill="url(#paint15_linear_1339_4526)"/>
<path d="M24.3001 54.8H22.8901V58.5L24.1101 58.73L24.3001 54.8Z" fill="url(#paint16_linear_1339_4526)"/>
<path d="M23.9999 60.99L22.8899 61.3L22.6099 64.08L23.8199 64.46L23.9999 60.99Z" fill="url(#paint17_linear_1339_4526)"/>
<path d="M123.36 42.92L130.07 38.2L132.92 39.8L125.45 46.68L123.36 42.92Z" fill="#FF1D9C"/>
<path d="M29.6001 34.68L36.4001 31.46L38.1601 34.75L31.1901 36.47L29.6001 34.68Z" fill="#4F31E0"/>
<path d="M98.3198 129.93L107.95 129.69L110.08 132.94L99.0998 132.51L98.3198 129.93Z" fill="#6877FF"/>
<path d="M95.4601 63.61C95.4601 63.61 92.8801 72.53 93.3401 76.18C93.3401 76.18 93.6801 80.06 97.8001 80.29L102.26 69.13L95.4601 63.61Z" fill="url(#paint18_linear_1339_4526)"/>
<path d="M76.3102 71.57C76.3102 71.57 74.7102 72.74 74.8102 73.25C74.9002 73.73 76.6502 74.58 76.6502 74.58L76.3102 71.57Z" fill="url(#paint19_linear_1339_4526)"/>
<path d="M131.16 119.26L129.43 148.6C129.43 148.6 105.57 116.64 98.3703 110.93C97.7503 110.44 97.1503 109.98 96.6003 109.57C90.6603 105.12 88.0003 104.6 87.0703 104.08C86.0403 103.51 84.2103 100.65 83.9803 99.74C83.7503 98.83 83.7503 85.57 82.9903 82.6C82.2203 79.63 78.7203 76.59 78.4203 75.52C78.1103 74.45 79.4103 72.62 80.7103 72.39C82.0003 72.16 88.7103 74.15 90.7703 80.93C90.7703 80.93 89.9303 82.45 89.4703 84.28C89.0103 86.11 89.7003 89.08 89.7003 89.08C89.7003 89.08 92.5203 89.62 93.7403 89.31C94.9603 89.01 97.2403 82.31 97.0903 77.12C96.9403 71.94 91.9203 62.04 91.9203 62.04L88.1803 53.28C88.1803 53.28 92.5203 51.22 94.8903 51.68C94.8903 51.68 98.6203 57.69 100.83 58.99C100.83 58.99 105.75 59.82 108.56 60.66C108.56 60.66 111.94 61.12 114.77 63.48C114.77 63.48 117.89 63.71 119.34 64.85C120.78 65.99 127.11 73.99 127.49 76.13L127.5 76.26C127.69 78.81 122.78 93.65 113.14 103.4C113.14 103.4 115.44 105.62 118.81 108.67V108.68C122.23 111.81 126.81 115.84 131.16 119.26Z" fill="url(#paint20_linear_1339_4526)"/>
<path d="M120.83 67.77L120.81 67.78C120.38 68 119.94 68.14 119.51 68.18C119.51 68.18 105.35 70.43 94.9699 72.33V72.34C89.4999 73.33 85.0799 74.23 84.3499 74.65C83.6799 75.03 83.2199 75.49 82.9099 75.94C82.2199 76.92 82.2199 77.85 82.2199 77.85C82.2199 77.85 79.1399 77.55 76.6599 74.58C76.6599 74.58 75.4799 73.36 76.0099 71.84C76.0099 71.84 76.9999 69.26 79.7599 67.53H79.7699C80.3899 67.13 81.0999 66.78 81.9199 66.52C81.9199 66.52 81.9299 66.69 81.9699 66.93C82.0599 67.42 82.3399 68.19 83.0599 68.19C83.5999 68.19 90.3399 65.7 98.1999 62.52L98.2099 62.51C105.9 59.38 114.66 55.58 119.74 52.77C119.74 52.77 124.55 52.88 125.46 58.25C126.24 62.86 123.56 66.4 120.83 67.77Z" fill="url(#paint21_linear_1339_4526)"/>
<path opacity="0.86" d="M94.9701 72.33C89.5001 73.33 85.0801 74.23 84.3501 74.65C83.6801 75.03 83.2201 75.49 82.9101 75.94L79.4701 76.79C77.7101 73.12 79.7501 67.52 79.7501 67.52H79.7601L81.9601 66.92C82.0501 67.41 82.3301 68.18 83.0501 68.18C83.5901 68.18 90.3301 65.69 98.1901 62.51C94.4501 66.51 94.9701 72.33 94.9701 72.33Z" fill="#9A7AB3"/>
<path d="M79.75 67.52C79.75 67.52 80.76 70.81 86.71 68.01C86.71 68.01 94.71 60.95 96.33 53.88L94.86 51.66C94.86 51.66 90.46 50.96 88.16 53.26C88.16 53.26 87.23 58.65 84.94 62.37C84.18 63.62 79.75 66.25 79.75 66.25V67.52Z" fill="url(#paint22_linear_1339_4526)"/>
<path d="M78.4102 75.5C78.4102 75.5 82.7302 81.02 82.9802 82.58C83.2302 84.14 83.9202 99.27 83.9202 99.27C83.9202 99.27 83.6402 93.32 89.6802 89.06C89.6802 89.06 89.4102 87 89.6802 84.84C89.9502 82.68 90.5602 81.8 90.7502 80.91C90.9402 80.01 88.2702 72.64 81.6002 71.73C81.6002 71.73 80.4402 72.11 79.5802 72.95C78.7102 73.78 78.4102 75.5 78.4102 75.5Z" fill="url(#paint23_linear_1339_4526)"/>
<path d="M132.26 144.53C131.46 146.5 130.16 148.05 128.85 149.37L121.45 138.23C121.45 138.23 118.27 140 117.36 139.82C114.99 139.36 114.99 134.23 114.99 134.23C114.99 134.23 114.34 128.1 115.94 121.92C115.95 121.89 115.95 121.87 115.95 121.87C117.07 117.55 119.3 113.19 123.62 110.92C123.62 110.92 126.53 109.95 128.65 114.92L134.7 119.03C134.7 119.04 136.28 134.73 132.26 144.53Z" fill="url(#paint24_linear_1339_4526)"/>
<path opacity="0.5" d="M132.26 144.51V144.53C131.46 146.5 130.42 148.22 129.11 149.54L121.45 138.23C121.45 138.23 118.27 140 117.36 139.82C114.99 139.36 114.99 134.23 114.99 134.23C114.99 134.23 114.34 128.1 115.94 121.92C115.82 122.69 114.24 132.72 116.42 136.06C118.69 139.54 122.52 117.32 128.65 114.93C128.65 114.93 122.43 125.17 122.97 132.25C123.5 139.33 132.26 144.51 132.26 144.51Z" fill="url(#paint25_linear_1339_4526)"/>
<path d="M113.11 103.38C113.11 103.38 115.41 105.6 118.78 108.65V108.66C118.78 108.66 110.71 106.69 103.85 107.49C98.8401 108.07 97.1401 109.06 96.5901 109.56C90.6501 105.11 87.9901 104.59 87.0601 104.07L94.7901 99.27C94.7901 99.27 102.26 82.74 103.32 74.32L101.44 71.19L107.13 71.95C107.13 71.95 110.89 73.02 117.37 72.95C117.37 72.95 120.69 74.69 123.57 74.32L127.47 76.11L127.48 76.24C127.66 78.79 122.75 93.62 113.11 103.38Z" fill="url(#paint26_linear_1339_4526)"/>
<path d="M89.6802 89.06C89.6802 89.06 91.6302 90.89 93.2802 91.12C93.2802 91.12 94.7402 89.36 95.6602 85.79C95.6602 85.79 94.7802 88.26 93.6702 88.83C93.6802 88.83 91.8502 89.67 89.6802 89.06Z" fill="url(#paint27_linear_1339_4526)"/>
<path d="M78.4102 75.5C78.4102 75.5 81.9102 79.95 82.9402 79.96C84.3302 79.96 85.1102 77.87 84.1402 75.1C83.4302 73.09 81.3801 72.34 81.3801 72.34C81.3801 72.34 79.5902 72.64 78.4102 75.5Z" fill="url(#paint28_linear_1339_4526)"/>
<path d="M78.8702 76.09C78.8702 76.09 79.9702 73.75 82.1102 72.71L81.3801 72.34C81.3801 72.34 79.6202 72.82 78.4102 75.5L78.8702 76.09Z" fill="url(#paint29_linear_1339_4526)"/>
<path d="M83.0901 73.47C83.0901 73.47 84.8901 74.97 84.4901 77.86C84.0901 80.75 82.3201 79.82 81.6001 79.12C81.6001 79.12 82.3601 80 83.1601 80.11C83.9601 80.22 84.9901 79.21 85.0001 77.24C85.0101 75.27 83.0901 73.47 83.0901 73.47Z" fill="url(#paint30_linear_1339_4526)"/>
<path d="M120.83 67.77L120.81 67.78L120.29 67.99C120.29 67.99 116.72 65.29 116.72 59.65C116.72 54.69 119.73 52.76 119.73 52.76C119.73 52.76 124.54 52.87 125.45 58.24C126.24 62.86 123.56 66.4 120.83 67.77Z" fill="url(#paint31_linear_1339_4526)"/>
<path d="M123.2 60.73L123.07 60.78C123.07 60.78 121.98 60.07 121.98 58.74C121.98 57.56 122.94 57.17 122.94 57.17C122.94 57.17 124.08 57.2 124.3 58.47C124.48 59.57 123.84 60.41 123.2 60.73Z" fill="url(#paint32_linear_1339_4526)"/>
<path opacity="0.86" d="M122.75 60.09L122.67 60.12C122.67 60.12 122.11 59.82 122.11 58.97C122.11 58.22 122.59 57.82 122.59 57.82C122.59 57.82 123.32 57.84 123.45 58.65C123.57 59.35 123.17 59.89 122.75 60.09Z" fill="#9A7AD9"/>
<path d="M92.0002 62.23L89.6802 56.83L90.3802 64.18C90.3802 64.18 91.2202 63.22 92.0002 62.23Z" fill="url(#paint33_linear_1339_4526)"/>
<path d="M89 66.96L109.3 58.98L108.54 60.64L89 67.8V66.96Z" fill="url(#paint34_linear_1339_4526)"/>
<path d="M109.95 60.45L110.82 58.21L114.92 56.15L113.91 59.35L109.95 60.45Z" fill="white"/>
<path d="M123.57 61.97C123.57 61.97 123.32 63.29 122.23 64.47L123.01 65.25C123.01 65.25 124.36 64.19 124.72 62.49L123.57 61.97Z" fill="white"/>
<path d="M127.76 115.68C127.08 111.85 123.61 111.15 123.58 111.15L123.66 110.7C123.7 110.71 127.48 111.46 128.21 115.6L127.76 115.68Z" fill="white"/>
<path d="M126.16 118C124.24 114.51 120.45 113.51 120.42 113.5L120.53 113.06C120.69 113.1 124.55 114.13 126.56 117.79L126.16 118Z" fill="white"/>
<path d="M124.79 120.62C121.89 118.18 117.71 117.4 117.66 117.39L117.74 116.94C117.92 116.97 122.08 117.75 125.08 120.27L124.79 120.62Z" fill="white"/>
<path d="M123.43 124.89C119.99 122.36 116.14 121.35 116.11 121.34L116.22 120.9C116.26 120.91 120.18 121.94 123.7 124.53L123.43 124.89Z" fill="white"/>
<path d="M122.43 128.82C117.62 126.52 115.16 126.84 115.14 126.84L115.07 126.39C115.17 126.38 117.67 126.05 122.62 128.41L122.43 128.82Z" fill="white"/>
<path d="M119.26 132.95C116.72 132.95 114.92 132.48 114.82 132.45L114.94 132.01C114.97 132.02 118.09 132.84 121.86 132.32L121.92 132.77C120.98 132.9 120.08 132.95 119.26 132.95Z" fill="white"/>
<path d="M115.72 138.23C115.67 138.23 115.64 138.23 115.63 138.23L115.65 137.77C115.68 137.77 118.12 137.85 121.33 135.86L121.57 136.25C118.54 138.12 116.21 138.23 115.72 138.23Z" fill="white"/>
<path d="M121.68 138.23H121.22C121.22 138.07 121.46 121.8 128.49 114.76L128.81 115.08C121.92 121.99 121.68 138.07 121.68 138.23Z" fill="white"/>
<path d="M88.1602 53.25C88.1602 53.25 91.2802 58.33 93.3502 60.34C96.3402 63.26 99.9501 60.5 99.9501 60.5L100.61 59.33C100.61 59.33 97.0202 55.42 94.8702 51.65C94.8602 51.65 90.7602 50.89 88.1602 53.25Z" fill="#E1D197"/>
<defs>
<linearGradient id="paint0_linear_1339_4526" x1="26.1728" y1="91.1063" x2="23.0121" y2="48.1612" gradientUnits="userSpaceOnUse">
<stop stop-color="#1C257B"/>
<stop offset="1" stop-color="#6A2C9A"/>
</linearGradient>
<radialGradient id="paint1_radial_1339_4526" cx="0" cy="0" r="1" gradientUnits="userSpaceOnUse" gradientTransform="translate(15.3974 70.5399) rotate(169.647) scale(19.7371 19.7371)">
<stop stop-color="#3996F7"/>
<stop offset="1" stop-color="#6840D5"/>
</radialGradient>
<linearGradient id="paint2_linear_1339_4526" x1="71.2131" y1="118.495" x2="71.2131" y2="39.8005" gradientUnits="userSpaceOnUse">
<stop stop-color="#1C257B"/>
<stop offset="1" stop-color="#482C83"/>
</linearGradient>
<linearGradient id="paint3_linear_1339_4526" x1="71.1961" y1="111.331" x2="71.1961" y2="43.8694" gradientUnits="userSpaceOnUse">
<stop stop-color="#FDFDFF"/>
<stop offset="1" stop-color="#DBCAFF"/>
</linearGradient>
<linearGradient id="paint4_linear_1339_4526" x1="18.9897" y1="104.691" x2="18.9897" y2="98.0464" gradientUnits="userSpaceOnUse">
<stop stop-color="#1C257B"/>
<stop offset="1" stop-color="#482C83"/>
</linearGradient>
<linearGradient id="paint5_linear_1339_4526" x1="51.2552" y1="130.697" x2="51.2552" y2="101.014" gradientUnits="userSpaceOnUse">
<stop stop-color="#1C257B"/>
<stop offset="1" stop-color="#482C83"/>
</linearGradient>
<linearGradient id="paint6_linear_1339_4526" x1="49.4677" y1="88.3682" x2="49.4677" y2="39.8005" gradientUnits="userSpaceOnUse">
<stop stop-color="#B9ACF4"/>
<stop offset="1" stop-color="#E1D1F5"/>
</linearGradient>
<linearGradient id="paint7_linear_1339_4526" x1="70.7745" y1="111.967" x2="70.7745" y2="109.675" gradientUnits="userSpaceOnUse">
<stop stop-color="#744FD8"/>
<stop offset="1" stop-color="#3996F7"/>
</linearGradient>
<linearGradient id="paint8_linear_1339_4526" x1="68.3941" y1="117.229" x2="68.3941" y2="111.331" gradientUnits="userSpaceOnUse">
<stop stop-color="#B9ACF4"/>
<stop offset="1" stop-color="#E1D1F5"/>
</linearGradient>
<linearGradient id="paint9_linear_1339_4526" x1="18.9897" y1="98.0464" x2="18.9897" y2="96.9868" gradientUnits="userSpaceOnUse">
<stop stop-color="#744FD8"/>
<stop offset="1" stop-color="#3996F7"/>
</linearGradient>
<linearGradient id="paint10_linear_1339_4526" x1="43.7942" y1="54.8038" x2="43.7942" y2="51.683" gradientUnits="userSpaceOnUse">
<stop stop-color="#B9ACF4"/>
<stop offset="1" stop-color="#E1D1F5"/>
</linearGradient>
<linearGradient id="paint11_linear_1339_4526" x1="48.418" y1="79.1477" x2="48.418" y2="43.8784" gradientUnits="userSpaceOnUse">
<stop stop-color="#B9ACF4"/>
<stop offset="1" stop-color="#E1D1F5"/>
</linearGradient>
<linearGradient id="paint12_linear_1339_4526" x1="73.4408" y1="90.3685" x2="73.4408" y2="82.7341" gradientUnits="userSpaceOnUse">
<stop stop-color="#EFEAFF"/>
<stop offset="1" stop-color="#D1BBFF"/>
</linearGradient>
<linearGradient id="paint13_linear_1339_4526" x1="73.5082" y1="82.7341" x2="73.5082" y2="60.6301" gradientUnits="userSpaceOnUse">
<stop stop-color="#CF95FF"/>
<stop offset="1" stop-color="#9552FF"/>
</linearGradient>
<linearGradient id="paint14_linear_1339_4526" x1="73.4746" y1="91.026" x2="73.4746" y2="90.3685" gradientUnits="userSpaceOnUse">
<stop stop-color="#1C257B"/>
<stop offset="1" stop-color="#482C83"/>
</linearGradient>
<linearGradient id="paint15_linear_1339_4526" x1="68.7204" y1="83.8153" x2="78.1611" y2="83.8153" gradientUnits="userSpaceOnUse">
<stop stop-color="#8B8BE0"/>
<stop offset="1" stop-color="white"/>
</linearGradient>
<linearGradient id="paint16_linear_1339_4526" x1="23.5964" y1="58.7267" x2="23.5964" y2="54.8038" gradientUnits="userSpaceOnUse">
<stop stop-color="#1C257B"/>
<stop offset="1" stop-color="#482C83"/>
</linearGradient>
<linearGradient id="paint17_linear_1339_4526" x1="23.3038" y1="64.4646" x2="23.3038" y2="60.9895" gradientUnits="userSpaceOnUse">
<stop stop-color="#1C257B"/>
<stop offset="1" stop-color="#482C83"/>
</linearGradient>
<linearGradient id="paint18_linear_1339_4526" x1="93.2838" y1="71.9516" x2="102.251" y2="71.9516" gradientUnits="userSpaceOnUse">
<stop stop-color="#CF6074"/>
<stop offset="1" stop-color="#FF817F"/>
</linearGradient>
<linearGradient id="paint19_linear_1339_4526" x1="75.7319" y1="74.5822" x2="75.7319" y2="71.5732" gradientUnits="userSpaceOnUse">
<stop stop-color="#1C257B"/>
<stop offset="1" stop-color="#482C83"/>
</linearGradient>
<linearGradient id="paint20_linear_1339_4526" x1="104.76" y1="148.593" x2="104.76" y2="51.5895" gradientUnits="userSpaceOnUse">
<stop offset="0.016" stop-color="#FFC2A9"/>
<stop offset="1" stop-color="#FF9595"/>
</linearGradient>
<linearGradient id="paint21_linear_1339_4526" x1="100.73" y1="77.8547" x2="100.73" y2="52.7619" gradientUnits="userSpaceOnUse">
<stop stop-color="#1C257B"/>
<stop offset="1" stop-color="#482C83"/>
</linearGradient>
<linearGradient id="paint22_linear_1339_4526" x1="88.044" y1="69.1404" x2="88.044" y2="51.5513" gradientUnits="userSpaceOnUse">
<stop offset="0.016" stop-color="#FF9A93"/>
<stop offset="1" stop-color="#FF9595"/>
</linearGradient>
<linearGradient id="paint23_linear_1339_4526" x1="84.5826" y1="99.2674" x2="84.5826" y2="71.7255" gradientUnits="userSpaceOnUse">
<stop offset="0.016" stop-color="#FF9A93"/>
<stop offset="1" stop-color="#FF9595"/>
</linearGradient>
<linearGradient id="paint24_linear_1339_4526" x1="124.936" y1="149.371" x2="124.936" y2="110.843" gradientUnits="userSpaceOnUse">
<stop stop-color="#744FD8"/>
<stop offset="1" stop-color="#3996F7"/>
</linearGradient>
<linearGradient id="paint25_linear_1339_4526" x1="123.562" y1="149.541" x2="123.562" y2="114.923" gradientUnits="userSpaceOnUse">
<stop stop-color="#8B8BE0"/>
<stop offset="1" stop-color="white"/>
</linearGradient>
<linearGradient id="paint26_linear_1339_4526" x1="107.268" y1="109.557" x2="107.268" y2="71.1907" gradientUnits="userSpaceOnUse">
<stop offset="0.016" stop-color="#FF997C"/>
<stop offset="1" stop-color="#FF898E"/>
</linearGradient>
<linearGradient id="paint27_linear_1339_4526" x1="89.6817" y1="88.4498" x2="95.6663" y2="88.4498" gradientUnits="userSpaceOnUse">
<stop stop-color="#CF6074"/>
<stop offset="1" stop-color="#FF817F"/>
</linearGradient>
<linearGradient id="paint28_linear_1339_4526" x1="78.4075" y1="76.1438" x2="84.5711" y2="76.1438" gradientUnits="userSpaceOnUse">
<stop stop-color="#B9ACF4"/>
<stop offset="1" stop-color="#E1D1F5"/>
</linearGradient>
<linearGradient id="paint29_linear_1339_4526" x1="80.2599" y1="76.0878" x2="80.2599" y2="72.3349" gradientUnits="userSpaceOnUse">
<stop stop-color="#B9ACF4"/>
<stop offset="1" stop-color="#E1D1F5"/>
</linearGradient>
<linearGradient id="paint30_linear_1339_4526" x1="83.2979" y1="80.1185" x2="83.2979" y2="73.4666" gradientUnits="userSpaceOnUse">
<stop stop-color="#CF6074"/>
<stop offset="1" stop-color="#FF817F"/>
</linearGradient>
<linearGradient id="paint31_linear_1339_4526" x1="121.156" y1="67.9913" x2="121.156" y2="52.7619" gradientUnits="userSpaceOnUse">
<stop stop-color="#B9ACF4"/>
<stop offset="1" stop-color="#E1D1F5"/>
</linearGradient>
<linearGradient id="paint32_linear_1339_4526" x1="123.153" y1="60.7855" x2="123.153" y2="57.1705" gradientUnits="userSpaceOnUse">
<stop stop-color="#FDFDFF"/>
<stop offset="1" stop-color="#DBCAFF"/>
</linearGradient>
<linearGradient id="paint33_linear_1339_4526" x1="90.8419" y1="64.179" x2="90.8419" y2="56.8313" gradientUnits="userSpaceOnUse">
<stop stop-color="#CF6074"/>
<stop offset="1" stop-color="#FF817F"/>
</linearGradient>
<linearGradient id="paint34_linear_1339_4526" x1="99.1469" y1="67.8024" x2="99.1469" y2="58.978" gradientUnits="userSpaceOnUse">
<stop stop-color="#B9ACF4"/>
<stop offset="1" stop-color="#E1D1F5"/>
</linearGradient>
</defs>
</svg>
