<svg width="90" height="107" viewBox="0 0 90 107" fill="none" xmlns="http://www.w3.org/2000/svg">
<path d="M3.12014 105.1L0.140137 98.27H89.5801L88.1301 106.55C88.1401 106.55 42.7501 103.25 3.12014 105.1Z" fill="url(#paint0_linear_1339_3910)"/>
<path d="M0.140137 98.27L13.3501 14.38L80.3101 10.68L89.5801 98.27H0.140137Z" fill="url(#paint1_linear_1339_3910)"/>
<path d="M34.3003 7.29V2.41C34.3003 2.41 48.3703 -0.680001 62.9803 0.979999L62.4403 5.76C62.4403 5.76 50.6403 4.47 34.3003 7.29Z" fill="url(#paint2_linear_1339_3910)"/>
<path d="M34.3003 7.29001L35.8903 8.33001L60.5603 7.29001L62.4403 5.75001C62.4403 5.76001 49.0603 4.10001 34.3003 7.29001Z" fill="#140047"/>
<path opacity="0.86" d="M7.36035 93.98L85.0303 94.44L77.6904 14.97L22.0103 13.98L7.36035 93.98Z" fill="#9ABAB3"/>
<path d="M85.0302 94.44C51.5402 86.91 4.18018 94.44 4.18018 94.44L16.9302 10.68C49.3002 1.03999 80.0802 2.48999 80.0802 2.48999L80.0902 2.66999L85.0302 94.44Z" fill="url(#paint3_linear_1339_3910)"/>
<path d="M43.3402 9.74001C43.3202 9.93001 43.2802 10.14 43.1902 10.36C43.1102 10.58 42.9902 10.79 42.8402 11C42.6902 11.21 42.5002 11.41 42.2802 11.61C42.0602 11.8 41.7902 11.97 41.5002 12.12C41.7802 12.16 41.9902 12.22 42.1502 12.32C42.3102 12.42 42.4202 12.52 42.5002 12.64C42.5802 12.76 42.6202 12.87 42.6402 12.99C42.6602 13.1 42.6602 13.2 42.6602 13.27C42.6402 13.51 42.5702 13.72 42.4502 13.91C42.3302 14.1 42.1802 14.26 42.0102 14.4C41.8302 14.54 41.6402 14.67 41.4302 14.77C41.2202 14.87 41.0102 14.96 40.8002 15.03C40.5902 15.1 40.4002 15.15 40.2302 15.2C40.0502 15.24 39.9102 15.27 39.8102 15.29C39.6802 15.31 39.5402 15.33 39.4002 15.34C39.2802 15.35 39.1502 15.35 39.0202 15.35C38.8902 15.35 38.7702 15.34 38.6602 15.31C38.7302 14.71 38.7802 14.12 38.8202 13.54C38.8802 12.74 38.9102 11.96 38.9102 11.19C38.9202 10.42 38.9002 9.65001 38.8602 8.88001C39.0802 8.79001 39.3002 8.72001 39.5202 8.65001C39.7402 8.58001 39.9402 8.53001 40.1202 8.48001C40.3302 8.43001 40.5302 8.38001 40.7102 8.35001C40.8602 8.32001 41.0302 8.30001 41.2202 8.29001C41.4102 8.28001 41.6102 8.29001 41.8102 8.31001C42.0102 8.33001 42.2102 8.37001 42.4002 8.43001C42.5902 8.49001 42.7602 8.58001 42.9102 8.69001C43.0602 8.80001 43.1702 8.95001 43.2502 9.12001C43.3302 9.29001 43.3602 9.50001 43.3402 9.74001ZM41.2802 13.35C41.2902 13.21 41.2402 13.07 41.1702 12.96C41.1402 12.91 41.0902 12.87 41.0402 12.82C40.9902 12.77 40.9302 12.74 40.8502 12.7C40.7702 12.67 40.6802 12.64 40.5802 12.63C40.4802 12.62 40.3602 12.61 40.2302 12.62C40.1902 12.95 40.1602 13.28 40.1302 13.6C40.1002 13.92 40.0702 14.25 40.0502 14.58C40.1902 14.52 40.3202 14.46 40.4402 14.39C40.5502 14.32 40.6502 14.26 40.7402 14.19C40.8202 14.12 40.9002 14.05 40.9602 13.99C41.0202 13.92 41.0702 13.86 41.1102 13.79C41.2002 13.64 41.2702 13.48 41.2802 13.35ZM41.9202 10.18C41.9202 10.18 41.9202 10.16 41.9302 10.1C41.9302 10.04 41.9302 9.97001 41.9202 9.88001C41.9102 9.80001 41.8802 9.70001 41.8402 9.61001C41.8002 9.51001 41.7302 9.42001 41.6402 9.35001C41.5502 9.27001 41.4202 9.21001 41.2702 9.17001C41.1202 9.13001 40.9202 9.12001 40.6802 9.15001C40.6102 9.67001 40.5402 10.18 40.4702 10.7C40.4002 11.21 40.3402 11.73 40.2902 12.25C40.4702 12.18 40.6202 12.1 40.7702 12C40.9102 11.9 41.0402 11.8 41.1502 11.69C41.2602 11.58 41.3602 11.47 41.4402 11.35C41.5202 11.23 41.5902 11.12 41.6502 11.01C41.7602 10.74 41.8602 10.46 41.9202 10.18Z" fill="#EF138B"/>
<path d="M48.24 9.25001C48.22 9.46001 48.17 9.68001 48.1 9.90001C48.02 10.12 47.91 10.34 47.75 10.55C47.6 10.76 47.41 10.97 47.18 11.16C46.95 11.36 46.68 11.54 46.36 11.71C46.6 12.13 46.86 12.53 47.15 12.91C47.44 13.29 47.78 13.65 48.15 14C47.42 14.1 47.06 14.15 46.34 14.26C45.92 13.4 45.71 12.98 45.28 12.12C45.27 12.5 45.26 12.88 45.27 13.25C45.27 13.63 45.28 13.99 45.3 14.36C44.6 14.45 44.24 14.49 43.54 14.59C43.67 13.87 43.77 13.15 43.86 12.43C43.95 11.71 44.02 10.99 44.08 10.27C44.11 9.85001 44.14 9.44001 44.17 9.02001C44.2 8.61001 44.21 8.19001 44.22 7.77001C44.48 7.68001 44.74 7.61001 45.01 7.56001C45.27 7.51001 45.5 7.47001 45.68 7.44001C45.81 7.42001 45.97 7.41001 46.15 7.40001C46.33 7.39001 46.53 7.40001 46.73 7.43001C46.93 7.46001 47.13 7.51001 47.32 7.58001C47.51 7.65001 47.68 7.76001 47.83 7.90001C47.97 8.04001 48.09 8.22001 48.17 8.44001C48.24 8.66001 48.27 8.93001 48.24 9.25001ZM45.33 11.36C45.5 11.31 45.65 11.24 45.79 11.16C45.92 11.08 46.04 11 46.14 10.91C46.24 10.82 46.33 10.73 46.4 10.63C46.47 10.53 46.53 10.44 46.59 10.35C46.7 10.13 46.78 9.90001 46.81 9.66001C46.81 9.65001 46.81 9.61001 46.82 9.54001C46.82 9.47001 46.82 9.38001 46.8 9.28001C46.79 9.18001 46.76 9.06001 46.72 8.94001C46.68 8.82001 46.63 8.71001 46.55 8.60001C46.47 8.49001 46.37 8.40001 46.24 8.33001C46.11 8.26001 45.95 8.21001 45.76 8.20001C45.66 8.70001 45.57 9.20001 45.5 9.69001C45.43 10.18 45.37 10.68 45.33 11.18C45.34 11.25 45.34 11.28 45.33 11.36Z" fill="#EF138B"/>
<path d="M51.5199 13.67C51.3299 13.68 51.1299 13.69 50.9399 13.7C50.7499 13.71 50.5499 13.72 50.3599 13.74C50.0399 13.77 49.7199 13.8 49.3999 13.83C49.0799 13.87 48.7599 13.91 48.4399 13.95C48.4799 13.54 48.4999 13.33 48.5299 12.92C48.6399 12.92 48.7499 12.92 48.8599 12.91C48.9699 12.9 49.0799 12.9 49.1899 12.9C49.2599 12.4 49.3199 11.91 49.3899 11.42C49.4599 10.93 49.5099 10.44 49.5499 9.95001C49.5799 9.62001 49.5999 9.30001 49.6099 8.98001C49.6199 8.66001 49.6399 8.34001 49.6499 8.02001C49.5199 8.03001 49.3899 8.05001 49.2599 8.06001C49.1299 8.08001 48.9899 8.10001 48.8599 8.12001C48.8999 7.72001 48.9199 7.52001 48.9599 7.12001C49.3299 7.09001 49.7099 7.07001 50.0799 7.04001C50.4599 7.01001 50.8299 6.98001 51.2099 6.94001C51.3499 6.93001 51.4799 6.92001 51.6199 6.90001C51.7599 6.89001 51.8999 6.87001 52.0399 6.85001C51.9899 7.23001 51.9599 7.42001 51.9099 7.81001C51.7999 7.82001 51.6899 7.83001 51.5799 7.83001C51.4699 7.84001 51.3599 7.84001 51.2499 7.85001C51.1299 8.43001 51.0299 9.00001 50.9599 9.57001C50.8799 10.14 50.8199 10.71 50.7699 11.28C50.7299 11.78 50.6999 12.28 50.6899 12.78C50.8499 12.77 50.9999 12.75 51.1699 12.74C51.3299 12.72 51.4999 12.71 51.6599 12.69C51.6099 13.09 51.5799 13.28 51.5199 13.67Z" fill="#EF138B"/>
<path d="M55.4502 10.94C55.3002 10.94 55.1502 10.94 54.9902 10.95C54.8302 10.95 54.6802 10.96 54.5202 10.97C54.4302 10.97 54.3403 10.98 54.2503 10.99C54.1503 11 54.0603 11 53.9703 11.01C53.9003 11.7 53.8603 12.05 53.7903 12.74C54.1903 12.71 54.5803 12.68 54.9603 12.65C55.3403 12.61 55.7402 12.57 56.1702 12.51C56.1302 12.92 56.1203 13.12 56.0803 13.53C55.8103 13.53 55.5403 13.54 55.2903 13.54C55.0303 13.55 54.7803 13.55 54.5303 13.56C54.1503 13.58 53.7803 13.6 53.4103 13.63C53.0403 13.66 52.6603 13.69 52.2603 13.73C52.3503 13.13 52.4403 12.54 52.5103 11.95C52.5903 11.36 52.6502 10.77 52.7002 10.18C52.7502 9.61 52.7903 9.04 52.8203 8.48C52.8503 7.92 52.8603 7.36 52.8603 6.79C53.4403 6.77 53.9903 6.75 54.5103 6.71C54.8403 6.69 55.1803 6.66 55.5103 6.63C55.8403 6.6 56.2003 6.56 56.5803 6.53C56.5403 6.98 56.5203 7.2 56.4803 7.65C56.1803 7.63 55.8802 7.62 55.5902 7.61C55.2902 7.61 55.0003 7.61 54.7103 7.63C54.6003 7.64 54.5402 7.64 54.4202 7.65C54.3303 8.05 54.2703 8.46 54.2103 8.86C54.1603 9.26 54.0102 10.01 54.0602 10.06C54.0802 10.08 54.3103 10.06 54.4403 10.05C54.5703 10.04 54.7002 10.04 54.8402 10.03C54.9502 10.02 55.0703 10.02 55.1803 10.01C55.3003 10 55.4203 10 55.5403 9.98C55.5003 10.36 55.4802 10.56 55.4502 10.94Z" fill="#EF138B"/>
<path d="M59.96 10.83C59.81 10.82 59.66 10.82 59.5 10.82C59.34 10.82 59.19 10.82 59.03 10.82C58.95 10.82 58.86 10.82 58.77 10.83C58.68 10.83 58.6 10.84 58.51 10.84C58.45 11.91 58.42 12.44 58.36 13.5C58.25 13.49 58.13 13.49 58 13.49C57.87 13.49 57.74 13.49 57.62 13.49C57.5 13.49 57.38 13.5 57.28 13.5C57.17 13.5 57.08 13.51 57 13.51C56.91 13.52 56.82 13.52 56.73 13.53C56.83 12.93 56.91 12.33 57 11.73C57.08 11.14 57.15 10.54 57.2 9.94001C57.25 9.36001 57.29 8.79 57.32 8.22001C57.35 7.65001 57.37 7.08001 57.37 6.51001C57.95 6.51001 58.5 6.51001 59.03 6.49001C59.37 6.48001 59.7 6.47001 60.03 6.45001C60.37 6.43001 60.72 6.41 61.1 6.38C61.06 6.83 61.03 7.06001 60.99 7.51001C60.69 7.48001 60.39 7.45001 60.09 7.44001C59.79 7.43001 59.5 7.42001 59.2 7.43001C59.08 7.43001 59.03 7.43001 58.91 7.44001C58.84 7.81001 58.78 8.17 58.73 8.55C58.68 8.92 58.64 9.30001 58.61 9.69001C58.6 9.77001 58.6 9.8 58.59 9.88C58.71 9.88 58.83 9.89 58.96 9.88C59.08 9.88 59.21 9.88001 59.34 9.87001C59.45 9.87001 59.57 9.87001 59.69 9.87001C59.81 9.87001 59.93 9.86001 60.05 9.86001C60.01 10.25 59.99 10.44 59.96 10.83Z" fill="#EF138B"/>
<path opacity="0.62" d="M21.1501 21.48C21.1501 21.48 32.3101 17.63 52.6401 16.54V20.52C52.6401 20.52 39.1301 20.09 20.3501 24.42L21.1501 21.48Z" fill="url(#paint4_linear_1339_3910)"/>
<path opacity="0.62" d="M16.1502 52.66C16.1502 52.66 30.2002 50.8 48.3602 50.55V53.89C48.3602 53.89 34.8802 53.53 15.2002 56.07L16.1502 52.66Z" fill="url(#paint5_linear_1339_3910)"/>
<path opacity="0.62" d="M14.4303 67.82C14.4303 67.82 28.7703 66.35 46.9403 66.1V68.91C46.9403 68.91 34.5703 68.76 14.0303 70.7L14.4303 67.82Z" fill="url(#paint6_linear_1339_3910)"/>
<path opacity="0.62" d="M18.5102 36.74C18.5102 36.74 32.5102 34.16 51.4202 33.44L51.1002 37.11C51.1002 37.11 38.0702 36.81 17.7202 39.68L18.5102 36.74Z" fill="url(#paint7_linear_1339_3910)"/>
<path d="M18.6602 34.28L20.2802 26.23L20.3402 26.22C20.5202 26.17 37.9802 21.72 58.7102 21.72C58.9702 21.72 59.2302 21.72 59.4902 21.72H59.5902V30.59H59.4902C59.2902 30.59 39.5502 31.13 18.8002 34.26L18.6602 34.28ZM20.4402 26.39L18.9002 34.05C38.8602 31.05 57.8502 30.44 59.3802 30.4V21.92C59.1502 21.92 58.9302 21.92 58.7002 21.92C38.6002 21.91 21.5902 26.1 20.4402 26.39Z" fill="url(#paint8_linear_1339_3910)"/>
<path d="M16.0303 50.92L16.0603 50.79L17.6403 42.52L17.7103 42.51C17.9103 42.48 37.7003 39.42 58.3703 39.42C58.7403 39.42 59.1103 39.42 59.4903 39.42H59.5903V48.9H59.4903C59.2003 48.9 37.6903 48.92 16.1703 50.9L16.0303 50.92ZM17.8003 42.69L16.2703 50.69C37.0403 48.79 57.7703 48.7 59.3803 48.7V39.62C38.9703 39.52 19.1303 42.49 17.8003 42.69Z" fill="url(#paint9_linear_1339_3910)"/>
<path d="M13.6602 66.21L13.6802 66.08L15.0502 58.16L15.1202 58.15C15.3502 58.12 37.4002 55.72 58.0702 55.72C58.5402 55.72 59.0102 55.72 59.4702 55.72H59.5702V65.04H59.4702C59.2402 65.03 36.4502 64.07 13.7802 66.19L13.6602 66.21ZM15.2202 58.34L13.9002 65.99C35.7602 63.95 57.6902 64.78 59.3802 64.84V55.92C58.9502 55.92 58.5102 55.92 58.0702 55.92C38.0102 55.93 16.6502 58.19 15.2202 58.34Z" fill="url(#paint10_linear_1339_3910)"/>
<path d="M11.5903 80.67L11.6103 80.54L12.9803 72.62L13.0503 72.61C13.3103 72.58 38.7903 69.4 59.4803 70.97L59.5703 70.98V79.46H59.4703C59.2203 79.45 34.3903 78.54 11.7203 80.66L11.5903 80.67ZM13.1603 72.8L11.8403 80.45C33.7403 78.41 57.6203 79.19 59.3903 79.25V71.16C39.2803 69.65 14.6803 72.61 13.1603 72.8Z" fill="url(#paint11_linear_1339_3910)"/>
<path d="M81.82 91.96C71.35 88.44 59.59 88.59 59.48 88.6V88.4C59.6 88.4 71.39 88.24 81.89 91.77L81.82 91.96Z" fill="url(#paint12_linear_1339_3910)"/>
<path opacity="0.3" d="M85.0302 94.44C51.5402 86.91 4.18018 94.44 4.18018 94.44L16.9302 10.68C16.9302 10.68 11.4702 66.43 20.3702 79.38C30.5002 94.12 64.3702 91.64 70.6802 76.95C78.4902 58.77 80.2202 6.15 80.0902 2.67L85.0302 94.44Z" fill="url(#paint13_linear_1339_3910)"/>
<path d="M41.5503 1.25L42.2203 3.28L57.5503 2.41L57.9503 0.579997C57.9503 0.579997 52.7003 0.219997 41.5503 1.25Z" fill="url(#paint14_linear_1339_3910)"/>
<path d="M30.4902 98.27C30.4902 98.27 76.8102 96.42 89.5902 98.27H30.4902Z" fill="#9A7DF8"/>
<defs>
<linearGradient id="paint0_linear_1339_3910" x1="44.8647" y1="106.551" x2="44.8647" y2="98.2697" gradientUnits="userSpaceOnUse">
<stop stop-color="#1C257B"/>
<stop offset="1" stop-color="#482C83"/>
</linearGradient>
<linearGradient id="paint1_linear_1339_3910" x1="44.8647" y1="98.2697" x2="44.8647" y2="10.6787" gradientUnits="userSpaceOnUse">
<stop stop-color="#744FD8"/>
<stop offset="1" stop-color="#3996F7"/>
</linearGradient>
<linearGradient id="paint2_linear_1339_3910" x1="48.6372" y1="7.2933" x2="48.6372" y2="0.489199" gradientUnits="userSpaceOnUse">
<stop stop-color="#1C257B"/>
<stop offset="1" stop-color="#482C83"/>
</linearGradient>
<linearGradient id="paint3_linear_1339_3910" x1="44.6006" y1="94.4384" x2="44.6006" y2="2.41009" gradientUnits="userSpaceOnUse">
<stop stop-color="#D1BBFF"/>
<stop offset="1" stop-color="white"/>
</linearGradient>
<linearGradient id="paint4_linear_1339_3910" x1="20.3578" y1="20.4849" x2="52.6435" y2="20.4849" gradientUnits="userSpaceOnUse">
<stop stop-color="#8B8BE0"/>
<stop offset="1" stop-color="#A177B7"/>
</linearGradient>
<linearGradient id="paint5_linear_1339_3910" x1="15.2055" y1="53.3125" x2="48.3658" y2="53.3125" gradientUnits="userSpaceOnUse">
<stop stop-color="#8B8BE0"/>
<stop offset="1" stop-color="#A177B7"/>
</linearGradient>
<linearGradient id="paint6_linear_1339_3910" x1="14.0332" y1="68.4007" x2="46.9386" y2="68.4007" gradientUnits="userSpaceOnUse">
<stop stop-color="#8B8BE0"/>
<stop offset="1" stop-color="#A177B7"/>
</linearGradient>
<linearGradient id="paint7_linear_1339_3910" x1="17.7156" y1="36.5585" x2="51.4153" y2="36.5585" gradientUnits="userSpaceOnUse">
<stop stop-color="#8B8BE0"/>
<stop offset="1" stop-color="#A177B7"/>
</linearGradient>
<linearGradient id="paint8_linear_1339_3910" x1="18.6561" y1="27.9971" x2="59.5795" y2="27.9971" gradientUnits="userSpaceOnUse">
<stop stop-color="#8B8BE0"/>
<stop offset="1" stop-color="#A177B7"/>
</linearGradient>
<linearGradient id="paint9_linear_1339_3910" x1="16.0288" y1="45.1695" x2="59.5796" y2="45.1695" gradientUnits="userSpaceOnUse">
<stop stop-color="#8B8BE0"/>
<stop offset="1" stop-color="#A177B7"/>
</linearGradient>
<linearGradient id="paint10_linear_1339_3910" x1="13.6582" y1="60.9708" x2="59.5795" y2="60.9708" gradientUnits="userSpaceOnUse">
<stop stop-color="#8B8BE0"/>
<stop offset="1" stop-color="#A177B7"/>
</linearGradient>
<linearGradient id="paint11_linear_1339_3910" x1="11.5945" y1="75.6058" x2="59.5796" y2="75.6058" gradientUnits="userSpaceOnUse">
<stop stop-color="#8B8BE0"/>
<stop offset="1" stop-color="#A177B7"/>
</linearGradient>
<linearGradient id="paint12_linear_1339_3910" x1="59.4785" y1="90.1744" x2="81.8881" y2="90.1744" gradientUnits="userSpaceOnUse">
<stop stop-color="#8B8BE0"/>
<stop offset="1" stop-color="#A177B7"/>
</linearGradient>
<linearGradient id="paint13_linear_1339_3910" x1="44.6006" y1="94.4384" x2="44.6006" y2="2.67" gradientUnits="userSpaceOnUse">
<stop stop-color="#8B8BE0"/>
<stop offset="1" stop-color="white"/>
</linearGradient>
<linearGradient id="paint14_linear_1339_3910" x1="41.5488" y1="1.9007" x2="57.9498" y2="1.9007" gradientUnits="userSpaceOnUse">
<stop stop-color="#B9ACF4"/>
<stop offset="1" stop-color="#E1D1F5"/>
</linearGradient>
</defs>
</svg>
