<svg width="124" height="109" viewBox="0 0 124 109" fill="none" xmlns="http://www.w3.org/2000/svg">
<path d="M12.85 47.17C11.81 24.57 43.61 -3.78999 70.99 0.910013C99.92 5.88001 125.28 68.69 97.87 89.84C70.46 111 13.91 70.09 12.85 47.17Z" fill="#E1F3FF"/>
<path d="M81.6299 92.95C81.6299 92.95 97.7899 71.83 123.89 83.99C123.89 83.99 111.57 106.44 84.3399 95.07L81.6299 92.95Z" fill="url(#paint0_linear_1339_4269)"/>
<path d="M123.9 83.99L81.6396 92.95L85.6796 94.7C85.6696 94.7 108.68 104.45 123.9 83.99Z" fill="#BDE0FF"/>
<path d="M37.41 93.85C37.41 93.85 9.52 86.9 0 52.69C0 52.69 25.1 46.23 43.72 84.9L37.41 93.85Z" fill="url(#paint1_linear_1339_4269)"/>
<path d="M2.14014 54.36L39.5601 89.6L32.5201 90.53C32.5201 90.53 8.00014 82.07 2.14014 54.36Z" fill="#BDE0FF"/>
<path d="M88.3901 84.88C88.3901 84.88 94.7401 63.28 113.83 65.55C113.82 65.55 111.51 87.56 88.3901 84.88Z" fill="url(#paint2_radial_1339_4269)"/>
<path d="M113.82 65.55L89.25 83.46C89.25 83.46 107.39 88.78 113.82 65.55Z" fill="#BDE0FF"/>
<path d="M87.92 1.33001C85.51 3.87001 101.17 26.28 106.93 27.07C112.69 27.86 112.2 13.91 108.38 7.52001C104.55 1.13001 91.04 -1.95999 87.92 1.33001Z" fill="#E1F3FF"/>
<path d="M62.2101 42.68C43.9101 42.68 29.0801 57.51 29.0801 75.81C29.0801 94.11 43.9101 108.94 62.2101 108.94C80.5101 108.94 95.3401 94.11 95.3401 75.81C95.3401 57.51 80.5001 42.68 62.2101 42.68ZM62.2101 96.85C50.5901 96.85 41.1601 87.43 41.1601 75.8C41.1601 64.18 50.5801 54.75 62.2101 54.75C73.8301 54.75 83.2601 64.17 83.2601 75.8C83.2601 87.43 73.8301 96.85 62.2101 96.85Z" fill="url(#paint3_linear_1339_4269)"/>
<path d="M29.85 56.7C29.85 56.7 23.77 71.4 30.92 86.67C30.92 86.67 42.65 108.4 62.21 108.93C81.78 109.46 93.51 86.67 93.51 86.67C93.51 86.67 100.37 69.65 93.8 54.76L84.08 54.93C84.08 54.93 89.46 99.06 62.22 96.85C34.97 94.64 37.43 63.95 37.43 63.95L29.85 56.7Z" fill="url(#paint4_linear_1339_4269)"/>
<path d="M62.2098 34C43.2098 34 27.7998 49.41 27.7998 68.41C27.7998 87.42 43.2098 102.83 62.2098 102.83C81.2198 102.83 96.6198 87.42 96.6198 68.41C96.6198 49.41 81.2198 34 62.2098 34ZM62.2098 91.45C49.5198 91.45 39.1898 81.12 39.1898 68.42C39.1898 55.73 49.5198 45.4 62.2098 45.4C74.9098 45.4 85.2298 55.73 85.2298 68.42C85.2298 81.11 74.9098 91.45 62.2098 91.45Z" fill="url(#paint5_radial_1339_4269)"/>
<path d="M95.6398 60.28C93.4098 51.08 87.4498 43.3 79.4598 38.66C74.3898 35.7 68.4798 34 62.2098 34C43.2298 34 27.7998 49.45 27.7998 68.41C27.7998 72.14 28.3898 75.74 29.5098 79.1C32.4598 88.13 39.0498 95.53 47.5498 99.53C51.9998 101.66 56.9698 102.83 62.2198 102.83C81.1998 102.83 96.6298 87.39 96.6298 68.41C96.6198 65.61 96.2798 62.88 95.6398 60.28ZM62.2098 91.45C60.7598 91.45 59.3298 91.31 57.9498 91.05C48.1698 89.2 40.5298 81.14 39.3598 71.13C39.2598 70.24 39.1998 69.33 39.1998 68.41C39.1998 55.72 49.5298 45.39 62.2198 45.39C64.8098 45.39 67.3098 45.82 69.6498 46.62C78.7098 49.71 85.2498 58.31 85.2498 68.41C85.2498 68.54 85.2498 68.65 85.2398 68.78C85.0298 81.31 74.7798 91.45 62.2098 91.45Z" fill="url(#paint6_radial_1339_4269)"/>
<path d="M62.2099 45.39C49.5199 45.39 39.1899 55.72 39.1899 68.41C39.1899 81.11 49.5199 91.44 62.2099 91.44C74.9099 91.44 85.2299 81.11 85.2299 68.41C85.2299 55.72 74.9099 45.39 62.2099 45.39ZM62.2099 90.28C50.1399 90.28 40.3499 80.48 40.3499 68.41C40.3499 56.34 50.1299 46.55 62.2099 46.55C74.2899 46.55 84.0699 56.33 84.0699 68.41C84.0699 80.49 74.2799 90.28 62.2099 90.28Z" fill="url(#paint7_linear_1339_4269)"/>
<path opacity="0.5" d="M57.94 91.05L47.54 99.53C39.05 95.53 32.46 88.13 29.5 79.1L39.34 71.13C40.52 81.14 48.16 89.2 57.94 91.05Z" fill="white"/>
<path opacity="0.5" d="M85.2199 68.78C85.2299 68.65 85.2299 68.54 85.2299 68.41C85.2299 58.31 78.6999 49.71 69.6299 46.62L79.4599 38.66C87.4399 43.3 93.4099 51.07 95.6399 60.28L85.2199 68.78Z" fill="white"/>
<path d="M50.98 100.95C50.98 100.95 67.19 105.75 85.23 94C85.23 94 73.34 107.45 50.98 100.95Z" fill="url(#paint8_radial_1339_4269)"/>
<path opacity="0.5" d="M47.54 99.53L49.36 106.34C49.36 106.34 35.87 102.04 29.97 84.46L29.5 79.1C29.51 79.1 33.36 92.72 47.54 99.53Z" fill="white"/>
<path d="M108.31 53.91L115.5 42.87L119.33 45.49L111.69 55.84L108.31 53.91Z" fill="#FF1D9C"/>
<path d="M25.1699 34.28L36.3899 25.53L39.1299 29.31L28.8399 37.45L25.1699 34.28Z" fill="#FF1D9C"/>
<path d="M18.8 89.82L10.6 93.96L8.54004 89.82L16.9 84.94L18.8 89.82Z" fill="#4F31E0"/>
<path d="M73.54 25.9L79.42 32.35L81.73 29.69L76.18 23.57L73.54 25.9Z" fill="#6877FF"/>
<path d="M37.6802 63.17L45.1602 50.25L61.3802 63.16C61.3802 63.16 79.7702 44.41 94.3602 39.68L98.4302 56.31C98.4302 56.31 80.0402 60.78 62.8002 81.88L37.6802 63.17Z" fill="url(#paint9_linear_1339_4269)"/>
<path d="M37.6802 69.14L45.1602 56.22L61.3802 69.13C61.3802 69.13 79.7702 50.38 94.3602 45.65L98.4302 62.28C98.4302 62.28 80.0402 66.75 62.8002 87.85L37.6802 69.14Z" fill="url(#paint10_linear_1339_4269)"/>
<path d="M94.3501 39.68V45.64L98.4201 62.27V54.76L94.3501 39.68Z" fill="#BF006F"/>
<path d="M45.1602 50.25V56.21L37.6802 69.14V63.17L45.1602 50.25Z" fill="#BF006F"/>
<path d="M94.3504 39.68V45.64C90.0504 47.17 85.5704 49.68 81.3604 52.5C70.5004 59.77 61.3804 69.12 61.3804 69.12V63.17C66.7704 57.76 71.7104 53.54 76.0304 50.26C80.1904 47.12 83.7704 44.85 86.6404 43.24C91.5404 40.5 94.3504 39.68 94.3504 39.68Z" fill="white"/>
<path d="M88.3801 48.2L81.3601 52.5L79.0601 48.07C83.7701 44.85 83.7701 44.85 86.6401 43.24L88.3801 48.2Z" fill="white"/>
<defs>
<linearGradient id="paint0_linear_1339_4269" x1="90.7717" y1="80.0635" x2="114.734" y2="97.0545" gradientUnits="userSpaceOnUse">
<stop stop-color="#1C257B"/>
<stop offset="1" stop-color="#6A2C9A"/>
</linearGradient>
<linearGradient id="paint1_linear_1339_4269" x1="28.552" y1="96.0216" x2="16.8857" y2="48.5398" gradientUnits="userSpaceOnUse">
<stop stop-color="#1C257B"/>
<stop offset="1" stop-color="#6A2C9A"/>
</linearGradient>
<radialGradient id="paint2_radial_1339_4269" cx="0" cy="0" r="1" gradientUnits="userSpaceOnUse" gradientTransform="translate(103.056 68.9181) rotate(156.935) scale(12.0713 12.0712)">
<stop stop-color="#3996F7"/>
<stop offset="1" stop-color="#6840D5"/>
</radialGradient>
<linearGradient id="paint3_linear_1339_4269" x1="29.083" y1="75.802" x2="95.336" y2="75.802" gradientUnits="userSpaceOnUse">
<stop stop-color="#1C257B"/>
<stop offset="1" stop-color="#6A2C9A"/>
</linearGradient>
<linearGradient id="paint4_linear_1339_4269" x1="27.4363" y1="81.8469" x2="96.6458" y2="81.8469" gradientUnits="userSpaceOnUse">
<stop stop-color="#1C257B"/>
<stop offset="1" stop-color="#6A2C9A"/>
</linearGradient>
<radialGradient id="paint5_radial_1339_4269" cx="0" cy="0" r="1" gradientUnits="userSpaceOnUse" gradientTransform="translate(76.7342 37.623) scale(34.413 34.413)">
<stop stop-color="#39AEF7"/>
<stop offset="1" stop-color="#6840D5"/>
</radialGradient>
<radialGradient id="paint6_radial_1339_4269" cx="0" cy="0" r="1" gradientUnits="userSpaceOnUse" gradientTransform="translate(64.7341 40.0637) scale(49.1087)">
<stop stop-color="#3996F7"/>
<stop offset="1" stop-color="#6840D5"/>
</radialGradient>
<linearGradient id="paint7_linear_1339_4269" x1="62.2079" y1="91.446" x2="62.2079" y2="45.3916" gradientUnits="userSpaceOnUse">
<stop stop-color="#60B3F7"/>
<stop offset="1" stop-color="#364AC2"/>
</linearGradient>
<radialGradient id="paint8_radial_1339_4269" cx="0" cy="0" r="1" gradientUnits="userSpaceOnUse" gradientTransform="translate(69.3604 94.7642) scale(12.3832 12.3832)">
<stop stop-color="#3996F7"/>
<stop offset="1" stop-color="#6840D5"/>
</radialGradient>
<linearGradient id="paint9_linear_1339_4269" x1="68.0499" y1="81.8867" x2="68.0499" y2="39.6791" gradientUnits="userSpaceOnUse">
<stop stop-color="#B31A8F"/>
<stop offset="1" stop-color="#FE117E"/>
</linearGradient>
<linearGradient id="paint10_linear_1339_4269" x1="68.0499" y1="87.8468" x2="68.0499" y2="45.6391" gradientUnits="userSpaceOnUse">
<stop stop-color="#63004A"/>
<stop offset="1" stop-color="#BA0065"/>
</linearGradient>
</defs>
</svg>
