<svg width="114" height="136" viewBox="0 0 114 136" fill="none" xmlns="http://www.w3.org/2000/svg">
<g clip-path="url(#clip0_1339_3470)">
<path d="M31.27 97.06C13.13 84.69 9.67003 43.48 29.28 24.99C50 5.45 113.51 22.39 113.94 55.99C114.36 89.59 49.66 109.61 31.27 97.06Z" fill="#E1F3FF"/>
<path d="M72.71 121.69C72.71 121.69 78.26 96.49 106.21 96.48C106.21 96.48 104.58 121.27 75.97 122.44L72.71 121.69Z" fill="url(#paint0_radial_1339_3470)"/>
<path d="M106.2 96.49L72.7002 121.7L76.9702 121.58C76.9702 121.57 101.21 120.72 106.2 96.49Z" fill="#BDE0FF"/>
<path d="M45.91 129.1C45.91 129.1 18.03 130.08 0 100.73C0 100.73 24.91 90.16 52.63 121.24L45.91 129.1Z" fill="url(#paint1_linear_1339_3470)"/>
<path d="M2.4502 101.71L46.7802 124.56L40.4702 127.31C40.4602 127.31 15.3302 125.98 2.4502 101.71Z" fill="#BDE0FF"/>
<path d="M44.8499 105.94C44.8499 105.94 44.7299 84.09 26.3199 81.08C26.3199 81.09 22.5699 102.24 44.8499 105.94Z" fill="url(#paint2_radial_1339_3470)"/>
<path d="M26.3197 81.09L44.4297 104.39C44.4297 104.39 26.0797 104.49 26.3197 81.09Z" fill="#BDE0FF"/>
<path d="M67.3901 16.15L81.7401 16.76L81.3701 21.46L68.1401 20.98L67.3901 16.15Z" fill="#FF1D9C"/>
<path d="M29.7598 43.96L35.6998 50.48L38.0298 47.79L32.4298 41.62L29.7598 43.96Z" fill="#6877FF"/>
<path d="M104.77 78.78C104.77 78.69 104.77 78.6 104.76 78.51L108.38 78.23C108.42 75.8 107.69 73.56 106.3 71.83L103.42 73.6C102.02 71.08 99.6102 69.18 96.7502 68.47L97.4902 65.43C95.2002 64.65 92.8402 64.65 90.7702 65.43L91.5102 68.47C88.6402 69.19 86.2502 71.08 84.8402 73.6L81.9602 71.83C80.5102 73.77 79.7802 76.02 79.8802 78.23L83.5102 78.51C83.5002 78.6 83.5002 78.69 83.5002 78.78C83.5002 81.56 84.5602 84.09 86.3102 85.98L83.2402 88.59C84.6402 90.57 86.5402 91.96 88.6802 92.54L90.2702 88.68C91.4602 89.15 92.7702 89.4 94.1302 89.4C95.5002 89.4 96.8002 89.15 97.9902 88.68L99.5802 92.54C101.89 91.82 103.8 90.44 105.02 88.59L101.95 85.98C103.71 84.08 104.77 81.56 104.77 78.78ZM95.5902 82.86C95.1302 83.03 94.6402 83.12 94.1302 83.12C93.6202 83.12 93.1302 83.03 92.6802 82.86C92.0902 82.66 91.5602 82.33 91.1202 81.89C90.3502 81.15 89.8602 80.13 89.8102 78.99C89.8002 78.92 89.8002 78.84 89.8002 78.77C89.8002 78.1 89.9502 77.47 90.2302 76.91C90.7602 75.78 91.7702 74.91 93.0002 74.58C93.3602 74.47 93.7402 74.42 94.1402 74.42C94.5302 74.42 94.9202 74.47 95.2802 74.58C96.5102 74.91 97.5202 75.77 98.0502 76.91C98.3302 77.48 98.4802 78.1 98.4802 78.77C98.4802 78.84 98.4802 78.92 98.4702 78.99C98.4202 80.13 97.9302 81.15 97.1602 81.89C96.7202 82.32 96.1802 82.66 95.5902 82.86Z" fill="url(#paint3_linear_1339_3470)"/>
<path d="M104.77 75.86C104.77 75.77 104.77 75.68 104.76 75.59L108.38 75.31C108.42 72.88 107.69 70.64 106.3 68.91L103.42 70.68C102.02 68.16 99.6102 66.26 96.7502 65.55L97.4902 62.51C95.2002 61.73 92.8402 61.73 90.7702 62.51L91.5102 65.55C88.6402 66.27 86.2502 68.16 84.8402 70.68L81.9602 68.91C80.5102 70.85 79.7802 73.1 79.8802 75.31L83.5102 75.59C83.5002 75.68 83.5002 75.77 83.5002 75.86C83.5002 78.64 84.5602 81.17 86.3102 83.06L83.2402 85.67C84.6402 87.65 86.5402 89.04 88.6802 89.62L90.2702 85.76C91.4602 86.23 92.7702 86.48 94.1302 86.48C95.5002 86.48 96.8002 86.23 97.9902 85.76L99.5802 89.62C101.89 88.9 103.8 87.52 105.02 85.67L101.95 83.06C103.71 81.17 104.77 78.64 104.77 75.86ZM95.5902 79.94C95.1302 80.11 94.6402 80.2 94.1302 80.2C93.6202 80.2 93.1302 80.11 92.6702 79.94C92.0802 79.74 91.5502 79.41 91.1102 78.97C90.3402 78.23 89.8502 77.21 89.8002 76.07C89.7902 76 89.7902 75.92 89.7902 75.85C89.7902 75.18 89.9402 74.55 90.2202 73.99C90.7502 72.86 91.7602 71.99 92.9902 71.66C93.3502 71.55 93.7302 71.5 94.1302 71.5C94.5202 71.5 94.9102 71.55 95.2702 71.66C96.5002 71.99 97.5102 72.85 98.0402 73.99C98.3202 74.56 98.4702 75.18 98.4702 75.85C98.4702 75.92 98.4702 76 98.4602 76.07C98.4102 77.21 97.9202 78.23 97.1502 78.97C96.7102 79.41 96.1802 79.74 95.5902 79.94Z" fill="url(#paint4_linear_1339_3470)"/>
<path d="M88.3602 88.94C86.6802 88.37 85.1902 87.29 84.0102 85.77L87.1302 83.12L86.7302 82.69C85.0102 80.84 84.0602 78.41 84.0602 75.87C84.0602 75.8 84.0602 75.72 84.0702 75.65L84.1102 75.09L80.4302 74.81C80.4602 73.06 81.0402 71.27 82.1102 69.69L85.0502 71.49L85.3402 70.98C86.6902 68.56 88.9902 66.79 91.6502 66.12L92.1902 65.98L91.4402 62.9C92.2702 62.64 93.1502 62.51 94.0502 62.51C94.9702 62.51 95.9002 62.64 96.8202 62.91L96.0802 65.98L96.6202 66.12C99.2902 66.79 101.59 68.56 102.94 70.98L103.23 71.49L106.17 69.68C107.18 71.12 107.76 72.9 107.82 74.81L104.16 75.09L104.2 75.65C104.21 75.72 104.21 75.8 104.21 75.87C104.21 78.41 103.26 80.83 101.54 82.69L101.14 83.12L104.27 85.78C103.21 87.2 101.72 88.28 99.9102 88.93L98.3102 85.05L97.7902 85.25C96.6302 85.7 95.4002 85.94 94.1302 85.94C92.8602 85.94 91.6402 85.71 90.4802 85.25L89.9602 85.05L88.3602 88.94ZM94.1302 70.95C93.6702 70.95 93.2302 71.01 92.8202 71.13C91.4502 71.5 90.3102 72.46 89.7002 73.76C89.3902 74.4 89.2202 75.11 89.2202 75.86C89.2202 75.96 89.2202 76.07 89.2402 76.17C89.2902 77.35 89.8102 78.51 90.7102 79.38C91.2102 79.87 91.8302 80.25 92.4802 80.47C92.9802 80.66 93.5302 80.76 94.1102 80.76C94.6802 80.76 95.2402 80.66 95.7602 80.46C96.4002 80.25 97.0102 79.87 97.5202 79.37C98.4102 78.51 98.9402 77.35 99.0002 76.1C99.0102 76.08 99.0102 75.96 99.0102 75.86C99.0102 75.11 98.8502 74.4 98.5302 73.75C97.9302 72.46 96.7902 71.5 95.4002 71.13C95.0302 71.01 94.5902 70.95 94.1302 70.95Z" fill="url(#paint5_linear_1339_3470)"/>
<path d="M105.02 85.67V88.59C105.02 88.59 103.09 91.72 99.5801 92.54V89.62C99.5801 89.62 103.11 88.28 105.02 85.67Z" fill="url(#paint6_linear_1339_3470)"/>
<path d="M88.69 89.62V92.54C88.69 92.54 85.06 91.52 83.25 88.59V85.67C83.25 85.67 85.64 88.85 88.69 89.62Z" fill="url(#paint7_linear_1339_3470)"/>
<path d="M108.38 75.32L108.39 78.23L104.77 78.51L104.76 75.6L108.38 75.32Z" fill="url(#paint8_linear_1339_3470)"/>
<path d="M97.2103 65.68L97.5003 65.44L97.4902 62.52L96.7603 65.56L97.2103 65.68Z" fill="url(#paint9_linear_1339_3470)"/>
<path d="M90.77 62.52V65.44L91.06 65.68L91.51 65.56L90.77 62.52Z" fill="url(#paint10_linear_1339_3470)"/>
<path d="M79.8804 75.32V78.23L83.5104 78.51V75.6L79.8804 75.32Z" fill="url(#paint11_linear_1339_3470)"/>
<path d="M88.6899 92.54V89.62L90.2799 85.77V88.68L88.6899 92.54Z" fill="url(#paint12_linear_1339_3470)"/>
<path d="M98.0002 88.68L97.9902 85.77L99.5802 89.62V92.24L98.0002 88.68Z" fill="url(#paint13_linear_1339_3470)"/>
<path d="M110.39 47.44L104.41 51.07L102.02 46.52L108.55 42.71L110.39 47.44Z" fill="#4F31E0"/>
<path d="M56.2499 0.589997C49.5799 -1.98 44.0799 4.43 44.6699 8.6C45.2599 12.77 58.5599 11.03 60.2299 8.97C61.9099 6.9 58.0799 1.3 56.2499 0.589997Z" fill="#E1F3FF"/>
<path d="M85.3097 114.89C86.2897 112.01 86.9998 105.14 85.3198 100.88L81.2198 106.57C80.8198 103.65 79.7998 100.93 78.2998 98.55L81.4198 96.41C80.3097 94.1 77.4898 91.16 74.9998 89.98L72.9998 92.9C70.6598 91.19 67.9298 89.98 64.9798 89.41L65.5997 86.1C63.1797 85.26 59.1197 85.17 56.5097 86.1L57.1298 89.41C54.1798 89.99 51.4498 91.2 49.1098 92.92L47.1098 89.99C44.8098 91.11 41.8697 93.93 40.6897 96.42L43.8198 98.56C42.3098 100.95 41.2898 103.66 40.8898 106.58L36.7997 105.81C35.9697 108.23 35.8797 112.29 36.7997 114.9L41.2398 114.07C41.8798 116.82 43.0798 119.36 44.7198 121.55L40.6897 124.3C41.8097 126.6 44.6198 129.54 47.1098 130.72L50.0097 126.49C52.2397 127.94 54.7697 128.95 57.4797 129.43L56.5097 134.61C58.9297 135.44 62.9997 135.53 65.5997 134.61L64.6297 129.44C67.3497 128.96 69.8798 127.94 72.1098 126.5L74.9897 130.72C77.2998 129.6 80.2398 126.79 81.4098 124.3L77.3898 121.55C79.0198 119.36 80.2298 116.82 80.8598 114.07L85.3097 114.89ZM68.2198 115.24C67.5398 116.05 66.7398 116.75 65.8298 117.3C64.8498 117.89 63.7598 118.3 62.5798 118.49C62.0798 118.58 61.5798 118.62 61.0598 118.62C60.5398 118.62 60.0297 118.58 59.5297 118.49C58.3497 118.3 57.2698 117.89 56.2898 117.31C55.3798 116.76 54.5697 116.06 53.8897 115.24C53.1197 114.3 52.5398 113.2 52.1798 112C51.9398 111.17 51.7997 110.29 51.7997 109.38C51.7997 109.12 51.8098 108.86 51.8298 108.61C51.9398 107.23 52.3498 105.95 52.9797 104.82C53.5898 103.75 54.4098 102.81 55.3798 102.06C56.4698 101.22 57.7597 100.61 59.1697 100.32C59.7697 100.2 60.3998 100.13 61.0398 100.13C61.6798 100.13 62.2997 100.2 62.9097 100.32C64.3097 100.61 65.6098 101.22 66.6898 102.06C67.6598 102.81 68.4797 103.76 69.0897 104.82C69.7197 105.95 70.1297 107.24 70.2397 108.61C70.2598 108.85 70.2697 109.12 70.2697 109.38C70.2697 110.29 70.1398 111.17 69.8898 112C69.5698 113.2 68.9898 114.3 68.2198 115.24Z" fill="#7C006F"/>
<path d="M85.3301 109.96C86.0201 107.99 86.2001 104.91 85.7401 102.44C85.6401 101.88 85.5001 101.36 85.3301 100.88L81.2401 101.65C80.8301 98.73 79.8201 96.01 78.3201 93.62L81.4301 91.49C81.0501 90.68 80.4501 89.8 79.7301 88.94C78.4001 87.34 76.6401 85.82 75.0201 85.05L73.0201 87.97C70.6701 86.26 67.9501 85.05 65.0001 84.47L65.6201 81.17C63.2001 80.32 59.1401 80.23 56.5301 81.17L57.1501 84.47C54.2101 85.05 51.4801 86.25 49.1301 87.98L47.1301 85.05C44.8301 86.17 41.9001 88.99 40.7001 91.49L43.8401 93.62C42.3301 96.01 41.3001 98.73 40.9101 101.65L36.8201 100.88C36.4701 101.88 36.2601 103.16 36.1901 104.5C36.0901 106.41 36.2801 108.44 36.8201 109.96L41.2601 109.14C41.9001 111.89 43.1001 114.43 44.7301 116.62L40.7001 119.37C41.2101 120.38 42.0401 121.55 43.0501 122.61C44.2801 123.94 45.7601 125.14 47.1301 125.79L50.0301 121.56C52.2501 123.01 54.7901 124.03 57.5001 124.5L56.5301 129.68C58.9501 130.51 63.0301 130.6 65.6201 129.68L64.6501 124.52C66.4201 124.22 68.1001 123.67 69.6801 122.93C70.5301 122.54 71.3501 122.08 72.1301 121.58L75.0201 125.8C77.3301 124.68 80.2601 121.88 81.4401 119.38L77.4301 116.63C79.0701 114.44 80.2701 111.91 80.9001 109.15L85.3301 109.96ZM68.2301 110.32C67.5501 111.13 66.7501 111.83 65.8401 112.38C64.8701 112.97 63.7601 113.37 62.5901 113.56C62.0901 113.65 61.6001 113.7 61.0701 113.7C60.5501 113.7 60.0401 113.65 59.5501 113.56C58.4701 113.38 57.4601 113.03 56.5501 112.52C56.4601 112.47 56.3801 112.43 56.3001 112.38C55.4001 111.83 54.5901 111.13 53.9101 110.31C53.1401 109.36 52.5601 108.27 52.2001 107.07C52.1801 107 52.1701 106.92 52.1401 106.86C51.9401 106.09 51.8201 105.28 51.8201 104.45C51.8201 104.2 51.8301 103.93 51.8501 103.69C51.9601 102.31 52.3701 101.02 53.0001 99.89C53.4101 99.18 53.9101 98.53 54.5001 97.94C54.7801 97.65 55.0901 97.38 55.4001 97.13C56.4801 96.28 57.7801 95.68 59.1901 95.39C59.7901 95.27 60.4201 95.2 61.0601 95.2C61.3901 95.2 61.7001 95.21 62.0201 95.25H62.0301C62.3301 95.28 62.6401 95.34 62.9401 95.4C64.3401 95.68 65.6401 96.29 66.7201 97.14C67.6901 97.9 68.5001 98.84 69.1201 99.9C69.7501 101.03 70.1601 102.32 70.2701 103.7C70.2901 103.94 70.3001 104.21 70.3001 104.46C70.3001 105.37 70.1601 106.25 69.9201 107.09C69.8301 107.41 69.7201 107.71 69.5901 108.01C69.2601 108.84 68.7901 109.62 68.2301 110.32Z" fill="url(#paint14_linear_1339_3470)"/>
<path d="M56.5501 112.53L44.7301 116.61C43.0901 114.42 41.9001 111.89 41.2601 109.13L36.8201 109.95C36.2801 108.43 36.0901 106.4 36.1901 104.49L54.5201 97.94C53.9301 98.53 53.4301 99.18 53.0201 99.89C52.3901 101.02 51.9801 102.31 51.8701 103.69C51.8501 103.93 51.8401 104.2 51.8401 104.45C51.8401 105.28 51.9501 106.1 52.1601 106.86C52.1801 106.93 52.1901 107.01 52.2201 107.07C52.5801 108.27 53.1701 109.36 53.9301 110.31C54.6101 111.13 55.4201 111.83 56.3201 112.38C56.3801 112.44 56.4601 112.49 56.5501 112.53Z" fill="white"/>
<path d="M69.93 107.08C70.18 106.25 70.31 105.37 70.31 104.45C70.31 104.2 70.3 103.93 70.28 103.69C70.17 102.31 69.76 101.02 69.13 99.89C68.51 98.83 67.7 97.88 66.73 97.13C65.65 96.28 64.35 95.68 62.95 95.39C62.65 95.33 62.34 95.28 62.04 95.24L79.72 88.92C80.44 89.78 81.04 90.66 81.42 91.47L78.31 93.6C79.81 95.99 80.82 98.71 81.23 101.63L85.32 100.86C85.49 101.33 85.62 101.85 85.73 102.42L69.6 107.99C69.73 107.7 69.84 107.4 69.93 107.08Z" fill="white"/>
<path d="M61.1298 129.2C59.9498 129.2 58.7898 129.08 57.8198 128.86L58.8098 123.58L57.6898 123.38C55.1498 122.94 52.7798 122 50.6498 120.6L49.7198 120L46.7798 124.3C45.8198 123.7 44.7998 122.84 43.8798 121.84C43.2298 121.16 42.6498 120.41 42.1998 119.71L46.3398 116.88L45.6398 115.94C44.0698 113.84 42.9598 111.46 42.3598 108.88L42.1098 107.83L37.6098 108.66C37.1698 106.73 37.1698 104.14 37.6098 102.18L41.8598 102.98L42.0198 101.8C42.3798 99.1 43.3198 96.55 44.7898 94.22L45.3698 93.3L42.1798 91.13C43.2398 89.45 45.0798 87.61 46.7698 86.53L48.8398 89.58L49.7798 88.89C52.0298 87.24 54.5698 86.12 57.3498 85.58L58.4498 85.37L57.8098 81.97C58.7398 81.75 59.8398 81.63 60.9998 81.63C62.1798 81.63 63.3298 81.75 64.2998 81.97L63.6598 85.36L64.7598 85.57C67.5298 86.11 70.0698 87.22 72.3298 88.87L73.2698 89.56L75.3398 86.52C77.0198 87.58 78.8598 89.42 79.9198 91.12L76.7598 93.29L77.3398 94.21C78.7898 96.53 79.7198 99.08 80.0998 101.8L80.2598 102.97L84.5098 102.17C84.9598 104.1 84.9498 106.7 84.5098 108.66L80.0098 107.83L79.7698 108.88C79.1798 111.44 78.0798 113.81 76.4898 115.93L75.7898 116.87L79.9298 119.71C78.8798 121.39 77.0498 123.22 75.3398 124.29L72.4098 120.01L71.4898 120.61C70.7798 121.07 69.9998 121.5 69.1798 121.89C67.6598 122.61 66.0698 123.11 64.4398 123.39L63.3098 123.58L64.2998 128.87C63.3898 129.09 62.2898 129.2 61.1298 129.2ZM61.0698 94.08C60.3598 94.08 59.6598 94.15 58.9698 94.3C57.4298 94.61 55.9598 95.28 54.7198 96.25C53.6398 97.09 52.7098 98.16 52.0298 99.34C51.2998 100.64 50.8598 102.11 50.7298 103.61C50.7098 103.86 50.6898 104.17 50.6898 104.46C50.6898 105.37 50.8098 106.28 51.0398 107.16C51.0798 107.3 51.0898 107.37 51.1198 107.44C51.5098 108.73 52.1598 109.95 53.0298 111.03C53.7898 111.95 54.6898 112.73 55.7098 113.36C56.8598 114.03 58.0798 114.48 59.3698 114.68C59.9098 114.78 60.4898 114.83 61.0698 114.83C61.6598 114.83 62.2198 114.78 62.7898 114.68C64.0898 114.47 65.3198 114.02 66.4198 113.35C67.4298 112.74 68.3198 111.97 69.0898 111.04C69.9798 109.94 70.6198 108.72 71.0098 107.4C71.2898 106.45 71.4398 105.45 71.4398 104.46C71.4398 104.18 71.4298 103.87 71.3998 103.6C71.2798 102.12 70.8298 100.64 70.1098 99.36C69.3898 98.13 68.4898 97.09 67.4198 96.26C66.1798 95.29 64.7098 94.62 63.1698 94.31C62.4798 94.15 61.7698 94.08 61.0698 94.08Z" fill="url(#paint15_linear_1339_3470)"/>
<path d="M81.4301 91.48L81.4201 96.41L80.2901 97.19L78.3101 93.62L81.4301 91.48Z" fill="#7C006F"/>
<path d="M81.42 124.29L81.43 119.36C81.43 119.36 78.51 124.01 75.01 125.78L75 130.71C75 130.71 79.97 128.28 81.42 124.29Z" fill="#981382"/>
<path d="M40.6997 124.29L40.7097 119.36C40.7097 119.36 42.6197 123.33 47.1297 125.78L47.1197 130.71C47.1197 130.71 43.7097 129.5 40.6997 124.29Z" fill="#7C006F"/>
<path d="M36.8099 114.89L36.8199 109.96C36.8199 109.96 35.4999 105.41 36.8199 100.87C36.8099 100.88 33.8299 107.63 36.8099 114.89Z" fill="#7C006F"/>
<path d="M40.6997 96.41L40.7097 91.48L43.8397 93.62L41.8297 97.19L40.6997 96.41Z" fill="#7C006F"/>
<path d="M56.52 83.8L56.53 81.17L57.15 84.47H56.65L56.52 83.8Z" fill="url(#paint16_linear_1339_3470)"/>
<path d="M65.6097 81.17V83.8L65.4597 84.57L64.9897 84.47L65.6097 81.17Z" fill="url(#paint17_linear_1339_3470)"/>
<path opacity="0.62" d="M74.9999 130.71L75.0099 125.78L72.1199 121.57L72.1099 126.49L74.9999 130.71Z" fill="url(#paint18_linear_1339_3470)"/>
<path opacity="0.62" d="M80.8799 114.06L80.8899 109.13L85.3199 109.96L85.3099 114.89L80.8799 114.06Z" fill="url(#paint19_linear_1339_3470)"/>
<path opacity="0.62" d="M50.0201 126.48L50.0301 121.56L47.1301 125.78L47.1201 130.71L50.0201 126.48Z" fill="url(#paint20_linear_1339_3470)"/>
<path opacity="0.62" d="M41.2401 114.06L41.2501 109.13L36.8101 109.96V114.89L41.2401 114.06Z" fill="url(#paint21_linear_1339_3470)"/>
<path opacity="0.86" d="M64.64 124.51L65.61 129.67C62.4 131.14 57.71 129.99 56.52 129.67L57.49 124.49C54.78 124.02 52.25 123 50.02 121.55L47.12 125.78C45.74 125.13 44.27 123.93 43.04 122.6L52.13 106.87C52.15 106.94 52.16 107.02 52.19 107.08C52.55 108.28 53.14 109.37 53.9 110.32C54.58 111.14 55.39 111.84 56.29 112.39C57.27 112.97 58.35 113.37 59.54 113.56C60.04 113.65 60.54 113.7 61.06 113.7C61.59 113.7 62.09 113.65 62.58 113.56C63.75 113.37 64.86 112.96 65.83 112.38C66.74 111.83 67.54 111.13 68.22 110.32L69.66 122.92C68.09 123.66 66.41 124.2 64.64 124.51Z" fill="#C99AC7"/>
<path d="M65.6098 129.68L65.5998 134.61C65.5998 134.61 62.3198 136.19 56.5098 134.61L56.5198 129.68C56.5298 129.68 59.9698 130.71 65.6098 129.68Z" fill="#7C006F"/>
<path d="M82.4599 53.3C82.7799 44.26 77.6999 37.25 77.6999 37.25L74.6299 36.86L73.8699 49.91C70.8099 53.19 66.9699 53.62 66.9699 53.62V53.6C66.9699 53.6 63.3499 52.23 61.1999 48.3L63.6899 35.47L60.6199 35.08C60.6199 35.08 53.9599 40.61 52.0399 49.45C52.0399 49.45 51.5799 52.42 51.6299 52.74C51.8799 54.43 53.5299 57.24 58.4499 59.93L55.1499 101.41C52.3199 102.89 50.2399 105.68 49.8099 109.08C49.1099 114.62 53.0299 119.67 58.5699 120.36C64.1099 121.06 69.1599 117.14 69.8499 111.6C70.2799 108.2 68.9499 104.98 66.5799 102.84L73.6499 61.86C78.9699 60.5 81.3199 58.27 82.0399 56.58C82.1999 56.23 82.4599 53.3 82.4599 53.3ZM62.0199 115.55L56.4199 114.85L54.2299 109.65L57.6399 105.15L63.2399 105.85L65.4299 111.05L62.0199 115.55Z" fill="url(#paint22_linear_1339_3470)"/>
<path d="M82.04 56.59C82.36 47.55 77.28 40.54 77.28 40.54L74.21 40.15L73.45 53.2C70.39 56.48 66.55 56.91 66.55 56.91V56.89C66.55 56.89 62.93 55.52 60.78 51.59L63.27 38.76L60.2 38.37C60.2 38.37 53.54 43.9 51.62 52.74C51.62 52.74 52.2 60.02 58.03 63.21L54.73 104.69C51.9 106.17 49.82 108.96 49.39 112.36C48.69 117.9 52.61 122.95 58.15 123.64C63.69 124.34 68.74 120.42 69.43 114.88C69.86 111.48 68.53 108.26 66.16 106.12L73.23 65.14C79.68 63.5 82.04 56.59 82.04 56.59ZM61.61 118.83L56.01 118.13L53.82 112.93L57.23 108.43L62.83 109.13L65.02 114.33L61.61 118.83Z" fill="url(#paint23_linear_1339_3470)"/>
<path d="M60.6191 35.0875L60.2061 38.3716L63.272 38.7573L63.685 35.4731L60.6191 35.0875Z" fill="#E5E2FF"/>
<path d="M74.6357 36.869L74.2227 40.1532L77.2886 40.5388L77.7016 37.2547L74.6357 36.869Z" fill="#E5E2FF"/>
<path d="M56.4194 114.845L56.0063 118.13L61.6123 118.835L62.0254 115.55L56.4194 114.845Z" fill="#E5E2FF"/>
<path d="M60.07 67.74L57.29 101.43C60.66 103.77 64.19 102.3 64.19 102.3L70.15 69C65.43 65.79 60.07 67.74 60.07 67.74ZM63.04 101.86C62.44 101.95 61.58 102.02 60.63 101.9C59.87 101.8 59.15 101.6 58.47 101.3L60.9 68.12C61.91 67.96 63.55 67.8 65.39 68.04C66.77 68.21 68.06 68.58 69.27 69.14L63.04 101.86Z" fill="url(#paint24_linear_1339_3470)"/>
<path d="M63.04 101.86L64.19 102.29C64.19 102.29 60.98 104.03 57.29 101.42L58.46 101.29C58.46 101.29 60.48 102.26 63.04 101.86Z" fill="#E5E2FF"/>
<path opacity="0.62" d="M60.0698 67.74L60.8898 68.12C60.8898 68.12 64.6198 67.2 69.2598 69.13L70.1498 69C70.1498 69 68.6498 67.64 65.2598 67.22C61.8698 66.8 60.0698 67.74 60.0698 67.74Z" fill="url(#paint25_linear_1339_3470)"/>
<path opacity="0.62" d="M58.0302 63.22C58.0302 63.22 65.0902 66.09 73.2402 65.15L72.3402 70.39C72.3402 70.39 71.6102 67.24 66.2402 66.29C59.9602 65.18 57.7002 69.37 57.7002 69.37L58.0302 63.22Z" fill="url(#paint26_linear_1339_3470)"/>
<path opacity="0.5" d="M72.3399 70.39C71.6699 68.75 70.2999 67.84 70.2999 67.84L63.6299 106.75L66.1699 106.13L72.3399 70.39Z" fill="url(#paint27_linear_1339_3470)"/>
<path d="M72.3402 70.39C72.3402 70.39 68.4002 73.67 71.0202 78.05L72.3402 70.39Z" fill="white"/>
</g>
<defs>
<radialGradient id="paint0_radial_1339_3470" cx="0" cy="0" r="1" gradientUnits="userSpaceOnUse" gradientTransform="translate(92.8028 96.8107) rotate(10.3525) scale(21.7475 21.7475)">
<stop stop-color="#3996F7"/>
<stop offset="1" stop-color="#6840D5"/>
</radialGradient>
<linearGradient id="paint1_linear_1339_3470" x1="38.9787" y1="133.069" x2="15.3839" y2="91.9048" gradientUnits="userSpaceOnUse">
<stop stop-color="#1C257B"/>
<stop offset="1" stop-color="#6A2C9A"/>
</linearGradient>
<radialGradient id="paint2_radial_1339_3470" cx="0" cy="0" r="1" gradientUnits="userSpaceOnUse" gradientTransform="translate(35.4552 87.1239) rotate(39.1233) scale(11.7139)">
<stop stop-color="#3996F7"/>
<stop offset="1" stop-color="#6840D5"/>
</radialGradient>
<linearGradient id="paint3_linear_1339_3470" x1="79.8753" y1="78.6961" x2="108.389" y2="78.6961" gradientUnits="userSpaceOnUse">
<stop stop-color="#3D2C97"/>
<stop offset="1" stop-color="#183683"/>
</linearGradient>
<linearGradient id="paint4_linear_1339_3470" x1="94.1281" y1="89.6244" x2="94.1281" y2="61.9331" gradientUnits="userSpaceOnUse">
<stop stop-color="#7459F1"/>
<stop offset="1" stop-color="#60B3F7"/>
</linearGradient>
<linearGradient id="paint5_linear_1339_3470" x1="94.1259" y1="88.9353" x2="94.1259" y2="62.497" gradientUnits="userSpaceOnUse">
<stop stop-color="#744FD8"/>
<stop offset="1" stop-color="#3996F7"/>
</linearGradient>
<linearGradient id="paint6_linear_1339_3470" x1="99.5835" y1="89.107" x2="105.026" y2="89.107" gradientUnits="userSpaceOnUse">
<stop stop-color="#3D2C97"/>
<stop offset="1" stop-color="#183683"/>
</linearGradient>
<linearGradient id="paint7_linear_1339_3470" x1="83.2479" y1="89.107" x2="88.6907" y2="89.107" gradientUnits="userSpaceOnUse">
<stop stop-color="#3D2C97"/>
<stop offset="1" stop-color="#183683"/>
</linearGradient>
<linearGradient id="paint8_linear_1339_3470" x1="104.762" y1="76.9141" x2="108.388" y2="76.9141" gradientUnits="userSpaceOnUse">
<stop stop-color="#3D2C97"/>
<stop offset="1" stop-color="#183683"/>
</linearGradient>
<linearGradient id="paint9_linear_1339_3470" x1="96.7563" y1="64.101" x2="97.4973" y2="64.101" gradientUnits="userSpaceOnUse">
<stop stop-color="#3D2C97"/>
<stop offset="1" stop-color="#183683"/>
</linearGradient>
<linearGradient id="paint10_linear_1339_3470" x1="90.7708" y1="64.101" x2="91.5078" y2="64.101" gradientUnits="userSpaceOnUse">
<stop stop-color="#3D2C97"/>
<stop offset="1" stop-color="#183683"/>
</linearGradient>
<linearGradient id="paint11_linear_1339_3470" x1="81.6968" y1="78.5126" x2="81.6968" y2="75.3157" gradientUnits="userSpaceOnUse">
<stop stop-color="#3D2C97"/>
<stop offset="1" stop-color="#183683"/>
</linearGradient>
<linearGradient id="paint12_linear_1339_3470" x1="89.4828" y1="92.5417" x2="89.4828" y2="85.7677" gradientUnits="userSpaceOnUse">
<stop stop-color="#8B8BE0"/>
<stop offset="1" stop-color="#A177B7"/>
</linearGradient>
<linearGradient id="paint13_linear_1339_3470" x1="98.7894" y1="92.2448" x2="98.7894" y2="85.7677" gradientUnits="userSpaceOnUse">
<stop stop-color="#8B8BE0"/>
<stop offset="1" stop-color="#A177B7"/>
</linearGradient>
<linearGradient id="paint14_linear_1339_3470" x1="61.0715" y1="130.332" x2="61.0715" y2="80.5002" gradientUnits="userSpaceOnUse">
<stop stop-color="#971A8F"/>
<stop offset="0.4678" stop-color="#EF22AC"/>
<stop offset="1" stop-color="#FE4CCE"/>
</linearGradient>
<linearGradient id="paint15_linear_1339_3470" x1="61.0719" y1="129.204" x2="61.0719" y2="81.6278" gradientUnits="userSpaceOnUse">
<stop stop-color="#B31A8F"/>
<stop offset="1" stop-color="#FE117E"/>
</linearGradient>
<linearGradient id="paint16_linear_1339_3470" x1="56.8342" y1="84.471" x2="56.8342" y2="81.1653" gradientUnits="userSpaceOnUse">
<stop stop-color="#3D2CB0"/>
<stop offset="1" stop-color="#0355C7"/>
</linearGradient>
<linearGradient id="paint17_linear_1339_3470" x1="65.3" y1="84.5699" x2="65.3" y2="81.1653" gradientUnits="userSpaceOnUse">
<stop stop-color="#3D2CB0"/>
<stop offset="1" stop-color="#0355C7"/>
</linearGradient>
<linearGradient id="paint18_linear_1339_3470" x1="73.5603" y1="130.709" x2="73.5603" y2="121.566" gradientUnits="userSpaceOnUse">
<stop stop-color="#8B8BE0"/>
<stop offset="1" stop-color="#A177B7"/>
</linearGradient>
<linearGradient id="paint19_linear_1339_3470" x1="83.1004" y1="114.89" x2="83.1004" y2="109.131" gradientUnits="userSpaceOnUse">
<stop stop-color="#8B8BE0"/>
<stop offset="1" stop-color="#A177B7"/>
</linearGradient>
<linearGradient id="paint20_linear_1339_3470" x1="48.5734" y1="130.709" x2="48.5734" y2="121.555" gradientUnits="userSpaceOnUse">
<stop stop-color="#8B8BE0"/>
<stop offset="1" stop-color="#A177B7"/>
</linearGradient>
<linearGradient id="paint21_linear_1339_3470" x1="39.0278" y1="114.89" x2="39.0278" y2="109.131" gradientUnits="userSpaceOnUse">
<stop stop-color="#8B8BE0"/>
<stop offset="1" stop-color="#A177B7"/>
</linearGradient>
<linearGradient id="paint22_linear_1339_3470" x1="58.5734" y1="120.367" x2="69.1652" y2="36.1589" gradientUnits="userSpaceOnUse">
<stop stop-color="#DBCCFF"/>
<stop offset="1" stop-color="#D1BBFF"/>
</linearGradient>
<linearGradient id="paint23_linear_1339_3470" x1="58.1553" y1="123.652" x2="68.7471" y2="39.4435" gradientUnits="userSpaceOnUse">
<stop stop-color="#B5A6E7"/>
<stop offset="1" stop-color="#7760BF"/>
</linearGradient>
<linearGradient id="paint24_linear_1339_3470" x1="60.789" y1="102.717" x2="65.2536" y2="67.2212" gradientUnits="userSpaceOnUse">
<stop stop-color="#B5A6E7"/>
<stop offset="1" stop-color="#7760BF"/>
</linearGradient>
<linearGradient id="paint25_linear_1339_3470" x1="60.1269" y1="67.2981" x2="70.2013" y2="68.5653" gradientUnits="userSpaceOnUse">
<stop stop-color="#8B8BE0"/>
<stop offset="1" stop-color="#A177B7"/>
</linearGradient>
<linearGradient id="paint26_linear_1339_3470" x1="64.8701" y1="70.2706" x2="65.6372" y2="64.1722" gradientUnits="userSpaceOnUse">
<stop stop-color="white"/>
<stop offset="1" stop-color="#A177B7"/>
</linearGradient>
<linearGradient id="paint27_linear_1339_3470" x1="65.6619" y1="107.01" x2="70.5838" y2="67.8796" gradientUnits="userSpaceOnUse">
<stop/>
<stop offset="1" stop-color="white"/>
</linearGradient>
<clipPath id="clip0_1339_3470">
<rect width="113.94" height="135.3" fill="white"/>
</clipPath>
</defs>
</svg>
