<svg width="452" height="434" viewBox="0 0 452 434" fill="none" xmlns="http://www.w3.org/2000/svg">
<g clip-path="url(#clip0_1339_4663)">
<path d="M384.69 210.44C296.28 159.4 153.41 159.4 65.5698 210.44C-22.2701 261.49 -21.8002 344.24 66.5998 395.29C155.02 446.34 297.89 446.34 385.73 395.29C473.58 344.25 473.11 261.49 384.69 210.44Z" fill="#F5F5F5"/>
<path d="M130.35 293.32C159.97 276.22 207.83 276.22 237.26 293.32C263.26 308.43 266.15 331.83 246.04 348.87C262.26 347.87 279.08 350.96 291.47 358.16C313.22 370.8 313.1 391.29 291.21 403.92C269.32 416.56 233.95 416.56 212.2 403.92C194.9 393.87 191.45 378.84 201.78 366.76C176.85 370.37 149.41 366.53 129.99 355.25C100.57 338.14 100.73 310.42 130.35 293.32Z" fill="#E0E0E0"/>
<path d="M64.1698 335.85C57.6298 332.07 47.0598 332.07 40.5698 335.85C34.0698 339.63 34.1098 345.75 40.6498 349.52C47.1898 353.3 57.7598 353.3 64.2598 349.52C70.7498 345.75 70.7098 339.63 64.1698 335.85Z" fill="#E0E0E0"/>
<path d="M68.2398 314.13L52.4098 314.59L36.5798 314.13C35.8998 324.82 37.9898 335.72 40.8598 341.04H40.8698C41.3898 342.21 42.4198 343.32 43.9998 344.23C48.6698 346.93 56.2198 346.93 60.8598 344.23C62.4698 343.29 63.4998 342.16 63.9898 340.96C66.8598 335.6 68.9198 324.77 68.2398 314.13Z" fill="white"/>
<path d="M63.57 307.64C69.77 311.22 69.81 317.03 63.64 320.61C57.48 324.19 47.45 324.19 41.25 320.61C35.05 317.03 35.01 311.22 41.18 307.64C47.34 304.06 57.36 304.06 63.57 307.64Z" fill="#EBEBEB"/>
<path d="M61.1096 309.07C65.9496 311.86 65.9796 316.39 61.1696 319.19C56.3596 321.98 48.5396 321.98 43.6996 319.19C38.8596 316.4 38.8296 311.87 43.6396 309.07C48.4496 306.27 56.2696 306.27 61.1096 309.07Z" fill="#E0E0E0"/>
<g opacity="0.15">
<path opacity="0.15" d="M61.1096 309.07C65.9496 311.86 65.9796 316.39 61.1696 319.19C56.3596 321.98 48.5396 321.98 43.6996 319.19C38.8596 316.4 38.8296 311.87 43.6396 309.07C48.4496 306.27 56.2696 306.27 61.1096 309.07Z" fill="black"/>
</g>
<path d="M78.4396 246.56C42.7596 258.24 42.4396 282.11 50.4796 299.11C52.5096 302.55 58.6496 304.4 63.9896 283.26L54.6196 284.46L65.5396 278.92L68.3796 270.44L59.2696 271.12L70.8296 266.26C75.0896 253.38 78.4396 246.56 78.4396 246.56Z" fill="#BA68C8"/>
<path opacity="0.2" d="M78.4396 246.56C42.7596 258.24 42.4396 282.11 50.4796 299.11C52.5096 302.55 58.6496 304.4 63.9896 283.26L54.6196 284.46L65.5396 278.92L68.3796 270.44L59.2696 271.12L70.8296 266.26C75.0896 253.38 78.4396 246.56 78.4396 246.56Z" fill="black"/>
<path opacity="0.2" d="M78.4396 246.56C42.7596 258.24 42.4396 282.11 50.4796 299.11C52.5096 302.55 58.6496 304.4 63.9896 283.26L54.6196 284.46L65.5396 278.92L68.3796 270.44L59.2696 271.12L70.8296 266.26C75.0896 253.38 78.4396 246.56 78.4396 246.56Z" fill="white"/>
<path d="M68.3497 252.53C49.5297 266.81 47.8397 283.18 53.1497 300.28C51.2697 285.23 49.2397 270.01 68.3497 252.53Z" fill="white"/>
<path d="M18.0098 270.81C53.1798 275.76 57.4498 297.94 52.7798 315.11C51.4598 318.65 46.0498 321.39 37.5598 302.59L46.4898 302.15L35.3998 298.81L31.3498 291.38L39.9398 290.5L28.3698 287.89C22.2598 276.61 18.0098 270.81 18.0098 270.81Z" fill="#BA68C8"/>
<path opacity="0.2" d="M18.0098 270.81C53.1798 275.76 57.4498 297.94 52.7798 315.11C51.4598 318.65 46.0498 321.39 37.5598 302.59L46.4898 302.15L35.3998 298.81L31.3498 291.38L39.9398 290.5L28.3698 287.89C22.2598 276.61 18.0098 270.81 18.0098 270.81Z" fill="white"/>
<path opacity="0.1" d="M18.0098 270.81C53.1798 275.76 57.4498 297.94 52.7798 315.11C51.4598 318.65 46.0498 321.39 37.5598 302.59L46.4898 302.15L35.3998 298.81L31.3498 291.38L39.9398 290.5L28.3698 287.89C22.2598 276.61 18.0098 270.81 18.0098 270.81Z" fill="black"/>
<path d="M28.3999 274.69C48.2999 284.86 52.5999 299.83 50.4899 316.63C49.7399 302.31 49.0999 287.8 28.3999 274.69Z" fill="white"/>
<path d="M88.7298 279.12C56.4798 279.65 50.1498 299.16 52.4298 315.15C53.2198 318.49 57.7898 321.57 67.5498 305.57L59.5498 304.18L69.9198 302.41L74.3998 296.17L66.7498 294.41L77.4698 293.36C84.2498 283.87 88.7298 279.12 88.7298 279.12Z" fill="#BA68C8"/>
<path d="M78.9296 281.46C59.8596 288.4 54.3096 301.41 54.3296 316.79C56.6096 303.96 58.8096 290.95 78.9296 281.46Z" fill="white"/>
<path opacity="0.2" d="M88.7298 279.12C56.4798 279.65 50.1498 299.16 52.4298 315.15C53.2198 318.49 57.7898 321.57 67.5498 305.57L59.5498 304.18L69.9198 302.41L74.3998 296.17L66.7498 294.41L77.4698 293.36C84.2498 283.87 88.7298 279.12 88.7298 279.12Z" fill="white"/>
<path d="M222.95 234.4C233.05 241.41 244.43 246.27 252.86 255.67C268.62 273.24 268.98 301.5 256.61 321.59C244.24 341.68 221.22 353.75 197.79 356.51C173.2 359.41 147.4 352.61 128.11 337.1C108.82 321.58 96.5501 297.34 96.5601 272.58C96.5701 247.82 109.25 223.17 129.99 209.65C148.91 197.31 176.09 193.79 195.07 207.91C204.67 215.05 211.06 225.58 220.64 232.74C221.4 233.3 222.17 233.86 222.95 234.4Z" fill="#455A64"/>
<path opacity="0.2" d="M222.95 234.4C233.05 241.41 244.43 246.27 252.86 255.67C268.62 273.24 268.98 301.5 256.61 321.59C244.24 341.68 221.22 353.75 197.79 356.51C173.2 359.41 147.4 352.61 128.11 337.1C108.82 321.58 96.5501 297.34 96.5601 272.58C96.5701 247.82 109.25 223.17 129.99 209.65C148.91 197.31 176.09 193.79 195.07 207.91C204.67 215.05 211.06 225.58 220.64 232.74C221.4 233.3 222.17 233.86 222.95 234.4Z" fill="black"/>
<path opacity="0.1" d="M222.95 234.4C233.05 241.41 244.43 246.27 252.86 255.67C268.62 273.24 268.98 301.5 256.61 321.59C244.24 341.68 221.22 353.75 197.79 356.51C173.2 359.41 147.4 352.61 128.11 337.1C108.82 321.58 96.5501 297.34 96.5601 272.58C96.5701 247.82 109.25 223.17 129.99 209.65C148.91 197.31 176.09 193.79 195.07 207.91C204.67 215.05 211.06 225.58 220.64 232.74C221.4 233.3 222.17 233.86 222.95 234.4Z" fill="white"/>
<path opacity="0.1" d="M218.83 337.31C218.81 337.14 218.78 336.98 218.76 336.81C217.15 325.56 208.38 316.8 197.22 314.66C187.49 312.79 178.1 309.21 169.62 304.09C163.59 300.44 157.89 295.97 151.13 294C144.89 292.18 137.11 292.46 131.2 295.16C136.89 289.19 146.63 286.56 154.42 289.26C149.03 281.01 144.28 272.12 142.43 262.44C140.57 252.76 141.89 242.13 147.73 234.19C152.69 227.44 160.76 223.09 169.11 222.64C177.47 222.19 185.96 225.67 191.6 231.84C197.38 238.16 200.64 247.06 204.44 254.75C207.17 260.27 209.99 265.91 214.48 270.12C221.26 276.47 231.02 278.75 238.05 284.82C246.02 291.7 249.46 302.7 249.5 313.24C249.52 320.35 248.19 327.34 246.41 334.25C238.33 342.11 228.34 348.03 217.57 351.88C219.2 347.29 219.5 342.17 218.83 337.31Z" fill="black"/>
<path d="M109.76 269.18C110.17 248.11 120.19 227.61 136.55 214.33C146.56 206.21 158.72 200.97 171.4 199.02C173.75 199.25 176.08 199.64 178.37 200.19C163.66 201.05 149.24 206.48 137.75 215.81C121.82 228.74 112.07 248.7 111.67 269.22C111.22 292.26 122.49 315.75 141.82 332.04C156.97 344.81 177.09 353.28 199.21 356.33C198.74 356.39 198.27 356.46 197.79 356.51C195.8 356.74 193.8 356.91 191.8 357.02C172.15 353.21 154.35 345.11 140.58 333.5C120.82 316.83 109.29 292.79 109.76 269.18Z" fill="white"/>
<path d="M244.58 329.61C243.55 333.71 243.35 341.11 243.35 341.11L240.62 340.08C237.98 339.08 234.99 339.76 233.04 341.81L232.91 341.95C231.9 343.01 230.23 343.09 229.12 342.12C228.55 341.62 228.21 340.9 228.18 340.14L227.81 328.53L244.58 329.61Z" fill="#FFA8A7"/>
<path d="M234.05 372.76C239.71 378.81 250.13 384.11 257.7 378.94L256.85 380.87C249.28 386.03 238.86 380.74 233.2 374.69C227.54 368.64 231.21 364.44 226.12 359.07C222.8 355.78 221.72 352.53 221.72 352.53C221.95 351.95 222.16 351.2 222.43 350.33C223.1 351.84 224.61 354.8 226.97 357.14C232.07 362.51 228.4 366.71 234.05 372.76Z" fill="#F5F5F5"/>
<path d="M225.22 344C226.46 342.04 226.88 340.69 227 339.87C227.1 339.17 227.52 338.56 228.12 338.19L228.18 340.14C228.2 340.9 228.54 341.62 229.12 342.12C230.23 343.09 231.9 343.01 232.91 341.95L233.04 341.81C234.99 339.77 237.98 339.09 240.62 340.08L243.39 341.12C244.24 341.44 244.79 342.25 244.77 343.16C244.59 351.1 248.3 361.64 252.19 367.44C256.19 369.1 259.64 374.55 257.88 378.54L257.7 378.94C250.13 384.1 239.71 378.81 234.05 372.76C228.39 366.71 232.06 362.51 226.97 357.14C224.6 354.8 223.1 351.84 222.43 350.33C222.96 348.59 223.71 346.38 225.22 344Z" fill="#BA68C8"/>
<path opacity="0.3" d="M225.22 344C226.46 342.04 226.88 340.69 227 339.87C227.1 339.17 227.52 338.56 228.12 338.19L228.18 340.14C228.2 340.9 228.54 341.62 229.12 342.12C230.23 343.09 231.9 343.01 232.91 341.95L233.04 341.81C234.99 339.77 237.98 339.09 240.62 340.08L243.39 341.12C244.24 341.44 244.79 342.25 244.77 343.16C244.59 351.1 248.3 361.64 252.19 367.44C256.19 369.1 259.64 374.55 257.88 378.54L257.7 378.94C250.13 384.1 239.71 378.81 234.05 372.76C228.39 366.71 232.06 362.51 226.97 357.14C224.6 354.8 223.1 351.84 222.43 350.33C222.96 348.59 223.71 346.38 225.22 344Z" fill="black"/>
<path opacity="0.2" d="M225.22 344C226.46 342.04 226.88 340.69 227 339.87C227.1 339.17 227.52 338.56 228.12 338.19L228.18 340.14C228.2 340.9 228.54 341.62 229.12 342.12C230.23 343.09 231.9 343.01 232.91 341.95L233.04 341.81C234.99 339.77 237.98 339.09 240.62 340.08L243.39 341.12C244.24 341.44 244.79 342.25 244.77 343.16C244.59 351.1 248.3 361.64 252.19 367.44C256.19 369.1 259.64 374.55 257.88 378.54L257.7 378.94C250.13 384.1 239.71 378.81 234.05 372.76C228.39 366.71 232.06 362.51 226.97 357.14C224.6 354.8 223.1 351.84 222.43 350.33C222.96 348.59 223.71 346.38 225.22 344Z" fill="white"/>
<path d="M236.29 355.46C235.82 355.7 235.24 355.5 235.01 355.03C234.77 354.57 234.94 353.98 235.4 353.75C239.75 351.5 243.49 352.25 246.27 353.77C246.44 354.4 246.62 355.02 246.81 355.64C243.61 354 240.36 353.41 236.29 355.46Z" fill="white"/>
<path d="M234.9 351.17C234.43 351.41 233.85 351.21 233.62 350.74C233.38 350.28 233.55 349.69 234.01 349.46C238.34 347.22 242.31 347.9 245.32 349.55C245.43 350.2 245.57 350.85 245.71 351.5C242.41 349.75 239.09 349.06 234.9 351.17Z" fill="white"/>
<path d="M237.82 359.74C237.35 359.98 236.77 359.78 236.54 359.31C236.31 358.85 236.47 358.26 236.93 358.03C241.16 355.84 244.81 356.49 247.57 357.92C247.81 358.59 248.06 359.25 248.33 359.9C245.13 358.27 241.88 357.68 237.82 359.74Z" fill="white"/>
<path d="M252.191 367.44C256.191 369.1 259.641 374.55 257.881 378.54L257.701 378.94C250.241 384.03 240.021 378.96 234.311 373.02C239.081 363.68 249.051 366.01 252.191 367.44Z" fill="white"/>
<path d="M239.5 363.91C239.03 364.15 238.45 363.95 238.22 363.48C237.98 363.02 238.15 362.43 238.61 362.2C242.85 360.01 246.51 360.66 249.27 362.1C249.61 362.84 249.96 363.55 250.31 364.23C247.01 362.49 243.68 361.79 239.5 363.91Z" fill="white"/>
<path d="M256.48 352.7C257.19 356.87 259.99 363.72 259.99 363.72L257.08 363.88C254.26 364.04 251.8 365.86 250.84 368.52L250.77 368.7C250.27 370.08 248.77 370.82 247.37 370.39C246.64 370.16 246.04 369.64 245.71 368.96L240.69 358.49L256.48 352.7Z" fill="#FFA8A7"/>
<path d="M264.26 396.42C271.88 399.68 283.55 400.31 288.4 392.53V394.64C283.56 402.42 271.89 401.79 264.26 398.53C256.64 395.27 258.31 389.96 251.48 387.1C247.11 385.43 244.81 382.89 244.81 382.89C244.78 382.27 244.68 381.49 244.57 380.59C245.79 381.7 248.36 383.8 251.48 384.99C258.31 387.85 256.64 393.17 264.26 396.42Z" fill="#F5F5F5"/>
<path d="M244.57 373.68C244.92 371.39 244.75 369.98 244.53 369.18C244.34 368.5 244.48 367.77 244.88 367.19L245.72 368.95C246.05 369.64 246.65 370.16 247.38 370.38C248.78 370.82 250.28 370.07 250.78 368.69L250.85 368.51C251.81 365.85 254.27 364.03 257.09 363.87L260.05 363.71C260.95 363.66 261.79 364.18 262.13 365.02C265.17 372.36 272.82 380.51 278.72 384.24C283.05 384.14 288.41 387.73 288.41 392.1V392.53C283.57 400.31 271.9 399.68 264.27 396.42C256.65 393.16 258.32 387.85 251.49 384.99C248.38 383.8 245.81 381.7 244.58 380.59C244.36 378.79 244.15 376.46 244.57 373.68Z" fill="#BA68C8"/>
<path opacity="0.3" d="M244.57 373.68C244.92 371.39 244.75 369.98 244.53 369.18C244.34 368.5 244.48 367.77 244.88 367.19L245.72 368.95C246.05 369.64 246.65 370.16 247.38 370.38C248.78 370.82 250.28 370.07 250.78 368.69L250.85 368.51C251.81 365.85 254.27 364.03 257.09 363.87L260.05 363.71C260.95 363.66 261.79 364.18 262.13 365.02C265.17 372.36 272.82 380.51 278.72 384.24C283.05 384.14 288.41 387.73 288.41 392.1V392.53C283.57 400.31 271.9 399.68 264.27 396.42C256.65 393.16 258.32 387.85 251.49 384.99C248.38 383.8 245.81 381.7 244.58 380.59C244.36 378.79 244.15 376.46 244.57 373.68Z" fill="black"/>
<path opacity="0.2" d="M244.57 373.68C244.92 371.39 244.75 369.98 244.53 369.18C244.34 368.5 244.48 367.77 244.88 367.19L245.72 368.95C246.05 369.64 246.65 370.16 247.38 370.38C248.78 370.82 250.28 370.07 250.78 368.69L250.85 368.51C251.81 365.85 254.27 364.03 257.09 363.87L260.05 363.71C260.95 363.66 261.79 364.18 262.13 365.02C265.17 372.36 272.82 380.51 278.72 384.24C283.05 384.14 288.41 387.73 288.41 392.1V392.53C283.57 400.31 271.9 399.68 264.27 396.42C256.65 393.16 258.32 387.85 251.49 384.99C248.38 383.8 245.81 381.7 244.58 380.59C244.36 378.79 244.15 376.46 244.57 373.68Z" fill="white"/>
<path d="M259.33 379.69C259 380.1 258.39 380.15 257.98 379.81C257.58 379.48 257.5 378.88 257.82 378.48C260.9 374.66 264.61 373.84 267.77 374.11C268.18 374.61 268.59 375.11 269.02 375.6C265.43 375.4 262.22 376.17 259.33 379.69Z" fill="white"/>
<path d="M256.32 376.33C255.99 376.74 255.38 376.79 254.97 376.45C254.57 376.12 254.49 375.52 254.81 375.12C257.87 371.33 261.78 370.34 265.2 370.64C265.56 371.19 265.95 371.73 266.34 372.26C262.62 372 259.3 372.7 256.32 376.33Z" fill="white"/>
<path d="M262.45 382.98C262.12 383.39 261.51 383.44 261.1 383.1C260.7 382.77 260.62 382.17 260.94 381.77C263.93 378.06 267.53 377.18 270.63 377.38C271.12 377.9 271.62 378.4 272.12 378.89C268.54 378.7 265.34 379.47 262.45 382.98Z" fill="white"/>
<path d="M278.71 384.24C283.04 384.14 288.4 387.73 288.4 392.1V392.53C283.63 400.2 272.24 399.69 264.61 396.56C265.2 386.09 275.25 384.2 278.71 384.24Z" fill="white"/>
<path d="M265.67 386.12C265.34 386.53 264.73 386.58 264.32 386.24C263.92 385.91 263.84 385.31 264.16 384.91C267.16 381.19 270.77 380.31 273.88 380.52C274.49 381.06 275.09 381.57 275.69 382.05C271.97 381.79 268.64 382.5 265.67 386.12Z" fill="white"/>
<path d="M211.7 253.55L249.85 274.81C256.94 278.76 260.72 286.8 259.24 294.78L251.84 334.66L257.91 353.95C252.67 360.98 240.64 361.33 240.64 361.33C233.93 347.87 229.01 342.16 225.2 330.88C221.39 319.61 218.85 311.82 218.85 311.82L187.16 303.16C172.35 299.11 161.42 286.47 159.7 271.21C159.16 266.42 159.14 263.15 159.14 263.15L211.7 253.55Z" fill="#263238"/>
<path opacity="0.2" d="M211.41 264.27C211.42 268.49 209.88 272.69 207.14 275.9L234.06 292.75C238.01 295.22 240.94 299.04 242.3 303.5L251.83 334.66L243.24 299.96C242.25 295.97 239.74 292.52 236.24 290.36L211.38 274.99C213.93 268.63 211.41 264.27 211.41 264.27Z" fill="black"/>
<path d="M181.26 279.17C181.25 279.34 181.26 279.51 181.31 279.67C181.31 279.68 181.31 279.69 181.32 279.71C181.36 279.84 181.43 279.97 181.52 280.1C181.53 280.11 181.53 280.13 181.54 280.14C181.63 280.27 181.75 280.4 181.89 280.52C181.9 280.53 181.9 280.54 181.91 280.54C182.06 280.67 182.23 280.79 182.42 280.91L210.34 297.14C210.58 297.28 210.86 297.39 211.14 297.49C211.24 297.52 211.34 297.55 211.45 297.58C211.58 297.62 211.72 297.65 211.86 297.68C212.02 297.71 212.19 297.74 212.36 297.77C212.4 297.77 212.44 297.78 212.48 297.79C212.71 297.81 212.93 297.83 213.16 297.83C213.2 297.83 213.23 297.83 213.27 297.83C213.5 297.83 213.72 297.82 213.94 297.79C213.97 297.79 214.01 297.78 214.04 297.78C214.26 297.75 214.48 297.72 214.69 297.67C214.73 297.66 214.77 297.65 214.81 297.64C215 297.59 215.19 297.53 215.37 297.47C215.4 297.46 215.44 297.45 215.47 297.44C215.69 297.36 215.9 297.26 216.09 297.15L262.15 270.55C262.35 270.44 262.52 270.31 262.67 270.18C262.72 270.13 262.75 270.08 262.8 270.04C262.89 269.95 262.98 269.87 263.04 269.77C263.08 269.71 263.1 269.65 263.13 269.6C263.18 269.51 263.23 269.43 263.26 269.34C263.28 269.28 263.28 269.21 263.29 269.15C263.31 269.06 263.33 268.98 263.33 268.89V270.52C263.33 270.61 263.3 270.69 263.29 270.78C263.28 270.84 263.28 270.91 263.26 270.97C263.23 271.06 263.17 271.15 263.13 271.23C263.1 271.29 263.08 271.35 263.04 271.4C262.98 271.49 262.88 271.58 262.8 271.67C262.75 271.72 262.72 271.77 262.67 271.81C262.52 271.94 262.35 272.06 262.15 272.18L216.09 298.78C215.9 298.89 215.69 298.99 215.47 299.07C215.44 299.08 215.4 299.09 215.37 299.1C215.19 299.17 215 299.22 214.81 299.27C214.77 299.28 214.73 299.29 214.69 299.3C214.48 299.35 214.26 299.39 214.04 299.41C214.01 299.41 213.97 299.42 213.94 299.42C213.72 299.44 213.49 299.46 213.27 299.46C213.23 299.46 213.2 299.46 213.16 299.46C212.93 299.46 212.7 299.45 212.48 299.42C212.44 299.42 212.4 299.41 212.36 299.4C212.19 299.38 212.03 299.35 211.86 299.31C211.72 299.28 211.59 299.25 211.45 299.21C211.35 299.18 211.24 299.15 211.14 299.12C210.86 299.02 210.58 298.91 210.34 298.77L182.42 282.54C182.22 282.43 182.05 282.3 181.91 282.17C181.9 282.16 181.9 282.15 181.89 282.15C181.75 282.03 181.64 281.9 181.54 281.77C181.53 281.76 181.53 281.74 181.52 281.73C181.44 281.6 181.37 281.47 181.32 281.34C181.32 281.33 181.32 281.32 181.31 281.3C181.27 281.18 181.28 281.05 181.27 280.93H181.24V279.16L181.26 279.17Z" fill="#E0E0E0"/>
<path opacity="0.2" d="M181.26 279.17C181.25 279.34 181.26 279.51 181.31 279.67C181.31 279.68 181.31 279.69 181.32 279.71C181.36 279.84 181.43 279.97 181.52 280.1C181.53 280.11 181.53 280.13 181.54 280.14C181.63 280.27 181.75 280.4 181.89 280.52C181.9 280.53 181.9 280.54 181.91 280.54C182.06 280.67 182.23 280.79 182.42 280.91L210.34 297.14C210.58 297.28 210.86 297.39 211.14 297.49C211.24 297.52 211.34 297.55 211.45 297.58C211.58 297.62 211.72 297.65 211.86 297.68C212.02 297.71 212.19 297.74 212.36 297.77C212.4 297.77 212.44 297.78 212.48 297.79C212.71 297.81 212.93 297.83 213.16 297.83C213.2 297.83 213.23 297.83 213.27 297.83C213.5 297.83 213.72 297.82 213.94 297.79C213.97 297.79 214.01 297.78 214.04 297.78C214.26 297.75 214.48 297.72 214.69 297.67C214.73 297.66 214.77 297.65 214.81 297.64C215 297.59 215.19 297.53 215.37 297.47C215.4 297.46 215.44 297.45 215.47 297.44C215.69 297.36 215.9 297.26 216.09 297.15L262.15 270.55C262.35 270.44 262.52 270.31 262.67 270.18C262.72 270.13 262.75 270.08 262.8 270.04C262.89 269.95 262.98 269.87 263.04 269.77C263.08 269.71 263.1 269.65 263.13 269.6C263.18 269.51 263.23 269.43 263.26 269.34C263.28 269.28 263.28 269.21 263.29 269.15C263.31 269.06 263.33 268.98 263.33 268.89V270.52C263.33 270.61 263.3 270.69 263.29 270.78C263.28 270.84 263.28 270.91 263.26 270.97C263.23 271.06 263.17 271.15 263.13 271.23C263.1 271.29 263.08 271.35 263.04 271.4C262.98 271.49 262.88 271.58 262.8 271.67C262.75 271.72 262.72 271.77 262.67 271.81C262.52 271.94 262.35 272.06 262.15 272.18L216.09 298.78C215.9 298.89 215.69 298.99 215.47 299.07C215.44 299.08 215.4 299.09 215.37 299.1C215.19 299.17 215 299.22 214.81 299.27C214.77 299.28 214.73 299.29 214.69 299.3C214.48 299.35 214.26 299.39 214.04 299.41C214.01 299.41 213.97 299.42 213.94 299.42C213.72 299.44 213.49 299.46 213.27 299.46C213.23 299.46 213.2 299.46 213.16 299.46C212.93 299.46 212.7 299.45 212.48 299.42C212.44 299.42 212.4 299.41 212.36 299.4C212.19 299.38 212.03 299.35 211.86 299.31C211.72 299.28 211.59 299.25 211.45 299.21C211.35 299.18 211.24 299.15 211.14 299.12C210.86 299.02 210.58 298.91 210.34 298.77L182.42 282.54C182.22 282.43 182.05 282.3 181.91 282.17C181.9 282.16 181.9 282.15 181.89 282.15C181.75 282.03 181.64 281.9 181.54 281.77C181.53 281.76 181.53 281.74 181.52 281.73C181.44 281.6 181.37 281.47 181.32 281.34C181.32 281.33 181.32 281.32 181.31 281.3C181.27 281.18 181.28 281.05 181.27 280.93H181.24V279.16L181.26 279.17Z" fill="black"/>
<path d="M263.27 269.33C263.24 269.42 263.18 269.51 263.14 269.59C263.11 269.65 263.09 269.71 263.05 269.76C262.99 269.85 262.89 269.94 262.81 270.03C262.76 270.08 262.73 270.13 262.68 270.17C262.53 270.3 262.36 270.42 262.16 270.54L216.1 297.14C215.91 297.25 215.7 297.35 215.48 297.43C215.45 297.44 215.41 297.45 215.38 297.46C215.2 297.53 215.01 297.58 214.82 297.63C214.78 297.64 214.74 297.65 214.7 297.66C214.49 297.71 214.27 297.75 214.05 297.77C214.02 297.77 213.98 297.78 213.95 297.78C213.73 297.8 213.5 297.82 213.28 297.82C213.24 297.82 213.21 297.82 213.17 297.82C212.94 297.82 212.71 297.81 212.49 297.78C212.45 297.78 212.41 297.77 212.37 297.76C212.2 297.74 212.04 297.71 211.87 297.67C211.73 297.64 211.6 297.61 211.46 297.57C211.36 297.54 211.25 297.51 211.15 297.48C210.87 297.38 210.59 297.27 210.35 297.13L182.43 280.9C182.23 280.79 182.06 280.66 181.92 280.53C181.91 280.52 181.91 280.51 181.9 280.51C181.76 280.39 181.65 280.26 181.55 280.13C181.54 280.12 181.54 280.1 181.53 280.09C181.45 279.96 181.38 279.83 181.33 279.7C181.33 279.69 181.33 279.68 181.32 279.66C181.27 279.49 181.26 279.32 181.27 279.16C181.31 278.59 181.7 278.02 182.45 277.58L228.52 250.98C230.11 250.06 232.67 250.06 234.25 250.98L262.17 267.21C262.96 267.67 263.35 268.27 263.35 268.87C263.35 268.96 263.32 269.04 263.31 269.13C263.29 269.2 263.29 269.27 263.27 269.33Z" fill="#E0E0E0"/>
<path d="M259.43 268.88L214.68 294.72C214.63 294.75 214.58 294.77 214.5 294.8L214.4 294.83C214.32 294.86 214.23 294.89 214.05 294.93C213.93 294.96 213.81 294.98 213.8 294.98L213.63 295C213.51 295.01 213.38 295.02 213.19 295.02H213.15C213.01 295.02 212.87 295.01 212.69 294.99C212.59 294.98 212.5 294.96 212.4 294.94C212.33 294.93 212.04 294.84 212.04 294.84C211.93 294.8 211.83 294.77 211.73 294.71L197.33 286.34L243.56 259.65L259.43 268.88Z" fill="#E0E0E0"/>
<path d="M216.86 261.77L225.28 266.72C225.84 267.05 225.84 267.87 225.27 268.19L212.68 275.46C212.24 275.71 211.71 275.71 211.27 275.45L202.85 270.5C202.29 270.17 202.29 269.35 202.86 269.03L215.45 261.76C215.89 261.51 216.42 261.52 216.86 261.77Z" fill="#E0E0E0"/>
<path opacity="0.4" d="M259.43 268.88L214.68 294.72C214.63 294.75 214.58 294.77 214.5 294.8L214.4 294.83C214.32 294.86 214.23 294.89 214.05 294.93C213.93 294.96 213.81 294.98 213.8 294.98L213.63 295C213.51 295.01 213.38 295.02 213.19 295.02H213.15C213.01 295.02 212.87 295.01 212.69 294.99C212.59 294.98 212.5 294.96 212.4 294.94C212.33 294.93 212.04 294.84 212.04 294.84C211.93 294.8 211.83 294.77 211.73 294.71L197.33 286.34L243.56 259.65L259.43 268.88Z" fill="black"/>
<path opacity="0.4" d="M216.86 261.77L225.28 266.72C225.84 267.05 225.84 267.87 225.27 268.19L212.68 275.46C212.24 275.71 211.71 275.71 211.27 275.45L202.85 270.5C202.29 270.17 202.29 269.35 202.86 269.03L215.45 261.76C215.89 261.51 216.42 261.52 216.86 261.77Z" fill="black"/>
<path d="M213.49 295.49L218.26 265.17C218.52 263.51 219.52 262.05 220.98 261.2L267.36 234.23C267.77 233.99 268.22 234 268.59 234.15V234.14L269.69 234.69L269.32 234.83C269.44 235.07 269.49 235.35 269.44 235.65L264.67 265.97C264.41 267.63 263.41 269.09 261.95 269.94L215.57 296.91C215.47 296.97 215.37 297 215.27 297.03L215.31 297.48L214.24 296.95H214.26C213.75 296.7 213.38 296.15 213.49 295.49Z" fill="#E0E0E0"/>
<path opacity="0.3" d="M213.49 295.49L218.26 265.17C218.52 263.51 219.52 262.05 220.98 261.2L267.36 234.23C267.77 233.99 268.22 234 268.59 234.15V234.14L269.69 234.69L269.32 234.83C269.44 235.07 269.49 235.35 269.44 235.65L264.67 265.97C264.41 267.63 263.41 269.09 261.95 269.94L215.57 296.91C215.47 296.97 215.37 297 215.27 297.03L215.31 297.48L214.24 296.95H214.26C213.75 296.7 213.38 296.15 213.49 295.49Z" fill="black"/>
<path d="M221.91 261.66L268.29 234.69C269.31 234.1 270.56 234.95 270.38 236.12L265.61 266.44C265.35 268.11 264.35 269.56 262.89 270.41L216.51 297.38C215.49 297.97 214.24 297.12 214.42 295.95L219.19 265.63C219.45 263.96 220.45 262.51 221.91 261.66Z" fill="#E0E0E0"/>
<path d="M244.39 262.44C242.14 263.74 240.09 266.7 239.79 269.07C239.49 271.44 241.05 272.32 243.3 271.02C245.54 269.73 247.6 266.76 247.9 264.39C248.2 262.03 246.62 261.15 244.39 262.44Z" fill="white"/>
<path d="M217 216.37L229.57 226.58L237.86 213.13L227.43 201.39C218.26 205.45 217 216.37 217 216.37Z" fill="#F28F8F"/>
<path d="M198.561 181.65C208.441 180.53 209.351 182.73 215.761 188.77C222.171 194.81 228.641 201.61 228.641 201.61C218.761 206.44 217.661 218.18 217.661 218.18C212.281 214.01 207.731 210.72 207.731 210.72L198.561 181.65Z" fill="#455A64"/>
<path opacity="0.5" d="M198.561 181.65C208.441 180.53 209.351 182.73 215.761 188.77C222.171 194.81 228.641 201.61 228.641 201.61C218.761 206.44 217.661 218.18 217.661 218.18C212.281 214.01 207.731 210.72 207.731 210.72L198.561 181.65Z" fill="white"/>
<path d="M162.48 189.5C176.53 182.91 187.07 182.14 198.56 181.65C215.76 192.72 209.32 201.94 209.02 216.72C208.73 231.5 205.51 240.43 215.75 255.8C193.21 273.8 164.75 268.11 157.94 263.78C153.55 222.87 154.84 192.66 162.48 189.5Z" fill="#455A64"/>
<path opacity="0.7" d="M162.48 189.5C176.53 182.91 187.07 182.14 198.56 181.65C215.76 192.72 209.32 201.94 209.02 216.72C208.73 231.5 205.51 240.43 215.75 255.8C193.21 273.8 164.75 268.11 157.94 263.78C153.55 222.87 154.84 192.66 162.48 189.5Z" fill="white"/>
<path d="M205.31 159.27C207.47 157.24 208.85 154.39 209.08 151.44C209.31 148.49 208.4 145.46 206.58 143.12C207.79 142.33 208.91 141.14 209.33 139.75C209.73 138.42 209.24 136.86 208.15 136C207.06 135.14 205.43 135.02 204.23 135.72C204.77 133.66 203.51 131.12 201.55 130.29C199.59 129.46 197.08 130.27 195.98 132.09C195.89 130.74 194.79 129.56 193.46 129.31C192.13 129.06 190.75 129.47 189.53 130.07C188.31 130.67 187.2 131.46 185.97 132.04C183.89 133.01 181.58 133.32 179.34 133.78C177.09 134.24 174.8 134.88 173.05 136.37C171.3 137.85 169.99 140.96 171.35 143.31C170.6 142.58 169.5 142.13 168.46 142.23C167.42 142.33 166.43 142.91 165.84 143.77C167.37 144.46 168.87 145.23 170.4 145.93C168.89 145.47 166.89 146.76 166.29 148.22C165.69 149.68 165.87 151.33 166.12 152.89C167.07 158.81 168.92 164.59 171.54 169.99C172.89 172.78 174.7 175.69 177.64 176.68L205.31 159.27Z" fill="#37474F"/>
<path d="M205.15 144.77C202.73 147.25 198.76 148.88 195.3 148.92C191.84 148.96 188.48 147.82 185.14 146.89C184.85 148.5 184.03 150.01 182.84 151.13C181.65 152.25 179.74 153 178.11 153.19C178.59 156.31 178.58 159.51 178.07 162.63C177.96 163.29 177.52 163.89 176.87 164.08C175.74 164.41 175 163.25 174.45 162.32C173.83 161.26 173.06 160.25 172.01 159.6C170.96 158.95 169.6 158.72 168.48 159.24C167.57 159.67 166.92 160.55 166.62 161.51C166.32 162.47 166.33 163.5 166.47 164.5C166.71 166.16 167.32 167.79 168.41 169.07C169.5 170.35 171.08 171.24 172.76 171.31C174.44 171.38 176.1 170.7 176.94 169.25L177.01 169.55C177.13 170.05 177.29 170.54 177.47 171.01C178.96 174.97 182.38 177.94 186.6 178.82C188.72 179.26 191.07 179.69 193.47 180.05C194.65 180.23 195.83 180.4 197.01 180.54C201.51 181.07 205.66 178.02 206.45 173.55C208.08 164.44 208.62 153.81 205.15 144.77Z" fill="#FFA8A7"/>
<path d="M177.49 171.02V186.92C180.43 190.96 185.29 193.7 190.28 194.01C191.9 194.11 193.67 193.92 194.87 192.83C195.84 191.95 196.3 190.53 196.02 189.25C195.81 188.31 195.21 187.46 194.41 186.93C193.84 186.55 193.48 185.92 193.48 185.23V180.06C191.08 179.7 188.73 179.27 186.61 178.83C182.4 177.95 178.98 174.98 177.49 171.02Z" fill="#FFA8A7"/>
<path opacity="0.2" d="M188.11 182.33C189.86 182.82 191.67 183.08 193.48 183.28V180.06C191.08 179.7 188.73 179.27 186.61 178.83C182.65 178 179.41 175.31 177.79 171.71C178.21 174.18 179.28 176.55 181.01 178.36C182.91 180.35 185.47 181.6 188.11 182.33Z" fill="black"/>
<path d="M198.25 156.3H197.26H196.2C191.89 153.46 186.75 152.91 181.99 154.85V157.01L182.56 157.31C182.97 158.65 182.95 160.17 183.09 161.56C183.23 162.95 183.62 164.42 184.66 165.33C185.79 166.32 187.4 166.41 188.89 166.43C190.09 166.45 191.33 166.44 192.41 165.92C193.69 165.31 194.59 164.05 195.09 162.7C195.59 161.35 195.51 160.56 196.14 158.94C196.44 158.16 197.26 158.18 197.26 158.18C197.26 158.18 198.03 158.15 198.31 158.94C198.9 160.57 198.82 161.35 199.29 162.7C199.76 164.05 200.6 165.31 201.8 165.92C202.81 166.44 203.97 166.44 205.09 166.43C206.48 166.41 207.99 166.32 209.05 165.33C210.02 164.42 210.39 162.96 210.52 161.56C210.65 160.17 210.63 158.64 211.01 157.31L211.54 157.01V154.85C207.09 152.9 202.28 153.46 198.25 156.3ZM195.15 157.41L195.07 158.18C194.95 159.33 194.56 160.86 194.03 162.27C193.76 162.99 193.13 164.28 191.91 164.86C191.16 165.22 190.25 165.27 189.38 165.27H188.92C187.62 165.25 186.28 165.17 185.43 164.43C184.77 163.85 184.37 162.86 184.23 161.41C184.19 161.05 184.17 160.68 184.14 160.3C184.07 159.27 184.13 157 184.22 155.36C185.4 155.03 186.61 154.86 187.82 154.86C190.34 154.86 192.83 155.59 195.06 156.97C195.19 157.05 195.15 157.41 195.15 157.41ZM209.52 160.3C209.5 160.67 209.47 161.05 209.44 161.41C209.3 162.87 208.93 163.85 208.31 164.43C207.51 165.17 206.26 165.25 205.04 165.27H204.61C203.8 165.27 202.95 165.22 202.25 164.86C201.1 164.28 200.51 162.99 200.26 162.27C199.77 160.85 199.4 159.33 199.29 158.18L199.21 157.41C199.21 157.41 199.18 157.05 199.29 156.97C201.38 155.59 203.71 154.86 206.07 154.86C207.21 154.86 208.33 155.03 209.44 155.36C209.53 157 209.59 159.27 209.52 160.3Z" fill="#BA68C8"/>
<path d="M181.98 154.85L170.41 159.01C171.53 159.28 172.2 159.65 172.67 160.07C172.79 160.18 181.97 157.01 181.97 157.01V154.85H181.98Z" fill="#BA68C8"/>
<path d="M197.2 158.36L203.04 165.43L197.68 167.32L197.2 158.36Z" fill="#F28F8F"/>
<path d="M188.96 159.25C188.95 160.14 189.67 160.86 190.55 160.86C191.44 160.87 192.16 160.15 192.16 159.27C192.17 158.38 191.45 157.66 190.57 157.66C189.69 157.65 188.97 158.36 188.96 159.25Z" fill="#37474F"/>
<path d="M202.421 158.81C202.411 159.7 203.131 160.42 204.011 160.42C204.901 160.43 205.621 159.71 205.621 158.83C205.631 157.94 204.911 157.22 204.031 157.22C203.151 157.22 202.421 157.93 202.421 158.81Z" fill="#37474F"/>
<path d="M201.57 151.7C203 151.86 204.43 152.02 205.86 152.19C205.77 151.28 204.96 150.48 204.06 150.3C203.17 150.12 202 150.89 201.57 151.7Z" fill="#37474F"/>
<path d="M191.62 151.16C190.31 151.76 189 152.35 187.69 152.95C187.49 152.06 188.02 151.04 188.82 150.6C189.62 150.15 190.97 150.52 191.62 151.16Z" fill="#37474F"/>
<path d="M191.91 170.3C193.49 170.83 195.08 171.36 196.66 171.89C196.14 172.99 194.56 173.64 193.4 173.29C192.24 172.94 191.74 171.5 191.91 170.3Z" fill="#F28F8F"/>
<path opacity="0.3" d="M191.91 170.3C193.49 170.83 195.08 171.36 196.66 171.89C196.14 172.99 194.56 173.64 193.4 173.29C192.24 172.94 191.74 171.5 191.91 170.3Z" fill="black"/>
<path d="M194.97 173.24C194.45 173.4 193.89 173.44 193.4 173.3C192.49 173.02 191.99 172.08 191.9 171.1C192.53 171.02 193.2 171.14 193.74 171.48C194.37 171.87 194.81 172.52 194.97 173.24Z" fill="#F28F8F"/>
<path d="M206.79 192.79L202.74 194.65C201.9 195.03 201.55 196.03 201.97 196.85C202.29 197.49 203 197.85 203.71 197.72L213.68 195.93L210.64 192.06L206.79 192.79Z" fill="#F28F8F"/>
<path d="M215.72 196.36L228.32 226.04C230.16 230.37 235.1 232.47 239.49 230.78C245.02 228.66 246.88 221.77 243.18 217.16L222.59 191.5C221.88 190.61 221.05 189.83 220.12 189.17L213.84 184.74C212.07 183.49 210.03 182.69 207.89 182.41L204.83 180.16C203.99 179.54 202.89 179.4 201.92 179.77L197.21 181.58C197.83 182.93 199.32 183.65 200.76 183.29L202.64 182.83L204.84 184.45L201.98 188.42C201.2 189.51 201.42 191.02 202.48 191.84L207.88 195.99C208.37 196.37 209.02 196.49 209.62 196.31C210.57 196.02 211.15 195.05 210.95 194.07L210.94 194.04C212.98 196.38 215.72 196.36 215.72 196.36Z" fill="#FFA8A7"/>
<path d="M204.82 184.45C205.51 183.54 206.79 182.83 206.79 182.83L203 183.11L204.82 184.45Z" fill="#F28F8F"/>
<path d="M166.21 227.78L161.92 242.5L188.18 261.15L197.01 264.87C199.35 265.86 201.37 267.46 202.86 269.52L210.06 279.48C210.87 281.15 207.11 283.87 205.31 284.33C203.2 284.87 200.95 284.31 199.34 282.84L193.78 277.75L192.25 277.21C187.76 275.62 183.86 272.7 181.08 268.83L150.3 256.88C144.69 254.7 141.63 248.65 143.19 242.84L148.3 223.85L166.21 227.78Z" fill="#FFA8A7"/>
<path d="M166.24 229.84L173.53 208.05C173.53 208.05 173.78 188.11 165.31 188.72C156.84 189.33 152.55 194.24 146.04 223.81L145.9 224.45C151.92 228.26 159.12 230.17 166.24 229.84Z" fill="#455A64"/>
<path opacity="0.5" d="M166.24 229.84L173.53 208.05C173.53 208.05 173.78 188.11 165.31 188.72C156.84 189.33 152.55 194.24 146.04 223.81L145.9 224.45C151.92 228.26 159.12 230.17 166.24 229.84Z" fill="white"/>
<path d="M186.49 111.8C186.52 113.75 184.97 115.35 183.02 115.38C181.07 115.41 179.47 113.86 179.44 111.91C179.41 109.96 180.96 108.36 182.91 108.33C184.85 108.29 186.45 109.85 186.49 111.8Z" fill="#37474F"/>
<path d="M178.69 112.17C176.33 110.86 176.29 108.67 178.61 107.27C181.26 105.88 184.41 105.83 187.09 107.15C189.44 108.47 189.48 110.66 187.16 112.04C184.52 113.43 181.37 113.48 178.69 112.17Z" fill="#455A64"/>
<path d="M178.53 110.9C176.1 109.54 176.06 107.28 178.45 105.85C181.18 104.42 184.42 104.37 187.2 105.71C189.63 107.07 189.67 109.33 187.27 110.75C184.55 112.2 181.3 112.26 178.53 110.9Z" fill="#37474F"/>
<path d="M178.38 109.61C175.88 108.21 175.84 105.89 178.32 104.47C181.12 103 184.45 102.95 187.3 104.33C189.81 105.72 189.86 108.06 187.39 109.53C184.58 110.99 181.23 111.02 178.38 109.61Z" fill="#455A64"/>
<path d="M178.21 108.23C175.63 106.8 175.6 104.4 178.14 102.88C181.03 101.35 184.48 101.29 187.42 102.72C190 104.16 190.05 106.56 187.5 108.08C184.6 109.61 181.16 109.66 178.21 108.23Z" fill="#37474F"/>
<path d="M178.07 106.83C175.4 105.3 175.39 102.91 177.98 101.35C180.93 99.7899 184.46 99.7299 187.46 101.21C190.1 102.67 190.14 105.12 187.54 106.68C184.6 108.23 181.08 108.29 178.07 106.83Z" fill="#455A64"/>
<path d="M182.17 65.53C172.89 65.65 165.47 73.28 165.59 82.56C165.59 82.59 165.59 82.61 165.59 82.64C165.8 96 176.84 98.06 176.95 103.43C177.06 104.47 177.73 105.37 178.69 105.78C181.29 107.05 184.34 107 186.9 105.66C187.83 105.21 188.46 104.3 188.54 103.27C188.45 97.88 199.44 95.49 199.23 82.12C199.11 72.84 191.48 65.42 182.21 65.54C182.2 65.53 182.19 65.53 182.17 65.53Z" fill="#BA68C8"/>
<g opacity="0.6">
<path opacity="0.6" d="M182.17 65.53C172.89 65.65 165.47 73.28 165.59 82.56C165.59 82.59 165.59 82.61 165.59 82.64C165.8 96 176.84 98.06 176.95 103.43C177.06 104.47 177.73 105.37 178.69 105.78C181.29 107.05 184.34 107 186.9 105.66C187.83 105.21 188.46 104.3 188.54 103.27C188.45 97.88 199.44 95.49 199.23 82.12C199.11 72.84 191.48 65.42 182.21 65.54C182.2 65.53 182.19 65.53 182.17 65.53Z" fill="white"/>
</g>
<path d="M179.73 105.07C178.05 104.09 177.98 102.52 179.62 101.53C181.55 100.52 183.84 100.48 185.8 101.44C187.48 102.42 187.54 103.99 185.85 105.01C183.94 105.99 181.66 106.01 179.73 105.07Z" fill="#BA68C8"/>
<path d="M185.02 102.78C184.71 102.78 184.46 102.54 184.44 102.23C184.41 98.99 184.75 95.76 185.48 92.61C185.68 91.7 185.95 90.8 186.28 89.92C185.76 89.74 185.27 89.5 184.8 89.21C183.95 88.7 183.18 88.07 182.52 87.32C181.88 88.06 181.14 88.71 180.32 89.23C179.86 89.52 179.37 89.77 178.87 89.96C179.22 90.83 179.52 91.72 179.76 92.63C180.59 95.77 181.03 98.99 181.09 102.23C181.08 102.54 180.83 102.79 180.51 102.79C180.2 102.78 179.95 102.53 179.95 102.21C179.88 99.07 179.44 95.94 178.65 92.9C178.42 92 178.12 91.11 177.76 90.26C176.61 90.5 175.42 90.17 174.56 89.37C173.9 88.76 173.78 87.77 174.28 87.02C174.61 86.5 175.23 86.23 175.83 86.34C177.02 86.78 177.96 87.72 178.4 88.91C178.86 88.74 179.3 88.52 179.71 88.25C180.51 87.75 181.22 87.11 181.82 86.38C181.1 85.48 180.77 84.33 180.93 83.18C181.1 82.48 181.73 82 182.45 82.03C183.16 81.98 183.81 82.45 184 83.14C184.2 84.28 183.92 85.44 183.22 86.36C183.84 87.07 184.57 87.68 185.38 88.17C185.8 88.42 186.25 88.63 186.72 88.78C187.13 87.58 188.04 86.61 189.21 86.13C189.82 86.02 190.44 86.28 190.77 86.81C191.29 87.54 191.2 88.54 190.56 89.16C189.73 89.99 188.55 90.36 187.39 90.15C187.05 91.02 186.78 91.91 186.57 92.82C185.88 95.89 185.54 99.02 185.58 102.17C185.59 102.49 185.34 102.75 185.03 102.76L185.02 102.78ZM175.53 87.51C175.39 87.52 175.27 87.6 175.21 87.72C174.93 88.1 175.26 88.51 175.37 88.62C175.87 89.07 176.54 89.28 177.21 89.19C176.91 88.45 176.34 87.84 175.61 87.5L175.53 87.51ZM187.9 89.07C188.57 89.13 189.24 88.9 189.72 88.43C189.82 88.31 190.14 87.9 189.86 87.52C189.7 87.3 189.56 87.3 189.45 87.32C189.07 87.4 188.48 87.94 187.9 89.07ZM182.48 83.25C182.27 83.21 182.07 83.36 182.04 83.57C181.97 84.23 182.14 84.89 182.52 85.43C182.87 84.87 183.02 84.21 182.93 83.55C182.89 83.34 182.7 83.2 182.49 83.24L182.48 83.25Z" fill="white"/>
<path d="M182.18 59.1499C182.09 59.1799 181.99 59.1999 181.89 59.1999C181.28 59.2099 180.78 58.7299 180.77 58.1199L180.65 52.3899C180.63 51.7899 181.11 51.2799 181.71 51.2699C181.72 51.2699 181.72 51.2699 181.73 51.2699C182.34 51.2599 182.84 51.7399 182.85 52.3499L182.97 58.0799C182.98 58.5699 182.66 59.0099 182.18 59.1499Z" fill="#E0E0E0"/>
<path d="M170.02 62.6999C169.54 62.8399 169.03 62.6499 168.77 62.2199L165.79 57.3199C165.51 56.7799 165.72 56.1099 166.26 55.8299C166.75 55.5699 167.36 55.7199 167.68 56.1799L170.66 61.0699C170.97 61.5899 170.81 62.2699 170.29 62.5799C170.21 62.6399 170.12 62.6799 170.02 62.6999Z" fill="#E0E0E0"/>
<path d="M161.28 71.86C161 71.95 160.69 71.92 160.43 71.77L155.39 69.01C154.86 68.72 154.66 68.06 154.94 67.52C155.24 66.99 155.91 66.79 156.44 67.08L161.47 69.83C162 70.12 162.19 70.79 161.9 71.32C161.79 71.58 161.56 71.77 161.28 71.86Z" fill="#E0E0E0"/>
<path d="M158.27 84.16C158.19 84.21 158.1 84.25 158 84.27L152.27 84.39C151.67 84.41 151.17 83.95 151.15 83.35C151.15 83.34 151.15 83.33 151.15 83.32C151.13 82.72 151.6 82.21 152.2 82.19H152.21L157.94 82C158.55 82.01 159.04 82.51 159.03 83.12C159.02 83.59 158.72 84.01 158.27 84.15V84.16Z" fill="#E0E0E0"/>
<path d="M212.93 82.94C212.85 82.99 212.76 83.03 212.66 83.05L206.91 83.12C206.3 83.13 205.81 82.65 205.79 82.04C205.78 81.43 206.26 80.94 206.87 80.92L212.6 80.79C213.21 80.8 213.7 81.3 213.69 81.91C213.68 82.38 213.37 82.8 212.93 82.94Z" fill="#E0E0E0"/>
<path d="M203.65 70.9198C203.06 71.0798 202.45 70.7398 202.29 70.1498C202.16 69.6798 202.35 69.1798 202.77 68.9198L207.67 65.9498C208.18 65.6298 208.84 65.7898 209.16 66.2998C209.16 66.3098 209.17 66.3098 209.17 66.3198C209.49 66.8298 209.33 67.5098 208.82 67.8198C208.82 67.8198 208.81 67.8198 208.81 67.8298L203.91 70.8098C203.83 70.8498 203.74 70.8898 203.65 70.9198Z" fill="#E0E0E0"/>
<path d="M194.5 62.1598C193.92 62.3298 193.3 61.9998 193.13 61.4098C193.05 61.1298 193.08 60.8298 193.22 60.5698L196 55.5998C196.34 55.0898 197.03 54.9598 197.53 55.2998C197.97 55.5998 198.14 56.1698 197.92 56.6598L195.16 61.6898C195.01 61.9298 194.77 62.0898 194.5 62.1598Z" fill="#E0E0E0"/>
<path d="M288.83 220.5L288.81 212.52L283.45 209.43L283.47 217.23V217.4L288.83 220.5Z" fill="#E0E0E0"/>
<path d="M289.1 336.79L288.84 220.5L283.47 217.4L283.73 333.52C283.73 334.28 284 334.82 284.43 335.08L284.45 335.09C284.46 335.09 284.46 335.1 284.47 335.1L289.78 338.33C289.36 338.07 289.1 337.54 289.1 336.79Z" fill="#BA68C8"/>
<path opacity="0.2" d="M289.1 336.79L288.84 220.5L283.47 217.4L283.73 333.52C283.73 334.28 284 334.82 284.43 335.08L284.45 335.09C284.46 335.09 284.46 335.1 284.47 335.1L289.78 338.33C289.36 338.07 289.1 337.54 289.1 336.79Z" fill="white"/>
<path d="M291.57 338.2C291.41 338.29 291.25 338.37 291.09 338.42C291.24 338.37 291.4 338.3 291.57 338.2Z" fill="#455A64"/>
<path d="M290.75 338.5C290.72 338.51 290.68 338.52 290.65 338.52C290.68 338.52 290.72 338.51 290.75 338.5Z" fill="#455A64"/>
<path d="M289.9 338.42C289.89 338.41 289.88 338.41 289.87 338.4L289.9 338.42Z" fill="#455A64"/>
<path d="M288.83 212.5L288.82 207.9C288.82 206.33 289.91 204.43 291.28 203.64L430.62 123.19C431.29 122.8 431.9 122.76 432.34 123.01L427.03 119.76C426.58 119.48 425.95 119.5 425.25 119.91L285.9 200.36C284.54 201.15 283.44 203.05 283.44 204.62L283.45 209.22H283.46L283.44 209.23V209.41L288.81 212.5H288.83Z" fill="#BA68C8"/>
<path opacity="0.3" d="M288.83 212.5L288.82 207.9C288.82 206.33 289.91 204.43 291.28 203.64L430.62 123.19C431.29 122.8 431.9 122.76 432.34 123.01L427.03 119.76C426.58 119.48 425.95 119.5 425.25 119.91L285.9 200.36C284.54 201.15 283.44 203.05 283.44 204.62L283.45 209.22H283.46L283.44 209.23V209.41L288.81 212.5H288.83Z" fill="white"/>
<path opacity="0.2" d="M288.83 220.5L288.81 212.52L283.45 209.43L283.47 217.23V217.4L288.83 220.5Z" fill="black"/>
<path d="M430.61 123.19C431.97 122.41 433.08 123.04 433.08 124.6L433.09 129.2L288.82 212.5L288.81 207.9C288.81 206.33 289.9 204.43 291.27 203.64L430.61 123.19Z" fill="#BA68C8"/>
<path d="M421.27 130.8C422 130.38 422.59 130.72 422.59 131.55C422.59 132.39 422 133.41 421.27 133.83C420.54 134.25 419.95 133.91 419.95 133.08C419.95 132.24 420.54 131.22 421.27 130.8Z" fill="white"/>
<path d="M425.3 128.48C426.03 128.06 426.62 128.4 426.62 129.23C426.62 130.07 426.03 131.09 425.3 131.51C424.57 131.93 423.98 131.59 423.98 130.76C423.98 129.92 424.57 128.9 425.3 128.48Z" fill="white"/>
<path d="M429.32 126.15C430.05 125.73 430.64 126.07 430.64 126.9C430.64 127.74 430.05 128.76 429.32 129.18C428.59 129.6 428 129.26 428 128.43C428 127.6 428.59 126.58 429.32 126.15Z" fill="white"/>
<path d="M317.84 191.19C318.38 190.88 318.89 190.93 319.14 191.33L320.45 193.35C320.71 193.75 321.21 193.81 321.75 193.5L433.07 129.23L433.09 137.22L288.82 220.52L288.8 212.52L293.07 210.05C293.62 209.73 294.11 209.1 294.37 208.4L295.66 204.88C295.92 204.18 296.42 203.55 296.96 203.23L317.84 191.19Z" fill="#E0E0E0"/>
<path d="M433.11 137.21L433.37 253.5C433.37 255.06 432.27 256.97 430.91 257.76L291.57 338.2C290.21 338.99 289.1 338.35 289.1 336.79L288.84 220.5L433.11 137.21Z" fill="#BA68C8"/>
<g opacity="0.4">
<path opacity="0.4" d="M433.11 137.21L433.37 253.5C433.37 255.06 432.27 256.97 430.91 257.76L291.57 338.2C290.21 338.99 289.1 338.35 289.1 336.79L288.84 220.5L433.11 137.21Z" fill="white"/>
</g>
<path d="M427.4 134.13C428.37 133.57 429.15 134.02 429.16 135.13C429.16 136.24 428.38 137.6 427.42 138.16L305.29 208.67C304.32 209.23 303.53 208.78 303.53 207.67C303.53 206.56 304.31 205.2 305.28 204.65L427.4 134.13Z" fill="white"/>
<path d="M291.14 213.23C291.21 213.19 291.27 213.18 291.32 213.22C291.41 213.28 291.41 213.47 291.31 213.63L290.54 214.89L292.56 213.72C292.7 213.64 292.81 213.7 292.81 213.86C292.81 214.02 292.7 214.21 292.56 214.29L290.54 215.46L291.32 215.83C291.42 215.88 291.43 216.05 291.33 216.22C291.28 216.31 291.21 216.38 291.15 216.42C291.09 216.45 291.03 216.47 290.98 216.45L289.74 215.86L289.69 215.81L289.68 215.79L289.66 215.69L289.68 215.56L289.69 215.54L289.73 215.44L290.97 213.42C291.02 213.32 291.08 213.26 291.14 213.23Z" fill="#E0E0E0"/>
<path d="M295.51 210.7C295.57 210.67 295.63 210.66 295.68 210.68L296.92 211.27L296.97 211.32L296.98 211.33L297 211.43L296.98 211.55L296.97 211.58L296.93 211.68L295.69 213.71C295.64 213.79 295.58 213.84 295.52 213.88C295.45 213.92 295.39 213.92 295.34 213.89C295.25 213.83 295.25 213.65 295.35 213.48L296.12 212.22L294.1 213.39C293.97 213.47 293.86 213.4 293.85 213.25C293.85 213.1 293.96 212.91 294.09 212.83L296.11 211.66L295.34 211.29C295.24 211.24 295.23 211.07 295.33 210.89C295.38 210.81 295.45 210.74 295.51 210.7Z" fill="#E0E0E0"/>
<path d="M299.67 208.3C299.98 208.12 300.27 208.07 300.51 208.14L300.7 207.89C300.74 207.84 300.79 207.79 300.83 207.77C300.88 207.74 300.92 207.73 300.96 207.74C301.04 207.75 301.08 207.84 301.07 207.96L300.97 208.72C300.96 208.81 300.92 208.9 300.86 208.98C300.82 209.03 300.77 209.08 300.73 209.1L300.67 209.13L300.07 209.3C299.98 209.32 299.91 209.28 299.89 209.18C299.87 209.08 299.92 208.94 300 208.83L300.06 208.75C299.94 208.75 299.82 208.79 299.68 208.87C299.19 209.15 298.79 209.84 298.79 210.4C298.79 210.97 299.19 211.19 299.68 210.91C300 210.72 300.3 210.35 300.46 209.93C300.5 209.81 300.59 209.71 300.67 209.66C300.71 209.64 300.75 209.62 300.79 209.63C300.91 209.64 300.96 209.79 300.89 209.96C300.65 210.61 300.19 211.18 299.68 211.48C298.92 211.92 298.3 211.57 298.29 210.69C298.29 209.82 298.91 208.74 299.67 208.3Z" fill="#E0E0E0"/>
<g opacity="0.3">
<path opacity="0.3" d="M291.14 213.23C291.21 213.19 291.27 213.18 291.32 213.22C291.41 213.28 291.41 213.47 291.31 213.63L290.54 214.89L292.56 213.72C292.7 213.64 292.81 213.7 292.81 213.86C292.81 214.02 292.7 214.21 292.56 214.29L290.54 215.46L291.32 215.83C291.42 215.88 291.43 216.05 291.33 216.22C291.28 216.31 291.21 216.38 291.15 216.42C291.09 216.45 291.03 216.47 290.98 216.45L289.74 215.86L289.69 215.81L289.68 215.79L289.66 215.69L289.68 215.56L289.69 215.54L289.73 215.44L290.97 213.42C291.02 213.32 291.08 213.26 291.14 213.23Z" fill="black"/>
</g>
<g opacity="0.3">
<path opacity="0.3" d="M295.51 210.7C295.57 210.67 295.63 210.66 295.68 210.68L296.92 211.27L296.97 211.32L296.98 211.33L297 211.43L296.98 211.55L296.97 211.58L296.93 211.68L295.69 213.71C295.64 213.79 295.58 213.84 295.52 213.88C295.45 213.92 295.39 213.92 295.34 213.89C295.25 213.83 295.25 213.65 295.35 213.48L296.12 212.22L294.1 213.39C293.97 213.47 293.86 213.4 293.85 213.25C293.85 213.1 293.96 212.91 294.09 212.83L296.11 211.66L295.34 211.29C295.24 211.24 295.23 211.07 295.33 210.89C295.38 210.81 295.45 210.74 295.51 210.7Z" fill="black"/>
</g>
<g opacity="0.3">
<path opacity="0.3" d="M299.67 208.3C299.98 208.12 300.27 208.07 300.51 208.14L300.7 207.89C300.74 207.84 300.79 207.79 300.83 207.77C300.88 207.74 300.92 207.73 300.96 207.74C301.04 207.75 301.08 207.84 301.07 207.96L300.97 208.72C300.96 208.81 300.92 208.9 300.86 208.98C300.82 209.03 300.77 209.08 300.73 209.1L300.67 209.13L300.07 209.3C299.98 209.32 299.91 209.28 299.89 209.18C299.87 209.08 299.92 208.94 300 208.83L300.06 208.75C299.94 208.75 299.82 208.79 299.68 208.87C299.19 209.15 298.79 209.84 298.79 210.4C298.79 210.97 299.19 211.19 299.68 210.91C300 210.72 300.3 210.35 300.46 209.93C300.5 209.81 300.59 209.71 300.67 209.66C300.71 209.64 300.75 209.62 300.79 209.63C300.91 209.64 300.96 209.79 300.89 209.96C300.65 210.61 300.19 211.18 299.68 211.48C298.92 211.92 298.3 211.57 298.29 210.69C298.29 209.82 298.91 208.74 299.67 208.3Z" fill="black"/>
</g>
<path d="M373.28 201.53L373.51 280.35L297.4 324.29L297.18 245.47L373.28 201.53Z" fill="white"/>
<path d="M362.7 224.42L328.42 278.93L328.47 292.44L335.06 279.34L328.47 292.44L323.51 278.64L362.7 224.42Z" fill="#BA68C8"/>
<path opacity="0.3" d="M362.7 224.42L328.42 278.93L328.47 292.44L335.06 279.34L328.47 292.44L323.51 278.64L362.7 224.42Z" fill="black"/>
<path d="M328.419 278.93L335.059 279.34L328.469 292.44L328.419 278.93Z" fill="#BA68C8"/>
<path opacity="0.5" d="M328.419 278.93L335.059 279.34L328.469 292.44L328.419 278.93Z" fill="black"/>
<path d="M362.7 224.42L323.51 278.64L307.12 277.65L362.7 224.42Z" fill="#BA68C8"/>
<path d="M328.419 278.93L362.699 224.42L355.529 280.57L335.059 279.34L328.419 278.93Z" fill="#BA68C8"/>
<path opacity="0.3" d="M307.12 277.65L323.51 278.64L328.47 292.44L335.06 279.34L355.53 280.57L362.7 224.42L307.12 277.65Z" fill="white"/>
<path d="M426.52 144.42C427.91 143.62 429.04 144.26 429.04 145.86C429.04 147.46 427.92 149.4 426.53 150.2L317.16 213.39C315.77 214.19 314.64 213.55 314.63 211.95C314.63 210.35 315.75 208.41 317.14 207.61L426.52 144.42Z" fill="#BA68C8"/>
<g opacity="0.7">
<path opacity="0.7" d="M426.52 144.42C427.91 143.62 429.04 144.26 429.04 145.86C429.04 147.46 427.92 149.4 426.53 150.2L317.16 213.39C315.77 214.19 314.64 213.55 314.63 211.95C314.63 210.35 315.75 208.41 317.14 207.61L426.52 144.42Z" fill="white"/>
</g>
<path d="M309.25 212.02C310.64 211.22 311.77 211.86 311.77 213.46C311.77 215.06 310.65 217 309.26 217.8L299.53 223.56C298.14 224.36 297.01 223.72 297 222.12C297 220.52 298.12 218.58 299.51 217.78L309.25 212.02Z" fill="#BA68C8"/>
<path d="M318.24 217.74C319.63 216.94 320.76 217.58 320.76 219.18C320.76 220.78 319.64 222.72 318.25 223.52L299.29 234.59C297.9 235.39 296.77 234.75 296.76 233.15C296.76 231.55 297.88 229.61 299.27 228.81L318.24 217.74Z" fill="#BA68C8"/>
<path d="M345.49 201.88C346.88 201.08 348.01 201.72 348.01 203.32C348.01 204.92 346.89 206.86 345.5 207.66L326.54 218.72C325.15 219.52 324.02 218.88 324.01 217.28C324.01 215.68 325.13 213.74 326.52 212.94L345.49 201.88Z" fill="#BA68C8"/>
<path d="M372.74 186.02C374.13 185.22 375.26 185.86 375.26 187.46C375.26 189.06 374.14 191 372.75 191.8L353.79 202.87C352.4 203.67 351.27 203.03 351.26 201.43C351.26 199.83 352.38 197.89 353.77 197.09L372.74 186.02Z" fill="#BA68C8"/>
<path d="M399.99 170.16C401.38 169.36 402.51 170 402.51 171.6C402.51 173.2 401.39 175.14 400 175.94L381.04 187C379.65 187.8 378.52 187.16 378.51 185.56C378.51 183.96 379.63 182.02 381.02 181.22L399.99 170.16Z" fill="#BA68C8"/>
<path d="M427.24 154.3C428.63 153.5 429.76 154.14 429.76 155.74C429.76 157.34 428.64 159.28 427.25 160.08L408.29 171.14C406.9 171.94 405.77 171.3 405.76 169.7C405.76 168.1 406.88 166.16 408.27 165.36L427.24 154.3Z" fill="#BA68C8"/>
<g opacity="0.2">
<g opacity="0.2">
<path opacity="0.2" d="M318.24 217.74C319.63 216.94 320.76 217.58 320.76 219.18C320.76 220.78 319.64 222.72 318.25 223.52L299.29 234.59C297.9 235.39 296.77 234.75 296.76 233.15C296.76 231.55 297.88 229.61 299.27 228.81L318.24 217.74Z" fill="white"/>
</g>
<g opacity="0.2">
<path opacity="0.2" d="M345.49 201.88C346.88 201.08 348.01 201.72 348.01 203.32C348.01 204.92 346.89 206.86 345.5 207.66L326.54 218.72C325.15 219.52 324.02 218.88 324.01 217.28C324.01 215.68 325.13 213.74 326.52 212.94L345.49 201.88Z" fill="white"/>
</g>
<g opacity="0.2">
<path opacity="0.2" d="M372.74 186.02C374.13 185.22 375.26 185.86 375.26 187.46C375.26 189.06 374.14 191 372.75 191.8L353.79 202.87C352.4 203.67 351.27 203.03 351.26 201.43C351.26 199.83 352.38 197.89 353.77 197.09L372.74 186.02Z" fill="white"/>
</g>
<g opacity="0.2">
<path opacity="0.2" d="M399.99 170.16C401.38 169.36 402.51 170 402.51 171.6C402.51 173.2 401.39 175.14 400 175.94L381.04 187C379.65 187.8 378.52 187.16 378.51 185.56C378.51 183.96 379.63 182.02 381.02 181.22L399.99 170.16Z" fill="white"/>
</g>
<g opacity="0.2">
<path opacity="0.2" d="M427.24 154.3C428.63 153.5 429.76 154.14 429.76 155.74C429.76 157.34 428.64 159.28 427.25 160.08L408.29 171.14C406.9 171.94 405.77 171.3 405.76 169.7C405.76 168.1 406.88 166.16 408.27 165.36L427.24 154.3Z" fill="white"/>
</g>
</g>
<path d="M408.81 182.32L408.82 187.22L381.71 202.91L381.7 198.02L408.81 182.32Z" fill="#BA68C8"/>
<path d="M409.72 207.52L409.73 210.51L381.78 226.82L381.77 223.83L409.72 207.52Z" fill="#BA68C8"/>
<path d="M415.58 198.39V201.38L381.76 220.84V217.85L415.58 198.39Z" fill="#BA68C8"/>
<path d="M397.56 202.74L397.57 205.73L381.75 214.86L381.74 211.88L397.56 202.74Z" fill="#BA68C8"/>
<path d="M415.54 186.43L415.55 189.42L381.73 208.88L381.72 205.9L415.54 186.43Z" fill="#BA68C8"/>
<g opacity="0.1">
<g opacity="0.1">
<path opacity="0.1" d="M408.81 182.32L408.82 187.22L381.71 202.91L381.7 198.02L408.81 182.32Z" fill="white"/>
</g>
<g opacity="0.1">
<g opacity="0.1">
<path opacity="0.1" d="M409.72 207.52L409.73 210.51L381.78 226.82L381.77 223.83L409.72 207.52Z" fill="white"/>
</g>
<g opacity="0.1">
<path opacity="0.1" d="M415.58 198.39V201.38L381.76 220.84V217.85L415.58 198.39Z" fill="white"/>
</g>
<g opacity="0.1">
<path opacity="0.1" d="M397.56 202.74L397.57 205.73L381.75 214.86L381.74 211.88L397.56 202.74Z" fill="white"/>
</g>
</g>
<g opacity="0.1">
<path opacity="0.1" d="M415.54 186.43L415.55 189.42L381.73 208.88L381.72 205.9L415.54 186.43Z" fill="white"/>
</g>
</g>
<path d="M414.14 242.69L414.15 245.8L382.71 264.05L382.7 260.95L414.14 242.69Z" fill="#BA68C8"/>
<path d="M428.31 228.81V231.9L382.7 258.43L382.69 255.34L428.31 228.81Z" fill="#BA68C8"/>
<g opacity="0.1">
<g opacity="0.1">
<path opacity="0.1" d="M414.14 242.69L414.15 245.8L382.71 264.05L382.7 260.95L414.14 242.69Z" fill="white"/>
</g>
<g opacity="0.1">
<path opacity="0.1" d="M428.31 228.81V231.9L382.7 258.43L382.69 255.34L428.31 228.81Z" fill="white"/>
</g>
</g>
<path d="M120.03 41.9901C119.77 41.0701 117.92 39.3401 116.08 39.3801C116.01 39.3801 115.68 39.4101 115.56 39.4801L51.76 76.3401C51.15 76.6901 50.68 77.2101 50.38 77.8201C50.15 78.2801 50.02 78.7901 50.02 79.3201V132.08C50.02 134.05 52.3 135.94 54.43 135.03C54.44 135.03 54.44 135.02 54.44 135.02C54.49 135 54.53 134.99 54.58 134.96L118.38 98.0601C119.45 97.4501 120.11 96.3101 120.11 95.0801V42.3601C120.12 42.2201 120.08 42.1001 120.03 41.9901Z" fill="#BA68C8"/>
<path opacity="0.2" d="M50.0298 79.3201V132.08C50.0298 134.05 52.3098 135.94 54.4398 135.03C54.4498 135.03 54.4498 135.02 54.4498 135.02C53.9098 135.22 53.3098 134.83 53.3098 134.22V81.4601C53.3098 80.7701 53.5198 80.1201 53.8898 79.5701L50.3798 77.8201C50.1598 78.2801 50.0298 78.7901 50.0298 79.3201Z" fill="white"/>
<path opacity="0.4" d="M116.08 39.37C116.01 39.37 115.68 39.4 115.56 39.47L51.7599 76.34C51.1499 76.69 50.6799 77.21 50.3799 77.82L53.8899 79.57C54.1799 79.13 54.5699 78.75 55.0399 78.48L118.83 41.61C119.28 41.35 119.81 41.56 120.02 41.98C119.77 41.07 117.92 39.34 116.08 39.37Z" fill="white"/>
<path opacity="0.3" d="M120.03 41.9901C119.77 41.0701 117.92 39.3401 116.08 39.3801C116.01 39.3801 115.68 39.4101 115.56 39.4801L51.76 76.3401C51.15 76.6901 50.68 77.2101 50.38 77.8201C50.15 78.2801 50.02 78.7901 50.02 79.3201V132.08C50.02 134.05 52.3 135.94 54.43 135.03C54.44 135.03 54.44 135.02 54.44 135.02C54.49 135 54.53 134.99 54.58 134.96L118.38 98.0601C119.45 97.4501 120.11 96.3101 120.11 95.0801V42.3601C120.12 42.2201 120.08 42.1001 120.03 41.9901Z" fill="white"/>
<g opacity="0.6">
<path opacity="0.6" d="M77.6802 79.3601L99.4102 81.2301L77.7602 108.14L77.6802 79.3601Z" fill="white"/>
</g>
<path d="M80.0697 191.85C80.2597 191.74 80.4097 191.66 80.5697 191.58C80.7297 191.49 80.8997 191.41 81.0597 191.33L81.0797 198.9C73.8297 203.04 66.5697 207.18 59.3197 211.32C51.1297 215.99 42.9397 220.67 34.7397 225.34L34.7197 218.97C34.7597 218.93 34.7997 218.89 34.8497 218.84C35.0197 218.68 35.1797 218.51 35.3497 218.36C36.4697 217.32 37.6497 216.46 38.8397 215.76C38.8897 215.73 38.9297 215.71 38.9797 215.68C39.0497 215.64 39.1197 215.6 39.1897 215.56C40.0097 215.1 40.8297 214.72 41.6397 214.4C41.8697 214.31 42.0997 214.23 42.3297 214.15C45.3997 213.1 48.2797 212.95 51.1997 212.57C51.4897 212.53 51.7797 212.49 52.0597 212.45C54.4097 212.1 56.8297 211.51 59.3097 210.19C59.4997 210.09 59.6797 209.99 59.8697 209.88C60.0197 209.79 60.1797 209.7 60.3297 209.61C64.4897 207.04 68.3197 202.52 72.1797 198.5C72.3697 198.3 72.5697 198.1 72.7697 197.89C72.8597 197.79 72.9597 197.7 73.0497 197.6C73.2297 197.42 73.4097 197.24 73.5797 197.07C73.6697 196.98 73.7597 196.9 73.8497 196.81C75.7897 194.93 77.8197 193.2 79.8097 192C79.8997 191.94 79.9797 191.9 80.0697 191.85Z" fill="#BA68C8"/>
<path opacity="0.4" d="M80.0697 191.85C80.2597 191.74 80.4097 191.66 80.5697 191.58C80.7297 191.49 80.8997 191.41 81.0597 191.33L81.0797 198.9C73.8297 203.04 66.5697 207.18 59.3197 211.32C51.1297 215.99 42.9397 220.67 34.7397 225.34L34.7197 218.97C34.7597 218.93 34.7997 218.89 34.8497 218.84C35.0197 218.68 35.1797 218.51 35.3497 218.36C36.4697 217.32 37.6497 216.46 38.8397 215.76C38.8897 215.73 38.9297 215.71 38.9797 215.68C39.0497 215.64 39.1197 215.6 39.1897 215.56C40.0097 215.1 40.8297 214.72 41.6397 214.4C41.8697 214.31 42.0997 214.23 42.3297 214.15C45.3997 213.1 48.2797 212.95 51.1997 212.57C51.4897 212.53 51.7797 212.49 52.0597 212.45C54.4097 212.1 56.8297 211.51 59.3097 210.19C59.4997 210.09 59.6797 209.99 59.8697 209.88C60.0197 209.79 60.1797 209.7 60.3297 209.61C64.4897 207.04 68.3197 202.52 72.1797 198.5C72.3697 198.3 72.5697 198.1 72.7697 197.89C72.8597 197.79 72.9597 197.7 73.0497 197.6C73.2297 197.42 73.4097 197.24 73.5797 197.07C73.6697 196.98 73.7597 196.9 73.8497 196.81C75.7897 194.93 77.8197 193.2 79.8097 192C79.8997 191.94 79.9797 191.9 80.0697 191.85Z" fill="black"/>
<path d="M54.2402 189.8C56.9302 188.25 59.1202 189.49 59.1302 192.59C59.1402 195.68 56.9602 199.45 54.2702 201.01C51.5702 202.57 49.3802 201.32 49.3702 198.23C49.3602 195.13 51.5402 191.36 54.2402 189.8Z" fill="white"/>
<path d="M59.3101 210.18C56.8401 211.5 54.4101 212.08 52.0601 212.44C54.4101 212.08 56.8401 211.5 59.3101 210.18Z" fill="#5D3464"/>
<path d="M39.41 206.09C39.78 205.88 40.15 205.7 40.52 205.58C41.69 205.2 42.73 205.38 43.74 205.55C45.82 205.91 47.9 206.27 49.98 206.63C50.99 206.81 52.16 206.52 53.32 205.85C54.43 205.21 55.54 204.22 56.53 202.95C57.71 201.44 58.89 200.01 60.15 199.28C60.2 199.25 60.24 199.23 60.29 199.2C61.4 198.61 62.36 198.68 63.29 198.87C64.3 199.08 65.47 198.8 66.65 198.12C67.86 197.42 69.08 196.3 70.12 194.88C71.31 193.26 72.5 191.63 73.6 190.04C74.49 188.76 75.42 187.43 76.52 186.55C76.77 186.35 77.03 186.18 77.27 186.03C78.57 185.28 79.81 185.27 81.05 185.3L81.07 191.31C80.91 191.39 80.74 191.47 80.58 191.56C80.43 191.64 80.27 191.73 80.12 191.82C80.01 191.89 79.92 191.93 79.84 191.98C77.85 193.17 75.81 194.9 73.88 196.79C73.79 196.88 73.7 196.96 73.61 197.05C73.43 197.23 73.25 197.4 73.08 197.58C72.99 197.67 72.89 197.77 72.8 197.87C72.6 198.07 72.41 198.27 72.21 198.48C68.35 202.5 64.52 207.02 60.36 209.59C60.21 209.68 60.05 209.77 59.9 209.86C59.71 209.97 59.53 210.07 59.34 210.17C56.87 211.49 54.44 212.07 52.09 212.43C51.8 212.47 51.51 212.51 51.23 212.55C48.31 212.94 45.43 213.09 42.36 214.13C42.13 214.21 41.9 214.29 41.67 214.38C40.86 214.69 40.04 215.08 39.22 215.54C39.15 215.58 39.08 215.62 39.01 215.66C38.96 215.69 38.92 215.71 38.87 215.74C37.68 216.44 36.5 217.3 35.38 218.34C35.21 218.5 35.04 218.66 34.88 218.82C34.84 218.86 34.8 218.9 34.75 218.95L34.73 210.83C35.15 210.24 35.58 209.67 36.03 209.13C37.04 207.89 38.23 206.77 39.41 206.09Z" fill="#BA68C8"/>
<g opacity="0.2">
<path opacity="0.2" d="M39.41 206.09C39.78 205.88 40.15 205.7 40.52 205.58C41.69 205.2 42.73 205.38 43.74 205.55C45.82 205.91 47.9 206.27 49.98 206.63C50.99 206.81 52.16 206.52 53.32 205.85C54.43 205.21 55.54 204.22 56.53 202.95C57.71 201.44 58.89 200.01 60.15 199.28C60.2 199.25 60.24 199.23 60.29 199.2C61.4 198.61 62.36 198.68 63.29 198.87C64.3 199.08 65.47 198.8 66.65 198.12C67.86 197.42 69.08 196.3 70.12 194.88C71.31 193.26 72.5 191.63 73.6 190.04C74.49 188.76 75.42 187.43 76.52 186.55C76.77 186.35 77.03 186.18 77.27 186.03C78.57 185.28 79.81 185.27 81.05 185.3L81.07 191.31C80.91 191.39 80.74 191.47 80.58 191.56C80.43 191.64 80.27 191.73 80.12 191.82C80.01 191.89 79.92 191.93 79.84 191.98C77.85 193.17 75.81 194.9 73.88 196.79C73.79 196.88 73.7 196.96 73.61 197.05C73.43 197.23 73.25 197.4 73.08 197.58C72.99 197.67 72.89 197.77 72.8 197.87C72.6 198.07 72.41 198.27 72.21 198.48C68.35 202.5 64.52 207.02 60.36 209.59C60.21 209.68 60.05 209.77 59.9 209.86C59.71 209.97 59.53 210.07 59.34 210.17C56.87 211.49 54.44 212.07 52.09 212.43C51.8 212.47 51.51 212.51 51.23 212.55C48.31 212.94 45.43 213.09 42.36 214.13C42.13 214.21 41.9 214.29 41.67 214.38C40.86 214.69 40.04 215.08 39.22 215.54C39.15 215.58 39.08 215.62 39.01 215.66C38.96 215.69 38.92 215.71 38.87 215.74C37.68 216.44 36.5 217.3 35.38 218.34C35.21 218.5 35.04 218.66 34.88 218.82C34.84 218.86 34.8 218.9 34.75 218.95L34.73 210.83C35.15 210.24 35.58 209.67 36.03 209.13C37.04 207.89 38.23 206.77 39.41 206.09Z" fill="black"/>
</g>
<path d="M30.6699 195.02L84.9499 163.68L85.0699 207.01L30.7999 238.35L30.6699 195.02ZM81.0399 185.31L80.9999 170.54L34.6599 197.3L34.7599 231.5L81.0999 204.75L81.0799 198.9L81.0599 191.33L81.0399 185.31Z" fill="#BA68C8"/>
<g opacity="0.6">
<path opacity="0.6" d="M30.6699 195.02L84.9499 163.68L85.0699 207.01L30.7999 238.35L30.6699 195.02ZM81.0399 185.31L80.9999 170.54L34.6599 197.3L34.7599 231.5L81.0999 204.75L81.0799 198.9L81.0599 191.33L81.0399 185.31Z" fill="white"/>
</g>
<path d="M34.7397 225.33C42.9297 220.66 51.1197 215.98 59.3197 211.31C66.5697 207.17 73.8297 203.03 81.0797 198.89L81.0997 204.74L34.7597 231.49L34.7397 225.33Z" fill="#455A64"/>
<path d="M34.6602 197.3L81.0002 170.55L81.0402 185.32C79.8002 185.29 78.5602 185.3 77.2602 186.05C77.0102 186.19 76.7602 186.36 76.5102 186.57C75.4202 187.45 74.4902 188.77 73.5902 190.06C72.4902 191.64 71.3002 193.27 70.1102 194.9C69.0702 196.32 67.8602 197.44 66.6402 198.14C65.4702 198.82 64.2902 199.1 63.2802 198.89C62.3502 198.7 61.3902 198.63 60.2802 199.22C60.2302 199.24 60.1902 199.27 60.1402 199.3C58.8802 200.03 57.7002 201.46 56.5202 202.97C55.5402 204.24 54.4202 205.23 53.3102 205.87C52.1502 206.54 50.9902 206.83 49.9702 206.65C47.8902 206.29 45.8102 205.93 43.7302 205.57C42.7202 205.4 41.6902 205.22 40.5102 205.6C40.1402 205.72 39.7702 205.89 39.4002 206.11C38.2202 206.79 37.0302 207.91 35.9902 209.16C35.5402 209.7 35.1102 210.27 34.6902 210.86L34.6602 197.3ZM54.2702 201.01C56.9602 199.46 59.1402 195.69 59.1302 192.59C59.1202 189.49 56.9302 188.24 54.2402 189.8C51.5402 191.36 49.3702 195.13 49.3802 198.22C49.3802 201.32 51.5702 202.57 54.2702 201.01Z" fill="#BA68C8"/>
<path d="M41.6399 214.39C40.8299 214.7 40.0099 215.09 39.1899 215.55C40.0099 215.09 40.8299 214.7 41.6399 214.39Z" fill="#5D3464"/>
<path d="M305.87 112.6L366.07 77.8401L366.25 139.69L306.05 174.45L305.87 112.6ZM360.55 136.46L360.41 87.6501L311.56 115.85L311.7 164.66L360.55 136.46Z" fill="#BA68C8"/>
<path opacity="0.6" d="M305.87 112.6L366.07 77.8401L366.25 139.69L306.05 174.45L305.87 112.6ZM360.55 136.46L360.41 87.6501L311.56 115.85L311.7 164.66L360.55 136.46Z" fill="white"/>
<path d="M336.4 106.96L350.57 108.18L335.81 126.58L321.65 125.37L336.4 106.96Z" fill="#FAFAFA"/>
<path d="M350.57 108.18L350.58 126.87L335.82 145.28L335.81 126.58L350.57 108.18Z" fill="#EBEBEB"/>
<path d="M321.65 125.37L335.81 126.58L335.82 145.28L321.65 144.07V125.37Z" fill="#E0E0E0"/>
<path d="M311.57 115.85L360.42 87.6501L360.56 136.46L311.71 164.66L311.57 115.85ZM350.58 126.87L350.57 108.17L336.41 106.96L321.66 125.37V144.07L335.82 145.28L350.58 126.87Z" fill="#BA68C8"/>
<g opacity="0.2">
<path opacity="0.2" d="M311.57 115.85L360.42 87.6501L360.56 136.46L311.71 164.66L311.57 115.85ZM350.58 126.87L350.57 108.17L336.41 106.96L321.66 125.37V144.07L335.82 145.28L350.58 126.87Z" fill="white"/>
</g>
<path d="M361.65 53.5999L389.3 37.6399L389.42 79.3599L361.77 95.3199L361.65 53.5999ZM379.46 71.6499L379.48 71.4899C379.66 69.9899 380.24 68.3599 381.14 66.8799C382.79 64.1799 383.82 61.0799 383.81 58.2999C383.8 53.0499 380.08 50.9199 375.51 53.5399C370.93 56.1899 367.19 62.6399 367.21 67.8799C367.22 70.6399 368.25 72.5399 369.89 73.3399C370.79 73.7799 371.41 74.6999 371.6 75.9899L371.63 76.1699C371.71 76.7499 371.95 77.2199 372.3 77.5199V78.6599L372.77 78.3899V78.7799L372.3 79.0499V80.1899L372.77 79.9199V80.3099L372.3 80.5799V81.7199L372.77 81.4499V82.1699L372.81 82.4299C372.95 83.5099 373.82 83.8799 374.84 83.2899L374.74 83.3499L374.75 83.4299C374.79 83.7399 375.05 83.8599 375.35 83.6799L375.77 83.4399C376.07 83.2699 376.32 82.8599 376.36 82.4999L376.37 82.4099L376.27 82.4699C377.29 81.8799 378.15 80.5199 378.28 79.2799L378.32 78.9799V78.2599L378.79 77.9899V76.8499L378.32 77.1199V76.7299L378.79 76.4599V75.3199L378.32 75.5899V75.1999L378.79 74.9299V73.7899C379.16 73.0599 379.38 72.3299 379.46 71.6499ZM380.1 50.8199C380.04 50.9699 380.08 51.1099 380.18 51.1199L380.29 51.0899C380.37 51.0399 380.44 50.9499 380.48 50.8499L382.22 46.3599C382.28 46.1999 382.24 46.0699 382.14 46.0599C382.1 46.0599 382.07 46.0699 382.03 46.0899C381.95 46.1299 381.88 46.2199 381.84 46.3299L380.1 50.8199ZM368.82 53.7499C368.72 53.8799 368.68 54.0599 368.74 54.1399L370.5 56.6099C370.54 56.6699 370.62 56.6699 370.7 56.6299L370.81 56.5299C370.92 56.3999 370.95 56.2199 370.89 56.1299L369.13 53.6599C369.09 53.5999 369.01 53.5999 368.94 53.6499C368.9 53.6799 368.86 53.7099 368.82 53.7499ZM382.23 72.5799C382.33 72.4499 382.37 72.2699 382.31 72.1799L380.55 69.7099C380.51 69.6499 380.43 69.6499 380.35 69.6899C380.31 69.7099 380.27 69.7499 380.24 69.7899C380.13 69.9199 380.1 70.0999 380.16 70.1899L381.92 72.6599C381.96 72.7199 382.04 72.7199 382.12 72.6799L382.23 72.5799ZM370.94 75.5199C371 75.3599 370.96 75.2199 370.86 75.2099C370.82 75.2099 370.79 75.2199 370.75 75.2399C370.67 75.2899 370.6 75.3799 370.55 75.4799L368.81 79.9599C368.75 80.1199 368.79 80.2599 368.89 80.2699L369 80.2399C369.08 80.1899 369.15 80.0999 369.19 79.9999L370.94 75.5199ZM367.33 73.6499C367.44 73.5199 367.47 73.3399 367.41 73.2499C367.37 73.1899 367.29 73.1899 367.22 73.2299C367.18 73.2499 367.14 73.2899 367.1 73.3299L364.08 77.0799C363.98 77.2099 363.94 77.3899 364 77.4799C364.04 77.5399 364.12 77.5399 364.19 77.4999L364.3 77.3999L367.33 73.6499ZM387.09 64.1599C387.15 63.9999 387.12 63.8599 387.01 63.8499L383.98 63.5899C383.94 63.5899 383.9 63.5999 383.86 63.6199C383.78 63.6599 383.71 63.7499 383.67 63.8599C383.61 64.0199 383.65 64.1599 383.75 64.1699L386.78 64.4299L386.89 64.3999C386.97 64.3599 387.04 64.2699 387.09 64.1599ZM383.72 52.6799C383.61 52.8099 383.58 52.9899 383.64 53.0799C383.68 53.1399 383.76 53.1399 383.84 53.0999L383.95 52.9999L386.97 49.2399C387.08 49.1099 387.11 48.9299 387.05 48.8499C387.01 48.7899 386.93 48.7899 386.86 48.8299C386.82 48.8499 386.78 48.8799 386.75 48.9299L383.72 52.6799ZM363.96 62.1699C363.9 62.3299 363.94 62.4599 364.04 62.4699L367.07 62.7299L367.18 62.6999C367.26 62.6499 367.33 62.5599 367.37 62.4599C367.43 62.2999 367.39 62.1599 367.29 62.1499L364.26 61.8899C364.23 61.8899 364.19 61.8999 364.15 61.9199C364.08 61.9699 364 62.0699 363.96 62.1699ZM375.26 48.2399L375.27 52.2599C375.27 52.3999 375.37 52.4599 375.5 52.3899C375.62 52.3199 375.72 52.1499 375.72 51.9999L375.71 47.9799C375.71 47.8399 375.61 47.7799 375.48 47.8499C375.36 47.9199 375.26 48.0999 375.26 48.2399ZM388.63 55.8599C388.75 55.7899 388.85 55.6199 388.85 55.4699C388.85 55.3299 388.75 55.2699 388.62 55.3399L385.13 57.3599C385.01 57.4299 384.91 57.5999 384.91 57.7499C384.91 57.8999 385.01 57.9499 385.14 57.8799L388.63 55.8599ZM362.2 70.8599C362.2 70.9999 362.3 71.0599 362.43 70.9899L365.92 68.9699C366.04 68.8999 366.14 68.7299 366.14 68.5799C366.14 68.4399 366.04 68.3799 365.91 68.4499L362.42 70.4699C362.3 70.5399 362.2 70.7199 362.2 70.8599Z" fill="#BA68C8"/>
<path d="M376.4 82.3701L376.39 82.4601C376.35 82.8201 376.1 83.2301 375.8 83.4001L375.38 83.6401C375.08 83.8101 374.83 83.7001 374.78 83.3901L374.77 83.3101L374.87 83.2501L376.31 82.4201L376.4 82.3701Z" fill="#37474F"/>
<path d="M378.35 78.9399L378.31 79.2399C378.18 80.4799 377.31 81.8399 376.3 82.4299L374.86 83.2599C373.84 83.8499 372.98 83.4799 372.83 82.3999L372.79 82.1399L378.35 78.9399Z" fill="#455A64"/>
<path d="M372.79 80.2899V79.8999L378.34 76.6899V77.0799L372.79 80.2899Z" fill="#37474F"/>
<path d="M378.81 75.28L378.82 76.42L378.34 76.69L372.79 79.9L372.32 80.17L372.31 79.04L372.79 78.76L378.34 75.56L378.81 75.28Z" fill="#455A64"/>
<path d="M378.21 62.1201C378.68 61.8501 379.05 62.0701 379.06 62.6001L379.07 66.7401C379.07 67.2001 378.91 67.7301 378.63 68.2301L377.95 69.4001C377.73 69.7801 377.61 70.1901 377.61 70.5501L377.62 74.4501L377.28 74.6401L377.27 70.7401C377.27 70.2801 377.43 69.7501 377.71 69.2601L378.39 68.0801C378.61 67.7001 378.73 67.2901 378.73 66.9301L378.72 62.8001C378.72 62.4801 378.49 62.3501 378.21 62.5101C377.93 62.6701 377.71 63.0601 377.71 63.3801L377.72 67.1501C377.72 67.6801 377.34 68.3401 376.88 68.6001C376.41 68.8701 376.04 68.6501 376.03 68.1201L376.02 64.3501C376.02 64.0301 375.79 63.9001 375.52 64.0601C375.24 64.2201 375.02 64.6101 375.02 64.9301L375.03 68.7001C375.03 69.2301 374.65 69.8901 374.19 70.1601C373.73 70.4301 373.35 70.2101 373.35 69.6801L373.34 65.9101C373.34 65.5901 373.11 65.4601 372.84 65.6201C372.56 65.7801 372.33 66.1801 372.33 66.4901L372.34 70.6301C372.34 70.9901 372.47 71.2601 372.69 71.3901L373.37 71.7801C373.65 71.9401 373.81 72.2901 373.81 72.7501L373.82 76.6501L373.48 76.8401L373.47 72.9401C373.47 72.5801 373.35 72.3101 373.12 72.1801L372.44 71.7901C372.15 71.6301 372 71.2801 372 70.8101V66.6701C372 66.1401 372.37 65.4901 372.84 65.2201C373.3 64.9501 373.68 65.1701 373.68 65.7001L373.69 69.4701C373.69 69.7901 373.92 69.9201 374.19 69.7601C374.47 69.6001 374.7 69.2001 374.7 68.8801L374.69 65.1101C374.69 64.5801 375.06 63.9301 375.53 63.6601C376 63.3901 376.37 63.6101 376.37 64.1401L376.38 67.9101C376.38 68.2301 376.61 68.3601 376.89 68.2001C377.17 68.0401 377.39 67.6501 377.39 67.3301L377.38 63.5601C377.38 63.0401 377.75 62.3801 378.21 62.1201Z" fill="white"/>
<path d="M392.98 31.26L357.94 51.49L358.08 101.7L393.12 81.47L392.98 31.26ZM361.77 95.33L361.65 53.61L389.3 37.65L389.42 79.37L361.77 95.33Z" fill="#BA68C8"/>
<g opacity="0.6">
<path opacity="0.6" d="M392.98 31.26L357.94 51.49L358.08 101.7L393.12 81.47L392.98 31.26ZM361.77 95.33L361.65 53.61L389.3 37.65L389.42 79.37L361.77 95.33Z" fill="white"/>
</g>
<path d="M372.8 82.14V81.42L378.35 78.22V78.94L372.8 82.14Z" fill="#37474F"/>
<path d="M378.82 76.8101V77.9401L378.35 78.2201L372.8 81.4201L372.32 81.7001V80.5601L372.79 80.2901L378.34 77.0801L378.82 76.8101Z" fill="#455A64"/>
<path d="M372.79 78.3799L378.34 75.1699V75.5599L372.79 78.7599V78.3799Z" fill="#37474F"/>
<path d="M375.5 53.55C380.09 50.92 383.8 53.05 383.82 58.3C383.83 61.08 382.8 64.19 381.15 66.88C380.25 68.36 379.67 69.99 379.49 71.49L379.47 71.65C379.39 72.33 379.16 73.06 378.81 73.76L377.63 74.44L377.62 70.54C377.62 70.18 377.74 69.77 377.96 69.39L378.64 68.22C378.93 67.72 379.08 67.19 379.08 66.73L379.07 62.59C379.07 62.06 378.69 61.84 378.22 62.11C377.76 62.38 377.38 63.03 377.38 63.56L377.39 67.33C377.39 67.65 377.17 68.04 376.89 68.2C376.61 68.36 376.38 68.23 376.38 67.91L376.37 64.14C376.37 63.61 375.99 63.39 375.53 63.66C375.06 63.93 374.69 64.58 374.69 65.11L374.7 68.88C374.7 69.2 374.47 69.59 374.19 69.76C373.91 69.92 373.69 69.79 373.69 69.47L373.68 65.7C373.68 65.17 373.3 64.95 372.84 65.22C372.37 65.49 372 66.14 372 66.67L372.01 70.8C372.01 71.26 372.17 71.61 372.45 71.78L373.13 72.17C373.36 72.29 373.48 72.56 373.48 72.93L373.49 76.83L372.31 77.51C371.96 77.21 371.73 76.75 371.64 76.16L371.61 75.98C371.42 74.69 370.8 73.77 369.9 73.33C368.26 72.53 367.23 70.64 367.22 67.87C367.21 62.64 370.94 56.18 375.5 53.55Z" fill="#BA68C8"/>
<path d="M377.71 69.2601C377.43 69.7501 377.27 70.2801 377.27 70.7401L377.28 74.6401L373.82 76.6401L373.81 72.7401C373.81 72.2801 373.65 71.9301 373.37 71.7701L372.69 71.3801C372.47 71.2501 372.34 70.9901 372.34 70.6201L372.33 66.4801C372.33 66.1601 372.56 65.7701 372.84 65.6101C373.12 65.4501 373.34 65.5801 373.34 65.9001L373.35 69.6701C373.35 70.2001 373.73 70.4201 374.19 70.1501C374.66 69.8801 375.03 69.2301 375.03 68.6901L375.02 64.9201C375.02 64.6001 375.24 64.2101 375.52 64.0501C375.8 63.8901 376.02 64.0201 376.02 64.3401L376.03 68.1101C376.03 68.6401 376.41 68.8601 376.88 68.5901C377.34 68.3201 377.72 67.6701 377.72 67.1401L377.71 63.3701C377.71 63.0501 377.93 62.6601 378.21 62.5001C378.49 62.3401 378.72 62.4701 378.72 62.7901L378.73 66.9201C378.73 67.2801 378.61 67.6901 378.39 68.0701L377.71 69.2601Z" fill="#BA68C8"/>
<g opacity="0.4">
<g opacity="0.4">
<path opacity="0.4" d="M375.5 53.55C380.09 50.92 383.8 53.05 383.82 58.3C383.83 61.08 382.8 64.19 381.15 66.88C380.25 68.36 379.67 69.99 379.49 71.49L379.47 71.65C379.39 72.33 379.16 73.06 378.81 73.76L377.63 74.44L377.62 70.54C377.62 70.18 377.74 69.77 377.96 69.39L378.64 68.22C378.93 67.72 379.08 67.19 379.08 66.73L379.07 62.59C379.07 62.06 378.69 61.84 378.22 62.11C377.76 62.38 377.38 63.03 377.38 63.56L377.39 67.33C377.39 67.65 377.17 68.04 376.89 68.2C376.61 68.36 376.38 68.23 376.38 67.91L376.37 64.14C376.37 63.61 375.99 63.39 375.53 63.66C375.06 63.93 374.69 64.58 374.69 65.11L374.7 68.88C374.7 69.2 374.47 69.59 374.19 69.76C373.91 69.92 373.69 69.79 373.69 69.47L373.68 65.7C373.68 65.17 373.3 64.95 372.84 65.22C372.37 65.49 372 66.14 372 66.67L372.01 70.8C372.01 71.26 372.17 71.61 372.45 71.78L373.13 72.17C373.36 72.29 373.48 72.56 373.48 72.93L373.49 76.83L372.31 77.51C371.96 77.21 371.73 76.75 371.64 76.16L371.61 75.98C371.42 74.69 370.8 73.77 369.9 73.33C368.26 72.53 367.23 70.64 367.22 67.87C367.21 62.64 370.94 56.18 375.5 53.55Z" fill="white"/>
</g>
<g opacity="0.4">
<path opacity="0.4" d="M377.71 69.2601C377.43 69.7501 377.27 70.2801 377.27 70.7401L377.28 74.6401L373.82 76.6401L373.81 72.7401C373.81 72.2801 373.65 71.9301 373.37 71.7701L372.69 71.3801C372.47 71.2501 372.34 70.9901 372.34 70.6201L372.33 66.4801C372.33 66.1601 372.56 65.7701 372.84 65.6101C373.12 65.4501 373.34 65.5801 373.34 65.9001L373.35 69.6701C373.35 70.2001 373.73 70.4201 374.19 70.1501C374.66 69.8801 375.03 69.2301 375.03 68.6901L375.02 64.9201C375.02 64.6001 375.24 64.2101 375.52 64.0501C375.8 63.8901 376.02 64.0201 376.02 64.3401L376.03 68.1101C376.03 68.6401 376.41 68.8601 376.88 68.5901C377.34 68.3201 377.72 67.6701 377.72 67.1401L377.71 63.3701C377.71 63.0501 377.93 62.6601 378.21 62.5001C378.49 62.3401 378.72 62.4701 378.72 62.7901L378.73 66.9201C378.73 67.2801 378.61 67.6901 378.39 68.0701L377.71 69.2601Z" fill="white"/>
</g>
</g>
<path d="M378.81 73.76V74.9L378.34 75.17L372.79 78.38L372.31 78.65V77.51L378.81 73.76Z" fill="#455A64"/>
<path d="M364.16 61.9301C364.2 61.9101 364.24 61.9001 364.27 61.9001L367.3 62.1601C367.41 62.1701 367.45 62.3101 367.38 62.4701C367.34 62.5801 367.26 62.6701 367.19 62.7101L367.08 62.7401L364.05 62.4801C363.95 62.4701 363.91 62.3301 363.97 62.1801C364 62.0701 364.08 61.9701 364.16 61.9301Z" fill="white"/>
<path d="M380.35 69.7C380.43 69.65 380.5 69.66 380.55 69.72L382.31 72.19C382.37 72.28 382.34 72.46 382.23 72.59L382.12 72.69C382.04 72.74 381.97 72.73 381.92 72.67L380.16 70.2C380.1 70.11 380.13 69.93 380.24 69.8C380.28 69.75 380.32 69.72 380.35 69.7Z" fill="white"/>
<path d="M388.63 55.34C388.75 55.27 388.85 55.32 388.86 55.47C388.86 55.61 388.76 55.79 388.64 55.86L385.15 57.88C385.03 57.95 384.93 57.89 384.92 57.75C384.92 57.61 385.02 57.43 385.14 57.36L388.63 55.34Z" fill="white"/>
<path d="M386.85 48.8301C386.93 48.7901 387 48.7901 387.04 48.8501C387.1 48.9301 387.07 49.1101 386.96 49.2401L383.94 53.0001L383.83 53.1001C383.75 53.1501 383.68 53.1401 383.63 53.0801C383.57 52.9901 383.6 52.8101 383.71 52.6801L386.73 48.9301C386.77 48.8801 386.81 48.8501 386.85 48.8301Z" fill="white"/>
<path d="M367.22 73.23C367.3 73.19 367.37 73.19 367.41 73.25C367.47 73.34 367.44 73.52 367.33 73.65L364.31 77.4L364.2 77.5C364.13 77.54 364.05 77.54 364.01 77.48C363.95 77.39 363.98 77.21 364.09 77.08L367.11 73.33C367.14 73.29 367.18 73.25 367.22 73.23Z" fill="white"/>
<path d="M382.04 46.0901C382.08 46.0701 382.12 46.0601 382.15 46.0601C382.25 46.0701 382.29 46.2101 382.23 46.3601L380.49 50.8501C380.45 50.9601 380.37 51.0501 380.29 51.0901L380.18 51.1201C380.07 51.1101 380.04 50.9701 380.1 50.8201L381.84 46.3301C381.89 46.2201 381.96 46.1301 382.04 46.0901Z" fill="white"/>
<path d="M365.92 68.45C366.04 68.38 366.14 68.44 366.15 68.58C366.15 68.72 366.05 68.9 365.93 68.97L362.44 70.99C362.32 71.06 362.22 71 362.21 70.86C362.21 70.72 362.31 70.54 362.43 70.47L365.92 68.45Z" fill="white"/>
<path d="M375.48 47.8501C375.6 47.7801 375.7 47.8401 375.71 47.9801L375.72 52.0001C375.72 52.1401 375.62 52.3201 375.5 52.3901C375.38 52.4601 375.28 52.4001 375.27 52.2601L375.26 48.2401C375.26 48.1001 375.36 47.9201 375.48 47.8501Z" fill="white"/>
<path d="M368.93 53.6499C369.01 53.6099 369.08 53.6099 369.12 53.6599L370.88 56.1299C370.94 56.2199 370.91 56.3899 370.8 56.5299L370.69 56.6299C370.61 56.6799 370.54 56.6699 370.49 56.6099L368.73 54.1399C368.67 54.0599 368.7 53.8799 368.81 53.7499C368.86 53.7099 368.9 53.6799 368.93 53.6499Z" fill="white"/>
<path d="M383.86 63.6301C383.9 63.6101 383.94 63.6001 383.98 63.6001L387.01 63.8601C387.12 63.8701 387.15 64.0101 387.09 64.1701C387.05 64.2801 386.97 64.3701 386.9 64.4101L386.79 64.4401L383.76 64.1801C383.65 64.1701 383.61 64.0301 383.68 63.8701C383.71 63.7601 383.78 63.6701 383.86 63.6301Z" fill="white"/>
<path d="M370.75 75.24C370.79 75.22 370.83 75.21 370.86 75.21C370.97 75.22 371 75.36 370.94 75.52L369.2 80C369.16 80.11 369.08 80.2 369.01 80.24L368.9 80.27C368.8 80.26 368.76 80.12 368.82 79.96L370.56 75.48C370.59 75.38 370.67 75.29 370.75 75.24Z" fill="white"/>
<path d="M264.27 113.91L271.19 111.57L265.01 122.87L256.86 132.79L264.27 113.91Z" fill="#455A64"/>
<path d="M286.75 84.8L278.48 114.52L265.26 129.8L261.77 139.73L246.94 148.29L256.86 132.79L265.01 122.87L271.19 111.57L286.75 84.8Z" fill="#37474F"/>
<path d="M312.36 58.52L312.48 99.82L306.55 93.15L302.77 97.38L286.75 84.8L271.19 111.57L264.27 113.91L256.86 132.79L246.94 148.29L261.77 139.73L278.53 130.05L286.86 125.24L312.51 110.44L246.94 148.29L246.79 96.37L312.36 58.52Z" fill="#BA68C8"/>
<path opacity="0.2" d="M312.36 58.52L312.48 99.82L306.55 93.15L302.77 97.38L286.75 84.8L271.19 111.57L264.27 113.91L256.86 132.79L246.94 148.29L261.77 139.73L278.53 130.05L286.86 125.24L312.51 110.44L246.94 148.29L246.79 96.37L312.36 58.52Z" fill="black"/>
<path d="M306.55 93.1499L312.48 99.8199L312.51 110.44L286.86 125.24L289.28 120.49L296.01 113.25L306.55 93.1499Z" fill="#455A64"/>
<path d="M286.75 84.8L302.77 97.38L288.2 113.7L278.53 130.05L261.77 139.73L265.26 129.8L278.48 114.52L286.75 84.8Z" fill="#455A64"/>
<path d="M241.09 93.13L318.01 48.72L318.19 113.68L241.27 158.09L241.09 93.13ZM312.48 99.82L312.36 58.52L246.79 96.38L246.94 148.3L312.51 110.44L312.48 99.82Z" fill="#BA68C8"/>
<path opacity="0.6" d="M241.09 93.13L318.01 48.72L318.19 113.68L241.27 158.09L241.09 93.13ZM312.48 99.82L312.36 58.52L246.79 96.38L246.94 148.3L312.51 110.44L312.48 99.82Z" fill="white"/>
<path d="M306.55 93.1499L296.01 113.25L289.28 120.49L286.86 125.24L278.53 130.05L288.2 113.7L302.77 97.3799L306.55 93.1499Z" fill="#37474F"/>
<path d="M119.03 122.49L119.11 153.5L79.9499 176.11L79.8599 145.1L119.03 122.49Z" fill="#BA68C8"/>
<g opacity="0.1">
<path opacity="0.1" d="M119.03 122.49L119.11 153.5L79.9499 176.11L79.8599 145.1L119.03 122.49Z" fill="black"/>
</g>
<path d="M76.46 143.16L122.4 116.63L122.51 155.43L76.57 181.96L76.46 143.16ZM119.11 153.5L119.02 122.49L79.86 145.1L79.95 176.11L119.11 153.5Z" fill="#BA68C8"/>
<g opacity="0.6">
<path opacity="0.6" d="M76.46 143.16L122.4 116.63L122.51 155.43L76.57 181.96L76.46 143.16ZM119.11 153.5L119.02 122.49L79.86 145.1L79.95 176.11L119.11 153.5Z" fill="white"/>
</g>
<path d="M112.33 131.4C113.03 131 113.6 131.32 113.6 132.13L113.65 150.14C113.65 150.95 113.09 151.93 112.38 152.33L105.68 156.2C108.59 152.24 110.49 147.3 110.48 142.95C110.47 138.6 108.54 135.86 105.62 135.27L112.33 131.4Z" fill="#37474F"/>
<path d="M99.4703 140.66C103.62 138.26 107 140.19 107.01 144.96C107.02 149.73 103.67 155.54 99.5203 157.94C95.3603 160.34 91.9903 158.41 91.9703 153.64C91.9503 148.87 95.3103 143.06 99.4703 140.66ZM97.1603 149.61C98.4403 148.87 99.4903 147.06 99.4803 145.59C99.4803 144.11 98.4303 143.52 97.1403 144.26C95.8503 145 94.8103 146.8 94.8103 148.28C94.8203 149.76 95.8703 150.36 97.1603 149.61Z" fill="#263238"/>
<path d="M93.2901 142.4C90.3801 146.36 88.4701 151.31 88.4901 155.66C88.5001 160.01 90.4301 162.75 93.3501 163.34L86.6601 167.2C85.9601 167.6 85.3801 167.28 85.3801 166.48L85.3301 148.47C85.3301 147.66 85.9001 146.68 86.6001 146.27L93.2901 142.4Z" fill="#37474F"/>
<path d="M97.1399 144.26C98.4199 143.52 99.4699 144.11 99.4799 145.59C99.4799 147.07 98.4399 148.87 97.1599 149.61C95.8699 150.35 94.8199 149.76 94.8199 148.28C94.8099 146.8 95.8499 145 97.1399 144.26Z" fill="white"/>
<path d="M105.63 135.27C108.55 135.86 110.48 138.59 110.49 142.95C110.5 147.3 108.6 152.25 105.69 156.2C103.93 158.59 101.81 160.62 99.52 161.94C97.23 163.26 95.1 163.69 93.34 163.33C90.42 162.74 88.49 160 88.48 155.65C88.47 151.3 90.37 146.35 93.28 142.39C95.04 140 97.16 137.97 99.44 136.65C101.74 135.34 103.86 134.92 105.63 135.27ZM99.51 157.94C103.66 155.54 107.02 149.73 107 144.96C106.99 140.19 103.61 138.26 99.46 140.66C95.3 143.06 91.95 148.87 91.96 153.64C91.98 158.42 95.36 160.34 99.51 157.94Z" fill="#455A64"/>
<path d="M299.04 28.51L348.42 0L348.56 50.74L299.18 79.25L299.04 28.51ZM343.9 48.08L343.79 8.04L303.72 31.18L303.83 71.22L343.9 48.08Z" fill="#BA68C8"/>
<path opacity="0.6" d="M299.04 28.51L348.42 0L348.56 50.74L299.18 79.25L299.04 28.51ZM343.9 48.08L343.79 8.04L303.72 31.18L303.83 71.22L343.9 48.08Z" fill="white"/>
<path d="M343.78 8.04004L303.71 31.17L303.82 71.21L343.9 48.08L343.78 8.04004Z" fill="#BA68C8"/>
<path d="M330.68 36.39C331.61 36.05 332.63 35.9 333.63 35.99C333.9 36.01 334.14 36.05 334.35 36.1C336.26 36.56 336.06 38.11 335.35 39.94C334.86 41.2 334.25 42.29 333.22 42.89C332.75 43.16 332.21 43.33 331.54 43.36C331.3 43.37 331.05 43.37 330.78 43.35C329.78 43.26 328.94 42.95 328.32 42.48C328.47 42.25 328.61 42.01 328.75 41.77C329.17 41.04 329.55 40.27 329.86 39.47C330.17 38.67 330.4 37.89 330.55 37.13C330.61 36.87 330.65 36.63 330.68 36.39Z" fill="white"/>
<path d="M327.29 41.0498C327.46 41.5998 327.82 42.0798 328.33 42.4698C328.48 42.2398 328.62 41.9998 328.76 41.7598C328.62 41.9998 328.48 42.2398 328.33 42.4698C328.02 42.9498 327.69 43.4298 327.32 43.8798C326.96 44.3298 326.58 44.7498 326.2 45.1198C326.05 45.2698 325.89 45.4198 325.73 45.5598C325.89 45.4198 326.04 45.2698 326.19 45.1198C325.93 44.4298 325.59 43.9298 325.18 43.6698C325.99 42.9398 326.71 42.0398 327.29 41.0498Z" fill="#E0E0E0"/>
<path d="M329.56 36.9099C329.91 36.7099 330.29 36.5299 330.69 36.3899C330.66 36.6299 330.61 36.8799 330.56 37.1299C330.41 37.8799 330.18 38.6699 329.87 39.4699C329.56 40.2799 329.18 41.0499 328.76 41.7699C328.62 42.0099 328.48 42.2499 328.33 42.4799C327.82 42.0999 327.46 41.6099 327.29 41.0599C327.94 39.9499 328.43 38.7299 328.65 37.5499C328.93 37.3099 329.23 37.0999 329.56 36.9099Z" fill="#F0F0F0"/>
<path d="M334.34 29.5999C336.66 28.5199 337.12 29.6099 337.12 31.2399C337.12 32.8799 336.67 34.4899 334.35 36.0899C334.14 36.0399 333.9 35.9999 333.63 35.9799C332.63 35.8899 331.6 36.0499 330.68 36.3799C330.75 35.8799 330.79 35.3799 330.79 34.8999C330.79 34.4199 330.75 33.9699 330.67 33.5499C331.59 32.8099 332.61 31.7899 333.61 30.5499C333.89 30.2199 334.13 29.8999 334.34 29.5999Z" fill="#F0F0F0"/>
<path d="M326.19 45.1199C326.51 45.9599 326.69 47.0899 326.69 48.4199C326.69 48.7699 326.68 49.1099 326.65 49.4199C326.44 52.2199 325.26 53.4199 323.83 54.2399C322.41 55.0599 321.23 55.2199 321 52.6799C320.97 52.3999 320.96 52.0799 320.96 51.7199C320.96 50.3899 321.13 49.0499 321.44 47.8499C321.59 47.8199 321.75 47.7899 321.91 47.7499C322.52 47.5999 323.15 47.3499 323.82 46.9599C324.48 46.5799 325.12 46.0999 325.72 45.5499C325.89 45.4199 326.04 45.2699 326.19 45.1199Z" fill="white"/>
<path d="M330.68 33.5498C330.76 33.9598 330.8 34.4098 330.8 34.8998C330.8 35.3898 330.76 35.8798 330.69 36.3798C330.65 36.6198 330.61 36.8698 330.56 37.1198C330.61 36.8698 330.65 36.6298 330.69 36.3798C330.29 36.5198 329.91 36.6998 329.56 36.8998C329.23 37.0898 328.93 37.2998 328.66 37.5298C328.76 37.0298 328.81 36.5298 328.81 36.0398C328.81 35.5598 328.76 35.1198 328.66 34.7298C328.94 34.6498 329.24 34.5098 329.57 34.3198C329.91 34.1298 330.28 33.8698 330.68 33.5498Z" fill="#E0E0E0"/>
<path d="M325.19 43.6699C325.59 43.9299 325.94 44.4299 326.2 45.1199C326.05 45.2699 325.89 45.4199 325.74 45.5599C325.13 46.1099 324.5 46.5899 323.84 46.9699C323.18 47.3499 322.54 47.6099 321.93 47.7599C321.77 47.7999 321.62 47.8299 321.46 47.8499C321.71 46.8599 322.05 45.9599 322.45 45.2399C322.89 45.1299 323.35 44.9399 323.82 44.6699C324.29 44.3999 324.75 44.0599 325.19 43.6699Z" fill="#F0F0F0"/>
<path d="M316.93 44.3298C316.97 44.5298 317.01 44.7298 317.06 44.9198C317.21 45.4998 317.44 46.0198 317.76 46.4598C318.08 46.8998 318.46 47.2398 318.88 47.4798C319.02 47.5598 319.17 47.6298 319.32 47.6898C318.7 48.8698 317.87 50.1498 316.87 51.3898C316.6 51.7198 316.35 52.0198 316.11 52.2798C315.45 53.0098 314.9 53.4698 314.44 53.7398C313.41 54.3398 312.79 53.9598 312.3 53.2598C311.58 52.2498 311.38 50.9398 313.28 48.2798C313.49 47.9798 313.73 47.6698 314 47.3398C314.99 46.0898 316 45.0598 316.93 44.3298Z" fill="white"/>
<path d="M319.31 47.6799C319.62 47.7999 319.96 47.8899 320.33 47.9199C320.69 47.9499 321.07 47.9299 321.46 47.8699C321.15 49.0699 320.98 50.4099 320.98 51.7399C320.98 52.0899 320.99 52.4099 321.02 52.6999C320.24 54.4199 319.49 55.3099 318.76 55.7299C318.23 56.0399 317.71 56.0999 317.19 56.0499C315.96 55.9399 315.16 55.2699 316.12 52.2799C316.36 52.0199 316.61 51.7199 316.88 51.3899C317.86 50.1299 318.7 48.8499 319.31 47.6799Z" fill="#F0F0F0"/>
<path d="M320.34 45.0698C320.93 45.3798 321.65 45.4498 322.45 45.2498C322.05 45.9698 321.71 46.8698 321.46 47.8598C321.61 47.8398 321.77 47.7998 321.93 47.7698C321.77 47.8098 321.62 47.8398 321.46 47.8598C321.07 47.9298 320.7 47.9498 320.33 47.9198C319.96 47.8898 319.63 47.8098 319.31 47.6798C319.16 47.6198 319.02 47.5498 318.88 47.4698C319.02 47.5498 319.17 47.6198 319.32 47.6798C319.82 46.7098 320.17 45.8098 320.34 45.0698Z" fill="#E0E0E0"/>
<path d="M328.29 30.2C328.89 30.44 329.43 30.83 329.85 31.42C330.27 32.01 330.53 32.7399 330.68 33.5499C330.29 33.8599 329.91 34.12 329.56 34.33C329.23 34.52 328.93 34.66 328.65 34.74C328.42 33.82 327.93 33.16 327.27 32.81C327.44 32.07 327.79 31.17 328.29 30.2Z" fill="#F0F0F0"/>
<path d="M333.17 24.15C334.2 23.55 334.82 23.93 335.31 24.63C336.03 25.63 336.23 26.95 334.34 29.61C334.13 29.91 333.89 30.22 333.62 30.56C332.62 31.8 331.6 32.83 330.68 33.56C330.53 32.75 330.27 32.02 329.85 31.43C329.43 30.84 328.9 30.44 328.29 30.21C328.9 29.03 329.74 27.75 330.74 26.51C331.01 26.18 331.26 25.88 331.5 25.62C332.16 24.88 332.71 24.41 333.17 24.15Z" fill="white"/>
<path d="M326.15 30.0198C326.54 29.9498 326.91 29.9298 327.28 29.9598C327.65 29.9898 327.98 30.0698 328.3 30.1998C327.79 31.1698 327.44 32.0698 327.27 32.8098C326.68 32.4998 325.96 32.4198 325.16 32.6298C325.56 31.8998 325.9 31.0098 326.15 30.0198Z" fill="#E0E0E0"/>
<path d="M318.06 43.5399C318.39 43.3499 318.69 43.2099 318.96 43.1299C319.19 44.0499 319.68 44.7099 320.34 45.0599C320.17 45.7999 319.82 46.6999 319.32 47.6699C319.17 47.6099 319.03 47.5399 318.88 47.4599C318.45 47.2199 318.07 46.8899 317.76 46.4399C317.44 45.9999 317.22 45.4799 317.06 44.8999C317.01 44.7099 316.97 44.5099 316.93 44.3099C317.33 44.0099 317.71 43.7499 318.06 43.5399Z" fill="#F0F0F0"/>
<path d="M323.79 33.2C324.26 32.93 324.72 32.74 325.16 32.63C325.96 32.43 326.69 32.5 327.27 32.81C327.93 33.16 328.41 33.82 328.65 34.74C328.75 35.13 328.8 35.57 328.8 36.05C328.8 36.53 328.75 37.03 328.65 37.54C328.42 38.73 327.94 39.94 327.29 41.05C326.71 42.04 325.99 42.94 325.19 43.67C324.76 44.06 324.3 44.41 323.82 44.68C323.34 44.95 322.89 45.14 322.45 45.25C321.65 45.45 320.92 45.38 320.34 45.07C319.68 44.72 319.2 44.06 318.96 43.14C318.86 42.75 318.81 42.31 318.81 41.83C318.81 41.35 318.86 40.85 318.96 40.34C319.19 39.15 319.67 37.94 320.32 36.83C320.9 35.84 321.62 34.94 322.42 34.21C322.85 33.81 323.31 33.47 323.79 33.2Z" fill="#BA68C8"/>
<g opacity="0.5">
<path opacity="0.5" d="M323.79 33.2C324.26 32.93 324.72 32.74 325.16 32.63C325.96 32.43 326.69 32.5 327.27 32.81C327.93 33.16 328.41 33.82 328.65 34.74C328.75 35.13 328.8 35.57 328.8 36.05C328.8 36.53 328.75 37.03 328.65 37.54C328.42 38.73 327.94 39.94 327.29 41.05C326.71 42.04 325.99 42.94 325.19 43.67C324.76 44.06 324.3 44.41 323.82 44.68C323.34 44.95 322.89 45.14 322.45 45.25C321.65 45.45 320.92 45.38 320.34 45.07C319.68 44.72 319.2 44.06 318.96 43.14C318.86 42.75 318.81 42.31 318.81 41.83C318.81 41.35 318.86 40.85 318.96 40.34C319.19 39.15 319.67 37.94 320.32 36.83C320.9 35.84 321.62 34.94 322.42 34.21C322.85 33.81 323.31 33.47 323.79 33.2Z" fill="white"/>
</g>
<path d="M314.38 34.99C314.85 34.72 315.39 34.55 316.06 34.52C316.3 34.51 316.55 34.51 316.82 34.53C317.82 34.62 318.66 34.93 319.28 35.4C318.68 36.33 318.15 37.34 317.74 38.41C317.33 39.48 317.07 40.51 316.93 41.49C316 41.82 314.98 41.97 313.98 41.89C313.71 41.87 313.47 41.83 313.26 41.78C311.36 41.32 311.55 39.77 312.26 37.94C312.73 36.69 313.35 35.59 314.38 34.99Z" fill="white"/>
<path d="M316.92 41.4998C317.32 41.3598 317.7 41.1798 318.05 40.9798C318.38 40.7898 318.68 40.5798 318.96 40.3398C318.86 40.8398 318.81 41.3398 318.81 41.8298C318.81 42.3098 318.86 42.7498 318.96 43.1398C318.69 43.2198 318.38 43.3598 318.06 43.5498C317.71 43.7498 317.33 44.0198 316.93 44.3298C316.97 44.5298 317.01 44.7298 317.06 44.9198C317.01 44.7298 316.97 44.5298 316.93 44.3298C316.85 43.9098 316.81 43.4598 316.81 42.9798C316.81 42.4898 316.85 41.9998 316.92 41.4998Z" fill="#E0E0E0"/>
<path d="M328.86 22.1599C329.39 21.8499 329.91 21.7899 330.43 21.8399C331.66 21.9399 332.46 22.6099 331.5 25.6099C331.26 25.8699 331.01 26.1699 330.74 26.4999C329.74 27.7399 328.91 29.0199 328.3 30.1999C327.99 30.0699 327.65 29.9899 327.28 29.9599C326.92 29.9299 326.54 29.9499 326.15 30.0099C326.46 28.8099 326.63 27.4699 326.63 26.1499C326.63 25.7999 326.62 25.4799 326.59 25.1899C327.38 23.4699 328.12 22.5799 328.86 22.1599Z" fill="#F0F0F0"/>
<path d="M323.78 30.9C324.61 30.42 325.41 30.14 326.15 30.02C325.9 31.01 325.56 31.91 325.16 32.63C324.72 32.74 324.26 32.93 323.79 33.2C323.31 33.47 322.86 33.82 322.42 34.21C322.02 33.95 321.67 33.45 321.41 32.76C322.15 32.02 322.95 31.39 323.78 30.9Z" fill="#F0F0F0"/>
<path d="M321.41 32.75C321.67 33.45 322.01 33.95 322.42 34.21C321.62 34.94 320.9 35.84 320.32 36.83C320.15 36.28 319.79 35.8 319.29 35.41C319.6 34.93 319.93 34.45 320.3 34C320.65 33.54 321.03 33.13 321.41 32.75Z" fill="#E0E0E0"/>
<path d="M323.76 23.63C325.18 22.81 326.36 22.65 326.59 25.19C326.62 25.47 326.63 25.79 326.63 26.15C326.63 27.47 326.46 28.81 326.15 30.01C325.41 30.14 324.61 30.42 323.78 30.9C322.95 31.38 322.15 32.02 321.41 32.75C321.09 31.91 320.91 30.78 320.91 29.45C320.91 29.1 320.92 28.76 320.95 28.45C321.16 25.65 322.34 24.45 323.76 23.63Z" fill="white"/>
<path d="M318.67 28.0399C319.4 27.6199 320.15 27.6399 320.94 28.4599C320.92 28.7699 320.9 29.1099 320.9 29.4599C320.9 30.7799 321.09 31.9099 321.4 32.7499C321.02 33.1299 320.64 33.5399 320.28 33.9899C319.91 34.4399 319.58 34.9199 319.27 35.3999C318.65 34.9299 317.81 34.6199 316.81 34.5299C316.54 34.5099 316.29 34.4999 316.05 34.5199C315.08 32.6399 315.87 31.0499 317.1 29.5299C317.62 28.8899 318.14 28.3499 318.67 28.0399Z" fill="#F0F0F0"/>
<path d="M319.28 35.4099C319.79 35.7899 320.14 36.2799 320.31 36.8299C319.66 37.9399 319.18 39.1599 318.95 40.3399C318.67 40.5699 318.37 40.7899 318.04 40.9799C317.69 41.1799 317.31 41.3599 316.92 41.4999C317.06 40.5299 317.32 39.4899 317.73 38.4199C318.15 37.3499 318.68 36.3399 319.28 35.4099Z" fill="#F0F0F0"/>
<path d="M313.25 41.78C313.46 41.83 313.7 41.87 313.97 41.89C314.97 41.97 316 41.82 316.92 41.49C316.85 41.99 316.81 42.48 316.81 42.97C316.81 43.46 316.85 43.91 316.93 44.32C316.01 45.05 314.99 46.08 313.99 47.32C313.72 47.65 313.49 47.96 313.27 48.26C310.94 49.35 310.49 48.25 310.48 46.62C310.48 45 310.93 43.38 313.25 41.78Z" fill="#F0F0F0"/>
<path d="M328.33 42.47C328.95 42.94 329.79 43.25 330.79 43.34C331.06 43.36 331.31 43.37 331.55 43.35C332.52 45.23 331.73 46.82 330.5 48.35C329.98 48.99 329.46 49.53 328.93 49.84C328.2 50.26 327.45 50.24 326.66 49.43C326.68 49.12 326.7 48.78 326.7 48.43C326.7 47.1 326.51 45.97 326.2 45.13C326.58 44.75 326.96 44.34 327.32 43.89C327.68 43.43 328.02 42.95 328.33 42.47Z" fill="#F0F0F0"/>
</g>
<defs>
<clipPath id="clip0_1339_4663">
<rect width="451.31" height="433.58" fill="white"/>
</clipPath>
</defs>
</svg>
