<svg width="326" height="288" viewBox="0 0 326 288" fill="none" xmlns="http://www.w3.org/2000/svg">
<g clip-path="url(#clip0_329_17287)">
<path d="M259.332 32.446C259.332 62.0997 190.666 136.515 161.012 136.515C131.358 136.515 65.1116 92.6548 65.1116 63.0008C65.1116 33.347 107.66 6.29693 139.176 1.52246C170.693 -3.25198 259.332 2.79198 259.332 32.446Z" fill="#FBFBF6"/>
<g style="mix-blend-mode:multiply">
<rect x="68.3691" y="87.6553" width="67.4629" height="7.56311" fill="#FBFBF6"/>
</g>
<g style="mix-blend-mode:multiply">
<rect x="68.3691" y="99.7764" width="67.4629" height="7.56311" fill="#FBFBF6"/>
</g>
<g style="mix-blend-mode:multiply">
<rect x="68.3691" y="111.897" width="67.4629" height="7.56311" fill="#FBFBF6"/>
</g>
<rect x="69.886" y="125.728" width="10.7863" height="10.7863" fill="#FBFBF6"/>
<rect x="87.5088" y="125.728" width="10.7863" height="10.7863" fill="#FBFBF6"/>
<rect x="105.132" y="125.728" width="10.7863" height="10.7863" fill="#FBFBF6"/>
<rect x="122.755" y="125.728" width="10.7863" height="10.7863" fill="#FBFBF6"/>
<g style="mix-blend-mode:multiply">
<rect x="133.541" y="43.6782" width="130.781" height="7.56311" fill="#FBFBF6"/>
</g>
<path d="M177.998 92.2642C211.379 110.704 232.749 95.5737 261.591 98.5052" stroke="#F1D19D" stroke-width="0.5" stroke-linecap="round"/>
<g style="mix-blend-mode:multiply">
<rect x="196.859" y="58.0781" width="67.4629" height="7.56311" fill="#FBFBF6"/>
</g>
<g style="mix-blend-mode:multiply">
<rect x="186.452" y="72.4775" width="77.8693" height="7.56311" fill="#FBFBF6"/>
</g>
<path d="M79.3529 57.4357C78.5089 59.7688 82.9203 74.2655 86.0034 78.1926C87.0334 77.3523 94.7042 75.9063 95.7671 73.3582C97.0954 70.1726 94.4205 55.3722 94.0482 53.5174C93.6756 51.6627 89.9496 60.4818 89.9496 60.4818C89.9496 60.4818 89.0659 49.6541 88.1877 47.7102C87.7852 46.8191 81.0986 52.6107 79.3529 57.4357Z" fill="#E1AE8F"/>
<path d="M81.8742 61.2448C81.1353 58.5836 80.5431 56.2098 80.1309 53.9941" stroke="#2A7BBC" stroke-width="0.5" stroke-linecap="round"/>
<path d="M84.0707 59.7484C83.7212 58.3677 82.3989 52.8006 82.126 51.2412" stroke="#2A7BBC" stroke-width="0.5" stroke-linecap="round"/>
<path d="M86.7412 58.542C86.108 55.7355 85.0745 50.1414 84.8523 48.2559" stroke="#2A7BBC" stroke-width="0.5" stroke-linecap="round"/>
<path d="M231.995 67.4024C233.772 69.1346 236.116 84.1051 235.052 88.9831C233.759 88.6754 226.224 90.7159 224.157 88.8851C221.574 86.5968 217.975 75.2552 217.543 73.5836C217.071 71.752 223.784 74.7607 223.784 74.7607C223.784 74.7607 219.862 64.6295 219.806 62.4973C219.78 61.5196 228.322 63.8199 231.995 67.4024Z" fill="#E1AE8F"/>
<path d="M231.385 71.9295C230.891 69.2122 230.39 66.8174 229.795 64.6436" stroke="#2A7BBC" stroke-width="0.5" stroke-linecap="round"/>
<path d="M228.756 71.5401C228.47 70.1445 227.234 64.5575 226.801 63.0352" stroke="#2A7BBC" stroke-width="0.5" stroke-linecap="round"/>
<path d="M225.827 71.6178C225.174 68.8155 223.667 63.3299 223.046 61.5361" stroke="#2A7BBC" stroke-width="0.5" stroke-linecap="round"/>
<path d="M228.96 83.3319C233.342 100.15 235.73 118.35 228.012 119.574C189.165 125.732 182.707 114.832 160.037 118.319C146.635 120.381 98.2486 114.684 89.4084 71.3955" stroke="#F1D19D" stroke-width="17.957"/>
<path d="M123.976 116.497L205.052 121.548C205.052 121.548 205.472 136.482 198.211 146.768C190.951 157.054 150.13 152.611 139.305 150.902C128.48 149.192 127.951 140.924 123.976 116.497Z" fill="#F1D19D"/>
<path fill-rule="evenodd" clip-rule="evenodd" d="M143.95 38.3071C143.95 38.3071 143.95 38.3071 143.95 38.3071L143.939 38.0226C143.939 38.0226 143.939 38.0226 143.939 38.0226L143.95 38.3071ZM143.95 38.3071C144.028 38.3041 144.09 38.2381 144.087 38.1596C144.084 38.081 144.018 38.0197 143.939 38.0226V38.0226C134.419 38.3784 124.333 40.9874 120.477 42.2479L120.565 42.5188C124.406 41.2632 134.465 38.6618 143.95 38.3071Z" fill="#F1D19D"/>
<path d="M252.707 12.0486C257.739 12.6613 267.817 15.4685 267.868 21.7957C267.919 28.1228 266.627 33.3595 265.975 35.1872" stroke="#F1D19D" stroke-width="0.5"/>
<path d="M74.3743 25.272C77.933 20.7426 89.3701 9.69395 106.646 1.73511" stroke="#F1D19D" stroke-width="0.5"/>
<path fill-rule="evenodd" clip-rule="evenodd" d="M160.787 138.791C173.911 139.821 184.542 138.454 198.723 132.402C199.408 132.11 200.205 132.251 200.74 132.769C185.754 139.338 173.938 141.38 162.911 140.796C151.903 140.214 141.632 137.009 138.521 135.369C138.173 135.185 138.04 134.755 138.223 134.407C138.407 134.059 138.838 133.925 139.185 134.109C142.07 135.63 149.928 138.216 160.787 138.791Z" fill="#66B6E0"/>
<path fill-rule="evenodd" clip-rule="evenodd" d="M146.7 123.815C159.433 127.159 170.137 127.7 185.167 124.263C185.893 124.097 186.652 124.377 187.087 124.982C171.173 128.786 159.182 128.698 148.434 126.165C137.704 123.637 128.165 118.661 125.395 116.494C125.085 116.251 125.031 115.804 125.273 115.494C125.515 115.184 125.963 115.13 126.273 115.372C128.841 117.381 136.116 121.321 146.7 123.815Z" fill="#66B6E0"/>
<path d="M206.559 112.4C205.618 112.698 204.705 112.465 204.519 111.88C204.334 111.295 204.71 110.841 205.65 110.543C206.592 110.246 207.83 109.979 208.015 110.565C208.2 111.15 207.499 112.103 206.559 112.4Z" fill="#521F20" fill-opacity="0.2"/>
<path d="M98.0279 99.716C98.425 100.619 99.8562 102.615 98.9526 103.012C98.049 103.41 95.5379 102.223 95.1408 101.319C94.7434 100.416 93.537 98.0065 94.4403 97.6091C95.3439 97.2117 97.6305 98.8124 98.0279 99.716Z" fill="#521F20" fill-opacity="0.2"/>
<path d="M147.811 143.431C147.811 144.419 147.011 144.773 146.024 144.773C145.036 144.773 144.237 144.419 144.237 143.431C144.237 142.445 145.036 141.645 146.024 141.645C147.011 141.645 147.811 142.445 147.811 143.431Z" fill="#521F20" fill-opacity="0.2"/>
<path d="M222.474 52.3276C230.68 52.3276 237.332 45.6755 237.332 37.4697C237.332 29.2639 230.68 22.6118 222.474 22.6118C214.268 22.6118 207.616 29.2639 207.616 37.4697C207.616 45.6755 214.268 52.3276 222.474 52.3276Z" fill="#6C92FF"/>
<rect x="92.2935" y="25.668" width="17.8407" height="17.8407" transform="rotate(-20.4593 92.2935 25.668)" fill="#3366E9"/>
<rect x="150.985" y="7.14258" width="22.4748" height="22.4748" rx="7.69584" fill="#7BCFF1"/>
<path d="M90.5694 58.4664C86.1127 74.1797 72.7346 85.8643 63.4577 73.7527C41.0282 44.4698 129.801 18.2623 161.881 18.9805C208.569 20.0257 315.543 86.2013 221.521 71.8661" stroke="#F1D19D" stroke-width="0.855094" stroke-dasharray="1.07"/>
<rect x="100.786" y="29.6177" width="3.92358" height="3.92358" transform="rotate(-20.4461 100.786 29.6177)" fill="#F58F49"/>
<rect x="160.26" y="16.9294" width="3.92358" height="3.92358" fill="#F58F49"/>
<rect x="221.756" y="34.79" width="3.92358" height="3.92358" transform="rotate(30 221.756 34.79)" fill="#F58F49"/>
<path d="M93.7288 58.2794C93.7288 59.8824 92.4292 61.1819 90.8263 61.1819C89.2234 61.1819 87.9238 59.8824 87.9238 58.2794C87.9238 56.6765 89.2234 55.377 90.8263 55.377C92.4292 55.377 93.7288 56.6765 93.7288 58.2794Z" fill="#F58F49"/>
<path d="M221.175 73.9933C222.778 73.9933 224.077 72.6939 224.077 71.0909C224.077 69.4879 222.778 68.1885 221.175 68.1885C219.572 68.1885 218.272 69.4879 218.272 71.0909C218.272 72.6939 219.572 73.9933 221.175 73.9933Z" fill="#F58F49"/>
<path d="M153.663 108.687C155.651 102.808 153.316 99.8035 152.316 91.3191C156.586 88.7507 168.47 84.8008 169.391 93.0616C170.396 102.079 172.772 104.954 171.462 110.636C169.957 117.163 150.175 118.998 153.663 108.687Z" fill="#E1AE8F"/>
<path d="M148.869 90.7116C150.168 90.3345 150.62 87.9597 149.878 85.4073C149.137 82.8549 147.484 81.0915 146.185 81.4686C144.886 81.8457 144.435 84.2205 145.176 86.7729C145.917 89.3252 147.571 91.0887 148.869 90.7116Z" fill="#DCAD76"/>
<path d="M172.762 90.7116C171.464 90.3345 171.012 87.9597 171.753 85.4073C172.494 82.8549 174.148 81.0915 175.446 81.4686C176.745 81.8457 177.197 84.2205 176.456 86.7729C175.714 89.3252 174.061 91.0887 172.762 90.7116Z" fill="#DCAD76"/>
<path d="M160.126 70.502C153.515 70.502 146.132 64.1652 146.132 71.3646C146.893 77.7743 148.334 91.5429 149.229 93.1111C150.126 94.679 153.642 97.5122 155.135 99.0117C157.141 100.526 159.586 101.345 162.099 101.345C164.227 101.345 166.049 100.622 168.097 99.2838C170.671 97.6022 171.796 95.0185 172.608 93.1547L172.627 93.1111C173.938 90.1018 173.584 87.5859 174.306 82.7634C174.306 79.0955 176.014 71.1945 173.435 69.8209C170.951 68.4985 163.369 70.502 160.126 70.502Z" fill="#F5BC9A"/>
<path d="M144.405 72.0119L147.286 81.9966C148.5 83.9274 148.297 74.6648 148.5 71.4541L144.405 72.0119Z" fill="#66B6E0" fill-opacity="0.6"/>
<path d="M177.352 68.7891L174.427 82.1888C174.087 74.98 175.275 75.4891 173.027 70.1462L177.352 68.7891Z" fill="#66B6E0" fill-opacity="0.6"/>
<path fill-rule="evenodd" clip-rule="evenodd" d="M163.923 94.9902C164.038 94.8851 164.047 94.7065 163.942 94.5911C163.837 94.4757 163.658 94.4669 163.543 94.572L163.923 94.9902ZM159.373 94.7129C159.267 94.5987 159.088 94.5918 158.974 94.6978C158.859 94.804 158.853 94.9826 158.959 95.0972L159.373 94.7129ZM161.433 96.0328C160.53 96.0827 159.616 95.8064 158.959 95.0976L159.373 94.7133C159.894 95.2754 160.632 95.5112 161.401 95.4688C162.174 95.4261 162.959 95.1027 163.543 94.5723L163.923 94.9905C163.242 95.6089 162.333 95.983 161.433 96.0328Z" fill="#393939"/>
<path d="M153.746 79.4424H156.508L150.268 87.422L148.616 85.5191L153.746 79.4424Z" fill="white" fill-opacity="0.392"/>
<path d="M157.599 81.9932L158.327 82.7486L153.041 89.2669L152.031 88.5413L157.599 81.9932Z" fill="white" fill-opacity="0.392"/>
<path d="M168.327 79.0674L170.734 79.81L164.647 87.3672L163.197 85.1444L168.327 79.0674Z" fill="white" fill-opacity="0.392"/>
<path d="M172.18 81.6182L172.907 82.3739L167.621 88.8919L166.611 88.1663L172.18 81.6182Z" fill="white" fill-opacity="0.392"/>
<path fill-rule="evenodd" clip-rule="evenodd" d="M153.595 88.9439C156.337 88.9439 158.56 86.7209 158.56 83.9788C158.56 81.2366 156.337 79.0137 153.595 79.0137C150.853 79.0137 148.63 81.2366 148.63 83.9788C148.63 86.7209 150.853 88.9439 153.595 88.9439Z" stroke="#2A7BBC" stroke-width="0.95195"/>
<path fill-rule="evenodd" clip-rule="evenodd" d="M168.063 88.9439C170.806 88.9439 173.029 86.7209 173.029 83.9788C173.029 81.2366 170.806 79.0137 168.063 79.0137C165.321 79.0137 163.098 81.2366 163.098 83.9788C163.098 86.7209 165.321 88.9439 168.063 88.9439Z" stroke="#2A7BBC" stroke-width="0.95195"/>
<path d="M163.122 89.5502L160.89 83.4951L158.99 89.5502C158.99 89.5502 159.8 90.4914 161.089 90.4561C162.377 90.421 163.122 89.5502 163.122 89.5502Z" fill="#DCAD76"/>
<path fill-rule="evenodd" clip-rule="evenodd" d="M148.584 78.9069C148.584 78.9072 148.584 78.9074 148.584 78.9077L147.567 78.396C147.567 78.3957 147.567 78.3955 147.567 78.3952L148.584 78.9069ZM148.584 78.9069L148.585 78.9074C148.444 79.1883 148.101 79.3017 147.82 79.1604C147.539 79.0189 147.426 78.677 147.567 78.396L147.566 78.3955C148.311 76.9133 150.98 74.506 155.854 75.4301L155.642 76.5496C151.264 75.7194 149.099 77.8834 148.584 78.9069ZM155.643 76.5492C155.952 76.6076 156.25 76.4045 156.309 76.0954C156.367 75.7864 156.164 75.4881 155.855 75.4297L155.643 76.5492Z" fill="#393939"/>
<path fill-rule="evenodd" clip-rule="evenodd" d="M170.433 76.3006C171.378 76.7202 172.008 77.4355 172.285 77.9329L173.529 77.2392C173.119 76.5043 172.27 75.558 171.012 74.9991C169.727 74.4282 168.06 74.2821 166.093 75.1053L166.093 75.1054C165.73 75.2573 165.559 75.6743 165.711 76.0372C165.863 76.4001 166.28 76.571 166.643 76.4192L166.643 76.4191C168.257 75.7434 169.516 75.893 170.433 76.3006ZM166.643 76.4191L166.093 75.1054C166.093 75.1054 166.093 75.1054 166.093 75.1054L166.643 76.4191C166.643 76.4191 166.643 76.4191 166.643 76.4191ZM173.529 77.2392C173.721 77.5828 173.598 78.0166 173.254 78.208C172.911 78.3998 172.477 78.2764 172.285 77.9329L173.529 77.2392Z" fill="#393939"/>
<path d="M160.026 57.7579C153.696 63.2 144.41 62.9277 144.41 62.9277C141.714 64.0138 140.409 67.0801 141.495 69.7764C142.581 72.4723 145.372 75.7443 148.344 72.6914C159.238 73.6702 183.048 73.2033 180.358 62.9277C176.996 50.0831 166.355 52.3162 160.026 57.7579Z" fill="#393939"/>
</g>
<path d="M73.1118 216.769C74.1358 217.073 74.9198 217.569 75.4638 218.257C76.0078 218.945 76.2798 219.793 76.2798 220.801C76.2798 222.289 75.7118 223.449 74.5758 224.281C73.4558 225.113 71.8478 225.529 69.7518 225.529H61.4718V208.729H69.2958C71.2478 208.729 72.7678 209.105 73.8558 209.857C74.9438 210.609 75.4878 211.681 75.4878 213.073C75.4878 213.905 75.2798 214.641 74.8638 215.281C74.4478 215.905 73.8638 216.401 73.1118 216.769ZM65.3358 215.689H68.9598C69.8078 215.689 70.4478 215.521 70.8798 215.185C71.3118 214.833 71.5278 214.321 71.5278 213.649C71.5278 212.993 71.3038 212.489 70.8558 212.137C70.4238 211.785 69.7918 211.609 68.9598 211.609H65.3358V215.689ZM69.6078 222.649C71.4318 222.649 72.3438 221.929 72.3438 220.489C72.3438 219.097 71.4318 218.401 69.6078 218.401H65.3358V222.649H69.6078ZM91.6186 219.121C91.6186 219.169 91.5946 219.505 91.5466 220.129H81.7786C81.9546 220.929 82.3706 221.561 83.0266 222.025C83.6826 222.489 84.4986 222.721 85.4746 222.721C86.1466 222.721 86.7386 222.625 87.2506 222.433C87.7786 222.225 88.2666 221.905 88.7146 221.473L90.7066 223.633C89.4906 225.025 87.7146 225.721 85.3786 225.721C83.9226 225.721 82.6346 225.441 81.5146 224.881C80.3946 224.305 79.5306 223.513 78.9226 222.505C78.3146 221.497 78.0106 220.353 78.0106 219.073C78.0106 217.809 78.3066 216.673 78.8986 215.665C79.5066 214.641 80.3306 213.849 81.3706 213.289C82.4266 212.713 83.6026 212.425 84.8986 212.425C86.1626 212.425 87.3066 212.697 88.3306 213.241C89.3546 213.785 90.1546 214.569 90.7306 215.593C91.3226 216.601 91.6186 217.777 91.6186 219.121ZM84.9226 215.257C84.0746 215.257 83.3626 215.497 82.7866 215.977C82.2106 216.457 81.8586 217.113 81.7306 217.945H88.0906C87.9626 217.129 87.6106 216.481 87.0346 216.001C86.4586 215.505 85.7546 215.257 84.9226 215.257ZM101.952 213.505C103.184 213.505 104.264 213.761 105.192 214.273C106.12 214.769 106.832 215.473 107.328 216.385C107.84 217.297 108.096 218.353 108.096 219.553C108.096 220.785 107.792 221.881 107.184 222.841C106.592 223.785 105.76 224.521 104.688 225.049C103.616 225.561 102.4 225.817 101.04 225.817C98.7845 225.817 97.0085 225.097 95.7125 223.657C94.4325 222.201 93.7925 220.073 93.7925 217.273C93.7925 214.681 94.3525 212.617 95.4725 211.081C96.6085 209.529 98.3445 208.513 100.68 208.033L106.824 206.809L107.328 210.025L101.904 211.105C100.432 211.393 99.3365 211.873 98.6165 212.545C97.9125 213.217 97.4965 214.169 97.3685 215.401C97.9285 214.793 98.6005 214.329 99.3845 214.009C100.168 213.673 101.024 213.505 101.952 213.505ZM101.064 222.913C102.024 222.913 102.792 222.601 103.368 221.977C103.96 221.353 104.256 220.561 104.256 219.601C104.256 218.625 103.96 217.849 103.368 217.273C102.792 216.697 102.024 216.409 101.064 216.409C100.088 216.409 99.3045 216.697 98.7125 217.273C98.1205 217.849 97.8245 218.625 97.8245 219.601C97.8245 220.577 98.1285 221.377 98.7365 222.001C99.3445 222.609 100.12 222.913 101.064 222.913ZM110.319 217.273H117.111V220.273H110.319V217.273ZM127.737 212.425C128.937 212.425 130.025 212.705 131.001 213.265C131.993 213.809 132.769 214.585 133.329 215.593C133.889 216.585 134.169 217.745 134.169 219.073C134.169 220.401 133.889 221.569 133.329 222.577C132.769 223.569 131.993 224.345 131.001 224.905C130.025 225.449 128.937 225.721 127.737 225.721C126.089 225.721 124.793 225.201 123.849 224.161V230.185H120.105V212.617H123.681V214.105C124.609 212.985 125.961 212.425 127.737 212.425ZM127.089 222.649C128.049 222.649 128.833 222.329 129.441 221.689C130.065 221.033 130.377 220.161 130.377 219.073C130.377 217.985 130.065 217.121 129.441 216.481C128.833 215.825 128.049 215.497 127.089 215.497C126.129 215.497 125.337 215.825 124.713 216.481C124.105 217.121 123.801 217.985 123.801 219.073C123.801 220.161 124.105 221.033 124.713 221.689C125.337 222.329 126.129 222.649 127.089 222.649ZM141.598 212.425C143.598 212.425 145.134 212.905 146.206 213.865C147.278 214.809 147.814 216.241 147.814 218.161V225.529H144.31V223.921C143.606 225.121 142.294 225.721 140.374 225.721C139.382 225.721 138.518 225.553 137.782 225.217C137.062 224.881 136.51 224.417 136.126 223.825C135.742 223.233 135.55 222.561 135.55 221.809C135.55 220.609 135.998 219.665 136.894 218.977C137.806 218.289 139.206 217.945 141.094 217.945H144.07C144.07 217.129 143.822 216.505 143.326 216.073C142.83 215.625 142.086 215.401 141.094 215.401C140.406 215.401 139.726 215.513 139.054 215.737C138.398 215.945 137.838 216.233 137.374 216.601L136.03 213.985C136.734 213.489 137.574 213.105 138.55 212.833C139.542 212.561 140.558 212.425 141.598 212.425ZM141.31 223.201C141.95 223.201 142.518 223.057 143.014 222.769C143.51 222.465 143.862 222.025 144.07 221.449V220.129H141.502C139.966 220.129 139.198 220.633 139.198 221.641C139.198 222.121 139.382 222.505 139.75 222.793C140.134 223.065 140.654 223.201 141.31 223.201ZM159.325 218.809C160.093 219.049 160.685 219.417 161.101 219.913C161.533 220.409 161.749 221.001 161.749 221.689C161.749 222.505 161.469 223.225 160.909 223.849C160.349 224.457 159.581 224.929 158.605 225.265C157.629 225.601 156.525 225.769 155.293 225.769C154.285 225.769 153.293 225.665 152.317 225.457C151.341 225.249 150.437 224.937 149.605 224.521L150.613 221.905C151.973 222.561 153.477 222.889 155.125 222.889C156.005 222.889 156.693 222.761 157.189 222.505C157.701 222.233 157.957 221.857 157.957 221.377C157.957 220.961 157.781 220.649 157.429 220.441C157.077 220.217 156.565 220.105 155.893 220.105H153.253V217.777H155.557C156.213 217.777 156.717 217.673 157.069 217.465C157.421 217.257 157.597 216.953 157.597 216.553C157.597 216.137 157.373 215.817 156.925 215.593C156.493 215.369 155.869 215.257 155.053 215.257C153.805 215.257 152.445 215.553 150.973 216.145L150.061 213.553C151.853 212.769 153.597 212.377 155.293 212.377C156.461 212.377 157.501 212.521 158.413 212.809C159.341 213.097 160.069 213.521 160.597 214.081C161.125 214.625 161.389 215.265 161.389 216.001C161.389 216.609 161.205 217.161 160.837 217.657C160.469 218.137 159.965 218.521 159.325 218.809ZM172.081 212.425C173.281 212.425 174.369 212.705 175.345 213.265C176.337 213.809 177.113 214.585 177.673 215.593C178.233 216.585 178.513 217.745 178.513 219.073C178.513 220.401 178.233 221.569 177.673 222.577C177.113 223.569 176.337 224.345 175.345 224.905C174.369 225.449 173.281 225.721 172.081 225.721C170.433 225.721 169.137 225.201 168.193 224.161V230.185H164.449V212.617H168.025V214.105C168.953 212.985 170.305 212.425 172.081 212.425ZM171.433 222.649C172.393 222.649 173.177 222.329 173.785 221.689C174.409 221.033 174.721 220.161 174.721 219.073C174.721 217.985 174.409 217.121 173.785 216.481C173.177 215.825 172.393 215.497 171.433 215.497C170.473 215.497 169.681 215.825 169.057 216.481C168.449 217.121 168.145 217.985 168.145 219.073C168.145 220.161 168.449 221.033 169.057 221.689C169.681 222.329 170.473 222.649 171.433 222.649ZM185.942 212.425C187.942 212.425 189.478 212.905 190.55 213.865C191.622 214.809 192.158 216.241 192.158 218.161V225.529H188.654V223.921C187.95 225.121 186.638 225.721 184.718 225.721C183.726 225.721 182.862 225.553 182.126 225.217C181.406 224.881 180.854 224.417 180.47 223.825C180.086 223.233 179.894 222.561 179.894 221.809C179.894 220.609 180.342 219.665 181.238 218.977C182.15 218.289 183.55 217.945 185.438 217.945H188.414C188.414 217.129 188.166 216.505 187.67 216.073C187.174 215.625 186.43 215.401 185.438 215.401C184.75 215.401 184.07 215.513 183.398 215.737C182.742 215.945 182.182 216.233 181.718 216.601L180.374 213.985C181.078 213.489 181.918 213.105 182.894 212.833C183.886 212.561 184.902 212.425 185.942 212.425ZM185.654 223.201C186.294 223.201 186.862 223.057 187.358 222.769C187.854 222.465 188.206 222.025 188.414 221.449V220.129H185.846C184.31 220.129 183.542 220.633 183.542 221.641C183.542 222.121 183.726 222.505 184.094 222.793C184.478 223.065 184.998 223.201 185.654 223.201ZM202.874 213.505C204.106 213.505 205.186 213.761 206.114 214.273C207.042 214.769 207.754 215.473 208.25 216.385C208.762 217.297 209.018 218.353 209.018 219.553C209.018 220.785 208.714 221.881 208.106 222.841C207.514 223.785 206.682 224.521 205.61 225.049C204.538 225.561 203.322 225.817 201.962 225.817C199.706 225.817 197.93 225.097 196.634 223.657C195.354 222.201 194.714 220.073 194.714 217.273C194.714 214.681 195.274 212.617 196.394 211.081C197.53 209.529 199.266 208.513 201.602 208.033L207.746 206.809L208.25 210.025L202.826 211.105C201.354 211.393 200.258 211.873 199.538 212.545C198.834 213.217 198.418 214.169 198.29 215.401C198.85 214.793 199.522 214.329 200.306 214.009C201.09 213.673 201.946 213.505 202.874 213.505ZM201.986 222.913C202.946 222.913 203.714 222.601 204.29 221.977C204.882 221.353 205.178 220.561 205.178 219.601C205.178 218.625 204.882 217.849 204.29 217.273C203.714 216.697 202.946 216.409 201.986 216.409C201.01 216.409 200.226 216.697 199.634 217.273C199.042 217.849 198.746 218.625 198.746 219.601C198.746 220.577 199.05 221.377 199.658 222.001C200.266 222.609 201.042 222.913 201.986 222.913ZM217.607 225.721C216.247 225.721 215.023 225.441 213.935 224.881C212.863 224.305 212.023 223.513 211.415 222.505C210.807 221.497 210.503 220.353 210.503 219.073C210.503 217.793 210.807 216.649 211.415 215.641C212.023 214.633 212.863 213.849 213.935 213.289C215.023 212.713 216.247 212.425 217.607 212.425C218.967 212.425 220.183 212.713 221.255 213.289C222.327 213.849 223.167 214.633 223.775 215.641C224.383 216.649 224.687 217.793 224.687 219.073C224.687 220.353 224.383 221.497 223.775 222.505C223.167 223.513 222.327 224.305 221.255 224.881C220.183 225.441 218.967 225.721 217.607 225.721ZM217.607 222.649C218.567 222.649 219.351 222.329 219.959 221.689C220.583 221.033 220.895 220.161 220.895 219.073C220.895 217.985 220.583 217.121 219.959 216.481C219.351 215.825 218.567 215.497 217.607 215.497C216.647 215.497 215.855 215.825 215.231 216.481C214.607 217.121 214.295 217.985 214.295 219.073C214.295 220.161 214.607 221.033 215.231 221.689C215.855 222.329 216.647 222.649 217.607 222.649ZM237.641 215.689H233.273V225.529H229.553V215.689H225.185V212.617H237.641V215.689ZM245.325 220.633H243.381V225.529H239.637V212.617H243.381V217.633H245.397L248.901 212.617H252.885L248.373 218.809L253.197 225.529H248.781L245.325 220.633ZM259.817 212.425C261.817 212.425 263.353 212.905 264.425 213.865C265.497 214.809 266.033 216.241 266.033 218.161V225.529H262.529V223.921C261.825 225.121 260.513 225.721 258.593 225.721C257.601 225.721 256.737 225.553 256.001 225.217C255.281 224.881 254.729 224.417 254.345 223.825C253.961 223.233 253.769 222.561 253.769 221.809C253.769 220.609 254.217 219.665 255.113 218.977C256.025 218.289 257.425 217.945 259.313 217.945H262.289C262.289 217.129 262.041 216.505 261.545 216.073C261.049 215.625 260.305 215.401 259.313 215.401C258.625 215.401 257.945 215.513 257.273 215.737C256.617 215.945 256.057 216.233 255.593 216.601L254.249 213.985C254.953 213.489 255.793 213.105 256.769 212.833C257.761 212.561 258.777 212.425 259.817 212.425ZM259.529 223.201C260.169 223.201 260.737 223.057 261.233 222.769C261.729 222.465 262.081 222.025 262.289 221.449V220.129H259.721C258.185 220.129 257.417 220.633 257.417 221.641C257.417 222.121 257.601 222.505 257.969 222.793C258.353 223.065 258.873 223.201 259.529 223.201Z" fill="white"/>
<path opacity="0.7" d="M51.3718 246.629L46.0848 256.438C45.6655 257.22 45.1725 257.804 44.6058 258.189C44.0392 258.575 43.4215 258.767 42.7528 258.767C42.2315 258.767 41.6988 258.648 41.1548 258.41L41.5968 257.05C42.0162 257.198 42.3902 257.271 42.7188 257.271C43.4668 257.271 44.0845 256.875 44.5718 256.081L44.8438 255.656L40.0498 246.629H41.8688L45.7278 254.177L49.6888 246.629H51.3718ZM62.9021 249.519V258.529H61.4231V251.95L58.0571 257.509H57.3431L54.0111 251.933V258.529H52.5151V249.519H54.1981L57.7341 255.605L61.3721 249.519H62.9021ZM66.0786 249.519H67.7106V253.344H72.8446V249.519H74.4766V258.529H72.8446V254.755H67.7106V258.529H66.0786V249.519ZM81.7128 252.579C82.8462 252.591 83.7132 252.851 84.3138 253.361C84.9145 253.871 85.2148 254.591 85.2148 255.52C85.2148 256.495 84.8862 257.249 84.2288 257.781C83.5828 258.303 82.6535 258.558 81.4408 258.546L77.6498 258.529V249.519H79.2818V252.562L81.7128 252.579ZM86.5578 249.519H88.1898V258.529H86.5578V249.519ZM81.3218 257.305C82.0585 257.317 82.6138 257.169 82.9878 256.863C83.3732 256.557 83.5658 256.104 83.5658 255.503C83.5658 254.914 83.3788 254.483 83.0048 254.211C82.6308 253.939 82.0698 253.798 81.3218 253.786L79.2818 253.752V257.288L81.3218 257.305ZM91.3627 249.519H92.9947V256.081L98.5197 249.519H99.9987V258.529H98.3667V251.967L92.8587 258.529H91.3627V249.519ZM95.5787 248.346C94.7401 248.346 94.0884 248.148 93.6237 247.751C93.1591 247.343 92.9211 246.76 92.9097 246H94.0147C94.0261 246.42 94.1677 246.76 94.4397 247.02C94.7231 247.27 95.0971 247.394 95.5617 247.394C96.0264 247.394 96.4004 247.27 96.6837 247.02C96.9671 246.76 97.1144 246.42 97.1257 246H98.2647C98.2534 246.76 98.0097 247.343 97.5337 247.751C97.0577 248.148 96.4061 248.346 95.5787 248.346ZM112.509 249.434C113.382 249.434 114.164 249.627 114.855 250.012C115.546 250.398 116.085 250.936 116.47 251.627C116.867 252.319 117.065 253.118 117.065 254.024C117.065 254.931 116.867 255.736 116.47 256.438C116.085 257.13 115.546 257.668 114.855 258.053C114.164 258.439 113.382 258.631 112.509 258.631C111.863 258.631 111.268 258.507 110.724 258.257C110.191 258.008 109.738 257.645 109.364 257.169V261.827H107.732V249.519H109.296V250.947C109.659 250.449 110.118 250.075 110.673 249.825C111.228 249.565 111.84 249.434 112.509 249.434ZM112.373 257.203C112.951 257.203 113.467 257.073 113.92 256.812C114.385 256.54 114.747 256.166 115.008 255.69C115.28 255.203 115.416 254.648 115.416 254.024C115.416 253.401 115.28 252.851 115.008 252.375C114.747 251.888 114.385 251.514 113.92 251.253C113.467 250.993 112.951 250.862 112.373 250.862C111.806 250.862 111.291 250.998 110.826 251.27C110.373 251.531 110.01 251.899 109.738 252.375C109.477 252.851 109.347 253.401 109.347 254.024C109.347 254.648 109.477 255.203 109.738 255.69C109.999 256.166 110.361 256.54 110.826 256.812C111.291 257.073 111.806 257.203 112.373 257.203ZM123.295 258.631C122.4 258.631 121.595 258.433 120.881 258.036C120.167 257.64 119.606 257.096 119.198 256.404C118.801 255.702 118.603 254.908 118.603 254.024C118.603 253.14 118.801 252.353 119.198 251.661C119.606 250.959 120.167 250.415 120.881 250.029C121.595 249.633 122.4 249.434 123.295 249.434C124.19 249.434 124.989 249.633 125.692 250.029C126.406 250.415 126.961 250.959 127.358 251.661C127.766 252.353 127.97 253.14 127.97 254.024C127.97 254.908 127.766 255.702 127.358 256.404C126.961 257.096 126.406 257.64 125.692 258.036C124.989 258.433 124.19 258.631 123.295 258.631ZM123.295 257.203C123.873 257.203 124.389 257.073 124.842 256.812C125.307 256.54 125.669 256.166 125.93 255.69C126.191 255.203 126.321 254.648 126.321 254.024C126.321 253.401 126.191 252.851 125.93 252.375C125.669 251.888 125.307 251.514 124.842 251.253C124.389 250.993 123.873 250.862 123.295 250.862C122.717 250.862 122.196 250.993 121.731 251.253C121.278 251.514 120.915 251.888 120.643 252.375C120.382 252.851 120.252 253.401 120.252 254.024C120.252 254.648 120.382 255.203 120.643 255.69C120.915 256.166 121.278 256.54 121.731 256.812C122.196 257.073 122.717 257.203 123.295 257.203ZM134.917 249.825C135.755 249.825 136.503 250.012 137.161 250.386C137.818 250.76 138.328 251.282 138.691 251.95C139.065 252.608 139.252 253.361 139.252 254.211C139.252 255.084 139.053 255.86 138.657 256.54C138.271 257.209 137.722 257.73 137.008 258.104C136.305 258.478 135.5 258.665 134.594 258.665C133.064 258.665 131.879 258.144 131.041 257.101C130.213 256.047 129.8 254.568 129.8 252.664C129.8 250.817 130.179 249.372 130.939 248.329C131.698 247.275 132.86 246.578 134.424 246.238L138.538 245.32L138.776 246.816L134.985 247.632C133.806 247.893 132.928 248.335 132.35 248.958C131.772 249.582 131.443 250.477 131.364 251.644C131.749 251.066 132.248 250.619 132.86 250.301C133.472 249.984 134.157 249.825 134.917 249.825ZM134.628 257.305C135.206 257.305 135.716 257.175 136.158 256.914C136.611 256.654 136.962 256.297 137.212 255.843C137.461 255.379 137.586 254.852 137.586 254.262C137.586 253.367 137.314 252.647 136.77 252.103C136.226 251.559 135.512 251.287 134.628 251.287C133.744 251.287 133.024 251.559 132.469 252.103C131.925 252.647 131.653 253.367 131.653 254.262C131.653 254.852 131.777 255.379 132.027 255.843C132.287 256.297 132.644 256.654 133.098 256.914C133.551 257.175 134.061 257.305 134.628 257.305ZM145.441 258.631C144.546 258.631 143.741 258.433 143.027 258.036C142.313 257.64 141.752 257.096 141.344 256.404C140.948 255.702 140.749 254.908 140.749 254.024C140.749 253.14 140.948 252.353 141.344 251.661C141.752 250.959 142.313 250.415 143.027 250.029C143.741 249.633 144.546 249.434 145.441 249.434C146.337 249.434 147.136 249.633 147.838 250.029C148.552 250.415 149.108 250.959 149.504 251.661C149.912 252.353 150.116 253.14 150.116 254.024C150.116 254.908 149.912 255.702 149.504 256.404C149.108 257.096 148.552 257.64 147.838 258.036C147.136 258.433 146.337 258.631 145.441 258.631ZM145.441 257.203C146.019 257.203 146.535 257.073 146.988 256.812C147.453 256.54 147.816 256.166 148.076 255.69C148.337 255.203 148.467 254.648 148.467 254.024C148.467 253.401 148.337 252.851 148.076 252.375C147.816 251.888 147.453 251.514 146.988 251.253C146.535 250.993 146.019 250.862 145.441 250.862C144.863 250.862 144.342 250.993 143.877 251.253C143.424 251.514 143.061 251.888 142.789 252.375C142.529 252.851 142.398 253.401 142.398 254.024C142.398 254.648 142.529 255.203 142.789 255.69C143.061 256.166 143.424 256.54 143.877 256.812C144.342 257.073 144.863 257.203 145.441 257.203ZM158.856 250.947H155.558V258.529H153.926V250.947H150.628V249.519H158.856V250.947ZM174.253 257.101V260.62H172.723V258.529H165.192V260.62H163.645V257.101H164.121C164.699 257.067 165.096 256.659 165.311 255.877C165.527 255.095 165.674 253.99 165.753 252.562L165.889 249.519H172.876V257.101H174.253ZM167.249 252.681C167.204 253.815 167.108 254.755 166.96 255.503C166.824 256.24 166.569 256.773 166.195 257.101H171.244V250.947H167.334L167.249 252.681ZM184.114 249.519V258.529H182.482V250.947H178.606L178.504 252.953C178.448 254.166 178.34 255.18 178.181 255.996C178.023 256.801 177.762 257.447 177.399 257.934C177.037 258.422 176.532 258.665 175.886 258.665C175.592 258.665 175.257 258.614 174.883 258.512L174.985 257.135C175.133 257.169 175.269 257.186 175.393 257.186C175.847 257.186 176.187 256.988 176.413 256.591C176.64 256.195 176.787 255.724 176.855 255.18C176.923 254.636 176.986 253.86 177.042 252.851L177.195 249.519H184.114ZM194.495 249.519V258.529H193.033V255.673H190.415H190.228L188.256 258.529H186.505L188.698 255.452C188.018 255.248 187.497 254.914 187.134 254.449C186.771 253.973 186.59 253.384 186.59 252.681C186.59 251.65 186.941 250.868 187.644 250.335C188.347 249.791 189.316 249.519 190.551 249.519H194.495ZM188.256 252.732C188.256 253.333 188.443 253.781 188.817 254.075C189.202 254.359 189.775 254.5 190.534 254.5H193.033V250.947H190.602C189.038 250.947 188.256 251.542 188.256 252.732ZM206.104 258.631C205.208 258.631 204.404 258.433 203.69 258.036C202.976 257.64 202.415 257.096 202.007 256.404C201.61 255.702 201.412 254.908 201.412 254.024C201.412 253.14 201.61 252.353 202.007 251.661C202.415 250.959 202.976 250.415 203.69 250.029C204.404 249.633 205.208 249.434 206.104 249.434C206.999 249.434 207.798 249.633 208.501 250.029C209.215 250.415 209.77 250.959 210.167 251.661C210.575 252.353 210.779 253.14 210.779 254.024C210.779 254.908 210.575 255.702 210.167 256.404C209.77 257.096 209.215 257.64 208.501 258.036C207.798 258.433 206.999 258.631 206.104 258.631ZM206.104 257.203C206.682 257.203 207.197 257.073 207.651 256.812C208.115 256.54 208.478 256.166 208.739 255.69C208.999 255.203 209.13 254.648 209.13 254.024C209.13 253.401 208.999 252.851 208.739 252.375C208.478 251.888 208.115 251.514 207.651 251.253C207.197 250.993 206.682 250.862 206.104 250.862C205.526 250.862 205.004 250.993 204.54 251.253C204.086 251.514 203.724 251.888 203.452 252.375C203.191 252.851 203.061 253.401 203.061 254.024C203.061 254.648 203.191 255.203 203.452 255.69C203.724 256.166 204.086 256.54 204.54 256.812C205.004 257.073 205.526 257.203 206.104 257.203ZM217.725 249.825C218.564 249.825 219.312 250.012 219.969 250.386C220.627 250.76 221.137 251.282 221.499 251.95C221.873 252.608 222.06 253.361 222.06 254.211C222.06 255.084 221.862 255.86 221.465 256.54C221.08 257.209 220.53 257.73 219.816 258.104C219.114 258.478 218.309 258.665 217.402 258.665C215.872 258.665 214.688 258.144 213.849 257.101C213.022 256.047 212.608 254.568 212.608 252.664C212.608 250.817 212.988 249.372 213.747 248.329C214.507 247.275 215.668 246.578 217.232 246.238L221.346 245.32L221.584 246.816L217.793 247.632C216.615 247.893 215.736 248.335 215.158 248.958C214.58 249.582 214.252 250.477 214.172 251.644C214.558 251.066 215.056 250.619 215.668 250.301C216.28 249.984 216.966 249.825 217.725 249.825ZM217.436 257.305C218.014 257.305 218.524 257.175 218.966 256.914C219.42 256.654 219.771 256.297 220.02 255.843C220.27 255.379 220.394 254.852 220.394 254.262C220.394 253.367 220.122 252.647 219.578 252.103C219.034 251.559 218.32 251.287 217.436 251.287C216.552 251.287 215.833 251.559 215.277 252.103C214.733 252.647 214.461 253.367 214.461 254.262C214.461 254.852 214.586 255.379 214.835 255.843C215.096 256.297 215.453 256.654 215.906 256.914C216.36 257.175 216.87 257.305 217.436 257.305ZM232.183 249.519L227.814 259.43C227.429 260.348 226.975 260.994 226.454 261.368C225.944 261.742 225.326 261.929 224.601 261.929C224.159 261.929 223.728 261.856 223.309 261.708C222.901 261.572 222.561 261.368 222.289 261.096L222.986 259.872C223.451 260.314 223.989 260.535 224.601 260.535C224.998 260.535 225.326 260.428 225.587 260.212C225.859 260.008 226.103 259.651 226.318 259.141L226.607 258.512L222.629 249.519H224.329L227.474 256.727L230.585 249.519H232.183ZM241.045 249.519V258.529H239.413V254.891C238.438 255.345 237.469 255.571 236.506 255.571C235.384 255.571 234.517 255.311 233.905 254.789C233.293 254.268 232.987 253.486 232.987 252.443V249.519H234.619V252.341C234.619 252.965 234.812 253.435 235.197 253.752C235.594 254.07 236.143 254.228 236.846 254.228C237.639 254.228 238.495 254.03 239.413 253.633V249.519H241.045ZM252.356 254.075C252.356 254.2 252.345 254.364 252.322 254.568H245.012C245.114 255.362 245.46 256.002 246.049 256.489C246.65 256.965 247.392 257.203 248.276 257.203C249.353 257.203 250.22 256.841 250.877 256.115L251.778 257.169C251.37 257.645 250.86 258.008 250.248 258.257C249.648 258.507 248.973 258.631 248.225 258.631C247.273 258.631 246.429 258.439 245.692 258.053C244.956 257.657 244.383 257.107 243.975 256.404C243.579 255.702 243.38 254.908 243.38 254.024C243.38 253.152 243.573 252.364 243.958 251.661C244.355 250.959 244.893 250.415 245.573 250.029C246.265 249.633 247.041 249.434 247.902 249.434C248.764 249.434 249.529 249.633 250.197 250.029C250.877 250.415 251.404 250.959 251.778 251.661C252.164 252.364 252.356 253.169 252.356 254.075ZM247.902 250.811C247.12 250.811 246.463 251.049 245.93 251.525C245.409 252.001 245.103 252.625 245.012 253.395H250.792C250.702 252.636 250.39 252.018 249.857 251.542C249.336 251.055 248.684 250.811 247.902 250.811ZM254.888 249.519H256.52V253.344H261.654V249.519H263.286V258.529H261.654V254.755H256.52V258.529H254.888V249.519ZM266.459 249.519H268.091V256.081L273.616 249.519H275.095V258.529H273.463V251.967L267.955 258.529H266.459V249.519ZM285.488 249.519V258.529H284.026V255.673H281.408H281.221L279.249 258.529H277.498L279.691 255.452C279.011 255.248 278.49 254.914 278.127 254.449C277.764 253.973 277.583 253.384 277.583 252.681C277.583 251.65 277.934 250.868 278.637 250.335C279.34 249.791 280.309 249.519 281.544 249.519H285.488ZM279.249 252.732C279.249 253.333 279.436 253.781 279.81 254.075C280.195 254.359 280.768 254.5 281.527 254.5H284.026V250.947H281.595C280.031 250.947 279.249 251.542 279.249 252.732ZM81.2239 272.519V281.529H79.5919V273.947H74.5089V281.529H72.8769V272.519H81.2239ZM89.1588 272.434C90.0314 272.434 90.8134 272.627 91.5048 273.012C92.1961 273.398 92.7344 273.936 93.1198 274.627C93.5164 275.319 93.7148 276.118 93.7148 277.024C93.7148 277.931 93.5164 278.736 93.1198 279.438C92.7344 280.13 92.1961 280.668 91.5048 281.053C90.8134 281.439 90.0314 281.631 89.1588 281.631C88.5128 281.631 87.9178 281.507 87.3738 281.257C86.8411 281.008 86.3878 280.645 86.0138 280.169V284.827H84.3818V272.519H85.9458V273.947C86.3084 273.449 86.7674 273.075 87.3228 272.825C87.8781 272.565 88.4901 272.434 89.1588 272.434ZM89.0228 280.203C89.6008 280.203 90.1164 280.073 90.5698 279.812C91.0344 279.54 91.3971 279.166 91.6578 278.69C91.9298 278.203 92.0658 277.648 92.0658 277.024C92.0658 276.401 91.9298 275.851 91.6578 275.375C91.3971 274.888 91.0344 274.514 90.5698 274.253C90.1164 273.993 89.6008 273.862 89.0228 273.862C88.4561 273.862 87.9404 273.998 87.4758 274.27C87.0224 274.531 86.6598 274.899 86.3878 275.375C86.1271 275.851 85.9968 276.401 85.9968 277.024C85.9968 277.648 86.1271 278.203 86.3878 278.69C86.6484 279.166 87.0111 279.54 87.4758 279.812C87.9404 280.073 88.4561 280.203 89.0228 280.203ZM99.9449 281.631C99.0495 281.631 98.2449 281.433 97.5309 281.036C96.8169 280.64 96.2559 280.096 95.8479 279.404C95.4512 278.702 95.2529 277.908 95.2529 277.024C95.2529 276.14 95.4512 275.353 95.8479 274.661C96.2559 273.959 96.8169 273.415 97.5309 273.029C98.2449 272.633 99.0495 272.434 99.9449 272.434C100.84 272.434 101.639 272.633 102.342 273.029C103.056 273.415 103.611 273.959 104.008 274.661C104.416 275.353 104.62 276.14 104.62 277.024C104.62 277.908 104.416 278.702 104.008 279.404C103.611 280.096 103.056 280.64 102.342 281.036C101.639 281.433 100.84 281.631 99.9449 281.631ZM99.9449 280.203C100.523 280.203 101.039 280.073 101.492 279.812C101.957 279.54 102.319 279.166 102.58 278.69C102.841 278.203 102.971 277.648 102.971 277.024C102.971 276.401 102.841 275.851 102.58 275.375C102.319 274.888 101.957 274.514 101.492 274.253C101.039 273.993 100.523 273.862 99.9449 273.862C99.3669 273.862 98.8455 273.993 98.3809 274.253C97.9275 274.514 97.5649 274.888 97.2929 275.375C97.0322 275.851 96.9019 276.401 96.9019 277.024C96.9019 277.648 97.0322 278.203 97.2929 278.69C97.5649 279.166 97.9275 279.54 98.3809 279.812C98.8455 280.073 99.3669 280.203 99.9449 280.203ZM113.607 273.947H108.609V281.529H106.977V272.519H113.607V273.947ZM120.054 272.434C120.927 272.434 121.709 272.627 122.4 273.012C123.092 273.398 123.63 273.936 124.015 274.627C124.412 275.319 124.61 276.118 124.61 277.024C124.61 277.931 124.412 278.736 124.015 279.438C123.63 280.13 123.092 280.668 122.4 281.053C121.709 281.439 120.927 281.631 120.054 281.631C119.408 281.631 118.813 281.507 118.269 281.257C117.737 281.008 117.283 280.645 116.909 280.169V284.827H115.277V272.519H116.841V273.947C117.204 273.449 117.663 273.075 118.218 272.825C118.774 272.565 119.386 272.434 120.054 272.434ZM119.918 280.203C120.496 280.203 121.012 280.073 121.465 279.812C121.93 279.54 122.293 279.166 122.553 278.69C122.825 278.203 122.961 277.648 122.961 277.024C122.961 276.401 122.825 275.851 122.553 275.375C122.293 274.888 121.93 274.514 121.465 274.253C121.012 273.993 120.496 273.862 119.918 273.862C119.352 273.862 118.836 273.998 118.371 274.27C117.918 274.531 117.555 274.899 117.283 275.375C117.023 275.851 116.892 276.401 116.892 277.024C116.892 277.648 117.023 278.203 117.283 278.69C117.544 279.166 117.907 279.54 118.371 279.812C118.836 280.073 119.352 280.203 119.918 280.203ZM130.111 272.434C131.358 272.434 132.31 272.74 132.967 273.352C133.636 273.964 133.97 274.877 133.97 276.089V281.529H132.423V280.339C132.151 280.759 131.76 281.082 131.25 281.308C130.752 281.524 130.157 281.631 129.465 281.631C128.457 281.631 127.646 281.388 127.034 280.9C126.434 280.413 126.133 279.773 126.133 278.979C126.133 278.186 126.422 277.551 127 277.075C127.578 276.588 128.496 276.344 129.754 276.344H132.338V276.021C132.338 275.319 132.134 274.78 131.726 274.406C131.318 274.032 130.718 273.845 129.924 273.845C129.392 273.845 128.87 273.936 128.36 274.117C127.85 274.287 127.42 274.52 127.068 274.814L126.388 273.59C126.853 273.216 127.408 272.933 128.054 272.74C128.7 272.536 129.386 272.434 130.111 272.434ZM129.737 280.373C130.361 280.373 130.899 280.237 131.352 279.965C131.806 279.682 132.134 279.285 132.338 278.775V277.517H129.822C128.44 277.517 127.748 277.982 127.748 278.911C127.748 279.365 127.924 279.722 128.275 279.982C128.627 280.243 129.114 280.373 129.737 280.373ZM147.296 272.519V281.529H145.817V274.95L142.451 280.509H141.737L138.405 274.933V281.529H136.909V272.519H138.592L142.128 278.605L145.766 272.519H147.296ZM160.86 272.519V281.529H159.381V274.95L156.015 280.509H155.301L151.969 274.933V281.529H150.473V272.519H152.156L155.692 278.605L159.33 272.519H160.86ZM164.036 272.519H165.668V279.081L171.193 272.519H172.672V281.529H171.04V274.967L165.532 281.529H164.036V272.519ZM180.617 272.434C181.489 272.434 182.271 272.627 182.963 273.012C183.654 273.398 184.192 273.936 184.578 274.627C184.974 275.319 185.173 276.118 185.173 277.024C185.173 277.931 184.974 278.736 184.578 279.438C184.192 280.13 183.654 280.668 182.963 281.053C182.271 281.439 181.489 281.631 180.617 281.631C179.971 281.631 179.376 281.507 178.832 281.257C178.299 281.008 177.846 280.645 177.472 280.169V284.827H175.84V272.519H177.404V273.947C177.766 273.449 178.225 273.075 178.781 272.825C179.336 272.565 179.948 272.434 180.617 272.434ZM180.481 280.203C181.059 280.203 181.574 280.073 182.028 279.812C182.492 279.54 182.855 279.166 183.116 278.69C183.388 278.203 183.524 277.648 183.524 277.024C183.524 276.401 183.388 275.851 183.116 275.375C182.855 274.888 182.492 274.514 182.028 274.253C181.574 273.993 181.059 273.862 180.481 273.862C179.914 273.862 179.398 273.998 178.934 274.27C178.48 274.531 178.118 274.899 177.846 275.375C177.585 275.851 177.455 276.401 177.455 277.024C177.455 277.648 177.585 278.203 177.846 278.69C178.106 279.166 178.469 279.54 178.934 279.812C179.398 280.073 179.914 280.203 180.481 280.203ZM191.403 281.631C190.508 281.631 189.703 281.433 188.989 281.036C188.275 280.64 187.714 280.096 187.306 279.404C186.909 278.702 186.711 277.908 186.711 277.024C186.711 276.14 186.909 275.353 187.306 274.661C187.714 273.959 188.275 273.415 188.989 273.029C189.703 272.633 190.508 272.434 191.403 272.434C192.298 272.434 193.097 272.633 193.8 273.029C194.514 273.415 195.069 273.959 195.466 274.661C195.874 275.353 196.078 276.14 196.078 277.024C196.078 277.908 195.874 278.702 195.466 279.404C195.069 280.096 194.514 280.64 193.8 281.036C193.097 281.433 192.298 281.631 191.403 281.631ZM191.403 280.203C191.981 280.203 192.497 280.073 192.95 279.812C193.415 279.54 193.777 279.166 194.038 278.69C194.299 278.203 194.429 277.648 194.429 277.024C194.429 276.401 194.299 275.851 194.038 275.375C193.777 274.888 193.415 274.514 192.95 274.253C192.497 273.993 191.981 273.862 191.403 273.862C190.825 273.862 190.304 273.993 189.839 274.253C189.386 274.514 189.023 274.888 188.751 275.375C188.49 275.851 188.36 276.401 188.36 277.024C188.36 277.648 188.49 278.203 188.751 278.69C189.023 279.166 189.386 279.54 189.839 279.812C190.304 280.073 190.825 280.203 191.403 280.203ZM204.572 276.854C205.739 277.149 206.323 277.88 206.323 279.047C206.323 279.841 206.022 280.453 205.422 280.883C204.832 281.314 203.948 281.529 202.77 281.529H198.435V272.519H202.617C203.682 272.519 204.515 272.723 205.116 273.131C205.716 273.528 206.017 274.095 206.017 274.831C206.017 275.307 205.886 275.721 205.626 276.072C205.376 276.412 205.025 276.673 204.572 276.854ZM200.033 276.395H202.481C203.104 276.395 203.574 276.282 203.892 276.055C204.22 275.829 204.385 275.5 204.385 275.069C204.385 274.208 203.75 273.777 202.481 273.777H200.033V276.395ZM202.651 280.271C203.331 280.271 203.841 280.164 204.181 279.948C204.521 279.733 204.691 279.399 204.691 278.945C204.691 278.481 204.532 278.135 204.215 277.908C203.909 277.682 203.421 277.568 202.753 277.568H200.033V280.271H202.651ZM212.09 272.434C213.337 272.434 214.289 272.74 214.946 273.352C215.615 273.964 215.949 274.877 215.949 276.089V281.529H214.402V280.339C214.13 280.759 213.739 281.082 213.229 281.308C212.73 281.524 212.135 281.631 211.444 281.631C210.435 281.631 209.625 281.388 209.013 280.9C208.412 280.413 208.112 279.773 208.112 278.979C208.112 278.186 208.401 277.551 208.979 277.075C209.557 276.588 210.475 276.344 211.733 276.344H214.317V276.021C214.317 275.319 214.113 274.78 213.705 274.406C213.297 274.032 212.696 273.845 211.903 273.845C211.37 273.845 210.849 273.936 210.339 274.117C209.829 274.287 209.398 274.52 209.047 274.814L208.367 273.59C208.832 273.216 209.387 272.933 210.033 272.74C210.679 272.536 211.365 272.434 212.09 272.434ZM211.716 280.373C212.339 280.373 212.878 280.237 213.331 279.965C213.784 279.682 214.113 279.285 214.317 278.775V277.517H211.801C210.418 277.517 209.727 277.982 209.727 278.911C209.727 279.365 209.903 279.722 210.254 279.982C210.605 280.243 211.093 280.373 211.716 280.373ZM218.888 272.519H220.52V276.344H225.654V272.519H227.286V281.529H225.654V277.755H220.52V281.529H218.888V272.519ZM230.459 272.519H232.091V279.081L237.616 272.519H239.095V281.529H237.463V274.967L231.955 281.529H230.459V272.519ZM250.236 272.434C251.108 272.434 251.89 272.633 252.582 273.029C253.273 273.415 253.817 273.959 254.214 274.661C254.61 275.353 254.809 276.14 254.809 277.024C254.809 277.908 254.61 278.702 254.214 279.404C253.817 280.096 253.273 280.64 252.582 281.036C251.89 281.433 251.108 281.631 250.236 281.631C249.442 281.631 248.723 281.467 248.077 281.138C247.431 280.81 246.898 280.351 246.479 279.761C246.071 279.161 245.816 278.481 245.714 277.721H243.895V281.529H242.263V272.519H243.895V276.208H245.731C245.844 275.46 246.105 274.803 246.513 274.236C246.932 273.658 247.459 273.216 248.094 272.91C248.74 272.593 249.454 272.434 250.236 272.434ZM250.236 280.203C250.791 280.203 251.29 280.073 251.732 279.812C252.185 279.552 252.542 279.183 252.803 278.707C253.063 278.22 253.194 277.659 253.194 277.024C253.194 276.401 253.063 275.851 252.803 275.375C252.542 274.888 252.185 274.514 251.732 274.253C251.29 273.993 250.791 273.862 250.236 273.862C249.68 273.862 249.176 273.993 248.723 274.253C248.269 274.514 247.912 274.888 247.652 275.375C247.402 275.851 247.278 276.401 247.278 277.024C247.278 277.659 247.402 278.22 247.652 278.707C247.912 279.183 248.269 279.552 248.723 279.812C249.176 280.073 249.68 280.203 250.236 280.203Z" fill="white"/>
<defs>
<clipPath id="clip0_329_17287">
<rect width="208" height="170" fill="white" transform="translate(59.4346 0.529053)"/>
</clipPath>
</defs>
</svg>
