<svg width="326" height="288" viewBox="0 0 326 288" fill="none" xmlns="http://www.w3.org/2000/svg">
<g clip-path="url(#clip0_329_20707)">
<path fill-rule="evenodd" clip-rule="evenodd" d="M247.488 76.7624C247.488 76.6012 247.619 76.4702 247.78 76.4702H267.309C267.47 76.4702 267.601 76.6012 267.601 76.7624C267.601 76.9238 267.47 77.0549 267.309 77.0549H247.78C247.619 77.0549 247.488 76.9238 247.488 76.7624Z" fill="#64E7F9"/>
<path fill-rule="evenodd" clip-rule="evenodd" d="M236.463 78.9074C236.463 78.746 236.594 78.6152 236.755 78.6152H267.308C267.47 78.6152 267.601 78.746 267.601 78.9074C267.601 79.0689 267.47 79.1996 267.308 79.1996H236.755C236.594 79.1996 236.463 79.0689 236.463 78.9074Z" fill="#64E7F9"/>
<path fill-rule="evenodd" clip-rule="evenodd" d="M81.3477 4.33618H175.402C176.048 4.33618 176.571 4.85953 176.571 5.50513V32.6535C176.571 33.299 176.048 33.8225 175.402 33.8225H81.3477C80.702 33.8225 80.1787 33.299 80.1787 32.6535V5.50513C80.1787 4.85956 80.702 4.33618 81.3477 4.33618ZM81.3477 4.92066C81.0248 4.92066 80.7631 5.18236 80.7631 5.50513V32.6535C80.7631 32.9764 81.0248 33.2378 81.3477 33.2378H175.402C175.725 33.2378 175.987 32.9764 175.987 32.6535V5.50513C175.987 5.18236 175.725 4.92066 175.402 4.92066H81.3477Z" fill="#B3CAF8"/>
<path opacity="0.4" d="M196.121 74.7064H119.992C117.625 74.7064 115.696 72.7776 115.696 70.4105V41.8588C115.696 39.4918 117.625 37.563 119.992 37.563H196.091C198.458 37.563 200.387 39.4918 200.387 41.8588V70.3812C200.416 72.7776 198.488 74.7064 196.121 74.7064Z" fill="#72B7D3"/>
<path opacity="0.7" d="M236.486 43.3591V12.8789L257.545 27.7311L236.486 43.3591Z" fill="#64E7F9"/>
<path opacity="0.7" d="M225.658 43.3591V12.8789L204.599 27.7311L225.658 43.3591Z" fill="#64E7F9"/>
<path fill-rule="evenodd" clip-rule="evenodd" d="M230.321 53.5353V43.6365H232.453V53.5353H230.321Z" fill="#64E7F9"/>
<path fill-rule="evenodd" clip-rule="evenodd" d="M249.067 47.9322L243.066 40.0794L244.76 38.7852L250.76 46.6379L249.067 47.9322Z" fill="#64E7F9"/>
<path fill-rule="evenodd" clip-rule="evenodd" d="M260.577 32.1368L251.065 29.4822L251.638 27.429L261.15 30.0835L260.577 32.1368Z" fill="#64E7F9"/>
<path fill-rule="evenodd" clip-rule="evenodd" d="M209.785 44.6261L216.504 37.3818L218.067 38.8315L211.348 46.0758L209.785 44.6261Z" fill="#64E7F9"/>
<path fill-rule="evenodd" clip-rule="evenodd" d="M201.065 27.0999L210.798 25.4131L211.162 27.5137L201.429 29.2002L201.065 27.0999Z" fill="#64E7F9"/>
<path opacity="0.9" d="M231.388 39.4062C238.031 39.4062 243.416 34.0211 243.416 27.3782C243.416 20.7352 238.031 15.3501 231.388 15.3501C224.745 15.3501 219.36 20.7352 219.36 27.3782C219.36 34.0211 224.745 39.4062 231.388 39.4062Z" fill="#3665DF"/>
<path fill-rule="evenodd" clip-rule="evenodd" d="M231.26 22.9531V0.334961H231.517V22.9531H231.26Z" fill="#3665DF"/>
<path fill-rule="evenodd" clip-rule="evenodd" d="M230.982 0.0581055H231.792V23.2292H230.982V0.0581055Z" fill="#3665DF"/>
<path fill-rule="evenodd" clip-rule="evenodd" d="M228.06 9.01001V42.0399L205.956 25.525L228.06 9.01001ZM206.385 25.525L227.803 41.5271V9.52292L206.385 25.525Z" fill="#3665DF"/>
<path fill-rule="evenodd" clip-rule="evenodd" d="M228.336 8.45703V42.5906L205.494 25.5236L228.336 8.45703ZM206.847 25.5236L227.526 40.974V10.0734L206.847 25.5236Z" fill="#3665DF"/>
<path fill-rule="evenodd" clip-rule="evenodd" d="M234.716 9.01001L256.82 25.525L234.716 42.0399V9.01001ZM234.973 9.52292V41.5271L256.391 25.525L234.973 9.52292Z" fill="#3665DF"/>
<path d="M184.942 29.7219V28.5514C184.942 28.103 185.163 27.879 185.604 27.879C189.136 27.879 189.75 26.1854 189.75 23.1723V13.46C189.75 9.84903 190.633 7.73242 195.244 7.73242C195.685 7.73242 195.906 7.95648 195.906 8.40459V9.57504C195.906 10.0234 195.685 10.2475 195.244 10.2475C192.963 10.2475 192.472 11.4927 192.472 13.6344V22.176C192.472 25.7621 191.81 28.1778 188.695 29.0244V29.1987C191.81 30.0952 192.472 32.5109 192.472 36.0471V44.589C192.472 46.7307 192.963 47.9756 195.244 47.9756C195.685 47.9756 195.906 48.1999 195.906 48.648V49.8185C195.906 50.2668 195.685 50.4909 195.244 50.4909C190.608 50.4909 189.75 48.3991 189.75 44.7633V35.051C189.75 32.1124 189.136 30.3443 185.604 30.3443C185.163 30.394 184.942 30.17 184.942 29.7219Z" fill="#64E7F9"/>
<path fill-rule="evenodd" clip-rule="evenodd" d="M234.439 8.45703L257.282 25.5236L234.439 42.5906V8.45703ZM235.249 10.0734V40.974L255.929 25.5236L235.249 10.0734Z" fill="#3665DF"/>
<path opacity="0.63" d="M61.9446 61.0687H168.035C169.738 61.0687 171.119 59.7231 171.119 58.0635V13.4798C171.119 11.8202 169.738 10.4746 168.035 10.4746H61.9446C60.2416 10.4746 58.8608 11.8202 58.8608 13.4798V58.041C58.8608 59.7231 60.2416 61.0687 61.9446 61.0687Z" fill="#64E7F9"/>
<path opacity="0.9" d="M116.329 55.8371H156.421C157.493 55.8371 158.378 54.9402 158.378 53.8085V26.1131C158.378 25.0027 157.513 24.0845 156.421 24.0845H116.329C115.258 24.0845 114.372 24.9813 114.372 26.1131V53.8085C114.372 54.9402 115.237 55.8371 116.329 55.8371Z" fill="#B3CAF8"/>
<g opacity="0.7">
<path opacity="0.7" d="M153.291 50.0568C153.869 49.2353 154.325 48.2006 154.325 46.7098C154.325 45.2494 153.9 44.215 153.291 43.3936H153.839C154.356 44.0629 154.904 45.0973 154.904 46.7098C154.904 48.3223 154.356 49.357 153.839 50.0263H153.291V50.0568Z" fill="#3665DF"/>
<path opacity="0.7" d="M125.019 50.0568C124.44 49.2353 123.984 48.2006 123.984 46.7098C123.984 45.2494 124.41 44.215 125.019 43.3936H124.471C123.953 44.0629 123.406 45.0973 123.406 46.7098C123.406 48.3223 123.953 49.357 124.471 50.0263H125.019V50.0568Z" fill="#3665DF"/>
</g>
<path d="M70.8389 21.8437H158.336C159.037 21.8437 159.614 21.2669 159.614 20.5664C159.614 19.8659 159.037 19.2891 158.336 19.2891H70.8389C70.1384 19.2891 69.5615 19.8659 69.5615 20.5664C69.5615 21.2669 70.1178 21.8437 70.8389 21.8437Z" fill="#64E7F9"/>
<path d="M71.1064 44.3834H101.288C101.865 44.3834 102.339 43.8169 102.339 43.1275V25.9378C102.339 25.2482 101.865 24.6819 101.288 24.6819H71.1064C70.5295 24.6819 70.0557 25.2482 70.0557 25.9378V43.1275C70.0763 43.8169 70.5295 44.3834 71.1064 44.3834Z" fill="#3665DF"/>
<path d="M72.8595 42.4046H99.5188C99.8897 42.4046 100.178 42.116 100.178 41.7451C100.178 41.3746 99.8897 41.0859 99.5188 41.0859H72.8595C72.4886 41.0859 72.2002 41.3746 72.2002 41.7451C72.2002 42.0954 72.5092 42.4046 72.8595 42.4046Z" fill="#1A1A1A" fill-opacity="0.27"/>
<path d="M97.3948 27.3819H100.362C100.732 27.3819 101.021 27.0935 101.021 26.7227C101.021 26.3518 100.732 26.0635 100.362 26.0635H97.3948C97.024 26.0635 96.7354 26.3518 96.7354 26.7227C96.7354 27.073 97.024 27.3819 97.3948 27.3819Z" fill="#1A1A1A" fill-opacity="0.27"/>
<path d="M72.3624 27.3819H75.3291C75.6999 27.3819 75.9884 27.0935 75.9884 26.7227C75.9884 26.3518 75.6999 26.0635 75.3291 26.0635H72.3624C71.9916 26.0635 71.7031 26.3518 71.7031 26.7227C71.7031 27.073 72.0122 27.3819 72.3624 27.3819Z" fill="#1A1A1A" fill-opacity="0.27"/>
<path d="M77.3097 27.3819H80.2765C80.6473 27.3819 80.9357 27.0935 80.9357 26.7227C80.9357 26.3518 80.6473 26.0635 80.2765 26.0635H77.3097C76.9388 26.0635 76.6504 26.3518 76.6504 26.7227C76.6504 27.073 76.9388 27.3819 77.3097 27.3819Z" fill="#1A1A1A" fill-opacity="0.27"/>
<path opacity="0.5" d="M73.5793 38.8668H99.1466C99.806 38.8668 100.342 38.2265 100.342 37.4383V29.7957C100.342 29.0077 99.806 28.3674 99.1466 28.3674H73.5587C72.8994 28.3674 72.3638 29.0077 72.3638 29.7957V37.4383C72.3638 38.2265 72.8994 38.8668 73.5793 38.8668Z" fill="white"/>
<path d="M86.3532 32.3364C84.621 32.3364 83.2168 30.9322 83.2168 29.1999C83.2168 27.4677 84.621 26.0635 86.3532 26.0635C88.0855 26.0635 89.4897 27.4677 89.4897 29.1999C89.4897 30.9322 88.0855 32.3364 86.3532 32.3364Z" fill="#64E7F9"/>
<path d="M93.5517 38.7988C93.5517 36.3169 90.3335 34.3259 86.3515 34.3259C82.3695 34.3259 79.1514 36.3441 79.1514 38.7988H93.5517Z" fill="#64E7F9"/>
<path fill-rule="evenodd" clip-rule="evenodd" d="M102.958 42.8584C102.867 42.8584 102.794 42.9321 102.794 43.0229C102.794 43.6324 102.311 44.1151 101.702 44.1151H71.9521C71.3425 44.1151 70.8599 43.6324 70.8599 43.0229C70.8599 42.9321 70.7862 42.8584 70.6953 42.8584C70.6044 42.8584 70.5308 42.9321 70.5308 43.0229C70.5308 43.8144 71.1607 44.4443 71.9521 44.4443H101.702C102.493 44.4443 103.123 43.8144 103.123 43.0229C103.123 42.9321 103.049 42.8584 102.958 42.8584Z" fill="#B3CAF8"/>
<path opacity="0.7" d="M144.677 27.9209H154.546V30.2282H144.677V27.9209Z" fill="#3665DF"/>
<path opacity="0.7" d="M144.677 33.4646H154.546V35.7719H144.677V33.4646Z" fill="#3665DF"/>
<path opacity="0.7" d="M121.666 33.4646H143.916V35.7719H121.666V33.4646Z" fill="#3665DF"/>
<path opacity="0.3" d="M139.189 37.0059H148.632V39.3134H139.189V37.0059Z" fill="#3665DF"/>
<path opacity="0.3" d="M124.365 37.0059H133.808V39.3134H124.365V37.0059Z" fill="#3665DF"/>
<path opacity="0.3" d="M132.791 40.1997H148.634V42.507H132.791V40.1997Z" fill="#3665DF"/>
<path opacity="0.7" d="M136.498 43.6917H152.341V45.9992H136.498V43.6917Z" fill="#3665DF"/>
<path opacity="0.7" d="M126.135 43.6611H135.55V45.9684H126.135V43.6611Z" fill="#3665DF"/>
<path opacity="0.3" d="M134.762 37.7009V37.3059H138.237V37.7009H134.762ZM134.762 39.0176V38.6227H138.237V39.0176H134.762Z" fill="#3665DF"/>
<path opacity="0.7" d="M136.498 47.1836H152.341V49.4912H136.498V47.1836Z" fill="#3665DF"/>
<path opacity="0.7" d="M126.135 47.1836H135.55V49.4912H126.135V47.1836Z" fill="#3665DF"/>
<path d="M70.0557 46.5654H102.339V53.4465H70.0557V46.5654Z" fill="#B3CAF8"/>
<path d="M70.8205 15.2459C70.3312 15.2459 69.9346 14.8493 69.9346 14.36C69.9346 13.8707 70.3312 13.4741 70.8205 13.4741C71.3097 13.4741 71.7064 13.8707 71.7064 14.36C71.7064 14.8493 71.3097 15.2459 70.8205 15.2459Z" fill="#87650E" fill-opacity="0.58"/>
<path d="M67.8302 15.2459C67.3409 15.2459 66.9443 14.8493 66.9443 14.36C66.9443 13.8707 67.3409 13.4741 67.8302 13.4741C68.3195 13.4741 68.7161 13.8707 68.7161 14.36C68.7161 14.8493 68.3195 15.2459 67.8302 15.2459Z" fill="#3665DF"/>
<path opacity="0.9" d="M64.8659 15.2459C64.3766 15.2459 63.98 14.8493 63.98 14.36C63.98 13.8707 64.3766 13.4741 64.8659 13.4741C65.3551 13.4741 65.7518 13.8707 65.7518 14.36C65.7518 14.8493 65.3551 15.2459 64.8659 15.2459Z" fill="#00B127" fill-opacity="0.58"/>
<path opacity="0.2" d="M94.3477 47.4512H100.075V50.2529H94.3477V47.4512Z" fill="#1A1A1A"/>
<path opacity="0.2" d="M96.6748 51.0371H100.074V52.5411H96.6748V51.0371Z" fill="#1A1A1A"/>
<path opacity="0.2" d="M92.0596 51.0371H95.4589V52.5411H92.0596V51.0371Z" fill="#1A1A1A"/>
<path opacity="0.2" d="M87.4248 51.0371H90.8241V52.5411H87.4248V51.0371Z" fill="#1A1A1A"/>
<path opacity="0.2" d="M82.8096 51.0371H86.2089V52.5411H82.8096V51.0371Z" fill="#1A1A1A"/>
<path opacity="0.2" d="M78.1934 51.0371H81.5927V52.5411H78.1934V51.0371Z" fill="#1A1A1A"/>
<path opacity="0.2" d="M73.5811 51.0371H76.9804V52.5411H73.5811V51.0371Z" fill="#1A1A1A"/>
<path opacity="0.2" fill-rule="evenodd" clip-rule="evenodd" d="M92.6916 47.967C92.6916 47.8574 92.6028 47.7686 92.4932 47.7686H73.5804C73.4707 47.7686 73.3818 47.8574 73.3818 47.967C73.3818 48.0769 73.4707 48.1657 73.5804 48.1657H92.4932C92.6028 48.1657 92.6916 48.0769 92.6916 47.967Z" fill="#1A1A1A"/>
<path opacity="0.2" fill-rule="evenodd" clip-rule="evenodd" d="M92.6916 48.8527C92.6916 48.7431 92.6028 48.6543 92.4932 48.6543H73.5804C73.4707 48.6543 73.3818 48.7431 73.3818 48.8527C73.3818 48.9624 73.4707 49.0512 73.5804 49.0512H92.4932C92.6028 49.0512 92.6916 48.9624 92.6916 48.8527Z" fill="#1A1A1A"/>
<path opacity="0.2" fill-rule="evenodd" clip-rule="evenodd" d="M92.6916 49.717C92.6916 49.6074 92.6028 49.5186 92.4932 49.5186H73.5804C73.4707 49.5186 73.3818 49.6074 73.3818 49.717C73.3818 49.8266 73.4707 49.9154 73.5804 49.9154H92.4932C92.6028 49.9154 92.6916 49.8266 92.6916 49.717Z" fill="#1A1A1A"/>
<path fill-rule="evenodd" clip-rule="evenodd" d="M164.361 55.8375V19.2891H164.057V55.8375H164.361Z" fill="#3665DF"/>
<path d="M163.639 21.3059H164.806V28.7796H163.639V21.3059Z" fill="#3665DF"/>
<path opacity="0.7" d="M99.2002 139.656C99.2002 97.3783 133.459 63.1191 175.737 63.1191C218.015 63.1191 252.274 97.3783 252.274 139.656" fill="#81C6D8"/>
<g opacity="0.9">
<path opacity="0.9" d="M125.4 147.479H260.307V154.173H125.4V147.479Z" fill="#B3CAF8"/>
</g>
<path opacity="0.88" d="M110.895 138.494L122.978 129.895C124.637 128.181 126.932 127.213 129.31 127.213H241.35C244.226 127.213 246.936 128.623 248.567 130.973L256.53 138.494H110.895Z" fill="#E6EAFC"/>
<path opacity="0.63" d="M126.92 124.42H70.0432C68.2182 124.42 66.7251 122.927 66.7251 121.102V84.2437C66.7251 82.4188 68.2182 80.9258 70.0432 80.9258H126.92C128.745 80.9258 130.238 82.4188 130.238 84.2437V121.102C130.238 122.927 128.745 124.42 126.92 124.42Z" fill="#64E7F9"/>
<path d="M75.9897 88.3643H104.531V90.7143H75.9897V88.3643Z" fill="#B3CAF8"/>
<path d="M75.9897 113.706H104.531V116.056H75.9897V113.706Z" fill="#B3CAF8"/>
<path d="M106.193 113.706H120.829V116.056H106.193V113.706Z" fill="#B3CAF8"/>
<path d="M76.1357 93.2314H120.829V95.5818H76.1357V93.2314Z" fill="#B3CAF8"/>
<path fill-rule="evenodd" clip-rule="evenodd" d="M67.4739 78.2807C65.8112 78.2807 64.4476 79.6487 64.4476 81.322V118.208C64.4476 119.881 65.8112 121.249 67.4739 121.249H124.089C125.75 121.249 127.116 119.883 127.116 118.18V81.322C127.116 79.6487 125.752 78.2807 124.089 78.2807H67.4739ZM63.8945 81.322C63.8945 79.3455 65.5034 77.7275 67.4739 77.7275H124.089C126.06 77.7275 127.668 79.3455 127.668 81.322V118.18C127.668 120.183 126.061 121.802 124.089 121.802H67.4739C65.5034 121.802 63.8945 120.184 63.8945 118.208V81.322Z" fill="#3665DF"/>
<path fill-rule="evenodd" clip-rule="evenodd" d="M91.8141 140.348C91.8141 139.98 92.1123 139.682 92.4801 139.682H103.181C103.549 139.682 103.847 139.98 103.847 140.348C103.847 140.716 103.549 141.014 103.181 141.014H92.4801C92.1123 141.014 91.8141 140.716 91.8141 140.348ZM105.473 140.348C105.473 139.98 105.772 139.682 106.14 139.682H263.554C263.922 139.682 264.22 139.98 264.22 140.348C264.22 140.716 263.922 141.014 263.554 141.014H106.14C105.772 141.014 105.473 140.716 105.473 140.348ZM83.2725 139.682C82.9047 139.682 82.6064 139.98 82.6064 140.348C82.6064 140.716 82.9047 141.014 83.2725 141.014H88.6091C88.9769 141.014 89.2751 140.716 89.2751 140.348C89.2751 139.98 88.9769 139.682 88.6091 139.682H83.2725Z" fill="#3665DF"/>
<path d="M174.351 74.4692C175.712 74.1891 176.523 72.5432 176.163 70.7931C175.803 69.043 174.408 67.8515 173.046 68.1316C171.685 68.4118 170.874 70.0577 171.234 71.8078C171.594 73.5579 172.989 74.7493 174.351 74.4692Z" fill="#F5BC9A"/>
<path fill-rule="evenodd" clip-rule="evenodd" d="M173.794 69.9923C173.938 69.9424 174.096 70.0191 174.145 70.1636L174.504 71.2032L174.275 71.3071L174.274 71.3079L174.268 71.3107C174.262 71.3134 174.253 71.3175 174.242 71.323C174.219 71.334 174.186 71.3504 174.146 71.3712C174.066 71.4132 173.961 71.4724 173.858 71.5414C173.752 71.6116 173.659 71.6856 173.594 71.7555C173.531 71.8251 173.525 71.8588 173.525 71.8586C173.525 71.8586 173.525 71.8583 173.525 71.8575C173.525 72.0118 173.566 72.0833 173.597 72.1184C173.631 72.1571 173.685 72.1858 173.762 72.202C173.839 72.2185 173.923 72.2182 173.993 72.2119C174.027 72.2089 174.054 72.2048 174.073 72.2015C174.082 72.1998 174.089 72.1984 174.093 72.1976L174.097 72.1968H174.096C174.096 72.1968 174.096 72.1968 174.097 72.1968L173.794 69.9923ZM174.16 72.4657C174.226 72.7343 174.226 72.7346 174.225 72.7346H174.225L174.223 72.7351L174.219 72.7359C174.216 72.7365 174.212 72.7376 174.208 72.7384C174.198 72.7406 174.185 72.7431 174.17 72.7458C174.138 72.7513 174.095 72.7579 174.043 72.7628C173.942 72.7718 173.798 72.7751 173.647 72.7431C173.496 72.711 173.321 72.6397 173.184 72.4865C173.045 72.3297 172.972 72.1176 172.972 71.8575C172.972 71.6555 173.086 71.4916 173.187 71.3819C173.294 71.2654 173.428 71.1629 173.551 71.0812C173.646 71.0177 173.741 70.9623 173.821 70.9184L173.623 70.3437C173.573 70.1995 173.65 70.0422 173.794 69.9923" fill="#333333" fill-opacity="0.3"/>
<path d="M197.307 71.8107C197.667 70.0606 196.856 68.4147 195.494 68.1346C194.133 67.8544 192.738 69.0459 192.377 70.796C192.017 72.5461 192.829 74.192 194.19 74.4721C195.551 74.7523 196.947 73.5608 197.307 71.8107Z" fill="#F5BC9A"/>
<path d="M147.667 86.6082L147.667 87.7787C147.667 88.227 147.446 88.4511 147.005 88.4511C143.473 88.4511 142.86 90.1447 142.86 93.1577L142.86 102.87C142.86 106.481 141.977 108.598 137.366 108.598C136.924 108.598 136.703 108.374 136.703 107.925L136.703 106.755C136.703 106.307 136.924 106.083 137.366 106.083C139.647 106.083 140.137 104.837 140.137 102.696L140.137 94.1541C140.137 90.5679 140.799 88.1523 143.914 87.3057L143.914 87.1313C140.799 86.2349 140.137 83.8192 140.137 80.283L140.137 71.7411C140.137 69.5994 139.647 68.3545 137.366 68.3545C136.924 68.3545 136.703 68.1302 136.703 67.682L136.703 66.5116C136.703 66.0632 136.924 65.8392 137.366 65.8392C142.001 65.8392 142.86 67.9309 142.86 71.5667L142.86 81.2791C142.86 84.2176 143.473 85.9857 147.005 85.9857C147.446 85.9361 147.667 86.1601 147.667 86.6082Z" fill="#64E7F9"/>
<path fill-rule="evenodd" clip-rule="evenodd" d="M194.74 69.9923C194.885 70.0422 194.961 70.1995 194.912 70.3437L194.714 70.9184C194.793 70.9623 194.888 71.0177 194.983 71.0812C195.106 71.1629 195.241 71.2654 195.348 71.3819C195.448 71.4916 195.563 71.6555 195.563 71.8575C195.563 72.1176 195.49 72.3297 195.35 72.4865C195.213 72.6397 195.039 72.711 194.887 72.7431C194.737 72.7751 194.593 72.7718 194.491 72.7628C194.439 72.7579 194.396 72.7513 194.365 72.7458C194.349 72.7431 194.336 72.7406 194.327 72.7384C194.322 72.7376 194.318 72.7365 194.315 72.7359L194.311 72.7351L194.31 72.7346H194.309C194.309 72.7346 194.309 72.7343 194.373 72.4712L194.309 72.7343C194.16 72.6984 194.069 72.549 194.105 72.4004C194.141 72.2524 194.29 72.1614 194.438 72.1968L194.74 69.9923ZM194.374 72.4657L194.439 72.1971C194.439 72.1971 194.439 72.1971 194.374 72.4657ZM194.259 71.3074L194.374 71.0555C194.259 71.3074 194.259 71.3074 194.259 71.3074L194.03 71.2032L194.389 70.1636C194.439 70.0191 194.596 69.9424 194.74 69.9923L194.259 71.3074ZM194.438 72.1968L194.441 72.1976C194.445 72.1984 194.452 72.1998 194.461 72.2015C194.48 72.2048 194.508 72.2089 194.541 72.2119C194.611 72.2182 194.695 72.2185 194.773 72.202C194.85 72.1858 194.903 72.1571 194.937 72.1184C194.969 72.0833 195.01 72.0118 195.01 71.8575C195.01 71.8583 195.01 71.8586 195.01 71.8586C195.009 71.8588 195.004 71.8251 194.94 71.7555C194.876 71.6856 194.782 71.6116 194.677 71.5414C194.573 71.4724 194.468 71.4132 194.388 71.3712C194.348 71.3504 194.315 71.334 194.292 71.323C194.281 71.3175 194.272 71.3134 194.267 71.3107L194.261 71.3079L194.259 71.3074" fill="#333333" fill-opacity="0.3"/>
<path d="M256.53 138.495H110.895V140.845H256.53V138.495Z" fill="#3665DF"/>
<path fill-rule="evenodd" clip-rule="evenodd" d="M165.705 88.5472C169.299 89.7721 171.22 93.6785 169.995 97.2724L163.061 117.653C171.366 119.276 170.536 120.716 169.995 123.857C169.351 127.599 163.605 129.894 159.863 129.25L155.709 128.535C150.479 127.659 146.632 125.112 148.113 120.265L148.145 120.16L156.98 92.8365C158.205 89.2426 162.111 87.3223 165.705 88.5472Z" fill="#3665DF"/>
<path fill-rule="evenodd" clip-rule="evenodd" d="M204.186 88.7018C207.862 87.7529 211.612 89.9637 212.561 93.6401L220.753 120.048L220.759 120.073C221.867 124.502 217.171 126.989 212.561 128.546L211.527 128.899C207.935 130.128 204.026 128.213 202.797 124.62C201.954 122.155 204.918 121.875 206.561 120.08L199.247 97.077C198.298 93.4005 200.509 89.651 204.186 88.7018Z" fill="#3665DF"/>
<path d="M189.452 82.7275H179.414C177.811 82.7275 160.62 88.8058 160.62 88.8058L165.949 130.17H203.83L207.387 88.5531C207.36 88.5531 190.972 82.7275 189.452 82.7275Z" fill="#3665DF"/>
<path d="M158.99 123.617C158.282 124.967 160.77 127.448 161.681 128.279L175.352 127.444L177.352 125.066C175.074 122.923 170.268 118.309 168.976 118.149C164.167 117.555 159.874 121.929 158.99 123.617Z" fill="#E1AD8F"/>
<path d="M229.739 129.649C229.739 122.511 235.525 116.725 242.664 116.725C249.802 116.725 255.588 122.511 255.588 129.649H229.739Z" fill="#64E7F9"/>
<path d="M102.415 144.364C102.415 151.502 96.6281 157.288 89.4902 157.288C82.352 157.288 76.5654 151.502 76.5654 144.364H102.415Z" fill="#64E7F9"/>
<path d="M217.794 130.503L151.765 130.447L154.585 127.848C155.055 127.406 155.663 127.185 156.327 127.185H213.204C213.84 127.185 214.449 127.433 214.919 127.848L217.794 130.503Z" fill="#B3CAF8"/>
<path d="M216.77 134.099H152.676C151.597 134.099 150.74 133.241 150.74 132.163C150.74 131.085 151.597 130.228 152.676 130.228H216.797C217.876 130.228 218.733 131.085 218.733 132.163C218.705 133.214 217.848 134.099 216.77 134.099Z" fill="#F7F8FF"/>
<path d="M159.424 128.374H158.207C157.82 128.374 157.488 128.042 157.488 127.655C157.488 127.268 157.82 126.937 158.207 126.937H159.424C159.811 126.937 160.143 127.268 160.143 127.655C160.143 128.042 159.839 128.374 159.424 128.374Z" fill="#F7F8FF"/>
<path d="M163.405 128.374H162.188C161.801 128.374 161.469 128.042 161.469 127.655C161.469 127.268 161.801 126.937 162.188 126.937H163.405C163.792 126.937 164.124 127.268 164.124 127.655C164.096 128.042 163.792 128.374 163.405 128.374Z" fill="#F7F8FF"/>
<path d="M167.358 128.374H166.142C165.755 128.374 165.423 128.042 165.423 127.655C165.423 127.268 165.755 126.937 166.142 126.937H167.358C167.746 126.937 168.077 127.268 168.077 127.655C168.077 128.042 167.746 128.374 167.358 128.374Z" fill="#F7F8FF"/>
<path d="M171.313 128.374H170.096C169.709 128.374 169.377 128.042 169.377 127.655C169.377 127.268 169.709 126.937 170.096 126.937H171.313C171.7 126.937 172.032 127.268 172.032 127.655C172.032 128.042 171.7 128.374 171.313 128.374Z" fill="#F7F8FF"/>
<path d="M175.267 128.374H174.05C173.663 128.374 173.331 128.042 173.331 127.655C173.331 127.268 173.663 126.937 174.05 126.937H175.267C175.654 126.937 175.986 127.268 175.986 127.655C175.986 128.042 175.681 128.374 175.267 128.374Z" fill="#F7F8FF"/>
<path d="M179.248 128.374H178.031C177.644 128.374 177.312 128.042 177.312 127.655C177.312 127.268 177.644 126.937 178.031 126.937H179.248C179.635 126.937 179.967 127.268 179.967 127.655C179.939 128.042 179.635 128.374 179.248 128.374Z" fill="#F7F8FF"/>
<path d="M183.202 128.374H181.986C181.599 128.374 181.267 128.042 181.267 127.655C181.267 127.268 181.599 126.937 181.986 126.937H183.202C183.589 126.937 183.921 127.268 183.921 127.655C183.921 128.042 183.589 128.374 183.202 128.374Z" fill="#F7F8FF"/>
<path d="M187.156 128.374H185.94C185.553 128.374 185.221 128.042 185.221 127.655C185.221 127.268 185.553 126.937 185.94 126.937H187.156C187.543 126.937 187.875 127.268 187.875 127.655C187.875 128.042 187.543 128.374 187.156 128.374Z" fill="#F7F8FF"/>
<path d="M191.11 128.374H189.893C189.506 128.374 189.174 128.042 189.174 127.655C189.174 127.268 189.506 126.937 189.893 126.937H191.11C191.497 126.937 191.829 127.268 191.829 127.655C191.829 128.042 191.525 128.374 191.11 128.374Z" fill="#F7F8FF"/>
<path d="M195.091 128.374H193.875C193.488 128.374 193.156 128.042 193.156 127.655C193.156 127.268 193.488 126.937 193.875 126.937H195.091C195.478 126.937 195.81 127.268 195.81 127.655C195.783 128.042 195.478 128.374 195.091 128.374Z" fill="#F7F8FF"/>
<path d="M199.046 128.374H197.829C197.442 128.374 197.11 128.042 197.11 127.655C197.11 127.268 197.442 126.937 197.829 126.937H199.046C199.433 126.937 199.765 127.268 199.765 127.655C199.765 128.042 199.433 128.374 199.046 128.374Z" fill="#F7F8FF"/>
<path d="M203 128.374H201.783C201.396 128.374 201.064 128.042 201.064 127.655C201.064 127.268 201.396 126.937 201.783 126.937H203C203.387 126.937 203.719 127.268 203.719 127.655C203.719 128.042 203.387 128.374 203 128.374Z" fill="#F7F8FF"/>
<path d="M206.953 128.374H205.736C205.349 128.374 205.018 128.042 205.018 127.655C205.018 127.268 205.349 126.937 205.736 126.937H206.953C207.34 126.937 207.672 127.268 207.672 127.655C207.672 128.042 207.368 128.374 206.953 128.374Z" fill="#F7F8FF"/>
<path d="M210.937 128.374H209.72C209.333 128.374 209.001 128.042 209.001 127.655C209.001 127.268 209.333 126.937 209.72 126.937H210.937C211.324 126.937 211.656 127.268 211.656 127.655C211.628 128.042 211.324 128.374 210.937 128.374Z" fill="#F7F8FF"/>
<path d="M158.124 129.564H156.907C156.52 129.564 156.188 129.232 156.188 128.845C156.188 128.458 156.52 128.126 156.907 128.126H158.124C158.511 128.126 158.843 128.458 158.843 128.845C158.815 129.26 158.511 129.564 158.124 129.564Z" fill="#F7F8FF"/>
<path d="M162.078 129.564H160.861C160.474 129.564 160.143 129.232 160.143 128.845C160.143 128.458 160.474 128.126 160.861 128.126H162.078C162.465 128.126 162.797 128.458 162.797 128.845C162.797 129.26 162.465 129.564 162.078 129.564Z" fill="#F7F8FF"/>
<path d="M166.032 129.564H164.815C164.428 129.564 164.096 129.232 164.096 128.845C164.096 128.458 164.428 128.126 164.815 128.126H166.032C166.419 128.126 166.751 128.458 166.751 128.845C166.751 129.26 166.419 129.564 166.032 129.564Z" fill="#F7F8FF"/>
<path d="M169.986 129.564H168.769C168.382 129.564 168.05 129.232 168.05 128.845C168.05 128.458 168.382 128.126 168.769 128.126H169.986C170.373 128.126 170.705 128.458 170.705 128.845C170.705 129.26 170.4 129.564 169.986 129.564Z" fill="#F7F8FF"/>
<path d="M173.968 129.564H172.751C172.364 129.564 172.032 129.232 172.032 128.845C172.032 128.458 172.364 128.126 172.751 128.126H173.968C174.355 128.126 174.687 128.458 174.687 128.845C174.659 129.26 174.355 129.564 173.968 129.564Z" fill="#F7F8FF"/>
<path d="M177.922 129.564H176.705C176.318 129.564 175.986 129.232 175.986 128.845C175.986 128.458 176.318 128.126 176.705 128.126H177.922C178.309 128.126 178.641 128.458 178.641 128.845C178.641 129.26 178.309 129.564 177.922 129.564Z" fill="#F7F8FF"/>
<path d="M181.876 129.564H180.659C180.272 129.564 179.94 129.232 179.94 128.845C179.94 128.458 180.272 128.126 180.659 128.126H181.876C182.263 128.126 182.595 128.458 182.595 128.845C182.595 129.26 182.263 129.564 181.876 129.564Z" fill="#F7F8FF"/>
<path d="M185.83 129.564H184.613C184.226 129.564 183.895 129.232 183.895 128.845C183.895 128.458 184.226 128.126 184.613 128.126H185.83C186.217 128.126 186.549 128.458 186.549 128.845C186.549 129.26 186.245 129.564 185.83 129.564Z" fill="#F7F8FF"/>
<path d="M189.811 129.564H188.594C188.207 129.564 187.875 129.232 187.875 128.845C187.875 128.458 188.207 128.126 188.594 128.126H189.811C190.198 128.126 190.53 128.458 190.53 128.845C190.502 129.26 190.198 129.564 189.811 129.564Z" fill="#F7F8FF"/>
<path d="M193.765 129.564H192.548C192.161 129.564 191.829 129.232 191.829 128.845C191.829 128.458 192.161 128.126 192.548 128.126H193.765C194.152 128.126 194.483 128.458 194.483 128.845C194.483 129.26 194.152 129.564 193.765 129.564Z" fill="#F7F8FF"/>
<path d="M197.719 129.564H196.502C196.115 129.564 195.783 129.232 195.783 128.845C195.783 128.458 196.115 128.126 196.502 128.126H197.719C198.106 128.126 198.438 128.458 198.438 128.845C198.438 129.26 198.106 129.564 197.719 129.564Z" fill="#F7F8FF"/>
<path d="M201.673 129.564H200.456C200.069 129.564 199.737 129.232 199.737 128.845C199.737 128.458 200.069 128.126 200.456 128.126H201.673C202.06 128.126 202.392 128.458 202.392 128.845C202.392 129.26 202.088 129.564 201.673 129.564Z" fill="#F7F8FF"/>
<path d="M205.654 129.564H204.437C204.05 129.564 203.719 129.232 203.719 128.845C203.719 128.458 204.05 128.126 204.437 128.126H205.654C206.041 128.126 206.373 128.458 206.373 128.845C206.345 129.26 206.041 129.564 205.654 129.564Z" fill="#F7F8FF"/>
<path d="M209.608 129.564H208.392C208.005 129.564 207.673 129.232 207.673 128.845C207.673 128.458 208.005 128.126 208.392 128.126H209.608C209.996 128.126 210.327 128.458 210.327 128.845C210.327 129.26 209.996 129.564 209.608 129.564Z" fill="#F7F8FF"/>
<path d="M213.562 129.564H212.346C211.959 129.564 211.627 129.232 211.627 128.845C211.627 128.458 211.959 128.126 212.346 128.126H213.562C213.949 128.126 214.281 128.458 214.281 128.845C214.281 129.26 213.949 129.564 213.562 129.564Z" fill="#F7F8FF"/>
<path d="M145.146 133.186C146.058 133.186 146.611 132.191 146.141 131.416C145.146 129.758 143.127 127.545 139.477 127.85C135.883 128.126 134.417 130.089 133.782 131.555C133.45 132.329 134.03 133.186 134.86 133.186H145.146Z" fill="#205284"/>
<path d="M191.056 78.9092L191.62 88.2174C191.62 91.8949 188.097 94.1202 184.42 94.1202C180.742 94.1202 177.324 91.4711 177.324 87.7936L177.783 78.9092H191.056Z" fill="#F5BC9A"/>
<path d="M191.094 78.6826L191.271 82.3862C191.271 82.3862 188.843 85.6311 186.428 85.9855C184.398 86.2832 181.894 86.2051 180.63 85.0098C178.398 82.899 177.783 78.9085 177.783 78.9085L191.094 78.6826Z" fill="#E1AD8F"/>
<path fill-rule="evenodd" clip-rule="evenodd" d="M242.483 122.548C242.483 122.548 242.483 122.549 243.18 123.139C244.061 123.883 243.405 124.175 243.884 123.717C244.093 123.517 244.674 122.973 244.96 122.802C245.261 122.622 245.481 122.565 245.612 122.571C245.672 122.573 245.794 122.582 245.966 122.85C246.539 123.748 246.756 124.576 246.624 125.144C246.523 125.58 245.703 126.175 244.192 126.438L244.935 128.229C246.863 127.895 248.076 126.97 248.404 125.558C248.702 124.277 248.178 122.918 247.505 121.866C247.054 121.16 246.42 120.779 245.697 120.745C245.045 120.715 244.453 120.975 244.021 121.234C243.574 121.501 243.191 121.832 242.929 122.082C242.796 122.21 242.687 122.323 242.611 122.405C242.573 122.446 242.543 122.48 242.521 122.504C242.51 122.517 242.502 122.527 242.495 122.534L242.487 122.543L242.484 122.547L242.483 122.548Z" fill="#B3CAF8"/>
<path fill-rule="evenodd" clip-rule="evenodd" d="M243.18 123.14C242.482 122.55 242.483 122.549 242.483 122.549L242.484 122.547L242.487 122.544L242.495 122.535C242.502 122.527 242.51 122.517 242.521 122.505C242.543 122.48 242.573 122.446 242.611 122.405C242.687 122.323 242.795 122.21 242.929 122.083C243.147 121.874 243.448 121.611 243.8 121.375L244.561 123.104C244.299 123.325 244.016 123.591 243.884 123.718C243.725 123.87 243.691 123.939 243.684 123.937C243.671 123.932 243.768 123.637 243.18 123.14ZM245.446 126.094L245.966 127.973C245.649 128.08 245.305 128.166 244.935 128.23L244.192 126.438C244.683 126.353 245.101 126.233 245.446 126.094Z" fill="#111110" fill-opacity="0.28"/>
<path d="M175.074 67.544L176.042 75.3414C176.125 75.9222 176.29 76.5028 176.567 77.0282L179.111 82.0052C179.719 83.4431 181.102 84.3832 182.678 84.3832H186.189C187.738 84.3832 189.148 83.4431 189.756 82.0052L192.273 77.1112C192.576 76.5304 192.743 75.9222 192.798 75.2587L193.461 67.8206L192.3 61.9032L184.254 57.2305L177.092 58.7235L175.074 67.544Z" fill="#F5BC9A"/>
<path d="M182.281 75.3812C182.281 75.3812 183.464 67.0703 184.089 67.0703C184.713 67.0703 185.982 75.5248 185.982 75.5248L183.951 76.819L182.281 75.3812Z" fill="#DCAD76"/>
<path d="M245.068 128.332C245.306 129.178 244.841 130.059 244.01 130.344L238.443 132.252C237.371 132.62 236.195 132.117 235.719 131.089L232.441 124.007C232.107 122.982 242.491 119.598 242.826 120.623C243.298 122.073 244.444 126.114 245.068 128.332Z" fill="#B3CAF8"/>
<path fill-rule="evenodd" clip-rule="evenodd" d="M242.032 121.81C242.013 121.778 241.97 121.767 241.938 121.787C240.436 122.681 238.354 123.36 236.643 123.816C235.788 124.044 235.027 124.215 234.48 124.33C234.207 124.387 233.987 124.43 233.835 124.459C233.759 124.474 233.701 124.484 233.661 124.492C233.641 124.495 233.626 124.498 233.616 124.5L233.605 124.502L233.601 124.502C233.601 124.502 233.601 124.502 233.613 124.57C233.624 124.638 233.624 124.638 233.624 124.638L233.628 124.637L233.64 124.635C233.65 124.633 233.666 124.631 233.686 124.627C233.726 124.62 233.785 124.609 233.861 124.594C234.013 124.565 234.234 124.522 234.508 124.465C235.057 124.35 235.82 124.177 236.678 123.949C238.392 123.492 240.489 122.809 242.008 121.905C242.041 121.885 242.051 121.843 242.032 121.81ZM233.545 124.582C233.551 124.619 233.587 124.644 233.624 124.638L233.613 124.57L233.601 124.502C233.564 124.509 233.538 124.544 233.545 124.582Z" fill="#474239"/>
<path d="M184.28 80.8437H184.667C185.082 80.8437 185.442 80.6223 185.663 80.2906L186.934 78.1338C186.934 78.1338 182.98 78.6039 182.179 78.2999L183.257 80.2629C183.478 80.6223 183.865 80.8437 184.28 80.8437Z" fill="white"/>
<path d="M188.346 71.3495C189.043 71.3495 189.608 70.8315 189.608 70.1925C189.608 69.5541 189.043 69.0361 188.346 69.0361C187.649 69.0361 187.084 69.5541 187.084 70.1925C187.084 70.8315 187.649 71.3495 188.346 71.3495Z" fill="#333333"/>
<path d="M179.636 71.3495C180.332 71.3495 180.897 70.8315 180.897 70.1925C180.897 69.5541 180.332 69.0361 179.636 69.0361C178.939 69.0361 178.374 69.5541 178.374 70.1925C178.374 70.8315 178.939 71.3495 179.636 71.3495Z" fill="#333333"/>
<path d="M176.953 63.5346C176.925 62.484 177.782 61.5992 178.833 61.6266C180.796 61.6543 183.644 61.7927 184.585 62.4286C185.248 62.871 186.05 63.5899 186.714 64.2535C187.35 64.8894 188.456 64.447 188.483 63.5622C188.483 63.2857 188.483 63.0368 188.428 62.871C188.428 62.871 188.953 63.5622 189.451 64.4193C189.976 65.3044 191.386 64.9724 191.386 63.9219C191.386 63.8942 191.386 63.8665 191.386 63.8665C191.386 63.8665 192.382 69.8943 193.267 70.0602C193.267 70.0602 195.507 67.4886 195.949 64.3916C196.474 60.4653 194.953 55.7372 191.746 54.4377C184.916 51.645 179.276 55.1564 177.644 56.4838C177.644 56.4838 172.944 55.5437 172.75 59.387C172.667 60.8249 172.446 65.0278 172.916 66.7974C173.69 69.7282 175.349 70.0325 175.349 70.0325L175.957 69.0923C176.676 67.9864 177.063 66.6869 177.008 65.3595L176.953 63.5346Z" fill="#3665DF"/>
<path fill-rule="evenodd" clip-rule="evenodd" d="M159.708 123.358C160.234 122.523 161.338 122.272 162.173 122.798L163.146 123.411L165.395 126.019C166.039 126.767 165.956 127.896 165.208 128.54C164.46 129.185 163.332 129.101 162.687 128.353L160.788 126.151L160.268 125.823C159.433 125.297 159.182 124.194 159.708 123.358Z" fill="#F5BC9A"/>
<path fill-rule="evenodd" clip-rule="evenodd" d="M162.548 121.364C163.091 120.539 164.2 120.311 165.024 120.854L166.449 121.792L169.467 126.171C170.027 126.984 169.822 128.097 169.009 128.657C168.197 129.218 167.084 129.013 166.523 128.2L163.901 124.395L163.058 123.84C162.234 123.297 162.005 122.188 162.548 121.364Z" fill="#F5BC9A"/>
<path fill-rule="evenodd" clip-rule="evenodd" d="M165.171 120.05C165.661 119.193 166.753 118.895 167.61 119.385L169.664 120.559L174.279 126.568C174.881 127.35 174.734 128.472 173.951 129.074C173.168 129.675 172.046 129.528 171.444 128.745L167.267 123.306L165.837 122.489C164.979 122 164.682 120.908 165.171 120.05Z" fill="#F5BC9A"/>
<path fill-rule="evenodd" clip-rule="evenodd" d="M199.562 123.292C199.805 124.249 199.225 125.221 198.268 125.463L196.63 125.877L195.712 127.225C195.156 128.041 194.045 128.252 193.229 127.696C192.413 127.14 192.202 126.028 192.758 125.212L194.439 122.744L197.391 121.997C198.348 121.755 199.32 122.335 199.562 123.292Z" fill="#E1AD8F"/>
<path fill-rule="evenodd" clip-rule="evenodd" d="M167.382 118.799C167.922 117.972 169.029 117.74 169.856 118.279L175.288 121.824L178.974 125.74C179.65 126.459 179.616 127.59 178.897 128.267C178.178 128.943 177.047 128.909 176.37 128.19L172.977 124.585L167.902 121.273C167.075 120.733 166.843 119.626 167.382 118.799Z" fill="#F5BC9A"/>
<path fill-rule="evenodd" clip-rule="evenodd" d="M206.775 118.215C207.224 119.094 206.876 120.171 205.997 120.62L201.402 122.967L198.761 127.169C198.235 128.004 197.132 128.256 196.296 127.731C195.461 127.205 195.209 126.102 195.734 125.266L198.9 120.232L204.37 117.436C205.249 116.987 206.326 117.336 206.775 118.215Z" fill="#F5BC9A"/>
<path fill-rule="evenodd" clip-rule="evenodd" d="M209.214 118.782C209.763 119.603 209.543 120.713 208.722 121.262L204.68 123.966L201.057 128.328C200.427 129.088 199.3 129.192 198.54 128.562C197.781 127.931 197.676 126.804 198.307 126.045L202.261 121.282L206.734 118.29C207.555 117.741 208.665 117.962 209.214 118.782Z" fill="#F5BC9A"/>
<path fill-rule="evenodd" clip-rule="evenodd" d="M211.108 120.626C211.645 121.454 211.41 122.561 210.582 123.099L209.2 123.996L204.794 128.856C204.131 129.587 203.001 129.642 202.269 128.979C201.538 128.316 201.483 127.186 202.146 126.455L206.864 121.25L208.635 120.1C209.463 119.563 210.57 119.798 211.108 120.626Z" fill="#F5BC9A"/>
<path fill-rule="evenodd" clip-rule="evenodd" d="M211.698 122.065C212.617 122.424 213.071 123.461 212.711 124.381L212.048 126.075L207.969 129.519C207.215 130.156 206.087 130.061 205.45 129.307C204.813 128.552 204.908 127.425 205.663 126.788L209.049 123.928L209.382 123.078C209.742 122.159 210.779 121.705 211.698 122.065Z" fill="#F5BC9A"/>
<path d="M191.746 54.3548C192.05 54.2997 197.442 57.2582 197.774 58.9173H196.198C196.198 58.9173 197.304 60.6869 197.304 61.6547L194.262 60.0786L191.746 54.3548Z" fill="#3665DF"/>
<mask id="mask0_329_20707" style="mask-type:alpha" maskUnits="userSpaceOnUse" x="182" y="78" width="5" height="3">
<path d="M184.28 80.8437H184.667C185.082 80.8437 185.442 80.6223 185.663 80.2906L186.934 78.1338C186.934 78.1338 182.98 78.6039 182.179 78.2999L183.257 80.2629C183.478 80.6223 183.865 80.8437 184.28 80.8437Z" fill="white"/>
</mask>
<g mask="url(#mask0_329_20707)">
<path fill-rule="evenodd" clip-rule="evenodd" d="M181.916 78.9218C181.885 78.8988 181.841 78.9057 181.818 78.9372C181.794 78.9687 181.801 79.0131 181.833 79.0364L181.875 78.9794C181.833 79.0364 181.833 79.0364 181.833 79.0364L181.833 79.0367L181.833 79.0372L181.835 79.0386C181.837 79.0394 181.839 79.0408 181.841 79.0427C181.847 79.046 181.854 79.0506 181.864 79.0567C181.883 79.0685 181.912 79.0844 181.951 79.1035C182.029 79.1416 182.148 79.1915 182.318 79.2409C182.657 79.3398 183.196 79.4374 184.004 79.4374C184.452 79.4374 185.197 79.3467 185.825 79.257C186.14 79.2118 186.427 79.1669 186.636 79.1331C186.74 79.1162 186.825 79.1022 186.883 79.0923C186.913 79.0874 186.935 79.0835 186.951 79.0808L186.974 79.077C186.974 79.077 186.975 79.077 186.962 79.0068L186.974 79.077C187.013 79.0701 187.039 79.0334 187.032 78.9947C187.026 78.9561 186.989 78.9303 186.95 78.9369L186.927 78.941C186.912 78.9435 186.889 78.9473 186.86 78.9522C186.801 78.9621 186.717 78.9761 186.613 78.9931C186.405 79.0265 186.119 79.0715 185.805 79.1164C185.175 79.2063 184.44 79.2954 184.004 79.2954C183.207 79.2954 182.682 79.1992 182.358 79.1046C182.196 79.0572 182.083 79.0104 182.013 78.9758C181.978 78.9588 181.953 78.9446 181.937 78.9353C181.929 78.9303 181.924 78.9268 181.92 78.9246L181.917 78.9224L181.916 78.9218Z" fill="#DCDCDC"/>
<path fill-rule="evenodd" clip-rule="evenodd" d="M191.464 78.4707C191.501 78.4817 191.523 78.5212 191.512 78.5587L191.444 78.5387L191.376 78.5187C191.387 78.4812 191.426 78.4595 191.464 78.4707ZM186.262 84.5205H184.127C184.088 84.5224 184.054 84.4926 184.052 84.4534C184.05 84.4142 184.08 84.3807 184.12 84.3788L186.261 84.3785H186.264C187.094 84.4038 187.827 84.0573 188.464 83.5157C189.101 82.9735 189.638 82.239 190.07 81.4973C190.502 80.7561 190.829 80.0111 191.047 79.4512C191.157 79.1711 191.239 78.9378 191.293 78.7744C191.321 78.6928 191.341 78.6286 191.355 78.585C191.362 78.5631 191.367 78.5464 191.37 78.5354L191.374 78.5228L191.375 78.5195L191.376 78.5187C191.376 78.5187 191.376 78.5187 191.444 78.5387C191.512 78.5587 191.512 78.5587 191.512 78.5587L191.511 78.5601L191.51 78.5634L191.506 78.5765C191.503 78.5881 191.498 78.6053 191.491 78.6275C191.477 78.6719 191.456 78.7369 191.428 78.8197C191.373 78.9847 191.29 79.2204 191.18 79.5027C190.959 80.0671 190.63 80.8194 190.193 81.5688C189.756 82.3179 189.21 83.0673 188.556 83.624C187.902 84.1801 187.136 84.5463 186.262 84.5205Z" fill="#3665DF"/>
</g>
</g>
<path d="M72.6889 216.769C73.7129 217.073 74.4969 217.569 75.0409 218.257C75.5849 218.945 75.8569 219.793 75.8569 220.801C75.8569 222.289 75.2889 223.449 74.1529 224.281C73.0329 225.113 71.4249 225.529 69.3289 225.529H61.0489V208.729H68.8729C70.8249 208.729 72.3449 209.105 73.4329 209.857C74.5209 210.609 75.0649 211.681 75.0649 213.073C75.0649 213.905 74.8569 214.641 74.4409 215.281C74.0249 215.905 73.4409 216.401 72.6889 216.769ZM64.9129 215.689H68.5369C69.3849 215.689 70.0249 215.521 70.4569 215.185C70.8889 214.833 71.1049 214.321 71.1049 213.649C71.1049 212.993 70.8809 212.489 70.4329 212.137C70.0009 211.785 69.3689 211.609 68.5369 211.609H64.9129V215.689ZM69.1849 222.649C71.0089 222.649 71.9209 221.929 71.9209 220.489C71.9209 219.097 71.0089 218.401 69.1849 218.401H64.9129V222.649H69.1849ZM91.1958 219.121C91.1958 219.169 91.1718 219.505 91.1238 220.129H81.3558C81.5318 220.929 81.9478 221.561 82.6038 222.025C83.2598 222.489 84.0758 222.721 85.0518 222.721C85.7238 222.721 86.3158 222.625 86.8278 222.433C87.3558 222.225 87.8438 221.905 88.2918 221.473L90.2838 223.633C89.0678 225.025 87.2918 225.721 84.9558 225.721C83.4998 225.721 82.2118 225.441 81.0918 224.881C79.9718 224.305 79.1078 223.513 78.4998 222.505C77.8918 221.497 77.5878 220.353 77.5878 219.073C77.5878 217.809 77.8838 216.673 78.4758 215.665C79.0838 214.641 79.9078 213.849 80.9478 213.289C82.0038 212.713 83.1798 212.425 84.4758 212.425C85.7398 212.425 86.8838 212.697 87.9078 213.241C88.9318 213.785 89.7318 214.569 90.3078 215.593C90.8998 216.601 91.1958 217.777 91.1958 219.121ZM84.4998 215.257C83.6518 215.257 82.9398 215.497 82.3638 215.977C81.7878 216.457 81.4358 217.113 81.3078 217.945H87.6678C87.5398 217.129 87.1878 216.481 86.6118 216.001C86.0358 215.505 85.3318 215.257 84.4998 215.257ZM101.53 213.505C102.762 213.505 103.842 213.761 104.77 214.273C105.698 214.769 106.41 215.473 106.906 216.385C107.418 217.297 107.674 218.353 107.674 219.553C107.674 220.785 107.37 221.881 106.762 222.841C106.17 223.785 105.338 224.521 104.266 225.049C103.194 225.561 101.978 225.817 100.618 225.817C98.3616 225.817 96.5856 225.097 95.2896 223.657C94.0096 222.201 93.3696 220.073 93.3696 217.273C93.3696 214.681 93.9296 212.617 95.0496 211.081C96.1856 209.529 97.9216 208.513 100.258 208.033L106.402 206.809L106.906 210.025L101.482 211.105C100.01 211.393 98.9136 211.873 98.1936 212.545C97.4896 213.217 97.0736 214.169 96.9456 215.401C97.5056 214.793 98.1776 214.329 98.9616 214.009C99.7456 213.673 100.602 213.505 101.53 213.505ZM100.642 222.913C101.602 222.913 102.37 222.601 102.946 221.977C103.538 221.353 103.834 220.561 103.834 219.601C103.834 218.625 103.538 217.849 102.946 217.273C102.37 216.697 101.602 216.409 100.642 216.409C99.6656 216.409 98.8816 216.697 98.2896 217.273C97.6976 217.849 97.4016 218.625 97.4016 219.601C97.4016 220.577 97.7056 221.377 98.3136 222.001C98.9216 222.609 99.6976 222.913 100.642 222.913ZM109.896 217.273H116.688V220.273H109.896V217.273ZM127.314 212.425C128.514 212.425 129.602 212.705 130.578 213.265C131.57 213.809 132.346 214.585 132.906 215.593C133.466 216.585 133.746 217.745 133.746 219.073C133.746 220.401 133.466 221.569 132.906 222.577C132.346 223.569 131.57 224.345 130.578 224.905C129.602 225.449 128.514 225.721 127.314 225.721C125.666 225.721 124.37 225.201 123.426 224.161V230.185H119.682V212.617H123.258V214.105C124.186 212.985 125.538 212.425 127.314 212.425ZM126.666 222.649C127.626 222.649 128.41 222.329 129.018 221.689C129.642 221.033 129.954 220.161 129.954 219.073C129.954 217.985 129.642 217.121 129.018 216.481C128.41 215.825 127.626 215.497 126.666 215.497C125.706 215.497 124.914 215.825 124.29 216.481C123.682 217.121 123.378 217.985 123.378 219.073C123.378 220.161 123.682 221.033 124.29 221.689C124.914 222.329 125.706 222.649 126.666 222.649ZM141.175 212.425C143.175 212.425 144.711 212.905 145.783 213.865C146.855 214.809 147.391 216.241 147.391 218.161V225.529H143.887V223.921C143.183 225.121 141.871 225.721 139.951 225.721C138.959 225.721 138.095 225.553 137.359 225.217C136.639 224.881 136.087 224.417 135.703 223.825C135.319 223.233 135.127 222.561 135.127 221.809C135.127 220.609 135.575 219.665 136.471 218.977C137.383 218.289 138.783 217.945 140.671 217.945H143.647C143.647 217.129 143.399 216.505 142.903 216.073C142.407 215.625 141.663 215.401 140.671 215.401C139.983 215.401 139.303 215.513 138.631 215.737C137.975 215.945 137.415 216.233 136.951 216.601L135.607 213.985C136.311 213.489 137.151 213.105 138.127 212.833C139.119 212.561 140.135 212.425 141.175 212.425ZM140.887 223.201C141.527 223.201 142.095 223.057 142.591 222.769C143.087 222.465 143.439 222.025 143.647 221.449V220.129H141.079C139.543 220.129 138.775 220.633 138.775 221.641C138.775 222.121 138.959 222.505 139.327 222.793C139.711 223.065 140.231 223.201 140.887 223.201ZM158.903 218.809C159.671 219.049 160.263 219.417 160.679 219.913C161.111 220.409 161.327 221.001 161.327 221.689C161.327 222.505 161.047 223.225 160.487 223.849C159.927 224.457 159.159 224.929 158.183 225.265C157.207 225.601 156.103 225.769 154.871 225.769C153.863 225.769 152.871 225.665 151.895 225.457C150.919 225.249 150.015 224.937 149.183 224.521L150.191 221.905C151.551 222.561 153.055 222.889 154.703 222.889C155.583 222.889 156.271 222.761 156.767 222.505C157.279 222.233 157.535 221.857 157.535 221.377C157.535 220.961 157.359 220.649 157.007 220.441C156.655 220.217 156.143 220.105 155.471 220.105H152.831V217.777H155.135C155.791 217.777 156.295 217.673 156.647 217.465C156.999 217.257 157.175 216.953 157.175 216.553C157.175 216.137 156.951 215.817 156.503 215.593C156.071 215.369 155.447 215.257 154.631 215.257C153.383 215.257 152.023 215.553 150.551 216.145L149.639 213.553C151.431 212.769 153.175 212.377 154.871 212.377C156.039 212.377 157.079 212.521 157.991 212.809C158.919 213.097 159.647 213.521 160.175 214.081C160.703 214.625 160.967 215.265 160.967 216.001C160.967 216.609 160.783 217.161 160.415 217.657C160.047 218.137 159.543 218.521 158.903 218.809ZM171.658 212.425C172.858 212.425 173.946 212.705 174.922 213.265C175.914 213.809 176.69 214.585 177.25 215.593C177.81 216.585 178.09 217.745 178.09 219.073C178.09 220.401 177.81 221.569 177.25 222.577C176.69 223.569 175.914 224.345 174.922 224.905C173.946 225.449 172.858 225.721 171.658 225.721C170.01 225.721 168.714 225.201 167.77 224.161V230.185H164.026V212.617H167.602V214.105C168.53 212.985 169.882 212.425 171.658 212.425ZM171.01 222.649C171.97 222.649 172.754 222.329 173.362 221.689C173.986 221.033 174.298 220.161 174.298 219.073C174.298 217.985 173.986 217.121 173.362 216.481C172.754 215.825 171.97 215.497 171.01 215.497C170.05 215.497 169.258 215.825 168.634 216.481C168.026 217.121 167.722 217.985 167.722 219.073C167.722 220.161 168.026 221.033 168.634 221.689C169.258 222.329 170.05 222.649 171.01 222.649ZM185.519 212.425C187.519 212.425 189.055 212.905 190.127 213.865C191.199 214.809 191.735 216.241 191.735 218.161V225.529H188.231V223.921C187.527 225.121 186.215 225.721 184.295 225.721C183.303 225.721 182.439 225.553 181.703 225.217C180.983 224.881 180.431 224.417 180.047 223.825C179.663 223.233 179.471 222.561 179.471 221.809C179.471 220.609 179.919 219.665 180.815 218.977C181.727 218.289 183.127 217.945 185.015 217.945H187.991C187.991 217.129 187.743 216.505 187.247 216.073C186.751 215.625 186.007 215.401 185.015 215.401C184.327 215.401 183.647 215.513 182.975 215.737C182.319 215.945 181.759 216.233 181.295 216.601L179.951 213.985C180.655 213.489 181.495 213.105 182.471 212.833C183.463 212.561 184.479 212.425 185.519 212.425ZM185.231 223.201C185.871 223.201 186.439 223.057 186.935 222.769C187.431 222.465 187.783 222.025 187.991 221.449V220.129H185.423C183.887 220.129 183.119 220.633 183.119 221.641C183.119 222.121 183.303 222.505 183.671 222.793C184.055 223.065 184.575 223.201 185.231 223.201ZM202.452 213.505C203.684 213.505 204.764 213.761 205.692 214.273C206.62 214.769 207.332 215.473 207.828 216.385C208.34 217.297 208.596 218.353 208.596 219.553C208.596 220.785 208.292 221.881 207.684 222.841C207.092 223.785 206.26 224.521 205.188 225.049C204.116 225.561 202.9 225.817 201.54 225.817C199.284 225.817 197.508 225.097 196.212 223.657C194.932 222.201 194.292 220.073 194.292 217.273C194.292 214.681 194.852 212.617 195.972 211.081C197.108 209.529 198.844 208.513 201.18 208.033L207.324 206.809L207.828 210.025L202.404 211.105C200.932 211.393 199.836 211.873 199.116 212.545C198.412 213.217 197.996 214.169 197.868 215.401C198.428 214.793 199.1 214.329 199.884 214.009C200.668 213.673 201.524 213.505 202.452 213.505ZM201.564 222.913C202.524 222.913 203.292 222.601 203.868 221.977C204.46 221.353 204.756 220.561 204.756 219.601C204.756 218.625 204.46 217.849 203.868 217.273C203.292 216.697 202.524 216.409 201.564 216.409C200.588 216.409 199.804 216.697 199.212 217.273C198.62 217.849 198.324 218.625 198.324 219.601C198.324 220.577 198.628 221.377 199.236 222.001C199.844 222.609 200.62 222.913 201.564 222.913ZM217.184 225.721C215.824 225.721 214.6 225.441 213.512 224.881C212.44 224.305 211.6 223.513 210.992 222.505C210.384 221.497 210.08 220.353 210.08 219.073C210.08 217.793 210.384 216.649 210.992 215.641C211.6 214.633 212.44 213.849 213.512 213.289C214.6 212.713 215.824 212.425 217.184 212.425C218.544 212.425 219.76 212.713 220.832 213.289C221.904 213.849 222.744 214.633 223.352 215.641C223.96 216.649 224.264 217.793 224.264 219.073C224.264 220.353 223.96 221.497 223.352 222.505C222.744 223.513 221.904 224.305 220.832 224.881C219.76 225.441 218.544 225.721 217.184 225.721ZM217.184 222.649C218.144 222.649 218.928 222.329 219.536 221.689C220.16 221.033 220.472 220.161 220.472 219.073C220.472 217.985 220.16 217.121 219.536 216.481C218.928 215.825 218.144 215.497 217.184 215.497C216.224 215.497 215.432 215.825 214.808 216.481C214.184 217.121 213.872 217.985 213.872 219.073C213.872 220.161 214.184 221.033 214.808 221.689C215.432 222.329 216.224 222.649 217.184 222.649ZM237.218 215.689H232.85V225.529H229.13V215.689H224.762V212.617H237.218V215.689ZM244.902 220.633H242.958V225.529H239.214V212.617H242.958V217.633H244.974L248.478 212.617H252.462L247.95 218.809L252.774 225.529H248.358L244.902 220.633ZM259.394 212.425C261.394 212.425 262.93 212.905 264.002 213.865C265.074 214.809 265.61 216.241 265.61 218.161V225.529H262.106V223.921C261.402 225.121 260.09 225.721 258.17 225.721C257.178 225.721 256.314 225.553 255.578 225.217C254.858 224.881 254.306 224.417 253.922 223.825C253.538 223.233 253.346 222.561 253.346 221.809C253.346 220.609 253.794 219.665 254.69 218.977C255.602 218.289 257.002 217.945 258.89 217.945H261.866C261.866 217.129 261.618 216.505 261.122 216.073C260.626 215.625 259.882 215.401 258.89 215.401C258.202 215.401 257.522 215.513 256.85 215.737C256.194 215.945 255.634 216.233 255.17 216.601L253.826 213.985C254.53 213.489 255.37 213.105 256.346 212.833C257.338 212.561 258.354 212.425 259.394 212.425ZM259.106 223.201C259.746 223.201 260.314 223.057 260.81 222.769C261.306 222.465 261.658 222.025 261.866 221.449V220.129H259.298C257.762 220.129 256.994 220.633 256.994 221.641C256.994 222.121 257.178 222.505 257.546 222.793C257.93 223.065 258.45 223.201 259.106 223.201Z" fill="white"/>
<path opacity="0.7" d="M50.949 246.629L45.662 256.438C45.2426 257.22 44.7496 257.804 44.183 258.189C43.6163 258.575 42.9986 258.767 42.33 258.767C41.8086 258.767 41.276 258.648 40.732 258.41L41.174 257.05C41.5933 257.198 41.9673 257.271 42.296 257.271C43.044 257.271 43.6616 256.875 44.149 256.081L44.421 255.656L39.627 246.629H41.446L45.305 254.177L49.266 246.629H50.949ZM62.4792 249.519V258.529H61.0002V251.95L57.6342 257.509H56.9202L53.5882 251.933V258.529H52.0922V249.519H53.7752L57.3112 255.605L60.9492 249.519H62.4792ZM65.6557 249.519H67.2877V253.344H72.4217V249.519H74.0537V258.529H72.4217V254.755H67.2877V258.529H65.6557V249.519ZM81.29 252.579C82.4233 252.591 83.2903 252.851 83.891 253.361C84.4917 253.871 84.792 254.591 84.792 255.52C84.792 256.495 84.4633 257.249 83.806 257.781C83.16 258.303 82.2307 258.558 81.018 258.546L77.227 258.529V249.519H78.859V252.562L81.29 252.579ZM86.135 249.519H87.767V258.529H86.135V249.519ZM80.899 257.305C81.6357 257.317 82.191 257.169 82.565 256.863C82.9503 256.557 83.143 256.104 83.143 255.503C83.143 254.914 82.956 254.483 82.582 254.211C82.208 253.939 81.647 253.798 80.899 253.786L78.859 253.752V257.288L80.899 257.305ZM90.9399 249.519H92.5719V256.081L98.0969 249.519H99.5759V258.529H97.9439V251.967L92.4359 258.529H90.9399V249.519ZM95.1559 248.346C94.3172 248.346 93.6656 248.148 93.2009 247.751C92.7362 247.343 92.4982 246.76 92.4869 246H93.5919C93.6032 246.42 93.7449 246.76 94.0169 247.02C94.3002 247.27 94.6742 247.394 95.1389 247.394C95.6036 247.394 95.9776 247.27 96.2609 247.02C96.5442 246.76 96.6916 246.42 96.7029 246H97.8419C97.8306 246.76 97.5869 247.343 97.1109 247.751C96.6349 248.148 95.9832 248.346 95.1559 248.346ZM112.086 249.434C112.959 249.434 113.741 249.627 114.432 250.012C115.123 250.398 115.662 250.936 116.047 251.627C116.444 252.319 116.642 253.118 116.642 254.024C116.642 254.931 116.444 255.736 116.047 256.438C115.662 257.13 115.123 257.668 114.432 258.053C113.741 258.439 112.959 258.631 112.086 258.631C111.44 258.631 110.845 258.507 110.301 258.257C109.768 258.008 109.315 257.645 108.941 257.169V261.827H107.309V249.519H108.873V250.947C109.236 250.449 109.695 250.075 110.25 249.825C110.805 249.565 111.417 249.434 112.086 249.434ZM111.95 257.203C112.528 257.203 113.044 257.073 113.497 256.812C113.962 256.54 114.324 256.166 114.585 255.69C114.857 255.203 114.993 254.648 114.993 254.024C114.993 253.401 114.857 252.851 114.585 252.375C114.324 251.888 113.962 251.514 113.497 251.253C113.044 250.993 112.528 250.862 111.95 250.862C111.383 250.862 110.868 250.998 110.403 251.27C109.95 251.531 109.587 251.899 109.315 252.375C109.054 252.851 108.924 253.401 108.924 254.024C108.924 254.648 109.054 255.203 109.315 255.69C109.576 256.166 109.938 256.54 110.403 256.812C110.868 257.073 111.383 257.203 111.95 257.203ZM122.872 258.631C121.977 258.631 121.172 258.433 120.458 258.036C119.744 257.64 119.183 257.096 118.775 256.404C118.378 255.702 118.18 254.908 118.18 254.024C118.18 253.14 118.378 252.353 118.775 251.661C119.183 250.959 119.744 250.415 120.458 250.029C121.172 249.633 121.977 249.434 122.872 249.434C123.767 249.434 124.566 249.633 125.269 250.029C125.983 250.415 126.538 250.959 126.935 251.661C127.343 252.353 127.547 253.14 127.547 254.024C127.547 254.908 127.343 255.702 126.935 256.404C126.538 257.096 125.983 257.64 125.269 258.036C124.566 258.433 123.767 258.631 122.872 258.631ZM122.872 257.203C123.45 257.203 123.966 257.073 124.419 256.812C124.884 256.54 125.246 256.166 125.507 255.69C125.768 255.203 125.898 254.648 125.898 254.024C125.898 253.401 125.768 252.851 125.507 252.375C125.246 251.888 124.884 251.514 124.419 251.253C123.966 250.993 123.45 250.862 122.872 250.862C122.294 250.862 121.773 250.993 121.308 251.253C120.855 251.514 120.492 251.888 120.22 252.375C119.959 252.851 119.829 253.401 119.829 254.024C119.829 254.648 119.959 255.203 120.22 255.69C120.492 256.166 120.855 256.54 121.308 256.812C121.773 257.073 122.294 257.203 122.872 257.203ZM134.494 249.825C135.332 249.825 136.08 250.012 136.738 250.386C137.395 250.76 137.905 251.282 138.268 251.95C138.642 252.608 138.829 253.361 138.829 254.211C138.829 255.084 138.63 255.86 138.234 256.54C137.848 257.209 137.299 257.73 136.585 258.104C135.882 258.478 135.077 258.665 134.171 258.665C132.641 258.665 131.456 258.144 130.618 257.101C129.79 256.047 129.377 254.568 129.377 252.664C129.377 250.817 129.756 249.372 130.516 248.329C131.275 247.275 132.437 246.578 134.001 246.238L138.115 245.32L138.353 246.816L134.562 247.632C133.383 247.893 132.505 248.335 131.927 248.958C131.349 249.582 131.02 250.477 130.941 251.644C131.326 251.066 131.825 250.619 132.437 250.301C133.049 249.984 133.734 249.825 134.494 249.825ZM134.205 257.305C134.783 257.305 135.293 257.175 135.735 256.914C136.188 256.654 136.539 256.297 136.789 255.843C137.038 255.379 137.163 254.852 137.163 254.262C137.163 253.367 136.891 252.647 136.347 252.103C135.803 251.559 135.089 251.287 134.205 251.287C133.321 251.287 132.601 251.559 132.046 252.103C131.502 252.647 131.23 253.367 131.23 254.262C131.23 254.852 131.354 255.379 131.604 255.843C131.864 256.297 132.221 256.654 132.675 256.914C133.128 257.175 133.638 257.305 134.205 257.305ZM145.019 258.631C144.123 258.631 143.319 258.433 142.605 258.036C141.891 257.64 141.33 257.096 140.922 256.404C140.525 255.702 140.327 254.908 140.327 254.024C140.327 253.14 140.525 252.353 140.922 251.661C141.33 250.959 141.891 250.415 142.605 250.029C143.319 249.633 144.123 249.434 145.019 249.434C145.914 249.434 146.713 249.633 147.416 250.029C148.13 250.415 148.685 250.959 149.082 251.661C149.49 252.353 149.694 253.14 149.694 254.024C149.694 254.908 149.49 255.702 149.082 256.404C148.685 257.096 148.13 257.64 147.416 258.036C146.713 258.433 145.914 258.631 145.019 258.631ZM145.019 257.203C145.597 257.203 146.112 257.073 146.566 256.812C147.03 256.54 147.393 256.166 147.654 255.69C147.914 255.203 148.045 254.648 148.045 254.024C148.045 253.401 147.914 252.851 147.654 252.375C147.393 251.888 147.03 251.514 146.566 251.253C146.112 250.993 145.597 250.862 145.019 250.862C144.441 250.862 143.919 250.993 143.455 251.253C143.001 251.514 142.639 251.888 142.367 252.375C142.106 252.851 141.976 253.401 141.976 254.024C141.976 254.648 142.106 255.203 142.367 255.69C142.639 256.166 143.001 256.54 143.455 256.812C143.919 257.073 144.441 257.203 145.019 257.203ZM158.433 250.947H155.135V258.529H153.503V250.947H150.205V249.519H158.433V250.947ZM173.83 257.101V260.62H172.3V258.529H164.769V260.62H163.222V257.101H163.698C164.276 257.067 164.673 256.659 164.888 255.877C165.104 255.095 165.251 253.99 165.33 252.562L165.466 249.519H172.453V257.101H173.83ZM166.826 252.681C166.781 253.815 166.685 254.755 166.537 255.503C166.401 256.24 166.146 256.773 165.772 257.101H170.821V250.947H166.911L166.826 252.681ZM183.691 249.519V258.529H182.059V250.947H178.183L178.081 252.953C178.025 254.166 177.917 255.18 177.758 255.996C177.6 256.801 177.339 257.447 176.976 257.934C176.614 258.422 176.109 258.665 175.463 258.665C175.169 258.665 174.834 258.614 174.46 258.512L174.562 257.135C174.71 257.169 174.846 257.186 174.97 257.186C175.424 257.186 175.764 256.988 175.99 256.591C176.217 256.195 176.364 255.724 176.432 255.18C176.5 254.636 176.563 253.86 176.619 252.851L176.772 249.519H183.691ZM194.072 249.519V258.529H192.61V255.673H189.992H189.805L187.833 258.529H186.082L188.275 255.452C187.595 255.248 187.074 254.914 186.711 254.449C186.348 253.973 186.167 253.384 186.167 252.681C186.167 251.65 186.518 250.868 187.221 250.335C187.924 249.791 188.893 249.519 190.128 249.519H194.072ZM187.833 252.732C187.833 253.333 188.02 253.781 188.394 254.075C188.779 254.359 189.352 254.5 190.111 254.5H192.61V250.947H190.179C188.615 250.947 187.833 251.542 187.833 252.732ZM205.681 258.631C204.785 258.631 203.981 258.433 203.267 258.036C202.553 257.64 201.992 257.096 201.584 256.404C201.187 255.702 200.989 254.908 200.989 254.024C200.989 253.14 201.187 252.353 201.584 251.661C201.992 250.959 202.553 250.415 203.267 250.029C203.981 249.633 204.785 249.434 205.681 249.434C206.576 249.434 207.375 249.633 208.078 250.029C208.792 250.415 209.347 250.959 209.744 251.661C210.152 252.353 210.356 253.14 210.356 254.024C210.356 254.908 210.152 255.702 209.744 256.404C209.347 257.096 208.792 257.64 208.078 258.036C207.375 258.433 206.576 258.631 205.681 258.631ZM205.681 257.203C206.259 257.203 206.774 257.073 207.228 256.812C207.692 256.54 208.055 256.166 208.316 255.69C208.576 255.203 208.707 254.648 208.707 254.024C208.707 253.401 208.576 252.851 208.316 252.375C208.055 251.888 207.692 251.514 207.228 251.253C206.774 250.993 206.259 250.862 205.681 250.862C205.103 250.862 204.581 250.993 204.117 251.253C203.663 251.514 203.301 251.888 203.029 252.375C202.768 252.851 202.638 253.401 202.638 254.024C202.638 254.648 202.768 255.203 203.029 255.69C203.301 256.166 203.663 256.54 204.117 256.812C204.581 257.073 205.103 257.203 205.681 257.203ZM217.302 249.825C218.141 249.825 218.889 250.012 219.546 250.386C220.204 250.76 220.714 251.282 221.076 251.95C221.45 252.608 221.637 253.361 221.637 254.211C221.637 255.084 221.439 255.86 221.042 256.54C220.657 257.209 220.107 257.73 219.393 258.104C218.691 258.478 217.886 258.665 216.979 258.665C215.449 258.665 214.265 258.144 213.426 257.101C212.599 256.047 212.185 254.568 212.185 252.664C212.185 250.817 212.565 249.372 213.324 248.329C214.084 247.275 215.245 246.578 216.809 246.238L220.923 245.32L221.161 246.816L217.37 247.632C216.192 247.893 215.313 248.335 214.735 248.958C214.157 249.582 213.829 250.477 213.749 251.644C214.135 251.066 214.633 250.619 215.245 250.301C215.857 249.984 216.543 249.825 217.302 249.825ZM217.013 257.305C217.591 257.305 218.101 257.175 218.543 256.914C218.997 256.654 219.348 256.297 219.597 255.843C219.847 255.379 219.971 254.852 219.971 254.262C219.971 253.367 219.699 252.647 219.155 252.103C218.611 251.559 217.897 251.287 217.013 251.287C216.129 251.287 215.41 251.559 214.854 252.103C214.31 252.647 214.038 253.367 214.038 254.262C214.038 254.852 214.163 255.379 214.412 255.843C214.673 256.297 215.03 256.654 215.483 256.914C215.937 257.175 216.447 257.305 217.013 257.305ZM231.76 249.519L227.391 259.43C227.006 260.348 226.553 260.994 226.031 261.368C225.521 261.742 224.904 261.929 224.178 261.929C223.736 261.929 223.306 261.856 222.886 261.708C222.478 261.572 222.138 261.368 221.866 261.096L222.563 259.872C223.028 260.314 223.566 260.535 224.178 260.535C224.575 260.535 224.904 260.428 225.164 260.212C225.436 260.008 225.68 259.651 225.895 259.141L226.184 258.512L222.206 249.519H223.906L227.051 256.727L230.162 249.519H231.76ZM240.622 249.519V258.529H238.99V254.891C238.015 255.345 237.046 255.571 236.083 255.571C234.961 255.571 234.094 255.311 233.482 254.789C232.87 254.268 232.564 253.486 232.564 252.443V249.519H234.196V252.341C234.196 252.965 234.389 253.435 234.774 253.752C235.171 254.07 235.72 254.228 236.423 254.228C237.216 254.228 238.072 254.03 238.99 253.633V249.519H240.622ZM251.933 254.075C251.933 254.2 251.922 254.364 251.899 254.568H244.589C244.691 255.362 245.037 256.002 245.626 256.489C246.227 256.965 246.969 257.203 247.853 257.203C248.93 257.203 249.797 256.841 250.454 256.115L251.355 257.169C250.947 257.645 250.437 258.008 249.825 258.257C249.225 258.507 248.55 258.631 247.802 258.631C246.85 258.631 246.006 258.439 245.269 258.053C244.533 257.657 243.96 257.107 243.552 256.404C243.156 255.702 242.957 254.908 242.957 254.024C242.957 253.152 243.15 252.364 243.535 251.661C243.932 250.959 244.47 250.415 245.15 250.029C245.842 249.633 246.618 249.434 247.479 249.434C248.341 249.434 249.106 249.633 249.774 250.029C250.454 250.415 250.981 250.959 251.355 251.661C251.741 252.364 251.933 253.169 251.933 254.075ZM247.479 250.811C246.697 250.811 246.04 251.049 245.507 251.525C244.986 252.001 244.68 252.625 244.589 253.395H250.369C250.279 252.636 249.967 252.018 249.434 251.542C248.913 251.055 248.261 250.811 247.479 250.811ZM254.465 249.519H256.097V253.344H261.231V249.519H262.863V258.529H261.231V254.755H256.097V258.529H254.465V249.519ZM266.037 249.519H267.669V256.081L273.194 249.519H274.673V258.529H273.041V251.967L267.533 258.529H266.037V249.519ZM285.065 249.519V258.529H283.603V255.673H280.985H280.798L278.826 258.529H277.075L279.268 255.452C278.588 255.248 278.067 254.914 277.704 254.449C277.342 253.973 277.16 253.384 277.16 252.681C277.16 251.65 277.512 250.868 278.214 250.335C278.917 249.791 279.886 249.519 281.121 249.519H285.065ZM278.826 252.732C278.826 253.333 279.013 253.781 279.387 254.075C279.773 254.359 280.345 254.5 281.104 254.5H283.603V250.947H281.172C279.608 250.947 278.826 251.542 278.826 252.732ZM80.801 272.519V281.529H79.169V273.947H74.086V281.529H72.454V272.519H80.801ZM88.7359 272.434C89.6086 272.434 90.3906 272.627 91.0819 273.012C91.7733 273.398 92.3116 273.936 92.6969 274.627C93.0936 275.319 93.2919 276.118 93.2919 277.024C93.2919 277.931 93.0936 278.736 92.6969 279.438C92.3116 280.13 91.7733 280.668 91.0819 281.053C90.3906 281.439 89.6086 281.631 88.7359 281.631C88.0899 281.631 87.4949 281.507 86.9509 281.257C86.4183 281.008 85.9649 280.645 85.5909 280.169V284.827H83.9589V272.519H85.5229V273.947C85.8856 273.449 86.3446 273.075 86.8999 272.825C87.4553 272.565 88.0673 272.434 88.7359 272.434ZM88.5999 280.203C89.1779 280.203 89.6936 280.073 90.1469 279.812C90.6116 279.54 90.9743 279.166 91.2349 278.69C91.5069 278.203 91.6429 277.648 91.6429 277.024C91.6429 276.401 91.5069 275.851 91.2349 275.375C90.9743 274.888 90.6116 274.514 90.1469 274.253C89.6936 273.993 89.1779 273.862 88.5999 273.862C88.0333 273.862 87.5176 273.998 87.0529 274.27C86.5996 274.531 86.2369 274.899 85.9649 275.375C85.7043 275.851 85.5739 276.401 85.5739 277.024C85.5739 277.648 85.7043 278.203 85.9649 278.69C86.2256 279.166 86.5883 279.54 87.0529 279.812C87.5176 280.073 88.0333 280.203 88.5999 280.203ZM99.522 281.631C98.6267 281.631 97.822 281.433 97.108 281.036C96.394 280.64 95.833 280.096 95.425 279.404C95.0284 278.702 94.83 277.908 94.83 277.024C94.83 276.14 95.0284 275.353 95.425 274.661C95.833 273.959 96.394 273.415 97.108 273.029C97.822 272.633 98.6267 272.434 99.522 272.434C100.417 272.434 101.216 272.633 101.919 273.029C102.633 273.415 103.188 273.959 103.585 274.661C103.993 275.353 104.197 276.14 104.197 277.024C104.197 277.908 103.993 278.702 103.585 279.404C103.188 280.096 102.633 280.64 101.919 281.036C101.216 281.433 100.417 281.631 99.522 281.631ZM99.522 280.203C100.1 280.203 100.616 280.073 101.069 279.812C101.534 279.54 101.896 279.166 102.157 278.69C102.418 278.203 102.548 277.648 102.548 277.024C102.548 276.401 102.418 275.851 102.157 275.375C101.896 274.888 101.534 274.514 101.069 274.253C100.616 273.993 100.1 273.862 99.522 273.862C98.944 273.862 98.4227 273.993 97.958 274.253C97.5047 274.514 97.142 274.888 96.87 275.375C96.6094 275.851 96.479 276.401 96.479 277.024C96.479 277.648 96.6094 278.203 96.87 278.69C97.142 279.166 97.5047 279.54 97.958 279.812C98.4227 280.073 98.944 280.203 99.522 280.203ZM113.184 273.947H108.186V281.529H106.554V272.519H113.184V273.947ZM119.631 272.434C120.504 272.434 121.286 272.627 121.977 273.012C122.669 273.398 123.207 273.936 123.592 274.627C123.989 275.319 124.187 276.118 124.187 277.024C124.187 277.931 123.989 278.736 123.592 279.438C123.207 280.13 122.669 280.668 121.977 281.053C121.286 281.439 120.504 281.631 119.631 281.631C118.985 281.631 118.39 281.507 117.846 281.257C117.314 281.008 116.86 280.645 116.486 280.169V284.827H114.854V272.519H116.418V273.947C116.781 273.449 117.24 273.075 117.795 272.825C118.351 272.565 118.963 272.434 119.631 272.434ZM119.495 280.203C120.073 280.203 120.589 280.073 121.042 279.812C121.507 279.54 121.87 279.166 122.13 278.69C122.402 278.203 122.538 277.648 122.538 277.024C122.538 276.401 122.402 275.851 122.13 275.375C121.87 274.888 121.507 274.514 121.042 274.253C120.589 273.993 120.073 273.862 119.495 273.862C118.929 273.862 118.413 273.998 117.948 274.27C117.495 274.531 117.132 274.899 116.86 275.375C116.6 275.851 116.469 276.401 116.469 277.024C116.469 277.648 116.6 278.203 116.86 278.69C117.121 279.166 117.484 279.54 117.948 279.812C118.413 280.073 118.929 280.203 119.495 280.203ZM129.689 272.434C130.935 272.434 131.887 272.74 132.545 273.352C133.213 273.964 133.548 274.877 133.548 276.089V281.529H132.001V280.339C131.729 280.759 131.338 281.082 130.828 281.308C130.329 281.524 129.734 281.631 129.043 281.631C128.034 281.631 127.224 281.388 126.612 280.9C126.011 280.413 125.711 279.773 125.711 278.979C125.711 278.186 126 277.551 126.578 277.075C127.156 276.588 128.074 276.344 129.332 276.344H131.916V276.021C131.916 275.319 131.712 274.78 131.304 274.406C130.896 274.032 130.295 273.845 129.502 273.845C128.969 273.845 128.448 273.936 127.938 274.117C127.428 274.287 126.997 274.52 126.646 274.814L125.966 273.59C126.43 273.216 126.986 272.933 127.632 272.74C128.278 272.536 128.963 272.434 129.689 272.434ZM129.315 280.373C129.938 280.373 130.476 280.237 130.93 279.965C131.383 279.682 131.712 279.285 131.916 278.775V277.517H129.4C128.017 277.517 127.326 277.982 127.326 278.911C127.326 279.365 127.501 279.722 127.853 279.982C128.204 280.243 128.691 280.373 129.315 280.373ZM146.873 272.519V281.529H145.394V274.95L142.028 280.509H141.314L137.982 274.933V281.529H136.486V272.519H138.169L141.705 278.605L145.343 272.519H146.873ZM160.437 272.519V281.529H158.958V274.95L155.592 280.509H154.878L151.546 274.933V281.529H150.05V272.519H151.733L155.269 278.605L158.907 272.519H160.437ZM163.613 272.519H165.245V279.081L170.77 272.519H172.249V281.529H170.617V274.967L165.109 281.529H163.613V272.519ZM180.194 272.434C181.067 272.434 181.849 272.627 182.54 273.012C183.231 273.398 183.77 273.936 184.155 274.627C184.552 275.319 184.75 276.118 184.75 277.024C184.75 277.931 184.552 278.736 184.155 279.438C183.77 280.13 183.231 280.668 182.54 281.053C181.849 281.439 181.067 281.631 180.194 281.631C179.548 281.631 178.953 281.507 178.409 281.257C177.876 281.008 177.423 280.645 177.049 280.169V284.827H175.417V272.519H176.981V273.947C177.344 273.449 177.803 273.075 178.358 272.825C178.913 272.565 179.525 272.434 180.194 272.434ZM180.058 280.203C180.636 280.203 181.152 280.073 181.605 279.812C182.07 279.54 182.432 279.166 182.693 278.69C182.965 278.203 183.101 277.648 183.101 277.024C183.101 276.401 182.965 275.851 182.693 275.375C182.432 274.888 182.07 274.514 181.605 274.253C181.152 273.993 180.636 273.862 180.058 273.862C179.491 273.862 178.976 273.998 178.511 274.27C178.058 274.531 177.695 274.899 177.423 275.375C177.162 275.851 177.032 276.401 177.032 277.024C177.032 277.648 177.162 278.203 177.423 278.69C177.684 279.166 178.046 279.54 178.511 279.812C178.976 280.073 179.491 280.203 180.058 280.203ZM190.98 281.631C190.085 281.631 189.28 281.433 188.566 281.036C187.852 280.64 187.291 280.096 186.883 279.404C186.486 278.702 186.288 277.908 186.288 277.024C186.288 276.14 186.486 275.353 186.883 274.661C187.291 273.959 187.852 273.415 188.566 273.029C189.28 272.633 190.085 272.434 190.98 272.434C191.875 272.434 192.674 272.633 193.377 273.029C194.091 273.415 194.646 273.959 195.043 274.661C195.451 275.353 195.655 276.14 195.655 277.024C195.655 277.908 195.451 278.702 195.043 279.404C194.646 280.096 194.091 280.64 193.377 281.036C192.674 281.433 191.875 281.631 190.98 281.631ZM190.98 280.203C191.558 280.203 192.074 280.073 192.527 279.812C192.992 279.54 193.354 279.166 193.615 278.69C193.876 278.203 194.006 277.648 194.006 277.024C194.006 276.401 193.876 275.851 193.615 275.375C193.354 274.888 192.992 274.514 192.527 274.253C192.074 273.993 191.558 273.862 190.98 273.862C190.402 273.862 189.881 273.993 189.416 274.253C188.963 274.514 188.6 274.888 188.328 275.375C188.067 275.851 187.937 276.401 187.937 277.024C187.937 277.648 188.067 278.203 188.328 278.69C188.6 279.166 188.963 279.54 189.416 279.812C189.881 280.073 190.402 280.203 190.98 280.203ZM204.149 276.854C205.316 277.149 205.9 277.88 205.9 279.047C205.9 279.841 205.599 280.453 204.999 280.883C204.409 281.314 203.525 281.529 202.347 281.529H198.012V272.519H202.194C203.259 272.519 204.092 272.723 204.693 273.131C205.293 273.528 205.594 274.095 205.594 274.831C205.594 275.307 205.463 275.721 205.203 276.072C204.953 276.412 204.602 276.673 204.149 276.854ZM199.61 276.395H202.058C202.681 276.395 203.151 276.282 203.469 276.055C203.797 275.829 203.962 275.5 203.962 275.069C203.962 274.208 203.327 273.777 202.058 273.777H199.61V276.395ZM202.228 280.271C202.908 280.271 203.418 280.164 203.758 279.948C204.098 279.733 204.268 279.399 204.268 278.945C204.268 278.481 204.109 278.135 203.792 277.908C203.486 277.682 202.998 277.568 202.33 277.568H199.61V280.271H202.228ZM211.667 272.434C212.914 272.434 213.866 272.74 214.523 273.352C215.192 273.964 215.526 274.877 215.526 276.089V281.529H213.979V280.339C213.707 280.759 213.316 281.082 212.806 281.308C212.307 281.524 211.712 281.631 211.021 281.631C210.012 281.631 209.202 281.388 208.59 280.9C207.989 280.413 207.689 279.773 207.689 278.979C207.689 278.186 207.978 277.551 208.556 277.075C209.134 276.588 210.052 276.344 211.31 276.344H213.894V276.021C213.894 275.319 213.69 274.78 213.282 274.406C212.874 274.032 212.273 273.845 211.48 273.845C210.947 273.845 210.426 273.936 209.916 274.117C209.406 274.287 208.975 274.52 208.624 274.814L207.944 273.59C208.409 273.216 208.964 272.933 209.61 272.74C210.256 272.536 210.942 272.434 211.667 272.434ZM211.293 280.373C211.916 280.373 212.455 280.237 212.908 279.965C213.361 279.682 213.69 279.285 213.894 278.775V277.517H211.378C209.995 277.517 209.304 277.982 209.304 278.911C209.304 279.365 209.48 279.722 209.831 279.982C210.182 280.243 210.67 280.373 211.293 280.373ZM218.465 272.519H220.097V276.344H225.231V272.519H226.863V281.529H225.231V277.755H220.097V281.529H218.465V272.519ZM230.036 272.519H231.668V279.081L237.193 272.519H238.672V281.529H237.04V274.967L231.532 281.529H230.036V272.519ZM249.813 272.434C250.685 272.434 251.467 272.633 252.159 273.029C252.85 273.415 253.394 273.959 253.791 274.661C254.187 275.353 254.386 276.14 254.386 277.024C254.386 277.908 254.187 278.702 253.791 279.404C253.394 280.096 252.85 280.64 252.159 281.036C251.467 281.433 250.685 281.631 249.813 281.631C249.019 281.631 248.3 281.467 247.654 281.138C247.008 280.81 246.475 280.351 246.056 279.761C245.648 279.161 245.393 278.481 245.291 277.721H243.472V281.529H241.84V272.519H243.472V276.208H245.308C245.421 275.46 245.682 274.803 246.09 274.236C246.509 273.658 247.036 273.216 247.671 272.91C248.317 272.593 249.031 272.434 249.813 272.434ZM249.813 280.203C250.368 280.203 250.867 280.073 251.309 279.812C251.762 279.552 252.119 279.183 252.38 278.707C252.64 278.22 252.771 277.659 252.771 277.024C252.771 276.401 252.64 275.851 252.38 275.375C252.119 274.888 251.762 274.514 251.309 274.253C250.867 273.993 250.368 273.862 249.813 273.862C249.257 273.862 248.753 273.993 248.3 274.253C247.846 274.514 247.489 274.888 247.229 275.375C246.979 275.851 246.855 276.401 246.855 277.024C246.855 277.659 246.979 278.22 247.229 278.707C247.489 279.183 247.846 279.552 248.3 279.812C248.753 280.073 249.257 280.203 249.813 280.203Z" fill="white"/>
<defs>
<clipPath id="clip0_329_20707">
<rect width="209" height="170" fill="white" transform="translate(58.5117 0.529053)"/>
</clipPath>
</defs>
</svg>
